<svg width="44" height="44" viewBox="0 0 44 44" fill="none" xmlns="http://www.w3.org/2000/svg">
<path d="M0 22C0 9.84974 9.84974 0 22 0C34.1503 0 44 9.84974 44 22C44 34.1503 34.1503 44 22 44C9.84974 44 0 34.1503 0 22Z" fill="#ECEBEA"/>
<path d="M21.536 9.15543C21.704 8.73719 22.296 8.73719 22.464 9.15542L25.5038 16.7252C25.5753 16.9033 25.7425 17.0247 25.9339 17.0377L34.0725 17.5895C34.5222 17.62 34.7052 18.1831 34.3593 18.4721L28.0994 23.7023C27.9521 23.8253 27.8883 24.0218 27.9351 24.208L29.9252 32.1188C30.0352 32.5558 29.5562 32.9038 29.1745 32.6642L22.2659 28.3269C22.1033 28.2249 21.8967 28.2249 21.7341 28.3269L14.8255 32.6642C14.4438 32.9038 13.9648 32.5558 14.0748 32.1188L16.0649 24.208C16.1117 24.0218 16.0479 23.8253 15.9006 23.7023L9.6407 18.4721C9.29484 18.1831 9.4778 17.62 9.92746 17.5895L18.0661 17.0377C18.2575 17.0247 18.4247 16.9033 18.4962 16.7252L21.536 9.15543Z" fill="white"/>
</svg>
