<svg width="20" height="20" viewBox="0 0 20 20" fill="none" xmlns="http://www.w3.org/2000/svg">
<path d="M5.33396 4.04166L7.44229 6.14083L6.14062 7.4425L4.04146 5.33416L1.94229 7.4425L0.640625 6.14083L2.74896 4.04166L0.640625 1.9425L1.94229 0.640831L4.04146 2.74916L6.14062 0.640831L7.44229 1.9425L5.33396 4.04166ZM19.359 13.8592L18.0573 12.5575L15.9581 14.6658L13.859 12.5575L12.5573 13.8592L14.6656 15.9583L12.5573 18.0575L13.859 19.3592L15.9581 17.2508L18.0573 19.3592L19.359 18.0575L17.2506 15.9583L19.359 13.8592ZM17.6998 5.26083L14.7481 9.08333L13.2998 7.91916L14.3723 6.54416C13.0043 6.82205 11.7282 7.43951 10.6614 8.33975C9.59456 9.23999 8.77127 10.3941 8.26729 11.6958C9.06515 12.2712 9.63114 13.1127 9.86316 14.0687C10.0952 15.0246 9.97795 16.0319 9.53263 16.909C9.08731 17.7861 8.34321 18.4752 7.43455 18.852C6.5259 19.2288 5.51251 19.2685 4.57718 18.9639C3.64186 18.6592 2.84618 18.0304 2.33367 17.1908C1.82115 16.3512 1.62555 15.3561 1.78215 14.3849C1.93874 13.4138 2.43722 12.5306 3.18767 11.8946C3.93812 11.2587 4.89113 10.9118 5.87479 10.9167C6.11495 10.9176 6.35443 10.9422 6.58979 10.99C7.22487 9.41391 8.23892 8.01881 9.54208 6.92831C10.8452 5.83782 12.3973 5.08561 14.0606 4.73833L12.7498 3.74833L13.914 2.3L17.6998 5.26083ZM8.16646 15.0417C8.16646 14.5884 8.03205 14.1453 7.78024 13.7685C7.52843 13.3916 7.17052 13.0979 6.75177 12.9244C6.33303 12.751 5.87225 12.7056 5.42771 12.794C4.98317 12.8825 4.57483 13.1007 4.25434 13.4212C3.93384 13.7417 3.71558 14.15 3.62716 14.5946C3.53873 15.0391 3.58412 15.4999 3.75757 15.9186C3.93102 16.3374 4.22475 16.6953 4.60161 16.9471C4.97847 17.1989 5.42154 17.3333 5.87479 17.3333C6.48258 17.3333 7.06547 17.0919 7.49524 16.6621C7.92502 16.2323 8.16646 15.6495 8.16646 15.0417Z" fill="#1F2C41"/>
</svg>
