<svg width="12" height="12" viewBox="0 0 12 12" fill="none" xmlns="http://www.w3.org/2000/svg">
<path d="M11.9977 6.00211C11.9977 6.27244 11.8964 6.52587 11.6936 6.69483L6.69255 11.6959C6.30396 12.0845 5.67883 12.0845 5.29023 11.6959C4.90164 11.3073 4.90164 10.6822 5.29023 10.2936L8.60174 6.99895L0.998785 6.99894C0.45813 6.99894 0.00195285 6.55966 0.00195288 6.00211L0.00195288 5.98522C0.0019529 5.44456 0.441235 4.98839 0.998785 4.98839L8.60174 4.98839L5.30713 1.69377C4.91853 1.30517 4.91853 0.680042 5.30713 0.291447C5.69572 -0.0971486 6.32086 -0.0971486 6.70945 0.291447L11.7105 5.2925C11.8964 5.47835 12.0146 5.73179 11.9977 6.00211Z" fill="#01A3A4"/>
</svg>
