<svg width="40" height="40" viewBox="0 0 40 40" fill="none" xmlns="http://www.w3.org/2000/svg">
<path d="M27.2373 18.7168C24.92 18.7168 24.5991 21.0341 24.5991 21.0341H29.5546C29.5189 21.0341 29.5546 18.7168 27.2373 18.7168Z" fill="#C2C4C6"/>
<path d="M16.0071 21.0342H11.6221V25.0627H15.7932C16.3993 25.0627 17.6114 24.8488 17.6114 23.1019C17.6114 21.0342 16.0071 21.0342 16.0071 21.0342Z" fill="#C2C4C6"/>
<path d="M17.0766 16.9339C17.0766 15.3652 16.0071 15.3652 16.0071 15.3652H11.6221V18.7164H15.7219C16.4349 18.7164 17.0766 18.5025 17.0766 16.9339Z" fill="#C2C4C6"/>
<path d="M20 0C8.94831 0 0 8.94831 0 20C0 31.0517 8.94831 40 20 40C31.0517 40 40 31.0517 40 20C40 8.94831 31.0517 0 20 0ZM23.9216 13.5829H30.1248V15.4367H23.9216V13.5829ZM20.7843 23.3155C20.7843 27.9144 16.0071 27.7718 16.0071 27.7718H8.16399V12.6916H16.0071C18.3957 12.6916 20.2496 14.0107 20.2496 16.6845C20.2496 19.3939 17.9679 19.5365 17.9679 19.5365C20.9982 19.5722 20.7843 23.3155 20.7843 23.3155ZM32.4064 23.066H24.5989C24.5989 25.8467 27.2371 25.6685 27.2371 25.6685C29.7326 25.6685 29.6613 24.0642 29.6613 24.0642H32.2995C32.2995 28.3779 27.1301 28.057 27.1301 28.057C20.9982 28.057 21.3904 22.3173 21.3904 22.3173C21.3904 22.2816 21.3904 16.5419 27.1658 16.5419C33.262 16.5062 32.4064 23.066 32.4064 23.066Z" fill="#C2C4C6"/>
</svg>
