<svg width="395" height="284" viewBox="0 0 395 284" fill="none" xmlns="http://www.w3.org/2000/svg">
<path d="M162.5 280.773C229.958 280.773 284.643 226.068 284.643 158.586C284.643 91.1036 229.958 36.3984 162.5 36.3984C95.0426 36.3984 40.3574 91.1036 40.3574 158.586C40.3574 226.068 95.0426 280.773 162.5 280.773Z" fill="#F2F2F2"/>
<path d="M326.684 68.6141L313.941 83.7277C313.254 90.2373 312.279 97.5114 310.896 105.142L331.832 83.4751L331.93 83.8535C330.739 78.0309 328.937 72.7483 326.567 68.2559L326.684 68.6141Z" fill="#01A3A4"/>
<path d="M314.059 82.5844L326.402 67.9445C323.708 62.9343 320.296 58.932 316.219 56.3056C316.007 56.1689 315.794 56.0401 315.58 55.9121C315.583 57.6918 315.531 68.1374 314.059 82.5844Z" fill="#01A3A4"/>
<path d="M329.871 129.438L329.897 129.876C330.612 127.19 331.222 124.5 331.729 121.807L301.368 141.416L301.348 141.217C300.774 142.781 300.183 144.316 299.577 145.822L329.871 129.438Z" fill="#01A3A4"/>
<path d="M333.488 105.612L333.55 106.027C333.897 98.7359 333.38 91.4292 332.009 84.2598L310.674 106.34C309.346 113.486 307.783 120.288 305.983 126.744L333.488 105.612Z" fill="#01A3A4"/>
<path d="M279.659 68.668C276.504 72.7999 273.775 77.2401 271.513 81.9209L306.677 122.076C308.124 116.444 309.292 110.982 310.231 105.889L279.473 69.0657L279.659 68.668Z" fill="#01A3A4"/>
<path d="M269.028 87.4352L269.207 87.0325L305.318 127.112C305.706 125.739 306.078 124.374 306.433 123.017L271.139 82.7136L271.321 82.3125C270.522 83.9615 269.758 85.669 269.028 87.4352Z" fill="#01A3A4"/>
<path d="M331.782 120.861L331.825 121.289C332.724 116.405 333.294 111.466 333.529 106.506L305.652 127.925C304.428 132.223 303.102 136.351 301.674 140.307L331.782 120.861Z" fill="#01A3A4"/>
<path d="M291.544 162.521C286.819 170.746 281.466 177.7 275.537 183.299C282.095 180.653 308.515 168.996 322.208 147.975L291.544 162.521Z" fill="#01A3A4"/>
<path d="M263.535 107.836C263.011 112.578 262.806 117.35 262.92 122.119L263.14 121.691L291.461 161.435C294.062 156.808 296.383 152.028 298.411 147.122L263.535 107.836Z" fill="#01A3A4"/>
<path d="M313.538 82.5396C315.127 66.9085 315.042 56.0166 315.04 55.8603L315.31 55.7507C308.934 52.0532 301.888 52.182 295.025 55.4682L313.538 82.5396Z" fill="#01A3A4"/>
<path d="M299.101 146.986C298.909 147.451 298.719 147.92 298.525 148.38C296.667 152.793 294.57 157.101 292.244 161.286L322.617 146.878L322.633 147.308C325.012 143.587 326.911 139.579 328.284 135.381C328.816 133.729 329.306 132.07 329.756 130.406L299.101 146.986Z" fill="#01A3A4"/>
<path d="M310.415 104.872C311.776 97.3262 312.738 90.1375 313.416 83.7036L294.479 56.0109L294.679 55.6328C289.522 58.1841 284.478 62.5183 279.908 68.3481L310.415 104.872Z" fill="#01A3A4"/>
<path d="M291.045 162.168L262.932 122.715C263.609 151.314 273.37 181.835 274 183.776C280.751 177.728 286.37 170.292 291.045 162.168Z" fill="#01A3A4"/>
<path d="M298.738 146.277L298.767 146.261C301.189 140.3 303.288 134.214 305.056 128.027L268.856 87.8496C267.878 90.2468 266.97 92.744 266.131 95.3413C264.962 99.0665 264.136 102.891 263.662 106.766L298.738 146.277Z" fill="#01A3A4"/>
<path d="M355.33 186.03L335.88 189.54C331.2 194.115 325.811 199.095 319.881 204.091L349.82 200.761L349.654 201.115C352.449 195.87 354.429 190.652 355.468 185.68L355.33 186.03Z" fill="#01A3A4"/>
<path d="M336.699 188.736L355.54 185.336C356.66 179.759 356.584 174.499 355.118 169.875C355.042 169.634 354.96 169.399 354.877 169.164C353.744 170.537 347.044 178.549 336.699 188.736Z" fill="#01A3A4"/>
<path d="M319.004 234.91L318.745 235.265C321.008 233.651 323.193 231.969 325.3 230.218L289.414 225.95L289.526 225.783C288.086 226.622 286.653 227.427 285.226 228.2L319.004 234.91Z" fill="#01A3A4"/>
<path d="M336.982 218.867L336.765 219.227C341.681 213.833 345.941 207.875 349.457 201.479L318.947 204.872C313.367 209.528 307.827 213.769 302.324 217.594L336.982 218.867Z" fill="#01A3A4"/>
<path d="M319.077 156.068C314.013 157.238 309.08 158.916 304.354 161.078L305.834 214.441C310.54 211.027 314.921 207.566 318.892 204.242L318.681 156.257L319.077 156.068Z" fill="#01A3A4"/>
<path d="M298.924 163.739L299.318 163.543L301.576 217.451C302.751 216.642 303.907 215.828 305.046 215.009L303.56 161.449L303.955 161.256C302.289 162.016 300.612 162.844 298.924 163.739Z" fill="#01A3A4"/>
<path d="M325.946 229.522L325.706 229.88C329.512 226.693 333.1 223.252 336.444 219.581L301.317 218.291C297.634 220.821 293.981 223.154 290.358 225.29L325.946 229.522Z" fill="#01A3A4"/>
<path d="M268.392 235.936C259.509 239.256 250.953 241.196 242.816 241.726C249.554 243.872 277.335 251.752 301.284 244.298L268.392 235.936Z" fill="#01A3A4"/>
<path d="M281.687 175.947C278.26 179.265 275.06 182.81 272.107 186.556L272.549 186.367L269.021 235.048C273.975 233.143 278.81 230.942 283.5 228.458L281.687 175.947Z" fill="#01A3A4"/>
<path d="M336.326 188.369C347.516 177.344 354.395 168.901 354.493 168.779L354.771 168.867C352.218 161.951 346.709 157.555 339.328 155.707L336.326 188.369Z" fill="#01A3A4"/>
<path d="M284.117 228.793C283.673 229.029 283.228 229.269 282.785 229.499C278.54 231.712 274.178 233.693 269.719 235.432L302.298 243.714L302.036 244.056C306.241 242.708 310.259 240.833 313.993 238.475C315.456 237.542 316.891 236.578 318.298 235.583L284.117 228.793Z" fill="#01A3A4"/>
<path d="M319.682 203.578C325.541 198.635 330.865 193.711 335.49 189.189L338.561 155.778L338.956 155.614C333.357 154.289 326.709 154.408 319.473 155.983L319.682 203.578Z" fill="#01A3A4"/>
<path d="M268.233 235.346L271.735 187.021C254.023 209.48 242.081 239.216 241.328 241.112C250.384 240.762 259.453 238.62 268.233 235.346Z" fill="#01A3A4"/>
<path d="M284.291 228.015L284.323 228.022C289.989 224.976 295.486 221.628 300.792 217.991L298.528 163.949C296.246 165.171 293.954 166.515 291.652 167.98C288.377 170.104 285.303 172.522 282.467 175.204L284.291 228.015Z" fill="#01A3A4"/>
<path d="M254.31 120.969L246.861 139.282C248.219 145.686 249.539 152.905 250.582 160.59L263.798 133.51L264.008 133.84C261.076 128.67 257.73 124.204 254.088 120.664L254.31 120.969Z" fill="#01A3A4"/>
<path d="M246.622 138.159L253.837 120.419C249.727 116.487 245.246 113.736 240.557 112.499C240.313 112.434 240.07 112.378 239.827 112.322C240.38 114.014 243.558 123.964 246.622 138.159Z" fill="#01A3A4"/>
<path d="M276.137 177.83L276.297 178.239C276.146 175.463 275.896 172.716 275.546 169.998L252.731 198.035L252.65 197.852C252.587 199.517 252.5 201.159 252.389 202.779L276.137 177.83Z" fill="#01A3A4"/>
<path d="M272.214 154.05L272.401 154.426C270.479 147.385 267.729 140.596 264.21 134.201L250.742 161.797C251.687 169.004 252.302 175.956 252.586 182.653L272.214 154.05Z" fill="#01A3A4"/>
<path d="M209.605 135.561C207.882 140.466 206.658 145.532 205.953 150.683L251.802 177.999C251.439 172.195 250.862 166.64 250.181 161.506L209.552 135.996L209.605 135.561Z" fill="#01A3A4"/>
<path d="M205.295 156.696L205.341 156.258L252.067 183.208C252.012 181.783 251.944 180.37 251.862 178.969L205.844 151.553L205.892 151.115C205.642 152.93 205.443 154.79 205.295 156.696Z" fill="#01A3A4"/>
<path d="M275.303 169.081L275.477 169.475C274.823 164.552 273.839 159.679 272.529 154.889L252.636 183.878C252.8 188.345 252.814 192.68 252.678 196.884L275.303 169.081Z" fill="#01A3A4"/>
<path d="M249.908 221.142C247.956 230.425 245.014 238.693 241.105 245.852C246.525 241.308 268.049 222.052 274.576 197.826L249.908 221.142Z" fill="#01A3A4"/>
<path d="M206.374 177.797C207.341 182.468 208.62 187.07 210.203 191.571L210.28 191.096L249.494 220.136C250.538 214.931 251.268 209.668 251.682 204.375L206.374 177.797Z" fill="#01A3A4"/>
<path d="M246.112 138.279C242.793 122.922 239.347 112.59 239.297 112.442L239.52 112.254C232.314 110.709 225.653 113.01 220.142 118.258L246.112 138.279Z" fill="#01A3A4"/>
<path d="M252.295 204.032C252.256 204.534 252.22 205.038 252.178 205.535C251.774 210.307 251.112 215.052 250.192 219.752L274.626 196.657L274.774 197.062C275.887 192.787 276.455 188.389 276.463 183.971C276.459 182.235 276.413 180.507 276.326 178.785L252.295 204.032Z" fill="#01A3A4"/>
<path d="M250.044 160.483C249.007 152.886 247.7 145.753 246.357 139.424L219.791 118.943L219.864 118.521C215.748 122.542 212.29 128.224 209.745 135.181L250.044 160.483Z" fill="#01A3A4"/>
<path d="M249.325 220.961L210.397 192.133C219.878 219.122 238.592 245.13 239.791 246.782C244.343 238.942 247.389 230.132 249.325 220.961Z" fill="#01A3A4"/>
<path d="M251.73 203.469L251.753 203.445C252.215 197.027 252.33 190.59 252.1 184.16L205.259 157.143C205.069 159.725 204.977 162.381 204.982 165.11C205.021 169.014 205.417 172.907 206.164 176.739L251.73 203.469Z" fill="#01A3A4"/>
<path d="M197.5 283.988C306.576 283.988 395 278.87 395 272.556C395 266.242 306.576 261.123 197.5 261.123C88.4238 261.123 0 266.242 0 272.556C0 278.87 88.4238 283.988 197.5 283.988Z" fill="#3F3D56"/>
<path opacity="0.2" d="M266.072 257.99C266.072 280.211 235.11 273.338 197.202 273.338C159.293 273.338 128.792 280.211 128.792 257.99C128.792 235.77 159.749 230.938 197.658 230.938C235.566 230.938 266.072 235.77 266.072 257.99Z" fill="black"/>
<path d="M266.072 252.52C266.072 274.74 235.11 267.867 197.202 267.867C159.293 267.867 128.792 274.74 128.792 252.52C128.792 230.3 159.749 225.467 197.658 225.467C235.566 225.467 266.072 230.3 266.072 252.52Z" fill="#3F3D56"/>
<path d="M273.562 159.902C273.562 159.902 273.562 197.198 275.555 205.454C277.547 213.71 284.662 243.604 284.662 243.604L294.338 241.611C294.338 241.611 292.63 202.038 290.923 196.344C289.215 190.65 292.915 167.305 297.753 162.18C302.591 157.056 295.476 153.924 295.476 153.924L273.562 159.902Z" fill="#2F2E41"/>
<path opacity="0.1" d="M273.562 159.902C273.562 159.902 273.562 197.198 275.555 205.454C277.547 213.71 284.662 243.604 284.662 243.604L294.338 241.611C294.338 241.611 292.63 202.038 290.923 196.344C289.215 190.65 292.915 167.305 297.753 162.18C302.591 157.056 295.476 153.924 295.476 153.924L273.562 159.902Z" fill="black"/>
<path d="M296.899 236.486C296.899 236.486 284.092 241.611 283.238 241.611C282.384 241.611 281.815 256.415 281.815 256.415C281.815 256.415 282.669 265.241 268.724 268.088C254.779 270.935 279.823 277.198 284.377 274.067C288.93 270.935 290.922 268.657 290.922 268.657L292.63 265.81L292.061 270.65L294.053 270.935L298.606 261.824C298.606 261.824 299.745 254.992 298.322 253.284C296.899 251.575 296.899 236.486 296.899 236.486Z" fill="#2F2E41"/>
<path d="M232.58 182.963L234.572 194.066L243.964 193.212L242.257 185.24L232.58 182.963Z" fill="#A0616A"/>
<path d="M278.685 135.988L276.977 138.835C276.977 138.835 227.742 132.002 227.742 150.223C227.742 168.444 225.465 179.262 224.896 180.116C224.327 180.97 239.695 190.081 243.11 189.511C243.11 189.511 245.387 186.38 245.102 182.394C244.818 178.408 247.379 163.604 245.102 162.75C245.102 162.75 247.948 161.611 247.664 159.903C247.664 159.903 287.792 165.597 292.914 164.458C298.037 163.319 301.452 159.618 302.306 157.34C303.16 155.063 304.988 146.178 304.988 146.178L304.583 131.148L300.029 125.739L293.199 124.885L282.669 131.433L278.685 135.988Z" fill="#2F2E41"/>
<path d="M309.137 163.035C309.137 163.035 305.153 172.145 309.706 172.145C314.26 172.145 315.967 164.174 315.967 164.174L309.137 163.035Z" fill="#A0616A"/>
<path d="M278.685 89.2983L277.262 87.5901C277.262 87.5901 261.324 51.7181 267.585 42.0384C273.847 32.3587 301.168 30.9352 302.021 31.5045C302.875 32.0739 305.437 34.0668 305.152 34.6362C304.867 35.2056 299.175 36.6291 301.168 40.0455C301.168 40.0455 298.322 40.8996 297.752 39.7608C297.183 38.622 295.476 38.3373 294.907 39.4761C294.337 40.6149 285.23 43.1772 285.23 44.0313C285.23 44.8854 283.807 49.1558 282.384 49.7252C280.961 50.2946 282.669 58.8356 285.515 61.1132C288.361 63.3908 290.353 69.6541 290.353 69.6541L288.93 82.4656L278.685 89.2983Z" fill="#D0CDE1"/>
<path d="M286.83 41.3905C285.127 42.2575 283.434 43.3647 282.408 45.1094C280.307 48.6801 281.649 53.565 280.347 57.5813C279.792 59.2939 278.781 60.7657 277.946 62.3311C277.112 63.8966 276.431 65.6863 276.65 67.4909C276.864 69.2612 277.905 70.7626 278.397 72.4627C279.243 75.3884 278.395 78.5604 277.44 81.444C276.917 83.023 276.36 84.5875 275.77 86.1377C275.428 87.037 275.018 88.0006 274.232 88.4338L280.967 88.9866C282.925 89.1473 285.088 89.2419 286.627 87.8829C287.252 87.285 287.753 86.5687 288.1 85.7755C289.62 82.5995 289.866 78.8545 289.691 75.2598C289.517 71.6651 288.955 68.0931 288.985 64.4933C288.953 63.3114 289.113 62.1321 289.457 61.0012C289.817 60.1178 290.239 59.2616 290.723 58.4395C292.258 55.4785 292.892 52.0604 293.504 48.709C293.923 46.4108 294.593 43.0818 293.392 40.9225C292.195 38.7697 288.449 40.566 286.83 41.3905Z" fill="#2F2E41"/>
<path d="M293.484 66.521C299.928 66.521 305.152 61.295 305.152 54.8484C305.152 48.4018 299.928 43.1758 293.484 43.1758C287.04 43.1758 281.815 48.4018 281.815 54.8484C281.815 61.295 287.04 66.521 293.484 66.521Z" fill="#A0616A"/>
<path d="M288.93 64.8133C288.93 64.8133 290.78 72.0731 289.641 75.7742C288.503 79.4753 305.152 70.792 305.152 70.792C305.152 70.792 300.029 63.9592 300.029 61.6816L288.93 64.8133Z" fill="#A0616A"/>
<path d="M310.274 75.9175C310.274 75.9175 306.575 73.0705 306.575 71.647C306.575 70.2235 304.013 67.0918 304.013 67.0918C304.013 67.0918 291.776 73.3552 291.207 73.3552C290.637 73.3552 290.353 69.6541 290.353 69.6541L277.261 87.5901C277.261 87.5901 272.992 97.8392 274.415 105.811C275.838 113.782 278.115 122.039 276.977 129.441C275.838 136.843 277.261 139.405 278.969 138.551C280.676 137.697 278.969 134.85 282.669 135.135C286.368 135.419 298.891 131.434 299.744 129.725C300.598 128.017 304.013 133.427 304.298 136.558C304.582 139.69 303.729 148.231 304.298 147.946C304.867 147.661 305.721 142.822 306.005 140.544C306.29 138.266 307.144 130.864 306.005 129.725C304.867 128.587 305.721 126.878 306.575 126.309C307.428 125.74 321.374 90.4371 321.374 90.4371C321.374 90.4371 319.951 83.0349 315.112 80.4726C310.274 77.9103 310.274 75.9175 310.274 75.9175Z" fill="#D0CDE1"/>
<path d="M316.821 85.5977L321.375 90.4375V116.06C321.375 116.06 327.351 146.808 323.651 148.516C319.952 150.224 318.244 149.655 318.244 149.655C318.244 149.655 319.098 165.313 316.536 165.313C313.975 165.313 309.991 164.174 307.714 164.744C307.714 164.744 308.283 159.05 309.991 156.487C311.698 153.925 311.698 149.37 311.698 149.37C311.698 149.37 309.137 149.37 309.137 145.669C309.137 141.968 308.852 139.69 308.568 138.836C308.283 137.982 306.291 122.893 306.291 122.893L316.821 85.5977Z" fill="#D0CDE1"/>
<path d="M290.993 40.8017C292.963 39.5493 295.575 40.4973 297.863 40.0357C300.35 39.5339 302.423 37.364 304.957 37.4875C307.065 37.5902 308.729 39.2531 310.094 40.8632C311.37 42.2891 312.469 43.8636 313.368 45.5526C314.303 47.4297 314.812 49.485 315.313 51.5212L316.996 58.3515C317.567 60.6669 318.144 63.0017 319.18 65.1493C320.217 67.2969 321.76 69.2714 323.855 70.4088C321.292 71.1826 318.559 71.1914 315.992 70.4342C316.978 73.0101 318.608 75.2901 320.726 77.0564C318.828 77.6357 316.782 77.0518 314.802 77.1776C313.381 77.2837 312.01 77.7493 310.819 78.5307C309.627 79.3121 308.653 80.3836 307.989 81.6446C306.955 83.6624 306.796 86.0007 306.178 88.1824C304.334 94.6949 297.916 99.6196 291.151 99.713C293.048 96.9778 295.039 93.8028 294.304 90.556C293.86 88.5935 292.461 86.9459 292.046 84.9771C291.602 82.8727 292.336 80.7261 292.834 78.6339C293.332 76.5418 293.539 74.1398 292.242 72.4241C290.868 70.6051 288.109 70.0043 287.223 67.9035C286.953 67.1248 286.834 66.3014 286.874 65.478L286.817 61.7341C286.767 60.9492 286.833 60.1612 287.015 59.396C287.306 58.3929 287.978 57.5523 288.618 56.7271C289.835 55.1592 291.019 53.4916 291.49 51.5636C292.063 49.2225 291.174 47.7701 290.034 45.875C289.048 44.2359 289.282 41.8894 290.993 40.8017Z" fill="#2F2E41"/>
<path d="M303.445 33.4961C303.445 33.4961 316.536 44.884 313.121 48.8698C309.706 52.8556 304.298 41.4677 304.298 41.4677L298.606 37.1972L303.445 33.4961Z" fill="#A0616A"/>
<path d="M248.802 186.381C248.802 186.381 233.719 190.082 232.011 193.214C232.011 193.214 230.019 202.893 230.019 206.879C230.019 210.865 229.165 218.267 221.197 219.691C213.228 221.114 207.536 223.676 218.351 225.669C229.165 227.662 232.296 228.232 235.426 223.961C238.557 219.691 240.265 218.552 240.265 218.552L242.541 224.246H243.964L249.372 212.573C249.372 212.573 249.941 206.879 248.518 203.463C247.095 200.046 248.802 186.381 248.802 186.381Z" fill="#2F2E41"/>
<path d="M305.01 34.4939C305.01 34.4939 304.575 39.0491 298.389 39.9032L297.041 35.6327L301.31 31.9316L305.01 34.4939Z" fill="#D0CDE1"/>
<path d="M153.038 209.564C170.001 209.564 183.752 195.808 183.752 178.839C183.752 161.87 170.001 148.113 153.038 148.113C136.074 148.113 122.323 161.87 122.323 178.839C122.323 195.808 136.074 209.564 153.038 209.564Z" fill="#008081"/>
<path d="M137.416 133.207H137.416C131.737 135.113 125.552 134.833 120.069 132.422C114.585 130.011 110.197 125.642 107.76 120.168L74.4675 45.3719C72.6402 41.2665 71.6906 36.8243 71.6798 32.3303C71.6689 27.8363 72.5971 23.3896 74.4046 19.2755C76.2122 15.1613 78.8592 11.4704 82.1761 8.43944C85.493 5.40852 89.4064 3.10447 93.6655 1.67504L93.6655 1.67501C97.9461 0.238372 102.481 -0.282851 106.975 0.145101C111.47 0.573053 115.825 1.94064 119.758 4.15929C123.69 6.37794 127.113 9.39818 129.805 13.0244C132.497 16.6507 134.397 20.8021 135.383 25.2097L153.255 105.11C154.556 110.924 153.657 117.013 150.731 122.202C147.806 127.391 143.062 131.312 137.416 133.207Z" fill="#008081"/>
<path d="M151.902 200.104C165.511 200.104 176.544 189.067 176.544 175.453C176.544 161.838 165.511 150.801 151.902 150.801C138.292 150.801 127.259 161.838 127.259 175.453C127.259 189.067 138.292 200.104 151.902 200.104Z" fill="#01A3A4"/>
<path d="M134.489 124.393H134.489C129.278 126.142 123.603 125.885 118.572 123.673C113.541 121.461 109.514 117.452 107.278 112.429L76.7317 43.8017C75.0551 40.0349 74.1839 35.9591 74.1739 31.8358C74.164 27.7124 75.0155 23.6325 76.674 19.8576C78.3325 16.0827 80.7612 12.6962 83.8046 9.91529C86.8479 7.13433 90.4385 5.0203 94.3463 3.70876L94.3464 3.70874C98.2739 2.39059 102.434 1.91235 106.558 2.30501C110.682 2.69767 114.678 3.95246 118.286 5.98813C121.895 8.0238 125.036 10.7949 127.505 14.1221C129.975 17.4493 131.719 21.2583 132.623 25.3025L149.022 98.613C150.215 103.947 149.39 109.534 146.706 114.296C144.022 119.057 139.669 122.654 134.489 124.393Z" fill="#01A3A4"/>
</svg>
