<svg width="18" height="18" viewBox="0 0 18 18" fill="none" xmlns="http://www.w3.org/2000/svg">
<path d="M6.25119 9.39074L5.50058 11.8158C5.45528 12.0394 5.65588 12.2378 5.88883 12.1937L8.3801 11.463C8.53864 11.4315 8.68423 11.356 8.80071 11.2457L16.7599 3.49825C17.0802 3.18646 17.0802 2.67941 16.7599 2.36762L15.5951 1.23384C15.2748 0.922053 14.7539 0.922053 14.4336 1.23384L6.47444 8.98132C6.3612 9.0947 6.28031 9.23642 6.25119 9.39074Z" fill="#01A3A4" stroke="#01A3A4" stroke-width="0.2"/>
<path d="M16.151 15.4004H1.77066C0.742954 15.4004 0.743181 17.0003 1.7703 17.0003H16.151C17.1782 17.0003 17.1782 15.4004 16.151 15.4004Z" fill="#01A3A4" stroke="#01A3A4" stroke-width="0.2"/>
</svg>
