<svg width="18" height="18" viewBox="0 0 18 18" fill="none" xmlns="http://www.w3.org/2000/svg">
<path d="M16.4243 1.57574C16.1899 1.34142 15.8101 1.34142 15.5757 1.57574L1.57574 15.5757C1.34142 15.8101 1.34142 16.1899 1.57574 16.4243C1.81005 16.6586 2.18995 16.6586 2.42426 16.4243L16.4243 2.42426C16.6586 2.18995 16.6586 1.81005 16.4243 1.57574Z" stroke="#C2C4C6" stroke-width="1.2" stroke-linecap="round" stroke-linejoin="round"/>
<path d="M16.4243 16.4243C16.6586 16.1899 16.6586 15.8101 16.4243 15.5757L2.42426 1.57574C2.18995 1.34142 1.81005 1.34142 1.57574 1.57574C1.34142 1.81005 1.34142 2.18995 1.57574 2.42426L15.5757 16.4243C15.81 16.6586 16.1899 16.6586 16.4243 16.4243Z" stroke="#C2C4C6" stroke-width="1.2" stroke-linecap="round" stroke-linejoin="round"/>
</svg>
