<svg width="40" height="40" viewBox="0 0 40 40" fill="none" xmlns="http://www.w3.org/2000/svg">
<path d="M16.5022 22.3174C17.225 21.8263 17.9146 21.396 18.5602 21.0429C19.2057 20.6843 19.7298 20.436 20.127 20.287L20.7119 20.0829C20.756 20.0719 20.8222 20.0553 20.916 20.0277C21.0098 20.0001 21.076 19.9781 21.1202 19.956C20.8995 19.4429 20.6236 18.8581 20.287 18.207C17.0208 19.1836 13.4898 19.6746 9.68843 19.6746C9.67739 19.7463 9.67188 19.8567 9.67188 20.0057C9.67188 21.3077 9.9036 22.5491 10.367 23.7298C10.8305 24.9105 11.4815 25.9698 12.3202 26.9022C12.8443 25.9698 13.4953 25.0925 14.2677 24.2815C15.0291 23.465 15.7795 22.8084 16.5022 22.3174Z" fill="#C2C4C6"/>
<path d="M21.7928 21.6709L21.7597 21.6875C21.5942 21.7481 21.368 21.8364 21.0811 21.9468C20.7997 22.0571 20.2645 22.3164 19.4921 22.7192C18.7142 23.1219 17.9969 23.5523 17.3349 24.0102C16.6728 24.4681 15.9831 25.0695 15.2714 25.8143C14.5597 26.5592 14.019 27.3371 13.6493 28.1481L13.4121 27.9771C15.3431 29.5495 17.539 30.3385 19.9942 30.3385C21.379 30.3385 22.7252 30.0681 24.0273 29.5164C23.5859 26.984 22.8521 24.3688 21.8204 21.6709H21.7928Z" fill="#C2C4C6"/>
<path d="M15.5919 10.6592C14.1409 11.3433 12.916 12.3199 11.9064 13.5888C10.8967 14.8578 10.2236 16.2868 9.89258 17.8757C13.065 17.8757 16.2484 17.4564 19.4374 16.6178C18.174 14.3778 16.894 12.3916 15.5919 10.6592Z" fill="#C2C4C6"/>
<path d="M20 0C8.95448 0 0 8.95448 0 20C0 31.0455 8.95448 40 20 40C31.0455 40 40 31.0455 40 20C40 8.95448 31.0455 0 20 0ZM30.4772 26.0745C29.3959 27.9283 27.9283 29.3959 26.0745 30.4772C24.2207 31.5586 22.1959 32.0993 20 32.0993C17.8041 32.0993 15.7793 31.5586 13.9255 30.4772C12.0717 29.3959 10.6041 27.9283 9.52276 26.0745C8.44138 24.2207 7.90069 22.1959 7.90069 20C7.90069 17.8041 8.44138 15.7793 9.52276 13.9255C10.6041 12.0717 12.0717 10.6041 13.9255 9.52276C15.7793 8.44138 17.8041 7.90069 20 7.90069C22.1959 7.90069 24.2207 8.44138 26.0745 9.52276C27.9283 10.6041 29.3959 12.0717 30.4772 13.9255C31.5586 15.7793 32.0993 17.8041 32.0993 20C32.0993 22.1959 31.5586 24.2207 30.4772 26.0745Z" fill="#C2C4C6"/>
<path d="M23.7627 21.1804C24.6786 23.6908 25.3461 26.1515 25.7765 28.568C26.9406 27.779 27.9117 26.7859 28.6896 25.5832C29.4675 24.3804 29.9696 23.0673 30.2013 21.6384C27.9999 21.0094 25.8537 20.8549 23.7627 21.1804Z" fill="#C2C4C6"/>
<path d="M23.4815 15.0294C24.1215 14.6653 24.6291 14.3453 25.0043 14.0584C25.3795 13.777 25.7215 13.4735 26.036 13.1591C26.3505 12.8446 26.5491 12.6294 26.6264 12.5191L26.825 12.2432C24.8829 10.5218 22.6098 9.66113 20.0057 9.66113C19.2057 9.66113 18.3946 9.76044 17.5615 9.95906C18.9353 11.7467 20.2264 13.7494 21.4346 15.9784C22.1574 15.708 22.8415 15.3935 23.4815 15.0294Z" fill="#C2C4C6"/>
<path d="M27.9726 13.4453C27.8788 13.5722 27.7795 13.6991 27.6747 13.8315C27.5698 13.9639 27.3436 14.1956 26.9905 14.5322C26.6374 14.8687 26.2678 15.1832 25.8705 15.4866C25.4788 15.7846 24.9492 16.1266 24.2981 16.5129C23.6416 16.8935 22.9519 17.2356 22.2236 17.528C22.4885 18.0853 22.7202 18.5818 22.9188 19.0232C22.9409 19.0839 22.974 19.1777 23.0181 19.2991C23.0678 19.4204 23.1064 19.5087 23.134 19.5584C23.5147 19.5087 23.9009 19.4701 24.3092 19.448C24.7119 19.426 25.0981 19.4149 25.4678 19.4149C25.8374 19.4149 26.196 19.4204 26.5547 19.437C26.9133 19.4535 27.2498 19.4756 27.5643 19.4977C27.8788 19.5253 28.1767 19.5529 28.4526 19.586C28.7285 19.6191 28.9823 19.6522 29.2085 19.6908C29.4347 19.7294 29.6278 19.757 29.7823 19.7846C29.9423 19.8122 30.0692 19.8342 30.174 19.8563L30.334 19.8894C30.3009 17.4508 29.5174 15.2991 27.9891 13.4287L27.9726 13.4453Z" fill="#C2C4C6"/>
</svg>
