<svg width="132" height="109" viewBox="0 0 132 109" fill="none" xmlns="http://www.w3.org/2000/svg">
<path d="M122.073 24.7514H107.321L105.804 10.0696C105.772 9.76562 105.726 9.46408 105.667 9.16476L104.692 0L94.9132 1.13975C94.867 1.1439 94.8206 1.14584 94.7745 1.15054L10.6148 10.003L0 11.0761L1.55106 24.7633L7.91487 85.125C7.94156 85.3709 7.97964 85.613 8.02356 85.8528L9.11014 95.3263L24.9485 93.4258L26.9413 93.2205V93.7077H26.8034V109H36.8681H40.4511H122.073C122.13 109 122.187 108.997 122.244 108.996L122.243 109H132V99.1207V93.7077V39.9062V34.6304V24.7514H122.073ZM113.249 47.6659C113.249 51.9195 109.803 55.3498 105.529 55.3498C101.254 55.3498 97.8077 51.9195 97.8077 47.6659C97.8077 43.4123 101.254 39.982 105.529 39.982C109.803 39.982 113.249 43.4123 113.249 47.6659ZM26.8034 84.8506L17.9796 85.9483C17.0145 85.9483 15.9115 85.2622 15.9115 84.3017L10.0844 28.9137L10.2042 28.9001L9.15739 19.6629C9.26775 18.8598 9.98769 18.1447 10.8102 18.028L95.6017 9.10915H95.7396C96.2911 9.10915 96.7047 9.38358 96.9804 9.52079C97.2562 9.658 97.6698 10.0696 97.6698 10.7557L99.1864 24.6142H36.7302H26.8034V34.4935V39.9065V84.8506ZM36.7302 100.904C35.7651 100.904 34.8 100.081 34.8 98.9835V71.4037L51.0689 55.2126C52.8613 53.4289 55.7566 53.4289 57.5489 55.2126L90.2247 87.732C91.0519 88.5553 92.017 88.9669 93.12 88.9669C94.223 88.9669 95.1881 88.5553 96.0153 87.732C97.5319 86.2227 97.5319 83.6156 96.0153 82.1063L89.6732 75.7945L98.0834 67.4246C100.014 65.5036 103.047 65.5036 104.839 67.4246L124.003 86.4971V99.1207C123.866 100.081 123.038 100.904 122.073 100.904H36.7302Z" fill="#E0F2F1"/>
</svg>
