<svg width="16" height="16" viewBox="0 0 16 16" fill="none" xmlns="http://www.w3.org/2000/svg">
<path d="M5.53727 8.25867L4.80656 10.6455C4.76246 10.8656 4.95774 11.0609 5.18451 11.0175L7.60971 10.2983C7.76404 10.2673 7.90577 10.193 8.01915 10.0845L15.7672 2.45892C16.079 2.15204 16.079 1.65297 15.7672 1.34609L14.6333 0.230161C14.3215 -0.0767203 13.8144 -0.0767203 13.5026 0.230161L5.75459 7.85569C5.64435 7.96729 5.56561 8.10678 5.53727 8.25867Z" fill="#C2C4C6"/>
<path d="M15.2 7.8745C14.7591 7.8745 14.4 8.22787 14.4 8.66185V14.1733H1.6V1.57568H7.2C7.64094 1.57568 8 1.2223 8 0.788329C8 0.354355 7.64094 0.000976562 7.2 0.000976562H0.8C0.359055 0.000976562 0 0.354355 0 0.788329V14.9607C0 15.3946 0.359055 15.748 0.8 15.748H15.2C15.6409 15.748 16 15.3946 16 14.9607V8.66185C16 8.22787 15.6409 7.8745 15.2 7.8745Z" fill="#C2C4C6"/>
</svg>
