<svg width="14" height="10" viewBox="0 0 14 10" fill="none" xmlns="http://www.w3.org/2000/svg">
<path d="M1.07692 0.0078125C0.933333 0.0078125 0.789744 0.0448428 0.664103 0.0818798L6.62308 5.76707C6.87436 6.00781 7.10769 6.00781 7.35897 5.76707L13.3179 0.0818798C13.1923 0.0263242 13.0487 0.0078125 12.9051 0.0078125H1.07692ZM0.0179487 0.952252C0.0179487 1.00781 0 1.04484 0 1.1004V8.87818C0 9.48929 0.484615 9.98929 1.07692 9.98929H12.9231C13.5154 9.98929 14 9.48929 14 8.87818V1.1004C14 1.04484 14 1.00781 13.9821 0.952252L8.09487 6.56336C7.48462 7.15595 6.49744 7.15595 5.88718 6.56336L0.0179487 0.952252Z" fill="#01A3A4"/>
</svg>
