<svg width="18" height="18" viewBox="0 0 18 18" fill="none" xmlns="http://www.w3.org/2000/svg">
<path d="M8.53601 1.15542C8.70397 0.737189 9.29603 0.73719 9.46399 1.15542L11.4693 6.14903C11.5408 6.32713 11.708 6.44858 11.8994 6.46156L17.2683 6.8256C17.718 6.85609 17.9009 7.41918 17.5551 7.70815L13.4255 11.1584C13.2783 11.2815 13.2144 11.478 13.2612 11.6641L14.5741 16.8827C14.684 17.3198 14.205 17.6678 13.8233 17.4281L9.26585 14.5669C9.10331 14.4649 8.89669 14.4649 8.73415 14.5669L4.17666 17.4281C3.79495 17.6678 3.31596 17.3198 3.42592 16.8827L4.73877 11.6641C4.78559 11.478 4.72174 11.2815 4.57446 11.1584L0.444929 7.70815C0.0990639 7.41918 0.282025 6.85609 0.731689 6.8256L6.10056 6.46156C6.29205 6.44858 6.4592 6.32713 6.53072 6.14903L8.53601 1.15542Z" fill="#01A4A4"/>
</svg>
