<svg width="159" height="119" viewBox="0 0 159 119" fill="none" xmlns="http://www.w3.org/2000/svg">
<path d="M81.2419 118.001C116.997 118.001 145.982 115.485 145.982 112.381C145.982 109.278 116.997 106.762 81.2419 106.762C45.487 106.762 16.502 109.278 16.502 112.381C16.502 115.485 45.487 118.001 81.2419 118.001Z" fill="#D7F4F9"/>
<path d="M125.816 65.0646C98.9109 64.743 94.3664 74.9538 77.596 75.9186C48.4789 77.607 28.2096 52.7633 35.4889 25.2664C42.7279 -2.2306 71.5634 11.3571 71.5634 11.3571C92.3556 19.6785 94.1251 14.9349 122.599 23.6985C151.032 32.4622 152.721 65.3862 125.816 65.0646Z" fill="#F5F5F5"/>
<path d="M112.549 84.7227C112.549 84.7227 92.4009 87.4219 94.7478 79.28C97.0947 71.138 130.173 64.766 130.262 72.554C130.439 80.342 112.549 84.7227 112.549 84.7227Z" fill="#F5F5F5"/>
<path d="M136.947 66.5825C136.947 54.281 141.907 44.2363 147.973 44.2363C154.04 44.2363 159 54.281 159 66.5825C159 78.8839 154.04 88.9286 147.973 88.9286C141.907 88.9286 136.947 78.8839 136.947 66.5825ZM137.257 66.5825C137.257 78.7512 142.084 88.6189 147.973 88.6189C153.907 88.6189 158.69 78.7069 158.69 66.5825C158.69 54.458 153.863 44.5461 147.973 44.5461C142.04 44.5461 137.257 54.4138 137.257 66.5825Z" fill="#F0E08B"/>
<path d="M135.753 106.316C140.595 106.316 144.521 105.742 144.521 105.033C144.521 104.325 140.595 103.75 135.753 103.75C130.911 103.75 126.985 104.325 126.985 105.033C126.985 105.742 130.911 106.316 135.753 106.316Z" fill="#C8E6EB"/>
<path d="M136.24 37.7754C139.96 37.7754 143.148 44.7669 144.388 54.5903C144.831 58.1746 147.045 61.272 150.233 63.042C150.277 63.042 150.277 63.0863 150.322 63.0863C153.554 64.9448 152.934 72.069 148.905 78.972C146.159 83.751 136.24 90.0787 136.24 90.0787C136.24 90.0787 127.517 78.3967 127.517 63.9713C127.517 49.5458 131.458 37.7754 136.24 37.7754Z" fill="#FFF4C0"/>
<path d="M131.9 104.725C136.683 96.8932 137.657 79.1047 137.613 65.5643C137.569 50.9176 136.417 37.9081 136.373 37.7754L136.063 37.8196C136.107 38.3506 140.713 89.7247 131.635 104.593L131.9 104.725Z" fill="#F4DA59"/>
<path d="M136.861 82.9099C140.492 78.2637 147.355 76.2725 150.588 75.5645C150.544 75.653 150.499 75.7857 150.455 75.8742C147.134 76.6264 140.447 78.6619 136.993 83.2197L136.861 83.3524L136.728 83.2197C136.683 83.1754 133.097 78.8389 129.51 76.184C129.466 76.007 129.421 75.8742 129.377 75.6972C132.742 78.0867 136.152 82.0692 136.861 82.9099Z" fill="#F4DA59"/>
<path d="M137.17 76.6715C140.668 73.22 148.373 70.2552 152.314 68.9277C152.314 69.0162 152.314 69.149 152.27 69.2375C148.329 70.6092 140.757 73.4855 137.347 76.8927L137.17 76.6715Z" fill="#F4DA59"/>
<path d="M137.48 82.5561C137.48 74.3256 139.872 67.5996 142.794 67.5996C145.717 67.5996 148.108 74.2813 148.108 82.5561C148.108 82.6446 148.108 82.7773 148.108 82.8658C148.108 85.211 150.056 87.0253 152.403 86.9368C153.156 86.9368 153.732 87.1138 154.086 87.5563C155.149 88.928 153.2 92.1583 149.791 94.769C146.558 97.247 141.909 97.247 141.909 97.247C141.909 97.247 137.48 89.9015 137.48 82.5561Z" fill="#FFEE98"/>
<path d="M137.569 104.636C143.148 98.8393 144.3 89.1044 144.3 81.8916C144.3 74.1479 142.927 67.6432 142.927 67.5547L142.661 67.5989C142.705 67.8644 147.975 93.4408 137.392 104.371L137.569 104.636Z" fill="#E9CB37"/>
<path d="M141.995 97.3397C144.829 91.9412 154.04 87.7375 154.128 87.6932L153.996 87.4277C153.907 87.472 144.608 91.7642 141.729 97.207L141.995 97.3397Z" fill="#E9CB37"/>
<path d="M145.095 93.2207L149.922 94.6367C149.877 94.6809 149.833 94.7252 149.789 94.7252C149.745 94.7694 149.7 94.8137 149.656 94.8137L145.051 93.442L145.095 93.2207Z" fill="#E9CB37"/>
<path d="M146.248 92.248L151.207 93.5756C151.119 93.6641 151.03 93.7526 150.942 93.7968L146.159 92.5136L146.248 92.248Z" fill="#E9CB37"/>
<path d="M143.591 90.8325L143.37 91.0538C141.377 89.0183 139.384 87.6023 137.879 86.7173C137.834 86.5845 137.834 86.4518 137.79 86.3633C139.384 87.204 141.51 88.6643 143.591 90.8325Z" fill="#E9CB37"/>
<path d="M143.724 88.7066C141.687 86.8482 139.163 85.1667 137.569 84.1489C137.569 84.0162 137.569 83.9277 137.524 83.7949C139.119 84.8127 141.775 86.5384 143.901 88.4854L143.724 88.7066Z" fill="#E9CB37"/>
<path d="M144.299 81.3182L144.211 81.4509L144.078 81.3624C144.033 81.3182 140.447 78.3534 137.834 77.1144C137.834 77.0259 137.878 76.8932 137.878 76.8047C140.269 77.8667 143.458 80.4774 144.122 81.0084C144.875 79.9464 146.469 78.4862 147.753 77.3799C147.753 77.5127 147.797 77.6012 147.797 77.7339C146.513 78.8844 144.963 80.3447 144.299 81.3182Z" fill="#E9CB37"/>
<path d="M137.568 61.1805L137.479 61.3575L137.347 61.2248C137.302 61.1805 133.096 56.7113 128.49 54.9413C128.49 54.8528 128.49 54.7643 128.535 54.6758C132.741 56.313 136.638 60.1628 137.391 60.915C138.808 58.3928 142.129 56.2245 144.299 54.9855C144.343 55.074 144.343 55.1625 144.387 55.251C142.218 56.49 138.852 58.7025 137.568 61.1805Z" fill="#F4DA59"/>
<path d="M137.258 52.5521L137.125 52.7734L136.948 52.5521C136.903 52.5079 133.804 48.5697 129.818 46.7554C129.863 46.6669 129.907 46.5342 129.951 46.4457C133.538 48.0829 136.372 51.3131 137.081 52.1539C138.365 49.7202 140.535 47.4192 142.262 45.8262C142.306 45.9147 142.35 46.0474 142.394 46.1359C140.667 47.7732 138.498 50.1184 137.258 52.5521Z" fill="#F4DA59"/>
<path d="M136.904 46.7561L136.772 46.6676C136.727 46.6233 133.495 44.3223 131.104 42.7294C131.148 42.6409 131.192 42.5524 131.281 42.4196C133.406 43.8356 136.24 45.8268 136.86 46.2693C137.967 45.0746 139.606 43.2161 140.846 41.7559C140.89 41.8444 140.978 41.9329 141.023 42.0656C139.694 43.5701 138.056 45.4728 136.993 46.6233L136.904 46.7561Z" fill="#F4DA59"/>
<path d="M66.7612 112.69C86.7765 113.664 113.478 103.044 113.611 89.5921C113.7 76.0959 105.862 71.7594 93.4188 70.2107C81.0199 68.6619 68.8867 70.2106 60.606 68.4849C52.3696 66.7592 30.7158 59.5464 24.5164 76.3171C18.3169 93.0878 35.2325 111.186 66.7612 112.69Z" fill="#01A3A4"/>
<path d="M41.7871 75.4331C49.7578 79.4156 63.7951 78.6191 75.5298 75.4331C87.2645 72.2471 96.8293 77.3801 96.8293 77.3801" stroke="#01004C" stroke-miterlimit="10" stroke-linecap="round" stroke-linejoin="round"/>
<path d="M58.1709 64.5059H71.3226C71.3226 64.5059 86.6883 65.2581 93.6849 72.8691C100.681 80.4358 108.209 100.038 108.209 100.038L105.154 101.853C105.154 101.853 95.7218 85.6573 81.3302 78.1348C66.983 70.6123 59.9422 69.2848 59.9422 69.2848L58.1709 64.5059Z" fill="#393762"/>
<path d="M105.154 101.853L106.66 104.95L114.941 100.083L108.21 99.9941L105.154 101.853Z" fill="#01004C"/>
<path d="M53.697 47.3787C52.0143 43.1307 51.97 37.5995 57.3724 34.3693C62.7747 31.139 63.2618 23.3068 70.4355 23.3068C77.5206 23.2626 77.3434 31.4045 76.1921 35.6083C75.0408 39.812 75.8378 44.5467 75.8378 48.485C75.8378 52.4232 70.6126 58.3084 63.3061 55.7419C56.0439 53.2197 54.7597 50.078 53.697 47.3787Z" fill="#393762"/>
<path d="M54.5835 64.5059C54.5835 64.5059 52.8122 71.7628 60.5615 76.0551C68.2666 80.3915 75.9716 82.3385 80.754 91.0115C85.5365 99.6402 87.3077 108.534 87.3077 108.534L90.806 107.826C90.806 107.826 90.3189 93.224 86.245 83.4448C82.171 73.6213 65.5654 64.5501 65.5654 64.5501H54.5835V64.5059Z" fill="#393762"/>
<path d="M87.2637 108.49L87.6622 111.941L97.0499 110.127L90.7619 107.826L87.2637 108.49Z" fill="#01004C"/>
<path d="M77.8763 50.1649L73.8024 49.1914L72.5625 53.2181C74.8209 57.8201 80.3118 66.5373 90.7623 69.4578L91.7365 67.2896C91.7808 67.2453 81.6403 60.7406 77.8763 50.1649Z" fill="#E48868"/>
<path d="M77.1232 47.7333C74.5106 37.1576 64.5472 35.1221 58.1706 38.3523C52.724 41.14 54.5395 64.504 54.5395 64.504C54.5395 64.504 65.2114 66.3182 71.278 64.504C71.278 64.504 70.7023 58.132 71.278 50.2555C71.278 50.2555 71.6765 51.406 72.5179 53.176L77.8317 50.1228C77.566 49.3705 77.3446 48.574 77.1232 47.7333Z" fill="#DC5955"/>
<path d="M62.5547 37.0686C63.706 38.7501 67.16 42.9539 72.341 39.7679C69.4626 37.4669 65.8758 36.6261 62.5547 37.0686Z" fill="#E48868"/>
<path d="M66.0537 37.0703C66.0537 37.0703 66.9836 38.1323 69.1977 37.911L69.7734 35.3445C69.7734 35.3445 72.8731 36.4508 74.3787 33.5303C75.8843 30.6098 74.3787 28.2646 74.3787 28.2646C74.3787 28.2646 70.969 26.7158 70.1719 28.1318C69.3749 29.5478 69.3306 30.1231 68.932 29.9461C68.3121 29.6363 69.1092 27.9548 67.3379 27.9991C65.5666 28.0433 65.4781 31.3621 67.4265 31.8046L66.0537 37.0703Z" fill="#E48868"/>
<path d="M66.4521 29.8587C66.4521 29.7702 66.4521 29.6817 66.4521 29.549C66.4521 29.372 66.585 28.5312 67.2935 28.5312C67.5592 28.5312 67.7363 28.5755 67.8249 28.664" stroke="#BA745D" stroke-width="0.5" stroke-miterlimit="10" stroke-linecap="round"/>
<path d="M67.5146 34.1504C67.5146 34.1504 68.5331 35.0796 69.6845 35.3451" stroke="#BA745D" stroke-width="0.5" stroke-miterlimit="10" stroke-linecap="round"/>
<path d="M66.9824 66.7616C69.1522 65.8766 72.2519 67.4696 72.4291 69.0184H67.071L66.9824 66.7616Z" fill="#E48868"/>
<path d="M66.9826 66.7611C66.9826 66.7611 56.1779 63.4424 56.0893 55.6987C56.0893 54.1499 56.2222 52.8224 56.5321 51.7162L54.7166 48.309L50.3327 47.6895C49.7128 49.5479 49.3585 51.4949 49.2699 53.5747C49.0485 59.9467 53.2553 69.0179 67.0269 69.0179L66.9826 66.7611Z" fill="#E48868"/>
<path d="M56.5761 51.715C57.3288 48.9715 58.923 47.3343 60.7828 46.1838L58.2145 38.3516C54.2734 40.6083 51.7051 43.8385 50.4209 47.644L56.5761 51.715Z" fill="#DC5955"/>
<path d="M71.9865 69.9006H58.5248C58.3034 69.9006 58.082 69.7236 58.082 69.4581C58.082 69.2369 58.2592 69.0156 58.5248 69.0156H71.9865V69.9006Z" fill="white"/>
<path d="M92.7112 69.9006H71.9873V69.0156H93.1097V69.4581C93.1097 69.6794 92.9326 69.9006 92.7112 69.9006Z" fill="#A9B2BF"/>
<path d="M80.9757 54.502H76.1933C75.9718 54.502 75.7947 54.6347 75.7504 54.856L71.3223 69.0159H80.9757V54.502Z" fill="white"/>
<path d="M71.9873 69.0166H93.1097L97.405 55.2106C97.4936 54.8566 97.2722 54.5469 96.9179 54.5469H76.504L71.9873 69.0166Z" fill="#C1C7D3"/>
<path d="M16.2359 52.4668C14.1104 50.5641 12.472 51.5818 11.6306 52.0686C10.5236 52.7323 9.77077 54.4138 8.61945 54.6351C7.64525 54.8121 7.0253 53.7501 6.00682 54.0156C5.3426 54.1926 5.47544 54.7678 4.72265 55.1661C3.61561 55.7856 2.72998 54.9448 1.75578 55.5201C1.13583 55.8741 0.648734 56.7148 0.825861 57.1573C1.13583 57.8653 2.99567 57.3786 5.91826 57.2016C8.66373 57.0688 8.13235 57.4228 12.3391 57.4228C17.6529 57.4671 17.5201 56.8476 20.177 57.2901C21.6826 57.5556 22.8339 57.9096 23.1439 57.4228C23.4981 56.8918 22.9225 55.6086 21.9483 55.1218C20.7526 54.5466 19.9556 55.6528 18.0515 55.4758C17.1658 55.4316 17.7415 53.7943 16.2359 52.4668Z" fill="#FFF4BC"/>
<path d="M112.461 1.80082C110.335 -0.101924 108.697 0.915822 107.855 1.40257C106.748 2.06632 105.995 3.74781 104.844 3.96906C103.87 4.14606 103.25 3.08406 102.231 3.34956C101.567 3.52656 101.7 4.10181 100.947 4.50006C99.8402 5.11956 98.9546 4.27881 97.9804 4.85406C97.3604 5.20806 96.8733 6.0488 97.0505 6.4913C97.3604 7.1993 99.2203 6.71255 102.143 6.53555C104.888 6.4028 104.357 6.7568 108.564 6.7568C113.878 6.80105 113.745 6.18155 116.402 6.62405C117.907 6.88955 119.059 7.24355 119.368 6.7568C119.723 6.2258 119.147 4.94256 118.173 4.45581C116.977 3.88056 116.18 4.98681 114.276 4.80981C113.346 4.80981 113.966 3.17256 112.461 1.80082Z" fill="#FFF9DB"/>
<path d="M94.5697 31.1816C92.3114 31.0931 90.6286 30.6949 88.5474 29.5001C85.0049 27.5089 81.9937 24.6327 82.6579 19.6767C83.1007 16.4907 85.9348 13.349 88.636 12.464C92.0014 11.3577 95.6768 11.7117 98.9093 12.9065C108.297 16.4464 105.64 25.6504 104.312 27.8186C102.983 30.0754 100.858 32.0666 97.2266 31.7569C96.4296 33.9251 93.9055 35.0314 92.9313 34.8101C93.8169 34.0579 94.924 32.4649 94.5697 31.1816Z" fill="#FFE97C"/>
<path d="M98.733 21.4935C98.6002 21.6262 98.4231 21.7147 98.2017 21.8475C98.0688 21.936 97.8917 22.0245 97.626 22.113L97.3603 22.2457C97.2718 22.29 97.1832 22.3342 97.0946 22.3785C96.8732 22.467 96.7404 22.5555 96.6075 22.644C96.2533 22.8652 96.0319 23.175 95.9433 23.529L93.1536 22.7325C93.1093 22.5555 93.1535 22.2015 93.2864 21.6705C93.375 21.405 93.5078 21.1837 93.7292 21.0067C93.8621 20.874 94.1277 20.7412 94.4377 20.6085C94.482 20.6085 94.482 20.5642 94.5263 20.5642L94.792 20.4315C94.9248 20.3872 95.0134 20.2987 95.1019 20.2545C95.3234 20.1217 95.4562 19.9447 95.5005 19.7677C95.6333 19.3252 95.4562 19.0597 94.9691 18.927C94.5263 18.7942 93.9063 18.927 93.1536 19.281L91.9579 17.5552C92.445 17.2012 93.065 16.9357 93.8621 16.7587C94.792 16.5375 95.6776 16.5817 96.519 16.803C98.9102 17.4667 99.8844 18.6615 99.3973 20.3872C99.3087 20.8297 99.0873 21.1837 98.733 21.4935ZM94.792 27.2902C94.3049 27.5557 93.8621 27.5999 93.3307 27.4672C92.8436 27.3344 92.445 27.0247 92.1794 26.5822C91.9137 26.1397 91.8694 25.653 92.0022 25.122C92.1351 24.6352 92.445 24.237 92.8879 23.9715C93.3307 23.706 93.8178 23.6617 94.3049 23.7945C94.792 23.9272 95.1905 24.237 95.4562 24.7237C95.7219 25.2105 95.7662 25.653 95.6333 26.184C95.5448 26.6265 95.2348 27.0247 94.792 27.2902Z" fill="white"/>
</svg>
