<svg width="240" height="126" viewBox="0 0 240 126" fill="none" xmlns="http://www.w3.org/2000/svg">
<path d="M105.618 34.1409C135.895 34.5034 141.019 22.979 159.91 21.8913C192.698 20.0007 215.497 48.022 207.345 79.0215C199.167 109.995 166.716 94.7155 166.716 94.7155C143.296 85.3405 141.304 90.7013 109.266 80.8084C77.2551 70.8896 75.3401 33.7783 105.618 34.1409Z" fill="#F5F5F5"/>
<path d="M190.11 116.264C197.542 116.264 203.567 115.394 203.567 114.321C203.567 113.249 197.542 112.379 190.11 112.379C182.678 112.379 176.653 113.249 176.653 114.321C176.653 115.394 182.678 116.264 190.11 116.264Z" fill="#D7F4F9"/>
<path d="M201.238 84.5127L201.031 84.3573C200.306 83.7617 183.02 69.7769 183.02 59.9358C183.02 53.1765 185.685 47.6862 189.153 47.2978C190.654 38.2077 195.622 31.8887 201.29 31.8887C208.225 31.8887 213.866 41.2895 213.866 52.8399C213.866 64.2348 201.497 84.0983 201.367 84.2796L201.238 84.5127ZM201.29 32.3289C195.803 32.3289 190.99 38.5703 189.567 47.5309L189.541 47.7121H189.36C186.125 47.9193 183.459 53.4096 183.459 59.9358C183.459 69 199.168 82.2337 201.108 83.8394C202.454 81.664 213.401 63.4579 213.401 52.8399C213.426 41.5485 207.966 32.3289 201.29 32.3289Z" fill="#FFBDC2"/>
<path d="M201.109 62.965C198.417 60.1681 196.709 56.5942 195.804 52.8391C193.759 44.3705 188.92 38.4141 183.304 38.4141C175.826 38.4141 169.744 48.9803 169.744 62.0068C169.744 75.0333 184.391 101.656 187.238 101.837C189.748 101.993 204.731 80.0057 204.731 73.091C204.731 68.9215 203.308 65.244 201.109 62.965Z" fill="#FFE2E4"/>
<path d="M185.038 114.322L184.599 114.244L187.005 101.813C191.275 78.7386 189.515 62.8115 187.29 53.5143C184.883 43.466 181.416 38.8044 181.39 38.7785L181.752 38.5195C181.778 38.5713 185.297 43.2847 187.73 53.4366C189.981 62.7856 191.741 78.7645 187.471 101.917L185.038 114.322Z" fill="#E3989D"/>
<path d="M188.739 61.2303L188.972 61.7224L189.153 61.2044C189.179 61.1267 191.405 54.9372 195.054 50.2238C195.002 50.0684 194.95 49.8871 194.872 49.7318C191.664 53.7718 189.516 58.9772 188.895 60.5829C185.505 53.9272 177.146 49.3433 172.695 47.2715C172.643 47.401 172.565 47.5305 172.514 47.6858C177.042 49.7577 185.582 54.4451 188.739 61.2303Z" fill="#E3989D"/>
<path d="M189.231 65.271L189.464 65.5818L189.619 65.2192C189.645 65.1415 192.673 58.1491 196.192 54.2127C196.14 54.0573 196.089 53.876 196.037 53.7206C192.802 57.2168 190.033 63.1992 189.36 64.7271C183.279 56.8801 175.438 52.8401 171.297 51.1309C171.246 51.2603 171.22 51.4157 171.168 51.5711C175.334 53.2545 183.201 57.3463 189.231 65.271Z" fill="#E3989D"/>
<path d="M189.645 78.7375L189.981 78.4526C183.382 70.3984 174.222 66.0476 169.874 64.3125C169.9 64.4679 169.9 64.6492 169.926 64.8046C174.325 66.5656 183.201 70.8646 189.645 78.7375Z" fill="#E3989D"/>
<path d="M189.335 88.3703C194.899 83.7605 199.505 81.2485 202.61 79.9277C202.714 79.7205 202.792 79.5392 202.869 79.332C199.712 80.6269 194.899 83.1649 189.024 88.0077L189.335 88.3703Z" fill="#E3989D"/>
<path d="M187.963 96.6057L188.325 96.3727C186.022 92.8506 181.312 89.8465 178.077 88.1113C178.207 88.3444 178.31 88.6034 178.439 88.8365C181.597 90.5716 185.866 93.3944 187.963 96.6057Z" fill="#E3989D"/>
<path d="M215.368 85.2114C218.991 75.2926 218.861 66.1248 215.057 64.7263C211.693 63.4833 206.569 68.8182 202.92 77.0018C202.273 78.4262 201.16 79.6434 199.737 80.2649C196.916 81.4821 194.717 85.315 194.458 89.9507C194.122 95.7517 199.013 102.796 199.013 102.796C199.013 102.796 211.771 95.0266 215.368 85.2114Z" fill="#FFA2A8"/>
<path d="M196.659 114.295L196.219 114.218C199.221 94.1469 214.722 64.9084 214.877 64.5977L215.265 64.8048C215.11 65.1156 199.635 94.3023 196.659 114.295Z" fill="#FF757F"/>
<path d="M209.364 76.2755L209.701 76.0684C209.752 76.0425 214.126 73.4527 218.008 71.8211C218.008 71.6657 218.008 71.5104 217.982 71.3291C214.617 72.7276 210.917 74.8253 209.778 75.4986C209.675 73.0383 209.054 70.1637 208.484 67.9883C208.355 68.1178 208.251 68.2473 208.122 68.4026C208.691 70.6298 209.312 73.5045 209.338 75.913L209.364 76.2755Z" fill="#FF757F"/>
<path d="M208.071 79.6688C209.779 78.3221 214.67 76.3021 217.827 75.0331C217.853 74.8777 217.853 74.6964 217.879 74.541C214.696 75.7841 209.598 77.8818 207.786 79.3062L208.071 79.6688Z" fill="#FF757F"/>
<path d="M200.411 79.9023C200.281 79.98 200.152 80.0577 200.022 80.1095C201.627 82.9324 203.749 87.1278 203.516 89.4845L203.49 89.8729L203.827 89.7176C203.904 89.6917 210.218 86.7911 215.265 85.5221C215.316 85.4185 215.342 85.315 215.368 85.2114C215.394 85.1337 215.42 85.0819 215.446 85.0042C210.943 86.066 205.405 88.5004 203.982 89.1478C203.982 86.6098 201.963 82.6216 200.411 79.9023Z" fill="#FF757F"/>
<path d="M201.42 96.1927C199.919 92.075 196.374 87.8277 195.08 86.3516C195.028 86.5069 194.977 86.6882 194.925 86.8695C196.322 88.5011 199.583 92.5152 200.98 96.3481L201.42 96.1927Z" fill="#FF757F"/>
<path d="M146.273 125.999C177.83 125.999 203.412 123.773 203.412 121.027C203.412 118.281 177.83 116.055 146.273 116.055C114.716 116.055 89.1338 118.281 89.1338 121.027C89.1338 123.773 114.716 125.999 146.273 125.999Z" fill="#D7F4F9"/>
<path d="M79.6367 90.4159C75.8585 80.1086 76.0138 70.6042 79.9473 69.1539C83.4408 67.8849 88.7717 73.4011 92.55 81.8955C93.2228 83.3717 94.3873 84.6148 95.8624 85.2881C98.7866 86.5571 101.064 90.5195 101.349 95.3364C101.685 101.345 96.6387 108.674 96.6387 108.674C96.6387 108.674 83.3632 100.594 79.6367 90.4159Z" fill="#FFCFD3"/>
<path d="M99.0713 120.611C95.9659 99.8411 79.8955 69.5668 79.7402 69.256L80.1543 69.0488C80.3096 69.3596 96.4317 99.7116 99.5371 120.559L99.0713 120.611Z" fill="#FF9DA5"/>
<path d="M85.8479 81.1429V80.7545C85.8738 78.2683 86.5207 75.2901 87.1159 72.9593C86.9866 72.8039 86.883 72.6744 86.7536 72.5449C86.1584 74.798 85.5115 77.8021 85.408 80.3401C84.2435 79.6668 80.3876 77.4655 76.894 76.0152C76.894 76.1706 76.894 76.3519 76.8682 76.5073C80.9052 78.1906 85.4339 80.884 85.4856 80.9358L85.8479 81.1429Z" fill="#FF9DA5"/>
<path d="M87.4782 84.3039C85.5891 82.8277 80.31 80.6264 77.0234 79.3574C77.0493 79.5387 77.0493 79.6941 77.0752 79.8754C80.3617 81.1703 85.4339 83.268 87.1936 84.6664L87.4782 84.3039Z" fill="#FF9DA5"/>
<path d="M91.9811 95.2589L91.9552 94.8705C91.7223 92.4102 93.922 88.0594 95.5782 85.1589C95.4488 85.0812 95.2935 85.0035 95.1641 84.9258C93.5597 87.7486 91.4636 91.8922 91.4636 94.5338C89.9885 93.8605 84.2435 91.3484 79.5596 90.2348C79.5854 90.3125 79.6113 90.3643 79.6372 90.442C79.6631 90.5456 79.7148 90.6492 79.7666 90.7528C84.994 92.0476 91.5412 95.0518 91.6188 95.1036L91.9811 95.2589Z" fill="#FF9DA5"/>
<path d="M94.5425 101.992C95.9916 98.0036 99.3817 93.8341 100.831 92.1508C100.779 91.9695 100.727 91.7882 100.676 91.6328C99.3299 93.1608 95.6552 97.5893 94.1025 101.862L94.5425 101.992Z" fill="#FF9DA5"/>
<path d="M163.301 121.055H110.25C108.853 121.055 107.74 119.915 107.74 118.543V41.3675C107.74 39.9691 108.879 38.8555 110.25 38.8555H163.301C164.698 38.8555 165.811 39.995 165.811 41.3675V118.517C165.811 119.915 164.698 121.055 163.301 121.055Z" fill="#01A3A4"/>
<path d="M162.446 42.0664H111.078V117.817H162.446V42.0664Z" fill="#D7F9F3"/>
<path d="M160.48 44.3965H113.071V115.511H160.48V44.3965Z" fill="white"/>
<path d="M155.46 43.31H118.092V39.8656C118.092 38.8556 118.894 38.0527 119.903 38.0527H153.648C154.658 38.0527 155.46 38.8556 155.46 39.8656V43.31Z" fill="#E8505B"/>
<g opacity="0.45">
<path opacity="0.45" d="M119.515 42.5335V40.3063C119.515 39.4516 119.877 38.6747 120.446 38.1309C119.101 38.4157 118.065 39.6329 118.065 41.0832V43.3104H155.434V42.5335H119.515Z" fill="#B03D44"/>
</g>
<path opacity="0.25" d="M123.992 62.6797C127.35 62.6797 130.073 59.9549 130.073 56.5938C130.073 53.2326 127.35 50.5078 123.992 50.5078C120.633 50.5078 117.91 53.2326 117.91 56.5938C117.91 59.9549 120.633 62.6797 123.992 62.6797Z" fill="#005D5E"/>
<path d="M123.991 63.8992C119.98 63.8992 116.693 60.6361 116.693 56.5961C116.693 52.582 119.954 49.293 123.991 49.293C128.028 49.293 131.289 52.5561 131.289 56.5961C131.289 60.6361 128.028 63.8992 123.991 63.8992ZM123.991 49.7332C120.213 49.7332 117.133 52.815 117.133 56.5961C117.133 60.3772 120.213 63.459 123.991 63.459C127.769 63.459 130.849 60.3772 130.849 56.5961C130.875 52.815 127.795 49.7332 123.991 49.7332Z" fill="#FE7D90"/>
<path d="M125.208 56.6982C125.803 56.3098 126.217 55.6364 126.217 54.8595C126.217 53.6423 125.234 52.6582 124.017 52.6582C122.801 52.6582 121.818 53.6423 121.818 54.8595C121.818 55.6364 122.206 56.3098 122.827 56.6982C121.456 57.0349 120.446 58.2521 120.446 59.7024V61.5152C121.456 62.2403 122.698 62.6806 124.017 62.6806C125.363 62.6806 126.605 62.2403 127.589 61.5152V59.7024C127.589 58.2521 126.554 57.0349 125.208 56.6982Z" fill="white"/>
<path d="M135.327 49.3691L135.637 49.9648L136.284 50.0425L135.818 50.5086L135.922 51.182L135.327 50.8712L134.731 51.182L134.861 50.5086L134.369 50.0425L135.042 49.9648L135.327 49.3691Z" fill="#01A3A4"/>
<path d="M138.224 49.3691L138.509 49.9648L139.156 50.0425L138.69 50.5086L138.793 51.182L138.224 50.8712L137.629 51.182L137.732 50.5086L137.267 50.0425L137.914 49.9648L138.224 49.3691Z" fill="#01A3A4"/>
<path d="M141.097 49.3691L141.382 49.9648L142.055 50.0425L141.563 50.5086L141.692 51.182L141.097 50.8712L140.502 51.182L140.605 50.5086L140.14 50.0425L140.812 49.9648L141.097 49.3691Z" fill="#01A3A4"/>
<path d="M143.969 49.3691L144.28 49.9648L144.927 50.0425L144.461 50.5086L144.564 51.182L143.969 50.8712L143.4 51.182L143.503 50.5086L143.012 50.0425L143.685 49.9648L143.969 49.3691Z" fill="#01A3A4"/>
<g opacity="0.15">
<path opacity="0.15" d="M146.868 49.3691L147.152 49.9648L147.825 50.0425L147.333 50.5086L147.463 51.182L146.868 50.8712L146.272 51.182L146.376 50.5086L145.91 50.0425L146.557 49.9648L146.868 49.3691Z" fill="#0964AF"/>
</g>
<path opacity="0.15" d="M140.217 54.4196H134.834C134.602 54.4196 134.395 54.2383 134.395 53.9793C134.395 53.7462 134.576 53.5391 134.834 53.5391H140.217C140.45 53.5391 140.657 53.7203 140.657 53.9793C140.631 54.2383 140.45 54.4196 140.217 54.4196Z" fill="#01A3A4"/>
<path opacity="0.15" d="M156.366 57.2946H152.277C152.044 57.2946 151.837 57.1133 151.837 56.8543C151.837 56.6212 152.018 56.4141 152.277 56.4141H156.366C156.599 56.4141 156.806 56.5953 156.806 56.8543C156.806 57.0874 156.599 57.2946 156.366 57.2946Z" fill="#01A3A4"/>
<path opacity="0.15" d="M150.517 57.2946H134.834C134.602 57.2946 134.395 57.1133 134.395 56.8543C134.395 56.6212 134.576 56.4141 134.834 56.4141H150.517C150.75 56.4141 150.957 56.5953 150.957 56.8543C150.931 57.0874 150.75 57.2946 150.517 57.2946Z" fill="#01A3A4"/>
<path opacity="0.15" d="M156.365 60.1422H134.834C134.602 60.1422 134.395 59.961 134.395 59.702C134.395 59.4689 134.576 59.2617 134.834 59.2617H156.365C156.598 59.2617 156.805 59.443 156.805 59.702C156.805 59.961 156.598 60.1422 156.365 60.1422Z" fill="#01A3A4"/>
<path opacity="0.15" d="M156.365 63.0172H149.507C149.274 63.0172 149.067 62.836 149.067 62.577C149.067 62.3439 149.249 62.1367 149.507 62.1367H156.365C156.598 62.1367 156.805 62.318 156.805 62.577C156.805 62.8101 156.598 63.0172 156.365 63.0172Z" fill="#01A3A4"/>
<path opacity="0.15" d="M147.825 63.0172H134.834C134.602 63.0172 134.395 62.836 134.395 62.577C134.395 62.3439 134.576 62.1367 134.834 62.1367H147.825C148.058 62.1367 148.265 62.318 148.265 62.577C148.265 62.8101 148.058 63.0172 147.825 63.0172Z" fill="#01A3A4"/>
<path opacity="0.15" d="M156.364 54.4196H141.976C141.743 54.4196 141.536 54.2383 141.536 53.9793C141.536 53.7462 141.717 53.5391 141.976 53.5391H156.364C156.597 53.5391 156.804 53.7203 156.804 53.9793C156.804 54.2383 156.597 54.4196 156.364 54.4196Z" fill="#01A3A4"/>
<path opacity="0.15" d="M134.369 66.7458H116.901C116.668 66.7458 116.461 66.5645 116.461 66.3055C116.461 66.0724 116.642 65.8652 116.901 65.8652H134.369C134.602 65.8652 134.809 66.0465 134.809 66.3055C134.809 66.5386 134.627 66.7458 134.369 66.7458Z" fill="#01A3A4"/>
<path opacity="0.15" d="M156.235 70.0075H127.251C127.019 70.0075 126.812 69.8262 126.812 69.5672C126.812 69.3082 126.993 69.127 127.251 69.127H156.235C156.468 69.127 156.675 69.3082 156.675 69.5672C156.675 69.8262 156.468 70.0075 156.235 70.0075Z" fill="#01A3A4"/>
<path opacity="0.15" d="M124.017 70.0075H116.926C116.693 70.0075 116.486 69.8262 116.486 69.5672C116.486 69.3082 116.667 69.127 116.926 69.127H124.017C124.25 69.127 124.457 69.3082 124.457 69.5672C124.457 69.8262 124.25 70.0075 124.017 70.0075Z" fill="#01A3A4"/>
<path opacity="0.15" d="M156.235 73.2731H116.926C116.693 73.2731 116.486 73.0918 116.486 72.8328C116.486 72.5998 116.667 72.3926 116.926 72.3926H156.235C156.468 72.3926 156.675 72.5739 156.675 72.8328C156.649 73.0918 156.468 73.2731 156.235 73.2731Z" fill="#01A3A4"/>
<path opacity="0.15" d="M156.236 76.5602H148.188C147.955 76.5602 147.748 76.3789 147.748 76.1199C147.748 75.861 147.929 75.6797 148.188 75.6797H156.236C156.469 75.6797 156.676 75.861 156.676 76.1199C156.676 76.3789 156.469 76.5602 156.236 76.5602Z" fill="#01A3A4"/>
<path opacity="0.15" d="M145.082 76.5602H116.926C116.693 76.5602 116.486 76.3789 116.486 76.1199C116.486 75.861 116.667 75.6797 116.926 75.6797H145.082C145.315 75.6797 145.522 75.861 145.522 76.1199C145.522 76.3789 145.315 76.5602 145.082 76.5602Z" fill="#01A3A4"/>
<path opacity="0.15" d="M156.235 66.7458H137.603C137.37 66.7458 137.163 66.5645 137.163 66.3055C137.163 66.0724 137.344 65.8652 137.603 65.8652H156.235C156.468 65.8652 156.675 66.0465 156.675 66.3055C156.649 66.5386 156.468 66.7458 156.235 66.7458Z" fill="#01A3A4"/>
<path opacity="0.15" d="M156.236 89.8219H138.768C138.535 89.8219 138.328 89.6406 138.328 89.3817C138.328 89.1227 138.509 88.9414 138.768 88.9414H156.236C156.469 88.9414 156.676 89.1227 156.676 89.3817C156.676 89.6406 156.469 89.8219 156.236 89.8219Z" fill="#01A3A4"/>
<path opacity="0.15" d="M145.884 86.5309H116.901C116.668 86.5309 116.461 86.3496 116.461 86.0907C116.461 85.8576 116.642 85.6504 116.901 85.6504H145.884C146.117 85.6504 146.324 85.8317 146.324 86.0907C146.324 86.3496 146.143 86.5309 145.884 86.5309Z" fill="#01A3A4"/>
<path opacity="0.15" d="M156.235 86.5309H149.119C148.886 86.5309 148.679 86.3496 148.679 86.0907C148.679 85.8576 148.86 85.6504 149.119 85.6504H156.209C156.442 85.6504 156.649 85.8317 156.649 86.0907C156.649 86.3496 156.468 86.5309 156.235 86.5309Z" fill="#01A3A4"/>
<path opacity="0.15" d="M156.235 83.2692H116.926C116.693 83.2692 116.486 83.0879 116.486 82.8289C116.486 82.57 116.667 82.3887 116.926 82.3887H156.235C156.468 82.3887 156.675 82.57 156.675 82.8289C156.675 83.0879 156.468 83.2692 156.235 83.2692Z" fill="#01A3A4"/>
<path opacity="0.15" d="M124.974 80.0055H116.926C116.693 80.0055 116.486 79.8242 116.486 79.5653C116.486 79.3322 116.667 79.125 116.926 79.125H124.974C125.207 79.125 125.414 79.3063 125.414 79.5653C125.414 79.7983 125.207 80.0055 124.974 80.0055Z" fill="#01A3A4"/>
<path opacity="0.15" d="M156.235 80.0055H128.08C127.847 80.0055 127.64 79.8242 127.64 79.5653C127.64 79.3322 127.821 79.125 128.08 79.125H156.235C156.468 79.125 156.675 79.3063 156.675 79.5653C156.649 79.7983 156.468 80.0055 156.235 80.0055Z" fill="#01A3A4"/>
<path opacity="0.15" d="M135.559 89.8219H116.926C116.693 89.8219 116.486 89.6406 116.486 89.3817C116.486 89.1227 116.667 88.9414 116.926 88.9414H135.559C135.791 88.9414 135.999 89.1227 135.999 89.3817C135.999 89.6406 135.791 89.8219 135.559 89.8219Z" fill="#01A3A4"/>
<path opacity="0.15" d="M134.369 92.8766H116.901C116.668 92.8766 116.461 92.6953 116.461 92.4364C116.461 92.2033 116.642 91.9961 116.901 91.9961H134.369C134.602 91.9961 134.809 92.1774 134.809 92.4364C134.809 92.6953 134.627 92.8766 134.369 92.8766Z" fill="#01A3A4"/>
<path opacity="0.15" d="M156.235 96.1403H127.251C127.019 96.1403 126.812 95.959 126.812 95.7C126.812 95.441 126.993 95.2598 127.251 95.2598H156.235C156.468 95.2598 156.675 95.441 156.675 95.7C156.675 95.959 156.468 96.1403 156.235 96.1403Z" fill="#01A3A4"/>
<path opacity="0.15" d="M124.017 96.1403H116.926C116.693 96.1403 116.486 95.959 116.486 95.7C116.486 95.441 116.667 95.2598 116.926 95.2598H124.017C124.25 95.2598 124.457 95.441 124.457 95.7C124.457 95.959 124.25 96.1403 124.017 96.1403Z" fill="#01A3A4"/>
<path opacity="0.15" d="M156.235 99.4294H116.926C116.693 99.4294 116.486 99.2481 116.486 98.9891C116.486 98.7301 116.667 98.5488 116.926 98.5488H156.235C156.468 98.5488 156.675 98.7301 156.675 98.9891C156.675 99.2481 156.468 99.4294 156.235 99.4294Z" fill="#01A3A4"/>
<path opacity="0.15" d="M156.236 102.693H148.188C147.955 102.693 147.748 102.512 147.748 102.253C147.748 102.02 147.929 101.812 148.188 101.812H156.236C156.469 101.812 156.676 101.994 156.676 102.253C156.65 102.512 156.469 102.693 156.236 102.693Z" fill="#01A3A4"/>
<path opacity="0.15" d="M145.082 102.693H116.926C116.693 102.693 116.486 102.512 116.486 102.253C116.486 102.02 116.667 101.812 116.926 101.812H145.082C145.315 101.812 145.522 101.994 145.522 102.253C145.496 102.512 145.315 102.693 145.082 102.693Z" fill="#01A3A4"/>
<path opacity="0.15" d="M156.235 92.8766H137.603C137.37 92.8766 137.163 92.6953 137.163 92.4364C137.163 92.2033 137.344 91.9961 137.603 91.9961H156.235C156.468 91.9961 156.675 92.1774 156.675 92.4364C156.649 92.6953 156.468 92.8766 156.235 92.8766Z" fill="#01A3A4"/>
<path opacity="0.15" d="M156.235 109.4H116.926C116.693 109.4 116.486 109.219 116.486 108.96C116.486 108.701 116.667 108.52 116.926 108.52H156.235C156.468 108.52 156.675 108.701 156.675 108.96C156.675 109.219 156.468 109.4 156.235 109.4Z" fill="#01A3A4"/>
<path opacity="0.15" d="M124.974 106.136H116.926C116.693 106.136 116.486 105.955 116.486 105.696C116.486 105.463 116.667 105.256 116.926 105.256H124.974C125.207 105.256 125.414 105.437 125.414 105.696C125.414 105.955 125.207 106.136 124.974 106.136Z" fill="#01A3A4"/>
<path opacity="0.15" d="M156.235 106.136H128.08C127.847 106.136 127.64 105.955 127.64 105.696C127.64 105.463 127.821 105.256 128.08 105.256H156.235C156.468 105.256 156.675 105.437 156.675 105.696C156.649 105.955 156.468 106.136 156.235 106.136Z" fill="#01A3A4"/>
<path d="M236.81 18.5929C235.862 18.5929 235.043 18.9661 234.482 19.588C234.094 17.0589 231.853 15.0687 229.094 15.0687C228.533 15.0687 227.973 15.1517 227.456 15.3175C226.938 9.84468 222.153 5.57422 216.377 5.57422C211.031 5.57422 206.548 9.22277 205.47 14.0737C205.168 14.0322 204.867 13.9908 204.522 13.9908C201.461 13.9908 199.004 16.354 199.004 19.2977C199.004 22.2415 201.461 24.6047 204.522 24.6047C205.858 24.6047 207.108 24.1487 208.057 23.3609C210.083 25.5583 213.057 26.9265 216.377 26.9265C219.653 26.9265 222.628 25.5583 224.654 23.3609C225.645 24.6876 227.24 25.5169 229.094 25.5169C231.206 25.5169 233.017 24.356 233.965 22.6975C234.439 23.7755 235.56 24.5633 236.853 24.5633C238.578 24.5633 240 23.1951 240 21.5366C239.957 19.9197 238.535 18.5929 236.81 18.5929Z" fill="#F5F5F5"/>
<path d="M25.2582 57.7675C21.7826 54.6758 19.1035 56.3295 17.7278 57.1204C15.9176 58.1989 14.6866 60.9312 12.804 61.2907C11.211 61.5783 10.1973 59.8527 8.53193 60.2841C7.44581 60.5717 7.66303 61.5064 6.4321 62.1535C4.62189 63.1601 3.17372 61.794 1.58074 62.7287C0.567029 63.3039 -0.229462 64.67 0.0601711 65.3891C0.567029 66.5395 3.60817 65.7486 8.38712 65.461C12.8764 65.2452 12.0075 65.8205 18.8863 65.8205C27.5753 65.8924 27.3581 64.8857 31.7026 65.6048C34.1644 66.0362 36.0471 66.6114 36.5539 65.8205C37.1332 64.9576 36.1919 62.8725 34.5989 62.0816C32.6439 61.1469 31.3405 62.9444 28.227 62.6568C26.7788 62.5849 27.7201 59.9246 25.2582 57.7675Z" fill="#F5F5F5"/>
<path d="M89.0585 4.35502C81.6223 -2.34378 75.8903 1.2393 72.9468 2.95294C69.0738 5.28973 66.4402 11.2096 62.4122 11.9885C59.004 12.6117 56.8351 8.87281 53.272 9.80753C50.9482 10.4307 51.4129 12.4559 48.7793 13.858C44.9063 16.039 41.8079 13.079 38.3996 15.1043C36.2308 16.3505 34.5266 19.3105 35.1463 20.8683C36.2308 23.3609 42.7374 21.6473 52.9621 21.0241C62.5671 20.5568 60.7081 21.8031 75.4255 21.8031C94.0159 21.9588 93.5512 19.7778 102.846 21.3357C108.114 22.2704 112.142 23.5167 113.226 21.8031C114.465 19.9336 112.451 15.4158 109.043 13.7022C104.86 11.677 102.072 15.5716 95.4102 14.9485C92.1568 14.9485 94.3257 9.18439 89.0585 4.35502Z" fill="#F5F5F5"/>
</svg>
