<svg width="82" height="32" viewBox="0 0 82 32" fill="none" xmlns="http://www.w3.org/2000/svg">
<path d="M2.93722 28.5104C2.75553 28.1904 2.42244 28.0076 2.07421 28.0228C1.51401 28.0228 1.12035 28.3885 1.12035 29.1962C1.12035 29.9124 1.4383 30.3695 2.07421 30.3695C2.4073 30.3695 2.84638 30.1714 2.8918 29.699H2.07421V28.9828H3.66397V31.0552H2.95236V30.72C2.67983 31.0095 2.28617 31.1771 1.87738 31.1619C0.756978 31.1619 0.196777 30.3543 0.196777 29.2266C0.196777 28.099 0.8024 27.2609 1.9985 27.2609C2.69497 27.2304 3.34601 27.5962 3.69425 28.1904L2.93722 28.5104Z" fill="white"/>
<path d="M4.19385 28.282H4.9963V28.5715C5.20827 28.3886 5.4808 28.2972 5.75333 28.282V28.9982L5.66248 29.0134C5.17798 29.0744 4.9963 29.1506 4.9963 29.4553V31.0553H4.19385V28.282Z" fill="white"/>
<path d="M6.72237 29.8362C6.72237 30.3695 7.0706 30.5371 7.32799 30.5371C7.63081 30.5371 7.76707 30.3848 7.99418 30.0495L8.5998 30.3695C8.32727 30.8876 7.87305 31.1314 7.26743 31.1314C6.41956 31.1314 5.91992 30.5371 5.91992 29.76C5.91992 28.7848 6.4347 28.2209 7.26743 28.2209C8.26671 28.2209 8.61494 28.9981 8.61494 29.8514H6.72237V29.8362ZM7.79735 29.3333C7.81249 29.0438 7.58538 28.8 7.29771 28.8C7.28257 28.8 7.26743 28.8 7.25229 28.8C6.96462 28.8 6.72237 29.0438 6.70723 29.3333H7.79735Z" fill="white"/>
<path d="M11.401 30.4762C11.3859 30.6743 11.4162 30.8724 11.4767 31.0552H10.7348C10.7046 30.9638 10.6894 30.8724 10.6894 30.7657H10.6743C10.538 30.979 10.1292 31.1314 9.84154 31.1314C9.31162 31.1314 8.91797 30.8419 8.91797 30.3086C8.91797 29.6381 9.44789 29.4095 10.326 29.2876L10.6137 29.2419V29.0133C10.6137 28.8 10.4472 28.7238 10.2352 28.7238C9.97781 28.7238 9.85668 28.8152 9.81126 29.0895H9.03909C9.06937 28.2971 9.79612 28.2209 10.1746 28.2209C10.9317 28.2209 11.401 28.4038 11.401 29.0286V30.4762ZM10.6289 29.7143L10.0838 29.8667C9.88697 29.9276 9.69014 30.0038 9.69014 30.2324C9.69014 30.4609 9.87182 30.5371 10.0687 30.5371C10.3866 30.5371 10.6289 30.3238 10.6289 29.8971V29.7143Z" fill="white"/>
<path d="M13.4145 28.8458H12.93V30.2019C12.93 30.4153 13.036 30.4762 13.1874 30.4762C13.2631 30.4762 13.3539 30.4762 13.4296 30.461V31.101C13.3236 31.1162 13.0814 31.1315 12.9148 31.1315C12.2335 31.1315 12.1275 30.7048 12.1275 30.2934V28.8305H11.7339V28.3429H12.1124V27.5353H12.9148V28.3429H13.3993L13.4145 28.8458Z" fill="white"/>
<path d="M15.0649 28.2818H15.8068V28.5409H15.822C16.0037 28.3275 16.2762 28.2056 16.5487 28.2209C17.1998 28.2209 17.7297 28.6933 17.7297 29.5923C17.7297 30.6285 17.2906 31.1466 16.5487 31.1466C16.3065 31.1466 16.0642 31.0704 15.8674 30.9028H15.8523V31.9999H15.0498V28.2818H15.0649ZM16.4125 30.5371C16.8213 30.5371 16.9727 30.1409 16.9727 29.5771C16.9727 29.1961 16.8213 28.7999 16.4276 28.7999C16.0339 28.7999 15.8523 29.1961 15.8523 29.6685C15.8523 30.1409 16.0037 30.5371 16.4125 30.5371Z" fill="white"/>
<path d="M18.7741 29.8362C18.7741 30.3695 19.1224 30.5371 19.3798 30.5371C19.6826 30.5371 19.8188 30.3848 20.0459 30.0495L20.6516 30.3695C20.3639 30.8876 19.9248 31.1314 19.3192 31.1314C18.4713 31.1314 17.9717 30.5371 17.9717 29.76C17.9717 28.7848 18.4865 28.2209 19.3192 28.2209C20.3185 28.2209 20.6667 28.9981 20.6667 29.8514H18.7741V29.8362ZM19.8643 29.3333C19.8643 29.0438 19.6371 28.8 19.3495 28.8C19.3343 28.8 19.3192 28.8 19.3192 28.8C19.0315 28.8 18.7893 29.0438 18.7741 29.3333H19.8643Z" fill="white"/>
<path d="M23.8616 29.6685C23.8616 30.5981 23.256 31.1314 22.393 31.1314C21.5299 31.1314 20.9243 30.6133 20.9243 29.6685C20.9243 28.7238 21.5299 28.2057 22.393 28.2057C23.256 28.2057 23.8616 28.739 23.8616 29.6685ZM21.7419 29.6685C21.7419 30.1409 21.9387 30.5066 22.393 30.5066C22.8472 30.5066 23.044 30.1409 23.044 29.6381C23.044 29.1962 22.8472 28.8304 22.393 28.8304C21.9387 28.8304 21.7419 29.1962 21.7419 29.6685Z" fill="white"/>
<path d="M24.2554 28.2818H24.9973V28.5409H25.0124C25.1941 28.3275 25.4666 28.2056 25.7543 28.2209C26.4053 28.2209 26.9352 28.6933 26.9352 29.5923C26.9352 30.6285 26.4962 31.1466 25.7543 31.1466C25.512 31.1466 25.2698 31.0704 25.073 30.9028H25.0578V31.9999H24.2554V28.2818ZM25.6029 30.5371C26.0117 30.5371 26.1631 30.1409 26.1631 29.5771C26.1631 29.1961 26.0117 28.7999 25.618 28.7999C25.2244 28.7999 25.0427 29.1961 25.0427 29.6685C25.0427 30.1409 25.1941 30.5371 25.6029 30.5371Z" fill="white"/>
<path d="M28.1613 27.3524H27.3589V31.0553H28.1613V27.3524Z" fill="white"/>
<path d="M29.403 29.8362C29.403 30.3695 29.7513 30.5371 30.0087 30.5371C30.3115 30.5371 30.4477 30.3848 30.6748 30.0495L31.2805 30.3695C30.9928 30.8876 30.5537 31.1314 29.9481 31.1314C29.1002 31.1314 28.6006 30.5371 28.6006 29.76C28.6006 28.7848 29.1154 28.2209 29.9481 28.2209C30.9474 28.2209 31.2956 28.9981 31.2956 29.8514H29.403V29.8362ZM30.4932 29.3333C30.4932 29.0438 30.2661 28.8 29.9784 28.8C29.9632 28.8 29.9481 28.8 29.9481 28.8C29.6604 28.8 29.4182 29.0438 29.403 29.3333H30.4932Z" fill="white"/>
<path d="M32.5373 30.1866H31.7046V31.0552H32.5373V30.1866Z" fill="white"/>
<path d="M37.0036 28.5104C36.8219 28.1904 36.4888 28.0076 36.1406 28.0228C35.5804 28.0228 35.1868 28.3885 35.1868 29.1961C35.1868 29.9123 35.5047 30.3695 36.1406 30.3695C36.4737 30.3695 36.9128 30.1714 36.9582 29.699H36.1406V28.9828H37.7304V31.0552H37.0188V30.7199C36.7462 31.0095 36.3526 31.1771 35.9438 31.1619C34.8234 31.1619 34.2632 30.3542 34.2632 29.2114C34.2632 28.0685 34.8688 27.2457 36.0649 27.2457C36.7614 27.2152 37.4124 27.5809 37.7607 28.1752L37.0036 28.5104Z" fill="white"/>
<path d="M38.2603 28.282H39.0627V28.5715C39.2747 28.3886 39.5472 28.2972 39.8197 28.282V28.9982L39.7289 29.0134C39.2444 29.0744 39.0627 29.1506 39.0627 29.4553V31.0553H38.2603V28.282Z" fill="white"/>
<path d="M40.7888 29.8362C40.7888 30.3695 41.137 30.5371 41.3944 30.5371C41.6972 30.5371 41.8335 30.3848 42.0606 30.0495L42.6662 30.3695C42.3785 30.8876 41.9395 31.1314 41.3338 31.1314C40.486 31.1314 39.9863 30.5371 39.9863 29.76C39.9863 28.7848 40.5011 28.2209 41.3338 28.2209C42.3331 28.2209 42.6813 28.9981 42.6813 29.8514H40.7888V29.8362ZM41.8789 29.3333C41.8789 29.0438 41.6518 28.8 41.3641 28.8C41.349 28.8 41.3338 28.8 41.3338 28.8C41.0462 28.8 40.8039 29.0438 40.7888 29.3333H41.8789Z" fill="white"/>
<path d="M45.4669 30.4762C45.4518 30.6743 45.4821 30.8724 45.5426 31.0552H44.8008C44.7705 30.9638 44.7553 30.8724 44.7553 30.7657H44.7402C44.6039 30.979 44.2103 31.1314 43.9075 31.1314C43.3775 31.1314 42.9839 30.8419 42.9839 30.3086C42.9839 29.6381 43.5138 29.4095 44.392 29.2876L44.6948 29.2419V29.0133C44.6948 28.8 44.5282 28.7238 44.3163 28.7238C44.0589 28.7238 43.9377 28.8152 43.8923 29.0895H43.1202C43.1504 28.2971 43.8772 28.2209 44.2557 28.2209C45.0127 28.2209 45.4821 28.4038 45.4821 29.0286L45.4669 30.4762ZM44.6948 29.7143L44.1497 29.8667C43.9529 29.9276 43.7561 30.0038 43.7561 30.2324C43.7561 30.4609 43.9377 30.5371 44.1346 30.5371C44.4525 30.5371 44.6948 30.3238 44.6948 29.8971V29.7143Z" fill="white"/>
<path d="M47.4809 28.8458H46.9964V30.2019C46.9964 30.4153 47.1024 30.4762 47.2538 30.4762C47.3295 30.4762 47.4203 30.4762 47.496 30.461V31.101C47.3901 31.1162 47.1478 31.1315 46.9813 31.1315C46.2999 31.1315 46.1939 30.7048 46.1939 30.2934V28.8305H45.8003V28.3429H46.1939V27.5353H46.9964V28.3429H47.4809V28.8458Z" fill="white"/>
<path d="M49.1313 28.2818H49.8732V28.5409H49.8884C50.0701 28.3275 50.3426 28.2056 50.6303 28.2209C51.2813 28.2209 51.8112 28.6933 51.8112 29.5923C51.8112 30.6285 51.3722 31.1466 50.6303 31.1466C50.388 31.1466 50.1458 31.0704 49.9489 30.9028H49.9338V31.9999H49.1313V28.2818ZM50.4789 30.5371C50.8877 30.5371 51.0391 30.1409 51.0391 29.5771C51.0391 29.1961 50.8877 28.7999 50.494 28.7999C50.1003 28.7999 49.9187 29.1961 49.9187 29.6685C49.9187 30.1409 50.0701 30.5371 50.4789 30.5371Z" fill="white"/>
<path d="M52.8405 29.8362C52.8405 30.3695 53.1888 30.5371 53.4462 30.5371C53.749 30.5371 53.8852 30.3848 54.1123 30.0495L54.718 30.3695C54.4303 30.8876 53.9912 31.1314 53.3856 31.1314C52.5377 31.1314 52.0381 30.5371 52.0381 29.76C52.0381 28.7848 52.5529 28.2209 53.3856 28.2209C54.3849 28.2209 54.7331 28.9981 54.7331 29.8514H52.8405V29.8362ZM53.9307 29.3333C53.9307 29.0438 53.7035 28.8 53.4159 28.8C53.4007 28.8 53.3856 28.8 53.3856 28.8C53.0979 28.8 52.8557 29.0438 52.8405 29.3333H53.9307Z" fill="white"/>
<path d="M55.2026 28.282H56.0051V28.5715C56.2171 28.3886 56.4896 28.2972 56.7621 28.282V28.9982L56.6713 29.0134C56.1868 29.0744 56.0051 29.1506 56.0051 29.4553V31.0553H55.2026V28.282Z" fill="white"/>
<path d="M57.2164 28.8457H56.7925V28.3428H57.2164V28.0685C57.2164 27.7638 57.3073 27.3066 58.0037 27.3066C58.1854 27.3066 58.352 27.3219 58.5337 27.3676V27.9619H58.3065C58.1703 27.9619 58.0189 28.0076 58.0189 28.16V28.3428H58.5185V28.8457H58.0189V31.0552H57.2164V28.8457Z" fill="white"/>
<path d="M61.5769 29.6685C61.5769 30.5981 60.9713 31.1314 60.1083 31.1314C59.2453 31.1314 58.6396 30.6133 58.6396 29.6685C58.6396 28.7238 59.2453 28.2057 60.1083 28.2057C60.9713 28.2057 61.5769 28.739 61.5769 29.6685ZM59.4572 29.6685C59.4572 30.1409 59.6541 30.5066 60.1083 30.5066C60.5625 30.5066 60.7593 30.1409 60.7593 29.6381C60.7593 29.1962 60.5625 28.8304 60.1083 28.8304C59.6541 28.8304 59.4572 29.1962 59.4572 29.6685Z" fill="white"/>
<path d="M62.0005 28.282H62.8029V28.5715C63.0149 28.3886 63.2874 28.2972 63.56 28.282V28.9982L63.4691 29.0134C62.9846 29.0744 62.8029 29.1506 62.8029 29.4553V31.0553H62.0005V28.282Z" fill="white"/>
<path d="M63.9082 28.2818H64.7107V28.5256C64.9226 28.3123 65.2103 28.1904 65.5131 28.2056C65.8008 28.1904 66.0733 28.3428 66.2398 28.5713C66.467 28.3275 66.7849 28.1904 67.118 28.2056C67.3905 28.2056 67.9659 28.2971 67.9659 28.937V31.0551H67.1634V29.4399C67.1634 29.0437 67.0574 28.8761 66.7546 28.8761C66.4821 28.8761 66.3458 29.0742 66.3458 29.3637V31.0704H65.5434V29.3332C65.5434 29.059 65.4677 28.8761 65.1497 28.8761C64.8318 28.8761 64.7258 29.0894 64.7258 29.3332V31.0551H63.9233V28.2818H63.9082Z" fill="white"/>
<path d="M70.9337 30.4762C70.9186 30.6743 70.9489 30.8724 71.0094 31.0552H70.2524C70.2221 30.9638 70.207 30.8724 70.207 30.7657H70.1919C70.0556 30.979 69.6619 31.1314 69.3591 31.1314C68.8292 31.1314 68.4355 30.8419 68.4355 30.3086C68.4355 29.6381 68.9655 29.4095 69.8436 29.2876L70.1464 29.2419V29.0133C70.1464 28.8 69.9799 28.7238 69.7679 28.7238C69.5105 28.7238 69.3894 28.8152 69.344 29.0895H68.5718C68.6021 28.2971 69.3288 28.2209 69.7074 28.2209C70.4644 28.2209 70.9337 28.4038 70.9337 29.0286V30.4762ZM70.1464 29.7143L69.6014 29.8667C69.4045 29.9276 69.2077 30.0038 69.2077 30.2324C69.2077 30.4609 69.3894 30.5371 69.5862 30.5371C69.9042 30.5371 70.1313 30.3238 70.1313 29.8971L70.1464 29.7143Z" fill="white"/>
<path d="M71.5693 28.2818H72.3718V28.5256C72.5838 28.3123 72.8714 28.1904 73.1742 28.2056C73.8253 28.2056 74.007 28.5866 74.007 28.998V31.0399H73.2045V29.3028C73.2045 29.0285 73.1288 28.8456 72.8109 28.8456C72.4929 28.8456 72.3869 29.059 72.3869 29.3028V31.0399H71.5845L71.5693 28.2818Z" fill="white"/>
<path d="M76.4146 29.2114C76.3237 28.998 76.1269 28.8457 75.8998 28.8304C75.4456 28.8304 75.279 29.1961 75.279 29.6685C75.279 30.1409 75.4759 30.5066 75.8998 30.5066C76.1572 30.5219 76.3994 30.3542 76.4751 30.0952L77.0505 30.3847C76.8082 30.8419 76.3389 31.1161 75.8241 31.1161C75.0065 31.1161 74.4312 30.5981 74.4312 29.6533C74.4312 28.7085 75.0368 28.1904 75.7938 28.1904C76.3237 28.1904 76.7628 28.3885 77.0353 28.8609L76.4146 29.2114Z" fill="white"/>
<path d="M78.0192 29.8362C78.0192 30.3695 78.3675 30.5371 78.6249 30.5371C78.9277 30.5371 79.0639 30.3848 79.2911 30.0495L79.8967 30.3695C79.6241 30.8876 79.1699 31.1314 78.5643 31.1314C77.7164 31.1314 77.2168 30.5371 77.2168 29.76C77.2168 28.7848 77.7316 28.2209 78.5643 28.2209C79.5636 28.2209 79.9118 28.9981 79.9118 29.8514H78.0192V29.8362ZM79.1094 29.3333C79.1094 29.0438 78.8823 28.8 78.5946 28.8C78.5794 28.8 78.5643 28.8 78.5643 28.8C78.2766 28.8 78.0344 29.0438 78.0192 29.3333H79.1094Z" fill="white"/>
<path d="M81.1535 30.1866H80.3208V31.0552H81.1535V30.1866Z" fill="white"/>
<path d="M30.4779 19.9315V8.51812C29.8723 9.06669 28.9185 9.12764 27.9495 9.12764H25.5724V9.56955H27.9495V16.0762C27.9495 18.1029 26.0872 20.2667 23.9826 20.2667C22.832 20.2667 22.1204 19.52 22.1204 18.3467V8.51812C21.5147 9.06669 20.5609 9.12764 19.5919 9.12764H16.6849V1.35621H18.9257V0.914307H11.7037V1.35621H14.0959V9.1124H4.82984V1.35621H7.22205V0.914307H0V1.34097L2.2408 1.35621V19.9315H0V20.3734H7.22205V19.9315H4.82984V9.56955H14.0807V19.9315H11.7037V20.3734H18.9257V19.9315H16.6849V9.56955H19.5767V17.661C19.5767 19.2457 20.6669 20.7086 23.6647 20.7086C26.3446 20.7086 27.6012 18.5143 27.8738 17.8895H27.9343V20.3886H32.8702V19.9467H30.4779V19.9315Z" fill="white"/>
<path d="M41.3339 16.381C41.3794 18.4686 39.7442 20.2057 37.6699 20.2667C37.6548 20.2667 37.6396 20.2667 37.6245 20.2667C34.8992 20.2667 34.551 18.6971 34.551 14.5524C34.551 10.7581 34.9749 8.8381 37.4277 8.8381C39.7442 8.8381 41.3339 11.1086 41.3339 13.1352V16.381ZM50.8271 13.12L49.7824 13.059C47.7384 12.9524 46.5423 12.4495 46.5423 11.0019C46.5423 9.55429 47.8141 8.77714 49.3736 8.77714C51.8112 8.77714 52.7348 10.2248 52.9467 11.8095H53.3404L53.2193 8.48762H52.7802V8.71619C52.7802 9.11238 52.7499 9.29524 52.5682 9.29524C52.2654 9.29524 51.1147 8.32 49.4493 8.32C47.0419 8.32 45.5884 9.90476 45.5884 11.9162C45.5884 14.8114 47.5264 15.0705 49.5401 15.2686C51.1753 15.4362 53.0225 15.4667 53.0225 17.661C53.0225 19.2457 51.7204 20.2514 50.0246 20.2514C46.7845 20.2514 45.9821 17.7371 45.7398 16.32H45.3462L45.4067 19.9162H43.6504V0C43.0902 0.64 42.1969 0.700952 41.3037 0.700952H39.078V1.14286H41.3339V11.2305H41.2734C40.7737 9.93524 39.4262 8.41143 37.4277 8.41143C34.0816 8.41143 31.8862 11.84 31.8862 14.5676C31.8862 17.8133 34.1422 20.7238 37.6245 20.7238C39.5474 20.7238 40.8646 19.3067 41.2734 18.3619H41.3339V20.3886H45.8912C45.9518 19.7943 45.861 19.52 46.2698 19.52C46.8905 19.52 47.6324 20.7238 50.0549 20.7238C52.432 20.7238 54.3397 19.0324 54.3397 16.4267C54.3397 14.4914 53.3253 13.2724 50.8271 13.12Z" fill="white"/>
<path d="M63.9989 13.4704C63.9989 11.0628 63.8929 8.83802 60.7588 8.83802C57.6247 8.83802 57.5339 11.0628 57.5339 13.4704V15.6342C57.5339 18.0418 57.655 20.2666 60.774 20.2666C63.8929 20.2666 64.014 18.0571 64.014 15.6342L63.9989 13.4704ZM60.774 8.39612C64.3774 8.39612 66.6788 11.3675 66.6788 14.5523C66.6788 17.7371 64.3623 20.7085 60.774 20.7085C57.1856 20.7085 54.8691 17.7523 54.8691 14.5523C54.8691 11.3523 57.1705 8.39612 60.774 8.39612Z" fill="white"/>
<path d="M67.981 9.44755H65.7856V9.00564H67.981C69.3134 9.00564 69.813 9.00564 70.3278 8.39612V11.2304H70.3884C71.1151 9.90469 72.5081 8.41136 74.5369 8.41136C77.5196 8.41136 78.3523 9.90469 78.3523 11.5352V19.9314H80.5477V20.3733H73.8101V19.9314H76.0055V10.8647C76.0055 9.34088 75.2485 8.83802 74.3552 8.83802C72.0084 8.83802 70.8123 11.1695 70.3127 12.1142V19.9314H72.4324V20.3733H65.7705V19.9314H67.981V9.44755Z" fill="white"/>
</svg>
