<svg width="746" height="415" viewBox="0 0 746 415" fill="none" xmlns="http://www.w3.org/2000/svg">
<path opacity="0.34" d="M413.278 29.6379C362 45.2608 331.902 16.2468 282.853 8.43536C260.558 5.08759 228.23 1.73983 205.935 9.55129C182.526 18.4787 183.64 34.1016 182.526 57.536C180.296 111.1 116.26 87.6659 103.998 138.998C96.1947 171.36 100.034 197.026 123.444 218.229C135.706 230.504 144.624 242.779 145.739 260.634C146.854 295.228 111.182 347.676 156.886 371.11C182.526 384.501 217.083 369.994 244.951 383.385C259.443 390.081 268.361 402.356 283.968 407.936C310.721 415.747 333.016 409.052 357.541 400.124C380.951 391.197 404.36 382.27 427.77 380.038C445.606 378.922 463.442 382.27 480.163 377.806C499.114 373.342 504.687 361.067 519.179 352.14C537.015 342.096 559.31 352.14 578.261 345.444C625.08 330.937 587.179 285.184 588.293 252.822C589.408 217.113 616.658 190.331 614.428 151.273C611.084 107.752 581.605 97.7092 547.048 82.0863C534.786 76.5067 525.868 70.927 518.064 59.7678C509.146 48.6086 504.687 29.6379 493.54 21.8264C475.704 8.43536 439.784 15.7509 413.278 29.6379Z" fill="#E7F5FE"/>
<g opacity="0.34">
<path opacity="0.34" d="M539.37 68.071C544.943 68.071 544.943 59.3916 539.37 59.3916C533.796 59.3916 533.796 68.071 539.37 68.071Z" fill="#E7F5FE"/>
</g>
<g opacity="0.34">
<path opacity="0.34" d="M615.668 236.825C623.471 244.761 635.733 232.734 628.054 224.798C620.251 216.739 607.864 228.766 615.668 236.825Z" fill="#E7F5FE"/>
</g>
<g opacity="0.34">
<path opacity="0.34" d="M118.243 289.151C129.391 289.151 129.391 271.916 118.243 271.916C107.096 271.916 107.096 289.151 118.243 289.151Z" fill="#E7F5FE"/>
</g>
<g opacity="0.34">
<path opacity="0.34" d="M568.478 63.7296C579.625 63.7296 579.625 46.4948 568.478 46.4948C557.33 46.3708 557.33 63.7296 568.478 63.7296Z" fill="#E7F5FE"/>
</g>
<g opacity="0.34">
<path opacity="0.34" d="M101.026 261.743C115.518 261.743 115.518 239.301 101.026 239.301C86.5343 239.301 86.5343 261.743 101.026 261.743Z" fill="#E7F5FE"/>
</g>
<g opacity="0.34">
<path opacity="0.34" d="M615.667 277.62C625.824 288.035 641.802 272.289 631.769 261.997C621.613 251.582 605.511 267.205 615.667 277.62Z" fill="#E7F5FE"/>
</g>
<g opacity="0.34">
<path opacity="0.34" d="M153.915 78.358C168.406 78.358 168.406 55.9155 153.915 55.9155C139.547 55.9155 139.547 78.358 153.915 78.358Z" fill="#E7F5FE"/>
</g>
<g opacity="0.34">
<path opacity="0.34" d="M543.581 49.7228C560.302 49.7228 560.302 23.8086 543.581 23.8086C526.983 23.8086 526.983 49.7228 543.581 49.7228Z" fill="#E7F5FE"/>
</g>
<g opacity="0.34">
<path opacity="0.34" d="M91.7367 282.082C100.035 282.082 100.035 269.062 91.7367 269.062C83.438 269.062 83.438 282.082 91.7367 282.082Z" fill="#E7F5FE"/>
</g>
<g opacity="0.34">
<path opacity="0.34" d="M643.537 254.553C649.358 260.505 658.648 251.454 652.826 245.502C647.005 239.55 637.715 248.602 643.537 254.553Z" fill="#E7F5FE"/>
</g>
<g opacity="0.34">
<path opacity="0.34" d="M127.038 90.8883C135.336 90.8883 135.336 77.9932 127.038 77.9932C118.615 77.9932 118.615 90.8883 127.038 90.8883Z" fill="#E7F5FE"/>
</g>
<g opacity="0.34">
<path opacity="0.34" d="M129.143 67.1999C134.717 67.1999 134.717 58.5205 129.143 58.5205C123.569 58.5205 123.569 67.1999 129.143 67.1999Z" fill="#E7F5FE"/>
</g>
<g opacity="0.34">
<path opacity="0.34" d="M389.745 21.5737C400.893 21.5737 400.893 4.33887 389.745 4.33887C378.598 4.33887 378.598 21.5737 389.745 21.5737Z" fill="#E7F5FE"/>
</g>
<g opacity="0.34">
<path opacity="0.34" d="M234.425 414.751C245.573 414.751 245.573 397.516 234.425 397.516C223.278 397.516 223.278 414.751 234.425 414.751Z" fill="#E7F5FE"/>
</g>
<g opacity="0.34">
<path opacity="0.34" d="M546.182 382.509C557.329 382.509 557.329 365.274 546.182 365.274C535.034 365.274 535.034 382.509 546.182 382.509Z" fill="#E7F5FE"/>
</g>
<g opacity="0.34">
<path opacity="0.34" d="M363.859 8.6794C369.433 8.6794 369.433 0 363.859 0C358.285 0 358.285 8.6794 363.859 8.6794Z" fill="#E7F5FE"/>
</g>
<g opacity="0.34">
<path opacity="0.34" d="M209.033 399.747C214.607 399.747 214.607 391.068 209.033 391.068C203.459 391.068 203.459 399.747 209.033 399.747Z" fill="#E7F5FE"/>
</g>
<g opacity="0.34">
<path opacity="0.34" d="M520.295 393.298C525.868 393.298 525.868 384.619 520.295 384.619C514.721 384.619 514.721 393.298 520.295 393.298Z" fill="#E7F5FE"/>
</g>
<path d="M686.975 116.331H687.175V116.131V114.293V114.093H686.975H686.968H686.96H686.952H686.945H686.937H686.93H686.922H686.915H686.907H686.9H686.892H686.885H686.877H686.87H686.862H686.855H686.847H686.84H686.832H686.825H686.817H686.81H686.803H686.795H686.788H686.78H686.773H686.765H686.758H686.75H686.743H686.736H686.728H686.721H686.713H686.706H686.698H686.691H686.684H686.676H686.669H686.662H686.654H686.647H686.639H686.632H686.625H686.617H686.61H686.603H686.595H686.588H686.58H686.573H686.566H686.558H686.551H686.544H686.536H686.529H686.522H686.514H686.507H686.5H686.493H686.485H686.478H686.471H686.463H686.456H686.449H686.441H686.434H686.427H686.42H686.412H686.405H686.398H686.39H686.383H686.376H686.369H686.361H686.354H686.347H686.34H686.332H686.325H686.318H686.311H686.303H686.296H686.289H686.282H686.275H686.267H686.26H686.253H686.246H686.238H686.231H686.224H686.217H686.21H686.202H686.195H686.188H686.181H686.174H686.166H686.159H686.152H686.145H686.138H686.131H686.123H686.116H686.109H686.102H686.095H686.088H686.08H686.073H686.066H686.059H686.052H686.045H686.038H686.03H686.023H686.016H686.009H686.002H685.995H685.988H685.98H685.973H685.966H685.959H685.952H685.945H685.938H685.931H685.923H685.916H685.909H685.902H685.895H685.888H685.881H685.874H685.867H685.86H685.852H685.845H685.838H685.831H685.824H685.817H685.81H685.803H685.796H685.789H685.782H685.774H685.767H685.76H685.753H685.746H685.739H685.732H685.725H685.718H685.711H685.704H685.697H685.69H685.683H685.676H685.668H685.661H685.654H685.647H685.64H685.633H685.626H685.619H685.612H685.605H685.598H685.591H685.584H685.577H685.57H685.563H685.556H685.549H685.542H685.535H685.528H685.521H685.513H685.506H685.499H685.492H685.485H685.478H685.471H685.464H685.457H685.45H685.443H685.436H685.429H685.422H685.415H685.408H685.401H685.394H685.387H685.38H685.373H685.366H685.359H685.352H685.345H685.338H685.331H685.324H685.317H685.31H685.303H685.296H685.289H685.282H685.275H685.268H685.261H685.254H685.247H685.24H685.233H685.226H685.219H685.212H685.205H685.198H685.191H685.184H685.177H685.17H685.163H685.156H685.149H685.142H685.135H685.127H685.12H685.113H685.106H685.099H685.092H685.085H685.078H685.071H685.064H685.057H685.05H685.043H685.036H685.029H685.022H685.015H685.008H685.001H684.994H684.987H684.98H684.973H684.966H684.959H684.952H684.945H684.938H684.931H684.924H684.917H684.91H684.903H684.896H684.889H684.882H684.875H684.868H684.861H684.854H684.847H684.84H684.833H684.826H684.819H684.812H684.805H684.798H684.791H684.784H684.777H684.77H684.763H684.756H684.749H684.741H684.734H684.727H684.72H684.713H684.706H684.699H684.692H684.685H684.678H684.671H684.664H684.657H684.65H684.643H684.636H684.629H684.622H684.615H684.608H684.601H684.593H684.586H684.579H684.572H684.565H684.558H684.551H684.544H684.537H684.53H684.523H684.516H684.509H684.502H684.495H684.487H684.48H684.473H684.466H684.459H684.452H684.445H684.438H684.431H684.424H684.417H684.409H684.402H684.395H684.388H684.381H684.374H684.367H684.36H684.353H684.346H684.338H684.331H684.324H684.317H684.31H684.303H684.296H684.289H684.281H684.274H684.267H684.26H684.253H684.246H684.239H684.231H684.224H684.217H684.21H684.203H684.196H684.189H684.181H684.174H684.167H684.16H684.153H684.146H684.138H684.131H684.124H684.117H684.11H684.103H684.095H684.088H684.081H684.074H684.067H684.059H684.052H684.045H684.038H684.031H684.023H684.016H684.009H684.002H683.994H683.987H683.98H683.973H683.966H683.958H683.951H683.944H683.937H683.929H683.922H683.915H683.908H683.9H683.893H683.886H683.879H683.871H683.864H683.857H683.849H683.842H683.835H683.828H683.82H683.813H683.806H683.798H683.791H683.784H683.776H683.769H683.762H683.755H683.747H683.74H683.733H683.725H683.718H683.711H683.703H683.696H683.689H683.681H683.674H683.666H683.659H683.652H683.644H683.637H683.63H683.622H683.615H683.607H683.6H683.593H683.585H683.578H683.571H683.563H683.556H683.548H683.541H683.533H683.526H683.519H683.511H683.504H683.496H683.489H683.481H683.474H683.466H683.459H683.452H683.444H683.437H683.429H683.422H683.414H683.407H683.399H683.392H683.384H683.377H683.369H683.362H683.354H683.347H683.339H683.332H683.324H683.317H683.309H683.301H683.294H683.094V114.293V116.131V116.331H683.294H683.301H683.309H683.317H683.324H683.332H683.339H683.347H683.354H683.362H683.369H683.377H683.384H683.392H683.399H683.407H683.414H683.422H683.429H683.437H683.444H683.452H683.459H683.466H683.474H683.481H683.489H683.496H683.504H683.511H683.519H683.526H683.533H683.541H683.548H683.556H683.563H683.571H683.578H683.585H683.593H683.6H683.607H683.615H683.622H683.63H683.637H683.644H683.652H683.659H683.666H683.674H683.681H683.689H683.696H683.703H683.711H683.718H683.725H683.733H683.74H683.747H683.755H683.762H683.769H683.776H683.784H683.791H683.798H683.806H683.813H683.82H683.828H683.835H683.842H683.849H683.857H683.864H683.871H683.879H683.886H683.893H683.9H683.908H683.915H683.922H683.929H683.937H683.944H683.951H683.958H683.966H683.973H683.98H683.987H683.994H684.002H684.009H684.016H684.023H684.031H684.038H684.045H684.052H684.059H684.067H684.074H684.081H684.088H684.095H684.103H684.11H684.117H684.124H684.131H684.138H684.146H684.153H684.16H684.167H684.174H684.181H684.189H684.196H684.203H684.21H684.217H684.224H684.231H684.239H684.246H684.253H684.26H684.267H684.274H684.281H684.289H684.296H684.303H684.31H684.317H684.324H684.331H684.338H684.346H684.353H684.36H684.367H684.374H684.381H684.388H684.395H684.402H684.409H684.417H684.424H684.431H684.438H684.445H684.452H684.459H684.466H684.473H684.48H684.487H684.495H684.502H684.509H684.516H684.523H684.53H684.537H684.544H684.551H684.558H684.565H684.572H684.579H684.586H684.593H684.601H684.608H684.615H684.622H684.629H684.636H684.643H684.65H684.657H684.664H684.671H684.678H684.685H684.692H684.699H684.706H684.713H684.72H684.727H684.734H684.741H684.749H684.756H684.763H684.77H684.777H684.784H684.791H684.798H684.805H684.812H684.819H684.826H684.833H684.84H684.847H684.854H684.861H684.868H684.875H684.882H684.889H684.896H684.903H684.91H684.917H684.924H684.931H684.938H684.945H684.952H684.959H684.966H684.973H684.98H684.987H684.994H685.001H685.008H685.015H685.022H685.029H685.036H685.043H685.05H685.057H685.064H685.071H685.078H685.085H685.092H685.099H685.106H685.113H685.12H685.127H685.135H685.142H685.149H685.156H685.163H685.17H685.177H685.184H685.191H685.198H685.205H685.212H685.219H685.226H685.233H685.24H685.247H685.254H685.261H685.268H685.275H685.282H685.289H685.296H685.303H685.31H685.317H685.324H685.331H685.338H685.345H685.352H685.359H685.366H685.373H685.38H685.387H685.394H685.401H685.408H685.415H685.422H685.429H685.436H685.443H685.45H685.457H685.464H685.471H685.478H685.485H685.492H685.499H685.506H685.513H685.521H685.528H685.535H685.542H685.549H685.556H685.563H685.57H685.577H685.584H685.591H685.598H685.605H685.612H685.619H685.626H685.633H685.64H685.647H685.654H685.661H685.668H685.676H685.683H685.69H685.697H685.704H685.711H685.718H685.725H685.732H685.739H685.746H685.753H685.76H685.767H685.774H685.782H685.789H685.796H685.803H685.81H685.817H685.824H685.831H685.838H685.845H685.852H685.86H685.867H685.874H685.881H685.888H685.895H685.902H685.909H685.916H685.923H685.931H685.938H685.945H685.952H685.959H685.966H685.973H685.98H685.988H685.995H686.002H686.009H686.016H686.023H686.03H686.038H686.045H686.052H686.059H686.066H686.073H686.08H686.088H686.095H686.102H686.109H686.116H686.123H686.131H686.138H686.145H686.152H686.159H686.166H686.174H686.181H686.188H686.195H686.202H686.21H686.217H686.224H686.231H686.238H686.246H686.253H686.26H686.267H686.275H686.282H686.289H686.296H686.303H686.311H686.318H686.325H686.332H686.34H686.347H686.354H686.361H686.369H686.376H686.383H686.39H686.398H686.405H686.412H686.42H686.427H686.434H686.441H686.449H686.456H686.463H686.471H686.478H686.485H686.493H686.5H686.507H686.514H686.522H686.529H686.536H686.544H686.551H686.558H686.566H686.573H686.58H686.588H686.595H686.603H686.61H686.617H686.625H686.632H686.639H686.647H686.654H686.662H686.669H686.676H686.684H686.691H686.698H686.706H686.713H686.721H686.728H686.736H686.743H686.75H686.758H686.765H686.773H686.78H686.788H686.795H686.803H686.81H686.817H686.825H686.832H686.84H686.847H686.855H686.862H686.87H686.877H686.885H686.892H686.9H686.907H686.915H686.922H686.93H686.937H686.945H686.952H686.96H686.968H686.975Z" fill="#B8ECFC" stroke="#B8ECFC" stroke-width="0.4"/>
<mask id="path-21-outside-1" maskUnits="userSpaceOnUse" x="0" y="113.846" width="746" height="237" fill="black">
<rect fill="white" y="113.846" width="746" height="237"/>
<path d="M460.955 350.152V348.314H468.317V350.152H460.955ZM453.592 350.152H446.23V348.314H453.592V350.152ZM475.679 350.152V348.314H483.041V350.152H475.679ZM438.868 350.152H431.506V348.314H438.868V350.152ZM490.587 350.152V348.314H497.95V350.152H490.587ZM423.959 350.152H416.597V348.314H423.959V350.152ZM505.312 349.968V348.13H512.674V349.968H505.312ZM409.235 349.968H401.873V348.13H409.235V349.968ZM394.511 349.968H387.148V348.13H394.511V349.968ZM520.036 349.784V347.946L527.399 347.762V349.601L520.036 349.784ZM379.602 349.784L372.24 349.601V347.762L379.602 347.946V349.784ZM534.945 349.601V347.762L542.307 347.578V349.417L534.945 349.601ZM364.878 349.601L357.515 349.417V347.578L364.878 347.762V349.601ZM549.669 349.417V347.578L557.031 347.395V349.233L549.669 349.417ZM350.153 349.233L342.791 349.049V347.211L350.153 347.395V349.233ZM335.429 349.049L328.067 348.865V347.027L335.429 347.211V349.049ZM564.394 349.049V347.211L571.756 347.027V348.865L564.394 349.049ZM320.52 348.865L313.158 348.681V346.843L320.52 347.027V348.865ZM579.302 348.681V346.843C581.695 346.843 584.088 346.843 586.664 346.659V348.497C584.088 348.681 581.511 348.681 579.302 348.681ZM305.796 348.497L298.434 348.314V346.475L305.796 346.659V348.497ZM594.027 348.497V346.659C596.419 346.659 598.812 346.475 601.389 346.475V348.314C598.996 348.314 596.419 348.314 594.027 348.497ZM291.071 348.13L283.709 347.946V346.108L291.071 346.292V348.13ZM608.935 347.946V346.108C611.328 345.924 613.905 345.924 616.297 345.74L616.481 347.578C613.721 347.578 611.328 347.762 608.935 347.946ZM276.347 347.946L268.985 347.762V345.924L276.347 346.108V347.946ZM261.438 347.578L254.076 347.395V345.556L261.438 345.74V347.578ZM246.714 347.211L239.352 347.027V345.189L246.714 345.372V347.211ZM623.66 347.027L623.476 345.189C625.868 345.005 628.445 344.821 630.838 344.637L631.022 346.475C628.629 346.659 626.052 346.843 623.66 347.027ZM231.99 346.843L224.627 346.659V344.821L231.99 345.005V346.843ZM217.081 346.475L209.719 346.292V344.453L217.081 344.637V346.475ZM202.357 346.108L194.994 345.924V344.086L202.357 344.269V346.108ZM187.632 345.74L180.27 345.556V343.718L187.632 343.902V345.74ZM638.384 345.556L638.2 343.718C640.593 343.35 643.169 343.166 645.562 342.799L645.746 344.637C643.354 345.005 640.961 345.372 638.384 345.556ZM172.908 345.189C170.515 345.189 167.938 345.005 165.546 344.821V342.983C167.938 343.166 170.515 343.166 172.908 343.35V345.189ZM157.999 344.637C155.607 344.453 153.03 344.453 150.637 344.269V342.431C153.03 342.615 155.607 342.615 157.999 342.799V344.637ZM143.275 343.902C140.882 343.718 138.305 343.718 135.913 343.534V341.696C138.305 341.88 140.882 341.88 143.275 342.063V343.902ZM653.108 343.534L652.74 341.696C655.133 341.328 657.71 340.777 659.919 340.409L660.287 342.247C658.078 342.615 655.685 343.166 653.108 343.534ZM128.55 343.166C126.158 342.983 123.581 342.983 121.188 342.799L121.372 340.96C123.765 341.144 126.342 341.144 128.734 341.328L128.55 343.166ZM113.826 342.431C111.433 342.247 108.856 342.063 106.464 342.063L106.648 340.225C109.041 340.409 111.617 340.593 114.01 340.593L113.826 342.431ZM99.1016 341.512H98.5494C96.3407 341.328 94.1321 341.328 91.7393 341.144L91.9234 339.306C94.3161 339.49 96.7088 339.49 98.9175 339.674H99.4697L99.1016 341.512ZM84.1931 340.593C81.8003 340.409 79.4076 340.225 76.8308 340.041L77.0149 338.203C79.5917 338.387 81.9844 338.571 84.3771 338.754L84.1931 340.593ZM667.649 340.593L667.281 338.754C669.673 338.203 672.066 337.468 674.275 336.732L674.827 338.571C672.618 339.306 670.226 339.857 667.649 340.593ZM69.4686 339.49C67.0759 339.306 64.4991 338.938 62.1064 338.754L62.2905 336.916C64.6832 337.284 67.26 337.468 69.6527 337.651L69.4686 339.49ZM54.7442 337.651C52.1674 337.284 49.7747 336.916 47.382 336.365L47.7501 334.526C49.9587 334.894 52.5355 335.445 54.9282 335.813L54.7442 337.651ZM682.005 336.181L681.269 334.526C683.662 333.607 685.87 332.688 687.895 331.585L688.631 333.239C686.791 334.159 684.398 335.262 682.005 336.181ZM40.2038 334.894C37.627 334.342 35.2343 333.607 33.0256 332.872L33.5778 331.033C35.7865 331.769 38.1792 332.504 40.5719 333.056L40.2038 334.894ZM26.0315 330.114C23.6388 329.011 21.4302 327.908 19.4055 326.805L20.3258 325.151C22.3504 326.254 24.5591 327.357 26.7678 328.46L26.0315 330.114ZM695.257 329.563L694.153 328.092C696.362 326.621 698.202 325.151 699.859 323.68L701.147 324.967C699.49 326.438 697.65 328.092 695.257 329.563ZM12.9636 322.577C11.6752 321.474 10.3868 320.555 9.2825 319.268C8.73033 318.717 7.99411 317.981 7.44194 317.246L8.91438 316.143C9.46655 316.694 10.0187 317.43 10.5709 317.981C11.6752 319.084 12.7795 320.003 14.0679 321.106L12.9636 322.577ZM705.932 318.9L704.276 317.981C705.564 315.959 706.3 313.753 706.853 311.547L708.693 311.915C708.141 314.305 707.221 316.694 705.932 318.9ZM3.39272 310.996C2.28839 308.606 1.55217 306.216 1.18406 303.826L3.02461 303.458C3.39272 305.848 4.12894 308.054 5.23328 310.26L3.39272 310.996ZM707.405 304.378C707.221 301.988 706.669 299.598 705.748 297.576L707.405 296.841C708.325 299.047 708.877 301.62 709.061 304.194L707.405 304.378ZM2.84055 296.473L1 296.289C1.36811 293.715 2.10433 291.326 3.20867 288.936L4.86516 289.671C3.76083 291.877 3.20867 294.083 2.84055 296.473ZM702.067 291.693C700.595 290.039 698.754 288.568 696.546 287.281L697.466 285.811C699.859 287.281 701.699 288.752 703.356 290.59L702.067 291.693ZM689.919 283.972C687.527 282.869 684.95 282.134 683.109 281.399L683.662 279.744C685.502 280.479 688.079 281.215 690.656 282.318L689.919 283.972ZM8.91438 283.788L7.626 282.502C9.28249 280.663 11.3071 279.009 13.5158 277.722L14.436 279.193C12.2274 280.663 10.3868 282.134 8.91438 283.788ZM676.115 279.193C673.907 278.457 671.514 277.906 668.937 277.354L669.305 275.516C671.882 276.067 674.275 276.803 676.484 277.354L676.115 279.193ZM20.878 276.435L20.3258 274.597C22.3504 274.045 24.9272 273.494 27.688 273.126L27.8721 274.964C25.2953 275.516 22.9026 275.884 20.878 276.435ZM661.759 275.7C659.366 275.148 656.974 274.781 654.581 274.229L654.949 272.391C657.526 272.758 659.918 273.31 662.311 273.861L661.759 275.7ZM35.2343 274.413L35.0503 272.575C37.2589 272.391 39.8357 272.207 42.4125 272.207V274.045C40.0198 274.045 37.443 274.229 35.2343 274.413ZM65.6035 273.861H64.6832V272.023H65.6035C67.9962 272.023 70.0208 272.023 72.0454 272.023V273.861C70.2048 273.861 67.9962 273.861 65.6035 273.861ZM49.9587 273.861V272.023C51.7993 272.023 53.4558 272.023 55.2964 272.023H57.321V273.861H55.2964C53.4558 273.861 51.7993 273.861 49.9587 273.861ZM79.5917 273.31L79.4076 271.472C81.9844 271.288 84.3771 270.92 86.5858 270.369L86.9539 272.207C84.7452 272.758 82.1685 273.126 79.5917 273.31ZM647.403 273.126C645.01 272.758 642.617 272.391 640.041 272.023L640.225 270.185C642.801 270.552 645.194 270.92 647.587 271.288L647.403 273.126ZM632.678 271.104C630.286 270.736 627.893 270.552 625.316 270.185L625.5 268.346C627.893 268.53 630.47 268.898 632.862 269.266L632.678 271.104ZM94.3161 270.185L93.7639 268.53C96.3407 267.611 98.3653 266.508 100.022 265.221L101.126 266.692C99.2856 267.979 96.8929 269.266 94.3161 270.185ZM617.954 269.449C615.561 269.266 612.984 269.082 610.592 268.714L610.776 266.876C613.168 267.06 615.745 267.243 618.138 267.611L617.954 269.449ZM603.229 268.346C600.837 268.163 598.26 267.979 595.867 267.795L596.051 265.957C598.444 266.14 601.021 266.324 603.413 266.508L603.229 268.346ZM588.505 267.243C586.112 267.06 583.536 267.06 581.143 266.876L581.327 265.037C583.72 265.221 586.296 265.221 588.689 265.405L588.505 267.243ZM573.781 266.508C571.388 266.324 568.811 266.324 566.418 266.14V264.302C568.811 264.486 571.388 264.486 573.781 264.67V266.508ZM559.056 265.957C556.663 265.957 554.087 265.773 551.694 265.773V263.934C554.087 263.934 556.663 264.118 559.056 264.118V265.957ZM544.148 265.589C541.755 265.589 539.178 265.405 536.785 265.405V263.567C539.178 263.567 541.755 263.751 544.148 263.751V265.589ZM529.423 265.221L522.061 265.037V263.199L529.423 263.383V265.221ZM514.699 264.854L507.337 264.67V262.831L514.699 263.015V264.854ZM499.79 264.67L492.428 264.486V262.648L499.79 262.831V264.67ZM485.066 264.302C482.489 264.302 480.096 264.118 477.704 264.118V262.28C480.096 262.28 482.489 262.464 485.066 262.464V264.302ZM470.341 263.934C467.765 263.934 465.372 263.751 462.979 263.751V261.912C465.372 261.912 467.765 262.096 470.341 262.096V263.934ZM455.433 263.383C452.856 263.199 450.279 263.199 448.071 263.015L448.255 261.177C450.463 261.361 453.04 261.545 455.617 261.545L455.433 263.383ZM440.708 262.464C439.972 262.464 439.42 262.28 438.868 262.28C437.027 262.096 435.187 261.912 433.346 261.545L433.53 259.706C435.371 259.89 437.211 260.074 439.052 260.442C439.604 260.442 440.34 260.625 440.893 260.625L440.708 262.464ZM425.984 260.625C423.591 260.258 421.015 260.074 418.622 259.706L418.806 257.868C421.199 258.236 423.775 258.42 426.168 258.787L425.984 260.625ZM105.175 260.074L103.335 259.706C103.335 259.339 103.335 258.971 103.335 258.603C103.335 256.949 102.783 255.111 101.494 253.456L102.967 252.353C104.439 254.375 105.175 256.581 105.175 258.603C105.359 259.155 105.359 259.522 105.175 260.074ZM411.26 258.603C408.683 258.236 406.29 257.684 403.897 257.316L404.266 255.478C406.474 256.03 408.867 256.397 411.444 256.765L411.26 258.603ZM396.719 255.662C394.326 254.927 391.75 254.191 389.541 253.456L390.093 251.802C392.302 252.537 394.695 253.272 397.087 254.008L396.719 255.662ZM382.547 250.699C380.154 249.596 377.946 248.493 375.921 247.39L376.841 245.735C378.866 246.838 381.074 247.941 383.283 249.044L382.547 250.699ZM96.5248 248.676C94.6842 247.39 92.6596 246.287 90.2669 245.184L91.0031 243.529C93.3958 244.632 95.7886 245.735 97.6291 247.206L96.5248 248.676ZM369.663 243.345C367.823 242.058 365.982 240.588 364.325 239.117L363.773 238.749L365.062 237.463L365.614 237.83C367.27 239.301 368.927 240.772 370.767 242.058L369.663 243.345ZM83.4568 242.794C81.2482 242.242 78.8555 241.691 76.2787 241.323L76.4627 239.485C79.0395 239.852 81.4322 240.404 83.825 240.955L83.4568 242.794ZM358.804 232.867C357.331 230.661 356.043 228.455 355.123 226.249L356.779 225.513C357.699 227.719 358.804 229.742 360.276 231.764L358.804 232.867ZM353.466 218.895C353.466 218.16 353.466 217.609 353.466 216.873C353.466 214.851 353.65 213.013 354.202 211.175L356.043 211.542C355.675 213.197 355.491 215.035 355.491 216.689C355.491 217.241 355.491 217.792 355.491 218.528L353.466 218.895ZM358.62 205.292L357.147 204.373C358.436 202.351 360.092 200.512 362.117 198.674L363.405 200.145C361.381 201.615 359.908 203.454 358.62 205.292ZM369.295 195.733L368.375 194.078C370.399 192.975 372.608 191.688 375.001 190.769L375.737 192.424C373.344 193.527 371.136 194.63 369.295 195.733ZM382.547 190.034L381.995 188.379C384.203 187.644 386.412 186.909 389.173 186.173L389.725 188.012C387.148 188.563 384.756 189.298 382.547 190.034ZM396.719 185.989L396.351 184.151C398.56 183.6 401.137 183.048 403.529 182.497L403.897 184.335C401.505 185.07 399.112 185.438 396.719 185.989ZM411.26 183.048L410.891 181.21C413.284 180.842 415.677 180.291 418.254 179.923L418.622 181.761C416.045 182.129 413.468 182.68 411.26 183.048ZM425.8 180.658L425.432 178.82C427.825 178.452 430.217 178.085 432.794 177.717L432.978 179.555C430.585 179.923 428.193 180.291 425.8 180.658ZM440.34 178.636L440.156 176.798C442.549 176.43 444.942 176.246 447.519 175.879L447.703 177.717C445.31 177.901 442.733 178.268 440.34 178.636ZM455.065 176.798L454.881 174.959C457.273 174.592 459.85 174.408 462.243 174.224L462.427 176.062C460.034 176.246 457.458 176.43 455.065 176.798ZM469.789 175.143L469.605 173.305C471.998 173.121 474.575 172.753 476.967 172.57L477.151 174.408C474.759 174.776 472.182 174.959 469.789 175.143ZM484.514 173.856L484.33 172.018C486.722 171.834 489.299 171.65 491.692 171.467L491.876 173.305C489.483 173.489 486.906 173.673 484.514 173.856ZM639.488 172.937C637.096 172.937 634.519 172.937 632.126 172.937V171.099C634.519 171.099 637.096 171.099 639.488 171.099V172.937ZM646.851 172.937V171.099C649.243 171.099 651.82 171.099 654.213 170.915V172.753C651.82 172.937 649.427 172.937 646.851 172.937ZM624.764 172.753C622.187 172.753 619.794 172.753 617.402 172.57V170.731C619.794 170.731 622.371 170.915 624.764 170.915V172.753ZM499.238 172.753L499.054 170.915C501.447 170.731 504.024 170.547 506.416 170.364L506.6 172.202C504.208 172.386 501.631 172.57 499.238 172.753ZM661.759 172.57V170.731C664.152 170.731 666.729 170.547 669.121 170.547V172.386C666.729 172.57 664.152 172.57 661.759 172.57ZM609.855 172.57C607.279 172.57 604.886 172.386 602.493 172.386V170.547C604.886 170.547 607.463 170.731 609.855 170.731V172.57ZM595.131 172.018L587.769 171.834V169.996L595.131 170.18V172.018ZM676.484 172.018L676.299 170.18C678.692 169.996 681.269 169.812 683.662 169.628L683.846 171.467C681.453 171.65 679.06 171.834 676.484 172.018ZM513.963 171.834L513.779 169.996C516.355 169.812 518.748 169.812 521.141 169.628V171.467C518.932 171.467 516.355 171.65 513.963 171.834ZM580.407 171.467L573.044 171.099V169.261L580.407 169.628V171.467ZM528.687 171.099V169.261C531.264 169.077 533.656 169.077 536.049 169.077V170.915C533.656 170.915 531.264 171.099 528.687 171.099ZM691.392 170.915L691.208 169.077C693.785 168.893 696.177 168.525 698.57 168.341L698.754 170.18C696.362 170.364 693.785 170.731 691.392 170.915ZM565.682 170.915C562.921 170.731 560.344 170.731 558.32 170.731V168.893C560.344 168.893 562.921 169.077 565.682 169.077V170.915ZM543.411 170.731V168.893C545.988 168.893 548.381 168.893 550.774 168.893V170.731C548.381 170.731 545.988 170.731 543.411 170.731ZM706.116 169.077L705.748 167.238C708.325 166.871 710.718 166.319 712.926 165.952L713.295 167.79C711.086 168.158 708.509 168.709 706.116 169.077ZM720.657 166.136L720.105 164.297C722.681 163.562 724.89 162.827 727.099 162.091L727.651 163.746C725.626 164.665 723.234 165.4 720.657 166.136ZM734.645 160.804L733.725 159.15C736.117 157.863 737.958 156.392 739.43 154.922L740.719 156.209C739.246 157.863 737.038 159.334 734.645 160.804ZM744.584 149.591L742.743 149.223C742.743 149.039 742.743 148.855 742.927 148.671C743.112 147.568 743.112 146.649 743.112 145.546C743.112 144.443 742.927 143.34 742.743 142.237L744.584 141.87C744.768 143.156 744.952 144.259 744.952 145.546C744.952 146.649 744.768 147.752 744.584 148.855C744.584 149.039 744.584 149.407 744.584 149.591ZM739.983 135.803C738.694 133.965 737.038 132.31 735.197 130.656L736.302 129.185C738.326 130.84 740.167 132.862 741.455 134.7L739.983 135.803ZM729.307 126.611C727.283 125.508 725.074 124.405 722.681 123.486L723.418 121.832C725.81 122.751 728.203 123.854 730.228 125.141L729.307 126.611ZM715.871 120.913C713.663 120.177 711.27 119.626 708.877 119.074L709.245 117.236C711.638 117.788 714.215 118.523 716.424 119.074L715.871 120.913ZM701.515 117.604C699.122 117.236 696.73 116.868 694.153 116.685L694.337 114.846C696.73 115.03 699.306 115.398 701.699 115.765L701.515 117.604Z"/>
</mask>
<path d="M460.955 350.152V348.314H468.317V350.152H460.955ZM453.592 350.152H446.23V348.314H453.592V350.152ZM475.679 350.152V348.314H483.041V350.152H475.679ZM438.868 350.152H431.506V348.314H438.868V350.152ZM490.587 350.152V348.314H497.95V350.152H490.587ZM423.959 350.152H416.597V348.314H423.959V350.152ZM505.312 349.968V348.13H512.674V349.968H505.312ZM409.235 349.968H401.873V348.13H409.235V349.968ZM394.511 349.968H387.148V348.13H394.511V349.968ZM520.036 349.784V347.946L527.399 347.762V349.601L520.036 349.784ZM379.602 349.784L372.24 349.601V347.762L379.602 347.946V349.784ZM534.945 349.601V347.762L542.307 347.578V349.417L534.945 349.601ZM364.878 349.601L357.515 349.417V347.578L364.878 347.762V349.601ZM549.669 349.417V347.578L557.031 347.395V349.233L549.669 349.417ZM350.153 349.233L342.791 349.049V347.211L350.153 347.395V349.233ZM335.429 349.049L328.067 348.865V347.027L335.429 347.211V349.049ZM564.394 349.049V347.211L571.756 347.027V348.865L564.394 349.049ZM320.52 348.865L313.158 348.681V346.843L320.52 347.027V348.865ZM579.302 348.681V346.843C581.695 346.843 584.088 346.843 586.664 346.659V348.497C584.088 348.681 581.511 348.681 579.302 348.681ZM305.796 348.497L298.434 348.314V346.475L305.796 346.659V348.497ZM594.027 348.497V346.659C596.419 346.659 598.812 346.475 601.389 346.475V348.314C598.996 348.314 596.419 348.314 594.027 348.497ZM291.071 348.13L283.709 347.946V346.108L291.071 346.292V348.13ZM608.935 347.946V346.108C611.328 345.924 613.905 345.924 616.297 345.74L616.481 347.578C613.721 347.578 611.328 347.762 608.935 347.946ZM276.347 347.946L268.985 347.762V345.924L276.347 346.108V347.946ZM261.438 347.578L254.076 347.395V345.556L261.438 345.74V347.578ZM246.714 347.211L239.352 347.027V345.189L246.714 345.372V347.211ZM623.66 347.027L623.476 345.189C625.868 345.005 628.445 344.821 630.838 344.637L631.022 346.475C628.629 346.659 626.052 346.843 623.66 347.027ZM231.99 346.843L224.627 346.659V344.821L231.99 345.005V346.843ZM217.081 346.475L209.719 346.292V344.453L217.081 344.637V346.475ZM202.357 346.108L194.994 345.924V344.086L202.357 344.269V346.108ZM187.632 345.74L180.27 345.556V343.718L187.632 343.902V345.74ZM638.384 345.556L638.2 343.718C640.593 343.35 643.169 343.166 645.562 342.799L645.746 344.637C643.354 345.005 640.961 345.372 638.384 345.556ZM172.908 345.189C170.515 345.189 167.938 345.005 165.546 344.821V342.983C167.938 343.166 170.515 343.166 172.908 343.35V345.189ZM157.999 344.637C155.607 344.453 153.03 344.453 150.637 344.269V342.431C153.03 342.615 155.607 342.615 157.999 342.799V344.637ZM143.275 343.902C140.882 343.718 138.305 343.718 135.913 343.534V341.696C138.305 341.88 140.882 341.88 143.275 342.063V343.902ZM653.108 343.534L652.74 341.696C655.133 341.328 657.71 340.777 659.919 340.409L660.287 342.247C658.078 342.615 655.685 343.166 653.108 343.534ZM128.55 343.166C126.158 342.983 123.581 342.983 121.188 342.799L121.372 340.96C123.765 341.144 126.342 341.144 128.734 341.328L128.55 343.166ZM113.826 342.431C111.433 342.247 108.856 342.063 106.464 342.063L106.648 340.225C109.041 340.409 111.617 340.593 114.01 340.593L113.826 342.431ZM99.1016 341.512H98.5494C96.3407 341.328 94.1321 341.328 91.7393 341.144L91.9234 339.306C94.3161 339.49 96.7088 339.49 98.9175 339.674H99.4697L99.1016 341.512ZM84.1931 340.593C81.8003 340.409 79.4076 340.225 76.8308 340.041L77.0149 338.203C79.5917 338.387 81.9844 338.571 84.3771 338.754L84.1931 340.593ZM667.649 340.593L667.281 338.754C669.673 338.203 672.066 337.468 674.275 336.732L674.827 338.571C672.618 339.306 670.226 339.857 667.649 340.593ZM69.4686 339.49C67.0759 339.306 64.4991 338.938 62.1064 338.754L62.2905 336.916C64.6832 337.284 67.26 337.468 69.6527 337.651L69.4686 339.49ZM54.7442 337.651C52.1674 337.284 49.7747 336.916 47.382 336.365L47.7501 334.526C49.9587 334.894 52.5355 335.445 54.9282 335.813L54.7442 337.651ZM682.005 336.181L681.269 334.526C683.662 333.607 685.87 332.688 687.895 331.585L688.631 333.239C686.791 334.159 684.398 335.262 682.005 336.181ZM40.2038 334.894C37.627 334.342 35.2343 333.607 33.0256 332.872L33.5778 331.033C35.7865 331.769 38.1792 332.504 40.5719 333.056L40.2038 334.894ZM26.0315 330.114C23.6388 329.011 21.4302 327.908 19.4055 326.805L20.3258 325.151C22.3504 326.254 24.5591 327.357 26.7678 328.46L26.0315 330.114ZM695.257 329.563L694.153 328.092C696.362 326.621 698.202 325.151 699.859 323.68L701.147 324.967C699.49 326.438 697.65 328.092 695.257 329.563ZM12.9636 322.577C11.6752 321.474 10.3868 320.555 9.2825 319.268C8.73033 318.717 7.99411 317.981 7.44194 317.246L8.91438 316.143C9.46655 316.694 10.0187 317.43 10.5709 317.981C11.6752 319.084 12.7795 320.003 14.0679 321.106L12.9636 322.577ZM705.932 318.9L704.276 317.981C705.564 315.959 706.3 313.753 706.853 311.547L708.693 311.915C708.141 314.305 707.221 316.694 705.932 318.9ZM3.39272 310.996C2.28839 308.606 1.55217 306.216 1.18406 303.826L3.02461 303.458C3.39272 305.848 4.12894 308.054 5.23328 310.26L3.39272 310.996ZM707.405 304.378C707.221 301.988 706.669 299.598 705.748 297.576L707.405 296.841C708.325 299.047 708.877 301.62 709.061 304.194L707.405 304.378ZM2.84055 296.473L1 296.289C1.36811 293.715 2.10433 291.326 3.20867 288.936L4.86516 289.671C3.76083 291.877 3.20867 294.083 2.84055 296.473ZM702.067 291.693C700.595 290.039 698.754 288.568 696.546 287.281L697.466 285.811C699.859 287.281 701.699 288.752 703.356 290.59L702.067 291.693ZM689.919 283.972C687.527 282.869 684.95 282.134 683.109 281.399L683.662 279.744C685.502 280.479 688.079 281.215 690.656 282.318L689.919 283.972ZM8.91438 283.788L7.626 282.502C9.28249 280.663 11.3071 279.009 13.5158 277.722L14.436 279.193C12.2274 280.663 10.3868 282.134 8.91438 283.788ZM676.115 279.193C673.907 278.457 671.514 277.906 668.937 277.354L669.305 275.516C671.882 276.067 674.275 276.803 676.484 277.354L676.115 279.193ZM20.878 276.435L20.3258 274.597C22.3504 274.045 24.9272 273.494 27.688 273.126L27.8721 274.964C25.2953 275.516 22.9026 275.884 20.878 276.435ZM661.759 275.7C659.366 275.148 656.974 274.781 654.581 274.229L654.949 272.391C657.526 272.758 659.918 273.31 662.311 273.861L661.759 275.7ZM35.2343 274.413L35.0503 272.575C37.2589 272.391 39.8357 272.207 42.4125 272.207V274.045C40.0198 274.045 37.443 274.229 35.2343 274.413ZM65.6035 273.861H64.6832V272.023H65.6035C67.9962 272.023 70.0208 272.023 72.0454 272.023V273.861C70.2048 273.861 67.9962 273.861 65.6035 273.861ZM49.9587 273.861V272.023C51.7993 272.023 53.4558 272.023 55.2964 272.023H57.321V273.861H55.2964C53.4558 273.861 51.7993 273.861 49.9587 273.861ZM79.5917 273.31L79.4076 271.472C81.9844 271.288 84.3771 270.92 86.5858 270.369L86.9539 272.207C84.7452 272.758 82.1685 273.126 79.5917 273.31ZM647.403 273.126C645.01 272.758 642.617 272.391 640.041 272.023L640.225 270.185C642.801 270.552 645.194 270.92 647.587 271.288L647.403 273.126ZM632.678 271.104C630.286 270.736 627.893 270.552 625.316 270.185L625.5 268.346C627.893 268.53 630.47 268.898 632.862 269.266L632.678 271.104ZM94.3161 270.185L93.7639 268.53C96.3407 267.611 98.3653 266.508 100.022 265.221L101.126 266.692C99.2856 267.979 96.8929 269.266 94.3161 270.185ZM617.954 269.449C615.561 269.266 612.984 269.082 610.592 268.714L610.776 266.876C613.168 267.06 615.745 267.243 618.138 267.611L617.954 269.449ZM603.229 268.346C600.837 268.163 598.26 267.979 595.867 267.795L596.051 265.957C598.444 266.14 601.021 266.324 603.413 266.508L603.229 268.346ZM588.505 267.243C586.112 267.06 583.536 267.06 581.143 266.876L581.327 265.037C583.72 265.221 586.296 265.221 588.689 265.405L588.505 267.243ZM573.781 266.508C571.388 266.324 568.811 266.324 566.418 266.14V264.302C568.811 264.486 571.388 264.486 573.781 264.67V266.508ZM559.056 265.957C556.663 265.957 554.087 265.773 551.694 265.773V263.934C554.087 263.934 556.663 264.118 559.056 264.118V265.957ZM544.148 265.589C541.755 265.589 539.178 265.405 536.785 265.405V263.567C539.178 263.567 541.755 263.751 544.148 263.751V265.589ZM529.423 265.221L522.061 265.037V263.199L529.423 263.383V265.221ZM514.699 264.854L507.337 264.67V262.831L514.699 263.015V264.854ZM499.79 264.67L492.428 264.486V262.648L499.79 262.831V264.67ZM485.066 264.302C482.489 264.302 480.096 264.118 477.704 264.118V262.28C480.096 262.28 482.489 262.464 485.066 262.464V264.302ZM470.341 263.934C467.765 263.934 465.372 263.751 462.979 263.751V261.912C465.372 261.912 467.765 262.096 470.341 262.096V263.934ZM455.433 263.383C452.856 263.199 450.279 263.199 448.071 263.015L448.255 261.177C450.463 261.361 453.04 261.545 455.617 261.545L455.433 263.383ZM440.708 262.464C439.972 262.464 439.42 262.28 438.868 262.28C437.027 262.096 435.187 261.912 433.346 261.545L433.53 259.706C435.371 259.89 437.211 260.074 439.052 260.442C439.604 260.442 440.34 260.625 440.893 260.625L440.708 262.464ZM425.984 260.625C423.591 260.258 421.015 260.074 418.622 259.706L418.806 257.868C421.199 258.236 423.775 258.42 426.168 258.787L425.984 260.625ZM105.175 260.074L103.335 259.706C103.335 259.339 103.335 258.971 103.335 258.603C103.335 256.949 102.783 255.111 101.494 253.456L102.967 252.353C104.439 254.375 105.175 256.581 105.175 258.603C105.359 259.155 105.359 259.522 105.175 260.074ZM411.26 258.603C408.683 258.236 406.29 257.684 403.897 257.316L404.266 255.478C406.474 256.03 408.867 256.397 411.444 256.765L411.26 258.603ZM396.719 255.662C394.326 254.927 391.75 254.191 389.541 253.456L390.093 251.802C392.302 252.537 394.695 253.272 397.087 254.008L396.719 255.662ZM382.547 250.699C380.154 249.596 377.946 248.493 375.921 247.39L376.841 245.735C378.866 246.838 381.074 247.941 383.283 249.044L382.547 250.699ZM96.5248 248.676C94.6842 247.39 92.6596 246.287 90.2669 245.184L91.0031 243.529C93.3958 244.632 95.7886 245.735 97.6291 247.206L96.5248 248.676ZM369.663 243.345C367.823 242.058 365.982 240.588 364.325 239.117L363.773 238.749L365.062 237.463L365.614 237.83C367.27 239.301 368.927 240.772 370.767 242.058L369.663 243.345ZM83.4568 242.794C81.2482 242.242 78.8555 241.691 76.2787 241.323L76.4627 239.485C79.0395 239.852 81.4322 240.404 83.825 240.955L83.4568 242.794ZM358.804 232.867C357.331 230.661 356.043 228.455 355.123 226.249L356.779 225.513C357.699 227.719 358.804 229.742 360.276 231.764L358.804 232.867ZM353.466 218.895C353.466 218.16 353.466 217.609 353.466 216.873C353.466 214.851 353.65 213.013 354.202 211.175L356.043 211.542C355.675 213.197 355.491 215.035 355.491 216.689C355.491 217.241 355.491 217.792 355.491 218.528L353.466 218.895ZM358.62 205.292L357.147 204.373C358.436 202.351 360.092 200.512 362.117 198.674L363.405 200.145C361.381 201.615 359.908 203.454 358.62 205.292ZM369.295 195.733L368.375 194.078C370.399 192.975 372.608 191.688 375.001 190.769L375.737 192.424C373.344 193.527 371.136 194.63 369.295 195.733ZM382.547 190.034L381.995 188.379C384.203 187.644 386.412 186.909 389.173 186.173L389.725 188.012C387.148 188.563 384.756 189.298 382.547 190.034ZM396.719 185.989L396.351 184.151C398.56 183.6 401.137 183.048 403.529 182.497L403.897 184.335C401.505 185.07 399.112 185.438 396.719 185.989ZM411.26 183.048L410.891 181.21C413.284 180.842 415.677 180.291 418.254 179.923L418.622 181.761C416.045 182.129 413.468 182.68 411.26 183.048ZM425.8 180.658L425.432 178.82C427.825 178.452 430.217 178.085 432.794 177.717L432.978 179.555C430.585 179.923 428.193 180.291 425.8 180.658ZM440.34 178.636L440.156 176.798C442.549 176.43 444.942 176.246 447.519 175.879L447.703 177.717C445.31 177.901 442.733 178.268 440.34 178.636ZM455.065 176.798L454.881 174.959C457.273 174.592 459.85 174.408 462.243 174.224L462.427 176.062C460.034 176.246 457.458 176.43 455.065 176.798ZM469.789 175.143L469.605 173.305C471.998 173.121 474.575 172.753 476.967 172.57L477.151 174.408C474.759 174.776 472.182 174.959 469.789 175.143ZM484.514 173.856L484.33 172.018C486.722 171.834 489.299 171.65 491.692 171.467L491.876 173.305C489.483 173.489 486.906 173.673 484.514 173.856ZM639.488 172.937C637.096 172.937 634.519 172.937 632.126 172.937V171.099C634.519 171.099 637.096 171.099 639.488 171.099V172.937ZM646.851 172.937V171.099C649.243 171.099 651.82 171.099 654.213 170.915V172.753C651.82 172.937 649.427 172.937 646.851 172.937ZM624.764 172.753C622.187 172.753 619.794 172.753 617.402 172.57V170.731C619.794 170.731 622.371 170.915 624.764 170.915V172.753ZM499.238 172.753L499.054 170.915C501.447 170.731 504.024 170.547 506.416 170.364L506.6 172.202C504.208 172.386 501.631 172.57 499.238 172.753ZM661.759 172.57V170.731C664.152 170.731 666.729 170.547 669.121 170.547V172.386C666.729 172.57 664.152 172.57 661.759 172.57ZM609.855 172.57C607.279 172.57 604.886 172.386 602.493 172.386V170.547C604.886 170.547 607.463 170.731 609.855 170.731V172.57ZM595.131 172.018L587.769 171.834V169.996L595.131 170.18V172.018ZM676.484 172.018L676.299 170.18C678.692 169.996 681.269 169.812 683.662 169.628L683.846 171.467C681.453 171.65 679.06 171.834 676.484 172.018ZM513.963 171.834L513.779 169.996C516.355 169.812 518.748 169.812 521.141 169.628V171.467C518.932 171.467 516.355 171.65 513.963 171.834ZM580.407 171.467L573.044 171.099V169.261L580.407 169.628V171.467ZM528.687 171.099V169.261C531.264 169.077 533.656 169.077 536.049 169.077V170.915C533.656 170.915 531.264 171.099 528.687 171.099ZM691.392 170.915L691.208 169.077C693.785 168.893 696.177 168.525 698.57 168.341L698.754 170.18C696.362 170.364 693.785 170.731 691.392 170.915ZM565.682 170.915C562.921 170.731 560.344 170.731 558.32 170.731V168.893C560.344 168.893 562.921 169.077 565.682 169.077V170.915ZM543.411 170.731V168.893C545.988 168.893 548.381 168.893 550.774 168.893V170.731C548.381 170.731 545.988 170.731 543.411 170.731ZM706.116 169.077L705.748 167.238C708.325 166.871 710.718 166.319 712.926 165.952L713.295 167.79C711.086 168.158 708.509 168.709 706.116 169.077ZM720.657 166.136L720.105 164.297C722.681 163.562 724.89 162.827 727.099 162.091L727.651 163.746C725.626 164.665 723.234 165.4 720.657 166.136ZM734.645 160.804L733.725 159.15C736.117 157.863 737.958 156.392 739.43 154.922L740.719 156.209C739.246 157.863 737.038 159.334 734.645 160.804ZM744.584 149.591L742.743 149.223C742.743 149.039 742.743 148.855 742.927 148.671C743.112 147.568 743.112 146.649 743.112 145.546C743.112 144.443 742.927 143.34 742.743 142.237L744.584 141.87C744.768 143.156 744.952 144.259 744.952 145.546C744.952 146.649 744.768 147.752 744.584 148.855C744.584 149.039 744.584 149.407 744.584 149.591ZM739.983 135.803C738.694 133.965 737.038 132.31 735.197 130.656L736.302 129.185C738.326 130.84 740.167 132.862 741.455 134.7L739.983 135.803ZM729.307 126.611C727.283 125.508 725.074 124.405 722.681 123.486L723.418 121.832C725.81 122.751 728.203 123.854 730.228 125.141L729.307 126.611ZM715.871 120.913C713.663 120.177 711.27 119.626 708.877 119.074L709.245 117.236C711.638 117.788 714.215 118.523 716.424 119.074L715.871 120.913ZM701.515 117.604C699.122 117.236 696.73 116.868 694.153 116.685L694.337 114.846C696.73 115.03 699.306 115.398 701.699 115.765L701.515 117.604Z" fill="#B8ECFC"/>
<path d="M460.955 350.152V348.314H468.317V350.152H460.955ZM453.592 350.152H446.23V348.314H453.592V350.152ZM475.679 350.152V348.314H483.041V350.152H475.679ZM438.868 350.152H431.506V348.314H438.868V350.152ZM490.587 350.152V348.314H497.95V350.152H490.587ZM423.959 350.152H416.597V348.314H423.959V350.152ZM505.312 349.968V348.13H512.674V349.968H505.312ZM409.235 349.968H401.873V348.13H409.235V349.968ZM394.511 349.968H387.148V348.13H394.511V349.968ZM520.036 349.784V347.946L527.399 347.762V349.601L520.036 349.784ZM379.602 349.784L372.24 349.601V347.762L379.602 347.946V349.784ZM534.945 349.601V347.762L542.307 347.578V349.417L534.945 349.601ZM364.878 349.601L357.515 349.417V347.578L364.878 347.762V349.601ZM549.669 349.417V347.578L557.031 347.395V349.233L549.669 349.417ZM350.153 349.233L342.791 349.049V347.211L350.153 347.395V349.233ZM335.429 349.049L328.067 348.865V347.027L335.429 347.211V349.049ZM564.394 349.049V347.211L571.756 347.027V348.865L564.394 349.049ZM320.52 348.865L313.158 348.681V346.843L320.52 347.027V348.865ZM579.302 348.681V346.843C581.695 346.843 584.088 346.843 586.664 346.659V348.497C584.088 348.681 581.511 348.681 579.302 348.681ZM305.796 348.497L298.434 348.314V346.475L305.796 346.659V348.497ZM594.027 348.497V346.659C596.419 346.659 598.812 346.475 601.389 346.475V348.314C598.996 348.314 596.419 348.314 594.027 348.497ZM291.071 348.13L283.709 347.946V346.108L291.071 346.292V348.13ZM608.935 347.946V346.108C611.328 345.924 613.905 345.924 616.297 345.74L616.481 347.578C613.721 347.578 611.328 347.762 608.935 347.946ZM276.347 347.946L268.985 347.762V345.924L276.347 346.108V347.946ZM261.438 347.578L254.076 347.395V345.556L261.438 345.74V347.578ZM246.714 347.211L239.352 347.027V345.189L246.714 345.372V347.211ZM623.66 347.027L623.476 345.189C625.868 345.005 628.445 344.821 630.838 344.637L631.022 346.475C628.629 346.659 626.052 346.843 623.66 347.027ZM231.99 346.843L224.627 346.659V344.821L231.99 345.005V346.843ZM217.081 346.475L209.719 346.292V344.453L217.081 344.637V346.475ZM202.357 346.108L194.994 345.924V344.086L202.357 344.269V346.108ZM187.632 345.74L180.27 345.556V343.718L187.632 343.902V345.74ZM638.384 345.556L638.2 343.718C640.593 343.35 643.169 343.166 645.562 342.799L645.746 344.637C643.354 345.005 640.961 345.372 638.384 345.556ZM172.908 345.189C170.515 345.189 167.938 345.005 165.546 344.821V342.983C167.938 343.166 170.515 343.166 172.908 343.35V345.189ZM157.999 344.637C155.607 344.453 153.03 344.453 150.637 344.269V342.431C153.03 342.615 155.607 342.615 157.999 342.799V344.637ZM143.275 343.902C140.882 343.718 138.305 343.718 135.913 343.534V341.696C138.305 341.88 140.882 341.88 143.275 342.063V343.902ZM653.108 343.534L652.74 341.696C655.133 341.328 657.71 340.777 659.919 340.409L660.287 342.247C658.078 342.615 655.685 343.166 653.108 343.534ZM128.55 343.166C126.158 342.983 123.581 342.983 121.188 342.799L121.372 340.96C123.765 341.144 126.342 341.144 128.734 341.328L128.55 343.166ZM113.826 342.431C111.433 342.247 108.856 342.063 106.464 342.063L106.648 340.225C109.041 340.409 111.617 340.593 114.01 340.593L113.826 342.431ZM99.1016 341.512H98.5494C96.3407 341.328 94.1321 341.328 91.7393 341.144L91.9234 339.306C94.3161 339.49 96.7088 339.49 98.9175 339.674H99.4697L99.1016 341.512ZM84.1931 340.593C81.8003 340.409 79.4076 340.225 76.8308 340.041L77.0149 338.203C79.5917 338.387 81.9844 338.571 84.3771 338.754L84.1931 340.593ZM667.649 340.593L667.281 338.754C669.673 338.203 672.066 337.468 674.275 336.732L674.827 338.571C672.618 339.306 670.226 339.857 667.649 340.593ZM69.4686 339.49C67.0759 339.306 64.4991 338.938 62.1064 338.754L62.2905 336.916C64.6832 337.284 67.26 337.468 69.6527 337.651L69.4686 339.49ZM54.7442 337.651C52.1674 337.284 49.7747 336.916 47.382 336.365L47.7501 334.526C49.9587 334.894 52.5355 335.445 54.9282 335.813L54.7442 337.651ZM682.005 336.181L681.269 334.526C683.662 333.607 685.87 332.688 687.895 331.585L688.631 333.239C686.791 334.159 684.398 335.262 682.005 336.181ZM40.2038 334.894C37.627 334.342 35.2343 333.607 33.0256 332.872L33.5778 331.033C35.7865 331.769 38.1792 332.504 40.5719 333.056L40.2038 334.894ZM26.0315 330.114C23.6388 329.011 21.4302 327.908 19.4055 326.805L20.3258 325.151C22.3504 326.254 24.5591 327.357 26.7678 328.46L26.0315 330.114ZM695.257 329.563L694.153 328.092C696.362 326.621 698.202 325.151 699.859 323.68L701.147 324.967C699.49 326.438 697.65 328.092 695.257 329.563ZM12.9636 322.577C11.6752 321.474 10.3868 320.555 9.2825 319.268C8.73033 318.717 7.99411 317.981 7.44194 317.246L8.91438 316.143C9.46655 316.694 10.0187 317.43 10.5709 317.981C11.6752 319.084 12.7795 320.003 14.0679 321.106L12.9636 322.577ZM705.932 318.9L704.276 317.981C705.564 315.959 706.3 313.753 706.853 311.547L708.693 311.915C708.141 314.305 707.221 316.694 705.932 318.9ZM3.39272 310.996C2.28839 308.606 1.55217 306.216 1.18406 303.826L3.02461 303.458C3.39272 305.848 4.12894 308.054 5.23328 310.26L3.39272 310.996ZM707.405 304.378C707.221 301.988 706.669 299.598 705.748 297.576L707.405 296.841C708.325 299.047 708.877 301.62 709.061 304.194L707.405 304.378ZM2.84055 296.473L1 296.289C1.36811 293.715 2.10433 291.326 3.20867 288.936L4.86516 289.671C3.76083 291.877 3.20867 294.083 2.84055 296.473ZM702.067 291.693C700.595 290.039 698.754 288.568 696.546 287.281L697.466 285.811C699.859 287.281 701.699 288.752 703.356 290.59L702.067 291.693ZM689.919 283.972C687.527 282.869 684.95 282.134 683.109 281.399L683.662 279.744C685.502 280.479 688.079 281.215 690.656 282.318L689.919 283.972ZM8.91438 283.788L7.626 282.502C9.28249 280.663 11.3071 279.009 13.5158 277.722L14.436 279.193C12.2274 280.663 10.3868 282.134 8.91438 283.788ZM676.115 279.193C673.907 278.457 671.514 277.906 668.937 277.354L669.305 275.516C671.882 276.067 674.275 276.803 676.484 277.354L676.115 279.193ZM20.878 276.435L20.3258 274.597C22.3504 274.045 24.9272 273.494 27.688 273.126L27.8721 274.964C25.2953 275.516 22.9026 275.884 20.878 276.435ZM661.759 275.7C659.366 275.148 656.974 274.781 654.581 274.229L654.949 272.391C657.526 272.758 659.918 273.31 662.311 273.861L661.759 275.7ZM35.2343 274.413L35.0503 272.575C37.2589 272.391 39.8357 272.207 42.4125 272.207V274.045C40.0198 274.045 37.443 274.229 35.2343 274.413ZM65.6035 273.861H64.6832V272.023H65.6035C67.9962 272.023 70.0208 272.023 72.0454 272.023V273.861C70.2048 273.861 67.9962 273.861 65.6035 273.861ZM49.9587 273.861V272.023C51.7993 272.023 53.4558 272.023 55.2964 272.023H57.321V273.861H55.2964C53.4558 273.861 51.7993 273.861 49.9587 273.861ZM79.5917 273.31L79.4076 271.472C81.9844 271.288 84.3771 270.92 86.5858 270.369L86.9539 272.207C84.7452 272.758 82.1685 273.126 79.5917 273.31ZM647.403 273.126C645.01 272.758 642.617 272.391 640.041 272.023L640.225 270.185C642.801 270.552 645.194 270.92 647.587 271.288L647.403 273.126ZM632.678 271.104C630.286 270.736 627.893 270.552 625.316 270.185L625.5 268.346C627.893 268.53 630.47 268.898 632.862 269.266L632.678 271.104ZM94.3161 270.185L93.7639 268.53C96.3407 267.611 98.3653 266.508 100.022 265.221L101.126 266.692C99.2856 267.979 96.8929 269.266 94.3161 270.185ZM617.954 269.449C615.561 269.266 612.984 269.082 610.592 268.714L610.776 266.876C613.168 267.06 615.745 267.243 618.138 267.611L617.954 269.449ZM603.229 268.346C600.837 268.163 598.26 267.979 595.867 267.795L596.051 265.957C598.444 266.14 601.021 266.324 603.413 266.508L603.229 268.346ZM588.505 267.243C586.112 267.06 583.536 267.06 581.143 266.876L581.327 265.037C583.72 265.221 586.296 265.221 588.689 265.405L588.505 267.243ZM573.781 266.508C571.388 266.324 568.811 266.324 566.418 266.14V264.302C568.811 264.486 571.388 264.486 573.781 264.67V266.508ZM559.056 265.957C556.663 265.957 554.087 265.773 551.694 265.773V263.934C554.087 263.934 556.663 264.118 559.056 264.118V265.957ZM544.148 265.589C541.755 265.589 539.178 265.405 536.785 265.405V263.567C539.178 263.567 541.755 263.751 544.148 263.751V265.589ZM529.423 265.221L522.061 265.037V263.199L529.423 263.383V265.221ZM514.699 264.854L507.337 264.67V262.831L514.699 263.015V264.854ZM499.79 264.67L492.428 264.486V262.648L499.79 262.831V264.67ZM485.066 264.302C482.489 264.302 480.096 264.118 477.704 264.118V262.28C480.096 262.28 482.489 262.464 485.066 262.464V264.302ZM470.341 263.934C467.765 263.934 465.372 263.751 462.979 263.751V261.912C465.372 261.912 467.765 262.096 470.341 262.096V263.934ZM455.433 263.383C452.856 263.199 450.279 263.199 448.071 263.015L448.255 261.177C450.463 261.361 453.04 261.545 455.617 261.545L455.433 263.383ZM440.708 262.464C439.972 262.464 439.42 262.28 438.868 262.28C437.027 262.096 435.187 261.912 433.346 261.545L433.53 259.706C435.371 259.89 437.211 260.074 439.052 260.442C439.604 260.442 440.34 260.625 440.893 260.625L440.708 262.464ZM425.984 260.625C423.591 260.258 421.015 260.074 418.622 259.706L418.806 257.868C421.199 258.236 423.775 258.42 426.168 258.787L425.984 260.625ZM105.175 260.074L103.335 259.706C103.335 259.339 103.335 258.971 103.335 258.603C103.335 256.949 102.783 255.111 101.494 253.456L102.967 252.353C104.439 254.375 105.175 256.581 105.175 258.603C105.359 259.155 105.359 259.522 105.175 260.074ZM411.26 258.603C408.683 258.236 406.29 257.684 403.897 257.316L404.266 255.478C406.474 256.03 408.867 256.397 411.444 256.765L411.26 258.603ZM396.719 255.662C394.326 254.927 391.75 254.191 389.541 253.456L390.093 251.802C392.302 252.537 394.695 253.272 397.087 254.008L396.719 255.662ZM382.547 250.699C380.154 249.596 377.946 248.493 375.921 247.39L376.841 245.735C378.866 246.838 381.074 247.941 383.283 249.044L382.547 250.699ZM96.5248 248.676C94.6842 247.39 92.6596 246.287 90.2669 245.184L91.0031 243.529C93.3958 244.632 95.7886 245.735 97.6291 247.206L96.5248 248.676ZM369.663 243.345C367.823 242.058 365.982 240.588 364.325 239.117L363.773 238.749L365.062 237.463L365.614 237.83C367.27 239.301 368.927 240.772 370.767 242.058L369.663 243.345ZM83.4568 242.794C81.2482 242.242 78.8555 241.691 76.2787 241.323L76.4627 239.485C79.0395 239.852 81.4322 240.404 83.825 240.955L83.4568 242.794ZM358.804 232.867C357.331 230.661 356.043 228.455 355.123 226.249L356.779 225.513C357.699 227.719 358.804 229.742 360.276 231.764L358.804 232.867ZM353.466 218.895C353.466 218.16 353.466 217.609 353.466 216.873C353.466 214.851 353.65 213.013 354.202 211.175L356.043 211.542C355.675 213.197 355.491 215.035 355.491 216.689C355.491 217.241 355.491 217.792 355.491 218.528L353.466 218.895ZM358.62 205.292L357.147 204.373C358.436 202.351 360.092 200.512 362.117 198.674L363.405 200.145C361.381 201.615 359.908 203.454 358.62 205.292ZM369.295 195.733L368.375 194.078C370.399 192.975 372.608 191.688 375.001 190.769L375.737 192.424C373.344 193.527 371.136 194.63 369.295 195.733ZM382.547 190.034L381.995 188.379C384.203 187.644 386.412 186.909 389.173 186.173L389.725 188.012C387.148 188.563 384.756 189.298 382.547 190.034ZM396.719 185.989L396.351 184.151C398.56 183.6 401.137 183.048 403.529 182.497L403.897 184.335C401.505 185.07 399.112 185.438 396.719 185.989ZM411.26 183.048L410.891 181.21C413.284 180.842 415.677 180.291 418.254 179.923L418.622 181.761C416.045 182.129 413.468 182.68 411.26 183.048ZM425.8 180.658L425.432 178.82C427.825 178.452 430.217 178.085 432.794 177.717L432.978 179.555C430.585 179.923 428.193 180.291 425.8 180.658ZM440.34 178.636L440.156 176.798C442.549 176.43 444.942 176.246 447.519 175.879L447.703 177.717C445.31 177.901 442.733 178.268 440.34 178.636ZM455.065 176.798L454.881 174.959C457.273 174.592 459.85 174.408 462.243 174.224L462.427 176.062C460.034 176.246 457.458 176.43 455.065 176.798ZM469.789 175.143L469.605 173.305C471.998 173.121 474.575 172.753 476.967 172.57L477.151 174.408C474.759 174.776 472.182 174.959 469.789 175.143ZM484.514 173.856L484.33 172.018C486.722 171.834 489.299 171.65 491.692 171.467L491.876 173.305C489.483 173.489 486.906 173.673 484.514 173.856ZM639.488 172.937C637.096 172.937 634.519 172.937 632.126 172.937V171.099C634.519 171.099 637.096 171.099 639.488 171.099V172.937ZM646.851 172.937V171.099C649.243 171.099 651.82 171.099 654.213 170.915V172.753C651.82 172.937 649.427 172.937 646.851 172.937ZM624.764 172.753C622.187 172.753 619.794 172.753 617.402 172.57V170.731C619.794 170.731 622.371 170.915 624.764 170.915V172.753ZM499.238 172.753L499.054 170.915C501.447 170.731 504.024 170.547 506.416 170.364L506.6 172.202C504.208 172.386 501.631 172.57 499.238 172.753ZM661.759 172.57V170.731C664.152 170.731 666.729 170.547 669.121 170.547V172.386C666.729 172.57 664.152 172.57 661.759 172.57ZM609.855 172.57C607.279 172.57 604.886 172.386 602.493 172.386V170.547C604.886 170.547 607.463 170.731 609.855 170.731V172.57ZM595.131 172.018L587.769 171.834V169.996L595.131 170.18V172.018ZM676.484 172.018L676.299 170.18C678.692 169.996 681.269 169.812 683.662 169.628L683.846 171.467C681.453 171.65 679.06 171.834 676.484 172.018ZM513.963 171.834L513.779 169.996C516.355 169.812 518.748 169.812 521.141 169.628V171.467C518.932 171.467 516.355 171.65 513.963 171.834ZM580.407 171.467L573.044 171.099V169.261L580.407 169.628V171.467ZM528.687 171.099V169.261C531.264 169.077 533.656 169.077 536.049 169.077V170.915C533.656 170.915 531.264 171.099 528.687 171.099ZM691.392 170.915L691.208 169.077C693.785 168.893 696.177 168.525 698.57 168.341L698.754 170.18C696.362 170.364 693.785 170.731 691.392 170.915ZM565.682 170.915C562.921 170.731 560.344 170.731 558.32 170.731V168.893C560.344 168.893 562.921 169.077 565.682 169.077V170.915ZM543.411 170.731V168.893C545.988 168.893 548.381 168.893 550.774 168.893V170.731C548.381 170.731 545.988 170.731 543.411 170.731ZM706.116 169.077L705.748 167.238C708.325 166.871 710.718 166.319 712.926 165.952L713.295 167.79C711.086 168.158 708.509 168.709 706.116 169.077ZM720.657 166.136L720.105 164.297C722.681 163.562 724.89 162.827 727.099 162.091L727.651 163.746C725.626 164.665 723.234 165.4 720.657 166.136ZM734.645 160.804L733.725 159.15C736.117 157.863 737.958 156.392 739.43 154.922L740.719 156.209C739.246 157.863 737.038 159.334 734.645 160.804ZM744.584 149.591L742.743 149.223C742.743 149.039 742.743 148.855 742.927 148.671C743.112 147.568 743.112 146.649 743.112 145.546C743.112 144.443 742.927 143.34 742.743 142.237L744.584 141.87C744.768 143.156 744.952 144.259 744.952 145.546C744.952 146.649 744.768 147.752 744.584 148.855C744.584 149.039 744.584 149.407 744.584 149.591ZM739.983 135.803C738.694 133.965 737.038 132.31 735.197 130.656L736.302 129.185C738.326 130.84 740.167 132.862 741.455 134.7L739.983 135.803ZM729.307 126.611C727.283 125.508 725.074 124.405 722.681 123.486L723.418 121.832C725.81 122.751 728.203 123.854 730.228 125.141L729.307 126.611ZM715.871 120.913C713.663 120.177 711.27 119.626 708.877 119.074L709.245 117.236C711.638 117.788 714.215 118.523 716.424 119.074L715.871 120.913ZM701.515 117.604C699.122 117.236 696.73 116.868 694.153 116.685L694.337 114.846C696.73 115.03 699.306 115.398 701.699 115.765L701.515 117.604Z" stroke="#B8ECFC" stroke-width="0.8" mask="url(#path-21-outside-1)"/>
<path d="M69.2866 240.968H69.4866V240.768V238.929V238.729H69.2866H69.2801H69.2736H69.2671H69.2607H69.2542H69.2477H69.2412H69.2347H69.2282H69.2217H69.2152H69.2086H69.2021H69.1956H69.1891H69.1825H69.176H69.1694H69.1629H69.1563H69.1498H69.1432H69.1367H69.1301H69.1235H69.1169H69.1104H69.1038H69.0972H69.0906H69.084H69.0774H69.0708H69.0642H69.0576H69.051H69.0444H69.0377H69.0311H69.0245H69.0178H69.0112H69.0046H68.9979H68.9913H68.9846H68.9779H68.9713H68.9646H68.958H68.9513H68.9446H68.9379H68.9312H68.9245H68.9179H68.9112H68.9045H68.8978H68.8911H68.8843H68.8776H68.8709H68.8642H68.8575H68.8507H68.844H68.8373H68.8305H68.8238H68.817H68.8103H68.8035H68.7968H68.79H68.7832H68.7765H68.7697H68.7629H68.7561H68.7494H68.7426H68.7358H68.729H68.7222H68.7154H68.7086H68.7018H68.695H68.6882H68.6813H68.6745H68.6677H68.6609H68.654H68.6472H68.6404H68.6335H68.6267H68.6198H68.613H68.6061H68.5993H68.5924H68.5855H68.5787H68.5718H68.5649H68.558H68.5511H68.5443H68.5374H68.5305H68.5236H68.5167H68.5098H68.5029H68.496H68.489H68.4821H68.4752H68.4683H68.4614H68.4544H68.4475H68.4406H68.4336H68.4267H68.4198H68.4128H68.4059H68.3989H68.3919H68.385H68.378H68.3711H68.3641H68.3571H68.3501H68.3432H68.3362H68.3292H68.3222H68.3152H68.3082H68.3012H68.2942H68.2872H68.2802H68.2732H68.2662H68.2592H68.2522H68.2451H68.2381H68.2311H68.2241H68.217H68.21H68.203H68.1959H68.1889H68.1818H68.1748H68.1677H68.1607H68.1536H68.1466H68.1395H68.1324H68.1254H68.1183H68.1112H68.1041H68.0971H68.09H68.0829H68.0758H68.0687H68.0616H68.0545H68.0474H68.0403H68.0332H68.0261H68.019H68.0119H68.0048H67.9976H67.9905H67.9834H67.9763H67.9691H67.962H67.9549H67.9477H67.9406H67.9334H67.9263H67.9192H67.912H67.9049H67.8977H67.8905H67.8834H67.8762H67.8691H67.8619H67.8547H67.8475H67.8404H67.8332H67.826H67.8188H67.8116H67.8045H67.7973H67.7901H67.7829H67.7757H67.7685H67.7613H67.7541H67.7469H67.7397H67.7324H67.7252H67.718H67.7108H67.7036H67.6964H67.6891H67.6819H67.6747H67.6674H67.6602H67.653H67.6457H67.6385H67.6312H67.624H67.6167H67.6095H67.6022H67.595H67.5877H67.5805H67.5732H67.566H67.5587H67.5514H67.5441H67.5369H67.5296H67.5223H67.515H67.5078H67.5005H67.4932H67.4859H67.4786H67.4713H67.464H67.4567H67.4494H67.4421H67.4348H67.4275H67.4202H67.4129H67.4056H67.3983H67.391H67.3837H67.3764H67.369H67.3617H67.3544H67.3471H67.3397H67.3324H67.3251H67.3178H67.3104H67.3031H67.2957H67.2884H67.2811H67.2737H67.2664H67.259H67.2517H67.2443H67.237H67.2296H67.2223H67.2149H67.2075H67.2002H67.1928H67.1855H67.1781H67.1707H67.1634H67.156H67.1486H67.1412H67.1339H67.1265H67.1191H67.1117H67.1043H67.0969H67.0896H67.0822H67.0748H67.0674H67.06H67.0526H67.0452H67.0378H67.0304H67.023H67.0156H67.0082H67.0008H66.9934H66.986H66.9786H66.9711H66.9637H66.9563H66.9489H66.9415H66.9341H66.9266H66.9192H66.9118H66.9044H66.8969H66.8895H66.8821H66.8747H66.8672H66.8598H66.8524H66.8449H66.8375H66.83H66.8226H66.8152H66.8077H66.8003H66.7928H66.7854H66.7779H66.7705H66.763H66.7556H66.7481H66.7407H66.7332H66.7258H66.7183H66.7108H66.7034H66.6959H66.6885H66.681H66.6735H66.6661H66.6586H66.6511H66.6436H66.6362H66.6287H66.6212H66.6138H66.6063H66.5988H66.5913H66.5838H66.5764H66.5689H66.5614H66.5539H66.5464H66.5389H66.5315H66.524H66.5165H66.509H66.5015H66.494H66.4865H66.479H66.4715H66.464H66.4565H66.449H66.4415H66.4341H66.4266H66.4191H66.4115H66.404H66.3965H66.389H66.3815H66.374H66.3665H66.359H66.3515H66.344H66.3365H66.329H66.3215H66.314H66.3064H66.2989H66.2914H66.2839H66.2764H66.2689H66.2613H66.2538H66.2463H66.2388H66.2313H66.2237H66.2162H66.2087H66.2012H66.1937H66.1861H66.1786H66.1711H66.1636H66.156H66.1485H66.141H66.1334H66.1259H66.1184H66.1108H66.1033H66.0958H66.0883H66.0807H66.0732H66.0657H66.0581H66.0506H66.0431H66.0355H66.028H66.0204H66.0129H66.0054H65.9978H65.9903H65.9828H65.9752H65.9677H65.9601H65.9526H65.9451H65.9375H65.93H65.9224H65.9149H65.9073H65.8998H65.8923H65.8847H65.8772H65.8696H65.8621H65.8545H65.847H65.8395H65.8319H65.8244H65.8168H65.8093H65.8017H65.7942H65.7866H65.7791H65.7715H65.764H65.7564H65.7489H65.7413H65.7338H65.7262H65.7187H65.7112H65.7036H65.6961H65.6885H65.681H65.6734H65.6659H65.6583H65.6508H65.6432H65.6357H65.6281H65.6206H65.613H65.6055H65.4055V238.929V240.768V240.968H65.6055H65.613H65.6206H65.6281H65.6357H65.6432H65.6508H65.6583H65.6659H65.6734H65.681H65.6885H65.6961H65.7036H65.7112H65.7187H65.7262H65.7338H65.7413H65.7489H65.7564H65.764H65.7715H65.7791H65.7866H65.7942H65.8017H65.8093H65.8168H65.8244H65.8319H65.8395H65.847H65.8545H65.8621H65.8696H65.8772H65.8847H65.8923H65.8998H65.9073H65.9149H65.9224H65.93H65.9375H65.9451H65.9526H65.9601H65.9677H65.9752H65.9828H65.9903H65.9978H66.0054H66.0129H66.0204H66.028H66.0355H66.0431H66.0506H66.0581H66.0657H66.0732H66.0807H66.0883H66.0958H66.1033H66.1108H66.1184H66.1259H66.1334H66.141H66.1485H66.156H66.1636H66.1711H66.1786H66.1861H66.1937H66.2012H66.2087H66.2162H66.2237H66.2313H66.2388H66.2463H66.2538H66.2613H66.2689H66.2764H66.2839H66.2914H66.2989H66.3064H66.314H66.3215H66.329H66.3365H66.344H66.3515H66.359H66.3665H66.374H66.3815H66.389H66.3965H66.404H66.4115H66.4191H66.4266H66.4341H66.4415H66.449H66.4565H66.464H66.4715H66.479H66.4865H66.494H66.5015H66.509H66.5165H66.524H66.5315H66.5389H66.5464H66.5539H66.5614H66.5689H66.5764H66.5838H66.5913H66.5988H66.6063H66.6138H66.6212H66.6287H66.6362H66.6436H66.6511H66.6586H66.6661H66.6735H66.681H66.6885H66.6959H66.7034H66.7108H66.7183H66.7258H66.7332H66.7407H66.7481H66.7556H66.763H66.7705H66.7779H66.7854H66.7928H66.8003H66.8077H66.8152H66.8226H66.83H66.8375H66.8449H66.8524H66.8598H66.8672H66.8747H66.8821H66.8895H66.8969H66.9044H66.9118H66.9192H66.9266H66.9341H66.9415H66.9489H66.9563H66.9637H66.9711H66.9786H66.986H66.9934H67.0008H67.0082H67.0156H67.023H67.0304H67.0378H67.0452H67.0526H67.06H67.0674H67.0748H67.0822H67.0896H67.0969H67.1043H67.1117H67.1191H67.1265H67.1339H67.1412H67.1486H67.156H67.1634H67.1707H67.1781H67.1855H67.1928H67.2002H67.2075H67.2149H67.2223H67.2296H67.237H67.2443H67.2517H67.259H67.2664H67.2737H67.2811H67.2884H67.2957H67.3031H67.3104H67.3178H67.3251H67.3324H67.3397H67.3471H67.3544H67.3617H67.369H67.3764H67.3837H67.391H67.3983H67.4056H67.4129H67.4202H67.4275H67.4348H67.4421H67.4494H67.4567H67.464H67.4713H67.4786H67.4859H67.4932H67.5005H67.5078H67.515H67.5223H67.5296H67.5369H67.5441H67.5514H67.5587H67.566H67.5732H67.5805H67.5877H67.595H67.6022H67.6095H67.6167H67.624H67.6312H67.6385H67.6457H67.653H67.6602H67.6674H67.6747H67.6819H67.6891H67.6964H67.7036H67.7108H67.718H67.7252H67.7324H67.7397H67.7469H67.7541H67.7613H67.7685H67.7757H67.7829H67.7901H67.7973H67.8045H67.8116H67.8188H67.826H67.8332H67.8404H67.8475H67.8547H67.8619H67.8691H67.8762H67.8834H67.8905H67.8977H67.9049H67.912H67.9192H67.9263H67.9334H67.9406H67.9477H67.9549H67.962H67.9691H67.9763H67.9834H67.9905H67.9976H68.0048H68.0119H68.019H68.0261H68.0332H68.0403H68.0474H68.0545H68.0616H68.0687H68.0758H68.0829H68.09H68.0971H68.1041H68.1112H68.1183H68.1254H68.1324H68.1395H68.1466H68.1536H68.1607H68.1677H68.1748H68.1818H68.1889H68.1959H68.203H68.21H68.217H68.2241H68.2311H68.2381H68.2451H68.2522H68.2592H68.2662H68.2732H68.2802H68.2872H68.2942H68.3012H68.3082H68.3152H68.3222H68.3292H68.3362H68.3432H68.3501H68.3571H68.3641H68.3711H68.378H68.385H68.3919H68.3989H68.4059H68.4128H68.4198H68.4267H68.4336H68.4406H68.4475H68.4544H68.4614H68.4683H68.4752H68.4821H68.489H68.496H68.5029H68.5098H68.5167H68.5236H68.5305H68.5374H68.5443H68.5511H68.558H68.5649H68.5718H68.5787H68.5855H68.5924H68.5993H68.6061H68.613H68.6198H68.6267H68.6335H68.6404H68.6472H68.654H68.6609H68.6677H68.6745H68.6813H68.6882H68.695H68.7018H68.7086H68.7154H68.7222H68.729H68.7358H68.7426H68.7494H68.7561H68.7629H68.7697H68.7765H68.7832H68.79H68.7968H68.8035H68.8103H68.817H68.8238H68.8305H68.8373H68.844H68.8507H68.8575H68.8642H68.8709H68.8776H68.8843H68.8911H68.8978H68.9045H68.9112H68.9179H68.9245H68.9312H68.9379H68.9446H68.9513H68.958H68.9646H68.9713H68.9779H68.9846H68.9913H68.9979H69.0046H69.0112H69.0178H69.0245H69.0311H69.0377H69.0444H69.051H69.0576H69.0642H69.0708H69.0774H69.084H69.0906H69.0972H69.1038H69.1104H69.1169H69.1235H69.1301H69.1367H69.1432H69.1498H69.1563H69.1629H69.1694H69.176H69.1825H69.1891H69.1956H69.2021H69.2086H69.2152H69.2217H69.2282H69.2347H69.2412H69.2477H69.2542H69.2607H69.2671H69.2736H69.2801H69.2866Z" fill="#B8ECFC" stroke="#B8ECFC" stroke-width="0.4"/>
<path d="M685.87 147.009L674.642 88.1823C673.906 84.6895 669.673 83.2189 667.096 85.6087L621.635 124.765C618.874 127.155 619.794 131.567 623.107 132.67L679.612 152.34C683.109 153.443 686.422 150.502 685.87 147.009Z" fill="#F3FEFF"/>
<path d="M677.219 146.086C676.851 146.086 676.667 146.086 676.299 145.903L629.733 129.541C628.813 129.174 628.077 128.438 627.893 127.335C627.709 126.232 628.077 125.313 628.813 124.578L666.176 92.4072C666.912 91.6719 668.017 91.488 668.937 91.8557C669.857 92.2234 670.593 92.9587 670.778 94.0617L679.98 142.594C680.164 143.697 679.796 144.616 679.06 145.351C678.508 145.903 677.956 146.086 677.219 146.086ZM632.126 126.6L676.115 142.042L667.465 96.2677L632.126 126.6Z" fill="#01A3A4"/>
<path d="M656.972 126.422C656.051 126.055 655.683 125.136 655.867 124.216L660.469 108.039C660.837 106.569 662.493 105.649 663.966 106.201C665.438 106.752 666.174 108.407 665.622 109.877L659.18 125.503C658.812 126.239 657.892 126.606 656.972 126.422Z" fill="#01A3A4"/>
<path d="M657.31 130.703C657.646 129.745 657.14 128.696 656.181 128.36C655.221 128.025 654.171 128.53 653.835 129.488C653.5 130.447 654.005 131.495 654.965 131.831C655.924 132.166 656.974 131.661 657.31 130.703Z" fill="#01A3A4"/>
<path d="M574.822 265.545L560.699 250.179C559.84 249.28 558.316 249.621 557.991 250.802L551.71 270.745C551.331 271.96 552.413 273.098 553.597 272.817L573.946 268.273C575.185 267.958 575.626 266.479 574.822 265.545Z" fill="#F3FEFF"/>
<path d="M572.09 266.852C571.981 266.919 571.927 266.953 571.784 266.966L554.986 270.666C554.646 270.726 554.293 270.643 554.036 270.35C553.779 270.057 553.719 269.717 553.803 269.364L558.967 252.976C559.05 252.624 559.343 252.366 559.683 252.306C560.023 252.246 560.376 252.329 560.633 252.622L572.267 265.31C572.524 265.603 572.584 265.943 572.5 266.296C572.438 266.561 572.308 266.716 572.09 266.852ZM555.155 269.355L571.021 265.856L560.057 253.884L555.155 269.355Z" fill="#01A3A4"/>
<path d="M562.482 264.763C562.142 264.823 561.864 264.618 561.75 264.312L560.144 258.675C559.983 258.172 560.305 257.596 560.843 257.489C561.38 257.382 561.902 257.737 562.008 258.274L562.968 264.085C562.994 264.371 562.789 264.649 562.482 264.763Z" fill="#01A3A4"/>
<path d="M563.371 265.967C563.294 265.621 562.952 265.403 562.606 265.48C562.26 265.557 562.042 265.899 562.118 266.245C562.195 266.59 562.537 266.808 562.883 266.731C563.229 266.654 563.447 266.312 563.371 265.967Z" fill="#01A3A4"/>
<path d="M698.752 394.108L693.457 382.348C693.128 381.653 692.168 381.557 691.748 382.187L684.185 392.662C683.726 393.301 684.139 394.179 684.888 394.244L697.708 395.538C698.495 395.594 699.042 394.812 698.752 394.108Z" fill="#F3FEFF"/>
<path d="M696.896 394.344C696.819 394.362 696.78 394.371 696.694 394.351L686.122 393.254C685.911 393.223 685.72 393.106 685.626 392.884C685.532 392.662 685.563 392.451 685.681 392.26L691.897 383.653C692.015 383.462 692.237 383.368 692.448 383.399C692.659 383.43 692.85 383.547 692.944 383.769L697.299 393.474C697.393 393.696 697.362 393.907 697.244 394.098C697.156 394.241 697.05 394.307 696.896 394.344ZM686.476 392.518L696.462 393.552L692.36 384.397L686.476 392.518Z" fill="#01A3A4"/>
<path d="M691.667 391.247C691.456 391.216 691.333 391.042 691.325 390.84L691.48 387.221C691.483 386.895 691.784 386.62 692.12 386.661C692.456 386.703 692.693 387.013 692.651 387.349L692.083 390.944C692.043 391.116 691.869 391.239 691.667 391.247Z" fill="#01A3A4"/>
<path d="M691.955 392.122C691.977 391.904 691.819 391.71 691.601 391.688C691.384 391.665 691.189 391.824 691.167 392.041C691.144 392.259 691.302 392.453 691.52 392.475C691.738 392.498 691.933 392.339 691.955 392.122Z" fill="#01A3A4"/>
<path d="M62.1069 219.801L25.4798 201.601C23.2712 200.498 20.6944 202.153 20.8785 204.726L23.4552 245.537C23.6393 247.927 26.4001 249.398 28.4247 247.927L62.6591 225.316C64.4996 224.029 64.3156 220.904 62.1069 219.801Z" fill="#F3FEFF"/>
<path d="M58.0615 224.211C57.8775 224.394 57.6934 224.578 57.5093 224.578L29.3489 243.329C28.7967 243.697 28.0605 243.697 27.3243 243.513C26.7721 243.145 26.2199 242.594 26.2199 241.858L24.1953 208.217C24.1953 207.482 24.5634 206.93 25.1156 206.379C25.6678 206.011 26.404 206.011 27.1402 206.195L57.3253 221.269C57.8775 221.637 58.4296 222.188 58.4296 222.924C58.4296 223.291 58.2456 223.843 58.0615 224.211ZM28.7967 240.572L55.3007 222.924L26.7721 208.952L28.7967 240.572Z" fill="#01A3A4"/>
<path d="M38.9153 226.971C38.3631 227.339 37.6269 227.155 37.2588 226.604L30.2647 217.412C29.7125 216.493 29.8966 215.39 30.8169 214.838C31.7371 214.287 32.8415 214.471 33.3936 215.39L39.0994 225.317C39.6515 226.052 39.4675 226.604 38.9153 226.971Z" fill="#01A3A4"/>
<path d="M41.1225 230.455C41.7156 230.063 41.8777 229.264 41.4846 228.672C41.0915 228.079 40.292 227.917 39.6989 228.31C39.1058 228.703 38.9437 229.501 39.3368 230.094C39.73 230.686 40.5295 230.848 41.1225 230.455Z" fill="#01A3A4"/>
<path d="M450.699 266.699L437.425 249.585C436.688 248.504 435.029 248.684 434.476 249.945L425.811 269.761C425.258 271.022 426.364 272.284 427.655 272.103L449.408 269.581C450.883 269.041 451.436 267.6 450.699 266.699Z" fill="#FFF6CA"/>
<path d="M447.703 267.986C447.519 267.986 447.519 267.986 447.335 268.17L429.481 270.376C429.113 270.376 428.745 270.192 428.561 270.008C428.377 269.64 428.377 269.273 428.377 268.905L435.371 252.36C435.555 251.992 435.923 251.809 436.291 251.809C436.659 251.809 437.028 251.992 437.212 252.176L448.071 266.515C448.255 266.883 448.255 267.251 448.255 267.618C448.071 267.618 447.887 267.802 447.703 267.986ZM429.665 268.721L446.598 266.699L436.291 253.095L429.665 268.721Z" fill="#E1B642"/>
<path d="M437.763 264.67C437.395 264.67 437.027 264.486 437.027 264.118L435.923 258.052C435.739 257.5 436.291 256.949 436.843 256.949C437.395 256.949 437.947 257.317 437.947 257.868L438.316 263.935C438.5 264.302 438.131 264.67 437.763 264.67Z" fill="#E1B642"/>
<path d="M438.051 266.886C438.455 266.837 438.742 266.471 438.693 266.068C438.644 265.664 438.277 265.377 437.873 265.426C437.47 265.476 437.182 265.842 437.232 266.245C437.281 266.648 437.648 266.935 438.051 266.886Z" fill="#E1B642"/>
<path d="M88.314 345.371L80.4939 333.584C80.0655 332.845 78.9809 332.886 78.564 333.685L72.0295 346.231C71.6125 347.03 72.2718 347.904 73.1172 347.845L87.3439 347.195C88.3255 346.909 88.7507 345.993 88.314 345.371Z" fill="#FFF6CA"/>
<path d="M86.3544 345.858C86.2349 345.849 86.2349 345.849 86.1069 345.96L74.4064 346.574C74.1672 346.557 73.9365 346.421 73.8254 346.293C73.7227 346.046 73.7395 345.807 73.7564 345.568L79.0597 335.14C79.1962 334.91 79.4438 334.807 79.6829 334.824C79.9221 334.841 80.1528 334.977 80.264 335.105L86.6611 344.919C86.7638 345.167 86.7469 345.405 86.7301 345.644C86.6105 345.636 86.4825 345.747 86.3544 345.858ZM74.6019 345.508L85.696 344.971L79.6239 335.66L74.6019 345.508Z" fill="#E1B642"/>
<path d="M80.0534 343.246C79.8142 343.229 79.5835 343.093 79.6004 342.854L79.1613 338.862C79.067 338.495 79.4511 338.162 79.8098 338.188C80.1686 338.213 80.5104 338.477 80.4851 338.836L80.4459 342.794C80.5486 343.041 80.2925 343.263 80.0534 343.246Z" fill="#E1B642"/>
<path d="M80.1389 344.693C80.4034 344.68 80.6069 344.455 80.5935 344.191C80.58 343.926 80.3547 343.723 80.0902 343.737C79.8257 343.75 79.6222 343.975 79.6357 344.239C79.6491 344.503 79.8744 344.707 80.1389 344.693Z" fill="#E1B642"/>
<path d="M320.354 123.669L309.812 116.726C309.202 116.268 308.326 116.682 308.263 117.483L307.284 130.069C307.221 130.87 308.068 131.357 308.742 131.014L320.195 125.505C320.901 124.928 320.93 124.027 320.354 123.669Z" fill="#FFF6CA"/>
<path d="M318.913 124.731C318.812 124.766 318.812 124.766 318.746 124.902L309.354 129.497C309.152 129.566 308.915 129.535 308.779 129.469C308.608 129.302 308.539 129.1 308.469 128.898L309.177 118.482C309.208 118.245 309.376 118.074 309.578 118.004C309.78 117.935 310.017 117.966 310.153 118.032L318.837 123.853C319.008 124.02 319.078 124.222 319.147 124.424C319.046 124.459 318.98 124.595 318.913 124.731ZM309.142 128.553L318.063 124.233L309.822 118.711L309.142 128.553Z" fill="#E1B642"/>
<path d="M312.826 124.804C312.624 124.874 312.387 124.843 312.317 124.641L310.561 121.517C310.355 121.249 310.554 120.841 310.858 120.736C311.161 120.632 311.534 120.729 311.638 121.032L312.99 124.296C313.161 124.463 313.028 124.734 312.826 124.804Z" fill="#E1B642"/>
<path d="M313.404 125.974C313.616 125.87 313.705 125.614 313.601 125.402C313.498 125.19 313.242 125.102 313.029 125.205C312.817 125.309 312.728 125.565 312.832 125.777C312.935 125.989 313.191 126.077 313.404 125.974Z" fill="#E1B642"/>
<path d="M87.5082 303.282C85.2995 303.282 83.459 301.443 83.459 299.237C83.459 297.031 85.2995 295.193 87.5082 295.193C89.7169 295.193 91.5574 297.031 91.5574 299.237C91.5574 301.443 89.7169 303.282 87.5082 303.282ZM87.5082 297.031C86.4039 297.031 85.2995 297.951 85.2995 299.237C85.2995 300.524 86.2198 301.443 87.5082 301.443C88.7966 301.443 89.7169 300.524 89.7169 299.237C89.7169 297.951 88.6125 297.031 87.5082 297.031Z" fill="#B8ECFC"/>
<path d="M541.021 246.661C538.812 246.661 536.972 244.823 536.972 242.617C536.972 240.411 538.812 238.572 541.021 238.572C543.23 238.572 545.07 240.411 545.07 242.617C545.07 244.823 543.23 246.661 541.021 246.661ZM541.021 240.594C539.917 240.594 538.812 241.514 538.812 242.8C538.812 244.087 539.732 245.006 541.021 245.006C542.125 245.006 543.23 244.087 543.23 242.8C543.23 241.514 542.125 240.594 541.021 240.594Z" fill="#B8ECFC"/>
<path d="M333.591 155.658C331.383 155.658 329.542 153.819 329.542 151.613C329.542 149.407 331.383 147.569 333.591 147.569C335.8 147.569 337.64 149.407 337.64 151.613C337.64 153.819 335.616 155.658 333.591 155.658ZM333.591 149.591C332.487 149.591 331.383 150.51 331.383 151.797C331.383 153.084 332.303 154.003 333.591 154.003C334.88 154.003 335.8 153.084 335.8 151.797C335.8 150.51 334.696 149.591 333.591 149.591Z" fill="#B8ECFC"/>
<path d="M389.543 217.429C388.991 217.429 388.623 217.061 388.623 216.51V209.524C388.623 208.972 388.991 208.605 389.543 208.605C390.095 208.605 390.464 208.972 390.464 209.524V216.51C390.464 217.061 389.911 217.429 389.543 217.429Z" fill="#B8ECFC"/>
<path d="M392.857 213.937H385.863C385.31 213.937 384.942 213.57 384.942 213.018C384.942 212.467 385.31 212.099 385.863 212.099H392.857C393.409 212.099 393.777 212.467 393.777 213.018C393.777 213.57 393.409 213.937 392.857 213.937Z" fill="#B8ECFC"/>
<path d="M492.063 129.191C491.511 129.191 491.143 128.823 491.143 128.272V121.286C491.143 120.735 491.511 120.367 492.063 120.367C492.615 120.367 492.983 120.735 492.983 121.286V128.272C492.983 128.823 492.431 129.191 492.063 129.191Z" fill="#B8ECFC"/>
<path d="M495.376 125.889H488.382C487.83 125.889 487.462 125.521 487.462 124.97C487.462 124.418 487.83 124.051 488.382 124.051H495.376C495.928 124.051 496.297 124.418 496.297 124.97C496.297 125.521 495.928 125.889 495.376 125.889Z" fill="#B8ECFC"/>
<path d="M684.033 315.416C683.48 315.416 683.112 315.048 683.112 314.496V307.511C683.112 306.959 683.48 306.592 684.033 306.592C684.585 306.592 684.953 306.959 684.953 307.511V314.496C684.953 315.048 684.401 315.416 684.033 315.416Z" fill="#B8ECFC"/>
<path d="M687.346 312.11H680.352C679.8 312.11 679.432 311.742 679.432 311.191C679.432 310.639 679.8 310.271 680.352 310.271H687.346C687.898 310.271 688.266 310.639 688.266 311.191C688.266 311.742 687.898 312.11 687.346 312.11Z" fill="#B8ECFC"/>
<path d="M496.014 326.121H209.638C200.374 326.121 192.826 318.488 192.826 309.121H512.826C512.826 318.488 505.392 326.121 496.014 326.121Z" fill="#26387A"/>
<path d="M503.826 136.121V284.121C503.826 297.378 493.088 308.121 479.838 308.121H226.815C213.564 308.121 202.826 297.378 202.826 284.121V136.121C202.826 122.864 213.564 112.121 226.815 112.121H479.838C493.088 112.121 503.826 122.864 503.826 136.121Z" fill="#26387A"/>
<g opacity="0.78">
<path opacity="0.78" d="M506.936 308.812C481.444 309.499 455.953 309.957 430.462 310.3C417.773 310.529 404.971 310.529 392.282 310.643L354.103 310.758L315.923 310.643C303.234 310.529 290.432 310.529 277.743 310.3C252.252 310.071 226.761 309.614 201.27 308.927H506.936V308.812Z" fill="#041142"/>
</g>
<rect x="205.826" y="116.121" width="294" height="189" rx="24" fill="#D9F0FF"/>
<rect x="205.826" y="116.121" width="294" height="189" rx="24" fill="#D9F0FF"/>
<path fill-rule="evenodd" clip-rule="evenodd" d="M213.027 123.147C216.694 120.875 221.019 119.563 225.65 119.563H471.259C484.513 119.563 495.259 130.309 495.259 143.563V284.698C495.259 291.246 492.636 297.181 488.385 301.512C495.213 297.281 499.762 289.719 499.762 281.095V139.961C499.762 126.706 489.017 115.961 475.762 115.961H230.153C223.446 115.961 217.382 118.712 213.027 123.147Z" fill="#CBE6F4"/>
<path opacity="0.2" d="M454.925 137.269H247.108C241.393 137.269 236.706 141.617 236.706 147.11V278.591C236.706 283.97 241.393 288.432 247.108 288.432H454.925C460.64 288.432 465.327 284.084 465.327 278.591V147.11C465.327 141.617 460.64 137.269 454.925 137.269Z" fill="#CBE6F4"/>
<g opacity="0.2">
<path opacity="0.2" d="M250.88 151.802C252.332 151.802 253.509 150.674 253.509 149.284C253.509 147.894 252.332 146.767 250.88 146.767C249.428 146.767 248.251 147.894 248.251 149.284C248.251 150.674 249.428 151.802 250.88 151.802Z" fill="black"/>
<path opacity="0.2" d="M263.569 151.802C265.021 151.802 266.198 150.674 266.198 149.284C266.198 147.894 265.021 146.767 263.569 146.767C262.117 146.767 260.939 147.894 260.939 149.284C260.939 150.674 262.117 151.802 263.569 151.802Z" fill="black"/>
<path opacity="0.2" d="M276.143 151.802C277.595 151.802 278.772 150.674 278.772 149.284C278.772 147.894 277.595 146.767 276.143 146.767C274.691 146.767 273.514 147.894 273.514 149.284C273.514 150.674 274.691 151.802 276.143 151.802Z" fill="black"/>
</g>
<path d="M465.213 143.107V274.588C465.213 279.966 460.64 284.429 455.039 284.429H251.223C245.622 284.429 241.05 280.081 241.05 274.588V143.107C241.05 137.728 245.622 133.266 251.223 133.266H454.925C460.64 133.266 465.213 137.614 465.213 143.107Z" fill="white"/>
<path d="M465.213 143.107V157.296H241.05V143.107C241.05 137.728 245.622 133.266 251.223 133.266H454.925C460.64 133.266 465.213 137.614 465.213 143.107Z" fill="#01A3A4"/>
<path d="M253.738 147.684C255.127 147.684 256.253 146.557 256.253 145.166C256.253 143.776 255.127 142.649 253.738 142.649C252.35 142.649 251.224 143.776 251.224 145.166C251.224 146.557 252.35 147.684 253.738 147.684Z" fill="white"/>
<path d="M265.741 147.684C267.13 147.684 268.256 146.557 268.256 145.166C268.256 143.776 267.13 142.649 265.741 142.649C264.353 142.649 263.227 143.776 263.227 145.166C263.227 146.557 264.353 147.684 265.741 147.684Z" fill="white"/>
<path d="M277.629 147.684C279.018 147.684 280.144 146.557 280.144 145.166C280.144 143.776 279.018 142.649 277.629 142.649C276.24 142.649 275.114 143.776 275.114 145.166C275.114 146.557 276.24 147.684 277.629 147.684Z" fill="white"/>
<path d="M416.281 85.1393L410.22 70.674C409.908 69.7791 408.718 69.5985 408.097 70.3811L398.367 82.6834C397.747 83.466 398.283 84.5555 399.216 84.6679L414.845 86.9231C415.973 86.8168 416.627 85.9078 416.281 85.1393Z" fill="#FFF6CA"/>
<path d="M414.047 85.2362C413.919 85.202 413.919 85.202 413.756 85.2962L400.886 83.5273C400.63 83.459 400.407 83.2625 400.312 83.1001C400.252 82.8094 400.32 82.5527 400.388 82.2961L408.336 72.0444C408.533 71.8219 408.824 71.7618 409.081 71.83C409.338 71.8982 409.56 72.0948 409.655 72.2572L414.577 84.2779C414.637 84.5686 414.569 84.8252 414.501 85.0819C414.373 85.0477 414.21 85.142 414.047 85.2362ZM401.322 82.4066L413.515 84.1333L408.842 72.7282L401.322 82.4066Z" fill="#E1B642"/>
<path d="M407.723 81.0922C407.466 81.024 407.243 80.8275 407.311 80.5709L407.665 76.132C407.638 75.713 408.126 75.4304 408.511 75.5327C408.897 75.635 409.214 75.994 409.112 76.3789L408.244 80.6813C408.305 80.9721 407.98 81.1605 407.723 81.0922Z" fill="#E1B642"/>
<path d="M407.519 82.6966C407.81 82.7372 408.078 82.5345 408.119 82.2441C408.159 81.9536 407.956 81.6852 407.665 81.6447C407.374 81.6041 407.106 81.8068 407.066 82.0973C407.025 82.3878 407.228 82.6561 407.519 82.6966Z" fill="#E1B642"/>
<path d="M137.423 165.823C135.12 165.823 133.201 163.907 133.201 161.606C133.201 159.306 135.12 157.389 137.423 157.389C139.726 157.389 141.646 159.306 141.646 161.606C141.646 163.907 139.726 165.823 137.423 165.823ZM137.423 159.306C136.272 159.306 135.12 160.264 135.12 161.606C135.12 162.948 136.08 163.907 137.423 163.907C138.767 163.907 139.726 162.948 139.726 161.606C139.726 160.264 138.575 159.306 137.423 159.306Z" fill="#B8ECFC"/>
<path d="M520.196 91.9743C517.893 91.9743 515.974 90.0574 515.974 87.7572C515.974 85.4569 517.893 83.54 520.196 83.54C522.499 83.54 524.418 85.4569 524.418 87.7572C524.418 90.0574 522.499 91.9743 520.196 91.9743ZM520.196 85.6486C519.044 85.6486 517.893 86.607 517.893 87.9488C517.893 89.2907 518.852 90.2491 520.196 90.2491C521.347 90.2491 522.499 89.2907 522.499 87.9488C522.499 86.607 521.347 85.6486 520.196 85.6486Z" fill="#B8ECFC"/>
<path d="M386.194 25.3249C383.891 25.3249 381.972 23.408 381.972 21.1077C381.972 18.8075 383.891 16.8906 386.194 16.8906C388.497 16.8906 390.416 18.8075 390.416 21.1077C390.416 23.408 388.305 25.3249 386.194 25.3249ZM386.194 18.9992C385.042 18.9992 383.891 19.9576 383.891 21.2994C383.891 22.6412 384.85 23.5997 386.194 23.5997C387.537 23.5997 388.497 22.6412 388.497 21.2994C388.497 19.9576 387.345 18.9992 386.194 18.9992Z" fill="#B8ECFC"/>
<path d="M216.037 279.033C213.734 279.033 211.814 277.116 211.814 274.816C211.814 272.515 213.734 270.599 216.037 270.599C218.34 270.599 220.259 272.515 220.259 274.816C220.067 277.116 218.34 279.033 216.037 279.033ZM216.037 272.707C214.885 272.707 213.734 273.666 213.734 275.007C213.734 276.349 214.693 277.308 216.037 277.308C217.38 277.308 218.34 276.349 218.34 275.007C218.34 273.666 217.188 272.707 216.037 272.707Z" fill="#B8ECFC"/>
<path d="M280.493 72.9251C279.917 72.9251 279.533 72.5418 279.533 71.9667V64.6826C279.533 64.1075 279.917 63.7241 280.493 63.7241C281.069 63.7241 281.452 64.1075 281.452 64.6826V71.9667C281.452 72.5418 280.877 72.9251 280.493 72.9251Z" fill="#B8ECFC"/>
<path d="M283.949 69.2894H276.656C276.08 69.2894 275.696 68.9061 275.696 68.331C275.696 67.7559 276.08 67.3726 276.656 67.3726H283.949C284.525 67.3726 284.908 67.7559 284.908 68.331C284.908 68.9061 284.525 69.2894 283.949 69.2894Z" fill="#B8ECFC"/>
<path d="M87.5631 118.857C86.9874 118.857 86.6035 118.473 86.6035 117.898V110.614C86.6035 110.039 86.9874 109.656 87.5631 109.656C88.1389 109.656 88.5228 110.039 88.5228 110.614V117.898C88.5228 118.473 87.947 118.857 87.5631 118.857Z" fill="#B8ECFC"/>
<path d="M91.0172 115.412H83.7242C83.1485 115.412 82.7646 115.029 82.7646 114.454C82.7646 113.879 83.1485 113.496 83.7242 113.496H91.0172C91.5929 113.496 91.9768 113.879 91.9768 114.454C91.9768 115.029 91.5929 115.412 91.0172 115.412Z" fill="#B8ECFC"/>
<path d="M619.837 197.765C619.261 197.765 618.877 197.382 618.877 196.807V189.522C618.877 188.947 619.261 188.564 619.837 188.564C620.412 188.564 620.796 188.947 620.796 189.522V196.807C620.796 197.382 620.22 197.765 619.837 197.765Z" fill="#B8ECFC"/>
<path d="M623.291 194.317H615.998C615.422 194.317 615.038 193.934 615.038 193.359C615.038 192.784 615.422 192.401 615.998 192.401H623.291C623.866 192.401 624.25 192.784 624.25 193.359C624.25 193.934 623.866 194.317 623.291 194.317Z" fill="#B8ECFC"/>
<path d="M377.98 230.026L355.264 193.667C354.027 191.39 350.737 191.426 349.408 193.81L328.57 231.283C327.241 233.667 329.166 236.371 331.732 236.263L374.89 235.471C377.888 234.688 379.252 231.947 377.98 230.026Z" fill="#FFF6CA"/>
<path d="M372.003 231.34C371.642 231.305 371.642 231.305 371.245 231.631L335.744 232.521C335.02 232.45 334.333 232.018 334.007 231.621C333.716 230.863 333.787 230.141 333.858 229.419L350.79 198.263C351.222 197.576 351.981 197.286 352.704 197.357C353.427 197.428 354.115 197.86 354.441 198.257L373.01 228.522C373.301 229.28 373.23 230.002 373.159 230.725C372.797 230.689 372.4 231.015 372.003 231.34ZM336.424 229.306L370.082 228.599L352.456 199.885L336.424 229.306Z" fill="#E1B642"/>
<path d="M353.128 222.905C352.405 222.834 351.717 222.402 351.788 221.679L350.789 209.548C350.534 208.429 351.725 207.452 352.81 207.558C353.894 207.665 354.908 208.494 354.802 209.577L354.355 221.567C354.646 222.325 353.852 222.976 353.128 222.905Z" fill="#E1B642"/>
<path d="M353.269 227.306C354.072 227.287 354.707 226.623 354.688 225.821C354.669 225.02 354.003 224.385 353.201 224.404C352.399 224.422 351.763 225.087 351.782 225.889C351.801 226.69 352.467 227.325 353.269 227.306Z" fill="#E1B642"/>
</svg>
