<svg width="30" height="30" viewBox="0 0 30 30" fill="none" xmlns="http://www.w3.org/2000/svg">
<path fill-rule="evenodd" clip-rule="evenodd" d="M15 0C6.71573 0 0 6.71573 0 15C0 23.2843 6.71573 30 15 30C23.2843 30 30 23.2843 30 15C30 6.71573 23.2843 0 15 0ZM7.20105 12.4237H10.6004V22.6373H7.20105V12.4237ZM10.8243 9.26419C10.8023 8.26275 10.0862 7.5 8.92327 7.5C7.76038 7.5 7.00012 8.26275 7.00012 9.26419C7.00012 10.2449 7.73791 11.0296 8.87914 11.0296H8.90086C10.0862 11.0296 10.8243 10.2449 10.8243 9.26419ZM18.9456 12.1838C21.1825 12.1838 22.8595 13.6439 22.8595 16.7811L22.8594 22.6372H19.4602V17.173C19.4602 15.8005 18.9683 14.8639 17.7377 14.8639C16.7986 14.8639 16.2392 15.4953 15.9935 16.1051C15.9036 16.3237 15.8815 16.6282 15.8815 16.9334V22.6375H12.4818C12.4818 22.6375 12.5266 13.3823 12.4818 12.4239H15.8815V13.8706C16.3327 13.1752 17.1408 12.1838 18.9456 12.1838Z" fill="#DADADA"/>
</svg>
