<svg width="61" height="67" viewBox="0 0 61 67" fill="none" xmlns="http://www.w3.org/2000/svg">
<path d="M61 30.3992C61 13.6207 47.349 0 30.4905 0C13.9947 0 0.57277 13.05 0 29.3339C3.85665 24.3688 7.19781 21.0778 12.2 17.7297C17.2977 14.3055 23.8845 12.4602 30.4905 12.6505C36.7336 12.8217 41.774 17.7487 41.774 23.9693V27.2223H19.1878C18.9396 23.8362 21.1543 19.575 23.1208 16.9497C23.1208 16.9497 16.6294 20.1837 12.83 24.9585C10.8635 27.2604 9.37434 29.8285 8.4579 33.0625C7.88513 34.9458 7.52238 36.9813 7.50329 39.188C7.00689 49.061 11.5127 58.2303 19.9706 63.1763C35.5117 72.2885 55.1959 62.1871 55.1959 62.1871V48.3952C45.4207 53.094 30.8532 55.1675 23.6363 49.2893C20.257 46.5309 19.3405 43.0307 19.0541 39.188H61V30.3992Z" fill="#2896FF"/>
</svg>
