<svg width="436" height="296" viewBox="0 0 436 296" fill="none" xmlns="http://www.w3.org/2000/svg">
<path fill-rule="evenodd" clip-rule="evenodd" d="M158.757 255.904L174.918 254.022C177.749 253.67 180.315 255.749 180.62 258.53C180.97 261.365 178.894 263.936 176.118 264.243L168.443 265.119C166.221 265.374 164.59 267.434 164.844 269.659C165.098 271.885 167.153 273.518 169.375 273.263L369.479 249.923C371.701 249.668 373.332 247.608 373.078 245.383C372.824 243.157 370.768 241.524 368.546 241.779L361.223 242.636C358.392 242.988 355.826 240.909 355.521 238.128C355.171 235.293 357.247 232.722 360.023 232.416L392.143 228.684C396.637 228.179 399.849 224.055 399.341 219.604C398.838 215.103 394.722 211.886 390.279 212.396L156.843 239.611C152.399 240.121 149.137 244.241 149.645 248.692C150.198 253.197 154.264 256.409 158.757 255.904ZM158.361 274.597C156.139 274.852 154.079 273.268 153.829 270.993C153.575 268.767 155.157 266.703 157.428 266.453C159.65 266.198 161.71 267.781 161.96 270.056C162.263 272.286 160.632 274.346 158.361 274.597Z" fill="#E1EAED"/>
<path fill-rule="evenodd" clip-rule="evenodd" d="M430.531 116.36L423.214 117.286C421.932 117.458 420.76 116.528 420.609 115.269C420.437 113.985 421.366 112.81 422.624 112.659L426.099 112.227C427.104 112.101 427.834 111.16 427.709 110.152C427.584 109.145 426.645 108.414 425.639 108.539L335.043 120.028C334.037 120.153 333.307 121.094 333.432 122.102C333.557 123.11 334.496 123.841 335.502 123.715L338.818 123.293C340.099 123.121 341.272 124.052 341.423 125.311C341.594 126.594 340.665 127.769 339.408 127.921L324.866 129.758C322.831 130.007 321.394 131.891 321.644 133.906C321.893 135.944 323.773 137.384 325.785 137.132L431.473 123.736C433.484 123.485 434.944 121.603 434.694 119.587C434.423 117.548 432.565 116.11 430.531 116.36ZM430.625 107.885C431.631 107.759 432.572 108.467 432.696 109.498C432.821 110.505 432.114 111.448 431.085 111.572C430.079 111.698 429.138 110.989 429.015 109.959C428.867 108.95 429.597 108.009 430.625 107.885Z" fill="#E1EAED"/>
<path fill-rule="evenodd" clip-rule="evenodd" d="M308.339 239.578C332.86 236.994 350.865 214.838 348.3 190.207C345.729 165.644 323.617 147.617 299.027 150.194C288.647 151.295 279.279 143.658 278.184 133.26C277.089 122.862 284.716 113.476 295.096 112.376L297.328 112.116C308.125 110.988 315.997 101.212 314.875 90.3974C313.753 79.5824 303.996 71.7001 293.199 72.828L286.306 73.5184C282.129 73.9285 278.302 70.8522 277.894 66.6684C277.486 62.4846 280.558 58.6495 284.735 58.2393L289.82 57.713C292.747 57.3849 294.871 54.7666 294.537 51.9022C294.211 48.9694 291.598 46.8433 288.738 47.1783L254.744 50.7466C250.212 51.2592 246.071 47.8753 245.629 43.3428C245.119 38.8035 248.498 34.6539 253.023 34.2096L263.192 33.1569C266.12 32.8288 268.243 30.2105 267.91 27.3461C267.583 24.4134 264.97 22.2873 262.111 22.6222L113.186 38.153C109.426 38.5358 106.599 41.9813 107.048 45.7549C107.429 49.5217 110.867 52.3519 114.635 51.9008L125.084 50.807C131.008 50.1576 136.356 54.5602 137.003 60.4941C137.649 66.428 133.245 71.856 127.328 72.437L86.9933 76.682C83.2328 77.0648 80.4062 80.5102 80.8553 84.2839C81.2362 88.0506 84.6747 90.8809 88.4421 90.4297L95.0622 89.712C100.563 89.1583 105.468 93.1712 106.094 98.6197C106.645 104.13 102.637 109.045 97.198 109.674L88.0664 110.692C73.9936 112.183 63.6908 124.891 65.1053 138.981C66.5881 153.077 79.2713 163.393 93.3441 161.903L96.272 161.575C109.785 160.167 122.025 170.093 123.426 183.629C124.827 197.165 114.913 209.429 101.4 210.837L95.06 211.514C81.4104 212.908 71.4148 225.302 72.8022 238.975C74.1896 252.647 86.559 262.656 100.209 261.261C170.839 253.906 237.708 246.934 308.339 239.578ZM97.0062 53.7943C93.1775 54.1702 89.8003 51.4152 89.4195 47.6484C89.0455 43.8133 91.797 40.4293 95.5574 40.0465C99.3862 39.6706 102.763 42.4256 103.144 46.1924C103.525 49.9592 100.767 53.4115 97.0062 53.7943ZM304.65 56.2296C301.722 56.5578 299.109 54.4317 298.851 51.5057C298.524 48.573 300.648 45.9547 303.569 45.6949C306.496 45.3668 309.11 47.4929 309.368 50.4189C309.694 53.3516 307.571 55.9699 304.65 56.2296Z" fill="#E1EAED"/>
<path d="M16.2678 200.38L73.2515 194.738C77.3511 194.332 80.3009 190.676 79.8886 186.512C79.4763 182.348 75.8668 179.341 71.7673 179.747L14.7836 185.389C10.684 185.795 7.73422 189.451 8.14651 193.615C8.55879 197.779 12.1683 200.786 16.2678 200.38Z" fill="#E1EAED"/>
<path d="M3.89595 207.843L28.9386 205.363C30.7403 205.185 32.0366 203.578 31.8554 201.748C31.6742 199.918 30.088 198.597 28.2864 198.775L3.24367 201.255C1.44204 201.433 0.145682 203.04 0.32687 204.87C0.508058 206.7 2.09431 208.021 3.89595 207.843Z" fill="#E1EAED"/>
<path d="M419.999 209.795C419.999 214.352 416.152 218.111 411.325 218.111C406.498 218.111 402.65 214.352 402.65 209.795C402.65 205.237 406.498 201.479 411.325 201.479C416.152 201.479 419.999 205.237 419.999 209.795Z" stroke="#EBF4F4" stroke-width="2"/>
<circle cx="330.345" cy="91.9098" r="4.87469" fill="#F2F2F2" stroke="#01A3A4"/>
<circle cx="42.2619" cy="162.856" r="3.22481" fill="#F2F2F2"/>
<circle cx="297.74" cy="136.699" r="2.14988" fill="#E1EAED"/>
<circle cx="274.48" cy="15.7048" r="1.76145" fill="#01A3A4"/>
<circle cx="278.392" cy="274.145" r="2.14988" fill="#01A3A4"/>
<circle cx="151.619" cy="150.015" r="4.84399" fill="#F2F2F2"/>
<circle cx="54.687" cy="84.7895" r="2.14988" fill="#01A3A4"/>
<circle cx="390.183" cy="194.746" r="1.64988" fill="#F2F2F2" stroke="#E1EAED"/>
<circle cx="74.1515" cy="203.345" r="2.58313" fill="#F2F2F2" stroke="#E1EAED" stroke-width="2"/>
<path fill-rule="evenodd" clip-rule="evenodd" d="M269.809 83.5205C269.809 82.9682 269.361 82.5205 268.809 82.5205C268.257 82.5205 267.809 82.9682 267.809 83.5205V85.6551H265.674C265.122 85.6551 264.674 86.1028 264.674 86.6551C264.674 87.2073 265.122 87.6551 265.674 87.6551H267.809V89.7901C267.809 90.3424 268.257 90.7901 268.809 90.7901C269.361 90.7901 269.809 90.3424 269.809 89.7901V87.6551H271.943C272.496 87.6551 272.943 87.2073 272.943 86.6551C272.943 86.1028 272.496 85.6551 271.943 85.6551H269.809V83.5205Z" fill="white"/>
<path fill-rule="evenodd" clip-rule="evenodd" d="M141.17 117.664C141.17 117.112 140.723 116.664 140.17 116.664C139.618 116.664 139.17 117.112 139.17 117.664V119.07H137.764C137.211 119.07 136.764 119.518 136.764 120.07C136.764 120.623 137.211 121.07 137.764 121.07H139.17V122.477C139.17 123.029 139.618 123.477 140.17 123.477C140.723 123.477 141.17 123.029 141.17 122.477V121.07H142.577C143.129 121.07 143.577 120.623 143.577 120.07C143.577 119.518 143.129 119.07 142.577 119.07H141.17V117.664Z" fill="#F2F2F2"/>
<path fill-rule="evenodd" clip-rule="evenodd" d="M98.0669 189.207C98.0669 188.655 97.6192 188.207 97.0669 188.207C96.5147 188.207 96.0669 188.655 96.0669 189.207V191.342H93.9316C93.3794 191.342 92.9316 191.789 92.9316 192.342C92.9316 192.894 93.3794 193.342 93.9316 193.342H96.0669V195.477C96.0669 196.029 96.5147 196.477 97.0669 196.477C97.6192 196.477 98.0669 196.029 98.0669 195.477V193.342H100.201C100.754 193.342 101.201 192.894 101.201 192.342C101.201 191.789 100.754 191.342 100.201 191.342H98.0669V189.207Z" fill="white"/>
<path fill-rule="evenodd" clip-rule="evenodd" d="M296.833 274.638C296.833 274.085 296.386 273.638 295.833 273.638C295.281 273.638 294.833 274.085 294.833 274.638V279.138H290.332C289.78 279.138 289.332 279.585 289.332 280.138C289.332 280.69 289.78 281.138 290.332 281.138H294.833V285.639C294.833 286.191 295.281 286.639 295.833 286.639C296.386 286.639 296.833 286.191 296.833 285.639V281.138H301.333C301.885 281.138 302.333 280.69 302.333 280.138C302.333 279.585 301.885 279.138 301.333 279.138H296.833V274.638Z" fill="white"/>
<path d="M294.833 279.138V280.138C295.386 280.138 295.833 279.69 295.833 279.138H294.833ZM294.833 281.138H295.833C295.833 280.585 295.386 280.138 294.833 280.138V281.138ZM296.833 281.138V280.138C296.281 280.138 295.833 280.585 295.833 281.138H296.833ZM296.833 279.138H295.833C295.833 279.69 296.281 280.138 296.833 280.138V279.138ZM295.833 274.638H297.833C297.833 273.533 296.938 272.638 295.833 272.638V274.638ZM295.833 274.638V272.638C294.729 272.638 293.833 273.533 293.833 274.638H295.833ZM295.833 279.138V274.638H293.833V279.138H295.833ZM290.332 280.138H294.833V278.138H290.332V280.138ZM290.332 280.138V278.138C289.227 278.138 288.332 279.033 288.332 280.138H290.332ZM290.332 280.138H288.332C288.332 281.242 289.227 282.138 290.332 282.138V280.138ZM294.833 280.138H290.332V282.138H294.833V280.138ZM295.833 285.639V281.138H293.833V285.639H295.833ZM295.833 285.639H293.833C293.833 286.743 294.729 287.639 295.833 287.639V285.639ZM295.833 285.639V287.639C296.938 287.639 297.833 286.743 297.833 285.639H295.833ZM295.833 281.138V285.639H297.833V281.138H295.833ZM301.333 280.138H296.833V282.138H301.333V280.138ZM301.333 280.138V282.138C302.437 282.138 303.333 281.242 303.333 280.138H301.333ZM301.333 280.138H303.333C303.333 279.033 302.437 278.138 301.333 278.138V280.138ZM296.833 280.138H301.333V278.138H296.833V280.138ZM295.833 274.638V279.138H297.833V274.638H295.833Z" fill="white"/>
<path fill-rule="evenodd" clip-rule="evenodd" d="M148.872 34.1992C148.872 33.6469 148.425 33.1992 147.872 33.1992C147.32 33.1992 146.872 33.6469 146.872 34.1992V38.6992H142.371C141.819 38.6992 141.371 39.1469 141.371 39.6992C141.371 40.2515 141.819 40.6992 142.371 40.6992H146.872V45.2001C146.872 45.7524 147.32 46.2001 147.872 46.2001C148.425 46.2001 148.872 45.7524 148.872 45.2001V40.6992H153.372C153.924 40.6992 154.372 40.2515 154.372 39.6992C154.372 39.1469 153.924 38.6992 153.372 38.6992H148.872V34.1992Z" fill="white"/>
<path d="M146.872 38.6992V39.6992C147.425 39.6992 147.872 39.2515 147.872 38.6992H146.872ZM146.872 40.6992H147.872C147.872 40.1469 147.425 39.6992 146.872 39.6992V40.6992ZM148.872 40.6992V39.6992C148.32 39.6992 147.872 40.1469 147.872 40.6992H148.872ZM148.872 38.6992H147.872C147.872 39.2515 148.32 39.6992 148.872 39.6992V38.6992ZM147.872 34.1992H149.872C149.872 33.0946 148.977 32.1992 147.872 32.1992V34.1992ZM147.872 34.1992V32.1992C146.768 32.1992 145.872 33.0946 145.872 34.1992H147.872ZM147.872 38.6992V34.1992H145.872V38.6992H147.872ZM142.371 39.6992H146.872V37.6992H142.371V39.6992ZM142.371 39.6992V37.6992C141.267 37.6992 140.371 38.5946 140.371 39.6992H142.371ZM142.371 39.6992H140.371C140.371 40.8037 141.267 41.6992 142.371 41.6992V39.6992ZM146.872 39.6992H142.371V41.6992H146.872V39.6992ZM147.872 45.2001V40.6992H145.872V45.2001H147.872ZM147.872 45.2001H145.872C145.872 46.3047 146.768 47.2001 147.872 47.2001V45.2001ZM147.872 45.2001V47.2001C148.977 47.2001 149.872 46.3047 149.872 45.2001H147.872ZM147.872 40.6992V45.2001H149.872V40.6992H147.872ZM153.372 39.6992H148.872V41.6992H153.372V39.6992ZM153.372 39.6992V41.6992C154.477 41.6992 155.372 40.8037 155.372 39.6992H153.372ZM153.372 39.6992H155.372C155.372 38.5946 154.477 37.6992 153.372 37.6992V39.6992ZM148.872 39.6992H153.372V37.6992H148.872V39.6992ZM147.872 34.1992V38.6992H149.872V34.1992H147.872Z" fill="white"/>
<mask id="path-23-inside-1" fill="white">
<path fill-rule="evenodd" clip-rule="evenodd" d="M378.465 179.079C378.465 178.803 378.241 178.579 377.965 178.579C377.688 178.579 377.465 178.803 377.465 179.079V180.341H376.203C375.927 180.341 375.703 180.564 375.703 180.841C375.703 181.117 375.927 181.341 376.203 181.341H377.465V182.602C377.465 182.878 377.688 183.102 377.965 183.102C378.241 183.102 378.465 182.878 378.465 182.602V181.341H379.726C380.002 181.341 380.226 181.117 380.226 180.841C380.226 180.564 380.002 180.341 379.726 180.341H378.465V179.079Z"/>
</mask>
<path fill-rule="evenodd" clip-rule="evenodd" d="M378.465 179.079C378.465 178.803 378.241 178.579 377.965 178.579C377.688 178.579 377.465 178.803 377.465 179.079V180.341H376.203C375.927 180.341 375.703 180.564 375.703 180.841C375.703 181.117 375.927 181.341 376.203 181.341H377.465V182.602C377.465 182.878 377.688 183.102 377.965 183.102C378.241 183.102 378.465 182.878 378.465 182.602V181.341H379.726C380.002 181.341 380.226 181.117 380.226 180.841C380.226 180.564 380.002 180.341 379.726 180.341H378.465V179.079Z" fill="#01A3A4"/>
<path d="M377.465 180.341V184.341C379.674 184.341 381.465 182.55 381.465 180.341H377.465ZM377.465 181.341H381.465C381.465 179.131 379.674 177.341 377.465 177.341V181.341ZM378.465 181.341V177.341C376.255 177.341 374.465 179.131 374.465 181.341H378.465ZM378.465 180.341H374.465C374.465 182.55 376.255 184.341 378.465 184.341V180.341ZM377.965 182.579C376.032 182.579 374.465 181.012 374.465 179.079H382.465C382.465 176.594 380.45 174.579 377.965 174.579V182.579ZM381.465 179.079C381.465 181.012 379.898 182.579 377.965 182.579V174.579C375.479 174.579 373.465 176.594 373.465 179.079H381.465ZM381.465 180.341V179.079H373.465V180.341H381.465ZM376.203 184.341H377.465V176.341H376.203V184.341ZM379.703 180.841C379.703 182.774 378.136 184.341 376.203 184.341V176.341C373.718 176.341 371.703 178.355 371.703 180.841H379.703ZM376.203 177.341C378.136 177.341 379.703 178.908 379.703 180.841H371.703C371.703 183.326 373.718 185.341 376.203 185.341V177.341ZM377.465 177.341H376.203V185.341H377.465V177.341ZM381.465 182.602V181.341H373.465V182.602H381.465ZM377.965 179.102C379.898 179.102 381.465 180.669 381.465 182.602H373.465C373.465 185.087 375.479 187.102 377.965 187.102V179.102ZM374.465 182.602C374.465 180.669 376.032 179.102 377.965 179.102V187.102C380.45 187.102 382.465 185.087 382.465 182.602H374.465ZM374.465 181.341V182.602H382.465V181.341H374.465ZM379.726 177.341H378.465V185.341H379.726V177.341ZM376.226 180.841C376.226 178.908 377.793 177.341 379.726 177.341V185.341C382.211 185.341 384.226 183.326 384.226 180.841H376.226ZM379.726 184.341C377.793 184.341 376.226 182.774 376.226 180.841H384.226C384.226 178.355 382.211 176.341 379.726 176.341V184.341ZM378.465 184.341H379.726V176.341H378.465V184.341ZM374.465 179.079V180.341H382.465V179.079H374.465Z" fill="#01A3A4" mask="url(#path-23-inside-1)"/>
<mask id="path-25-inside-2" fill="white">
<path fill-rule="evenodd" clip-rule="evenodd" d="M163.568 135.043C163.568 134.767 163.344 134.543 163.068 134.543C162.792 134.543 162.568 134.767 162.568 135.043V136.304H161.307C161.03 136.304 160.807 136.528 160.807 136.804C160.807 137.081 161.03 137.304 161.307 137.304H162.568V138.566C162.568 138.842 162.792 139.066 163.068 139.066C163.344 139.066 163.568 138.842 163.568 138.566V137.304H164.83C165.106 137.304 165.33 137.081 165.33 136.804C165.33 136.528 165.106 136.304 164.83 136.304H163.568V135.043Z"/>
</mask>
<path fill-rule="evenodd" clip-rule="evenodd" d="M163.568 135.043C163.568 134.767 163.344 134.543 163.068 134.543C162.792 134.543 162.568 134.767 162.568 135.043V136.304H161.307C161.03 136.304 160.807 136.528 160.807 136.804C160.807 137.081 161.03 137.304 161.307 137.304H162.568V138.566C162.568 138.842 162.792 139.066 163.068 139.066C163.344 139.066 163.568 138.842 163.568 138.566V137.304H164.83C165.106 137.304 165.33 137.081 165.33 136.804C165.33 136.528 165.106 136.304 164.83 136.304H163.568V135.043Z" fill="#01A3A4"/>
<path d="M162.568 136.304V140.304C164.777 140.304 166.568 138.514 166.568 136.304H162.568ZM162.568 137.304H166.568C166.568 135.095 164.777 133.304 162.568 133.304V137.304ZM163.568 137.304V133.304C161.359 133.304 159.568 135.095 159.568 137.304H163.568ZM163.568 136.304H159.568C159.568 138.514 161.359 140.304 163.568 140.304V136.304ZM163.068 138.543C161.135 138.543 159.568 136.976 159.568 135.043H167.568C167.568 132.558 165.553 130.543 163.068 130.543V138.543ZM166.568 135.043C166.568 136.976 165.001 138.543 163.068 138.543V130.543C160.583 130.543 158.568 132.558 158.568 135.043H166.568ZM166.568 136.304V135.043H158.568V136.304H166.568ZM161.307 140.304H162.568V132.304H161.307V140.304ZM164.807 136.804C164.807 138.737 163.24 140.304 161.307 140.304V132.304C158.821 132.304 156.807 134.319 156.807 136.804H164.807ZM161.307 133.304C163.24 133.304 164.807 134.871 164.807 136.804H156.807C156.807 139.29 158.821 141.304 161.307 141.304V133.304ZM162.568 133.304H161.307V141.304H162.568V133.304ZM166.568 138.566V137.304H158.568V138.566H166.568ZM163.068 135.066C165.001 135.066 166.568 136.633 166.568 138.566H158.568C158.568 141.051 160.583 143.066 163.068 143.066V135.066ZM159.568 138.566C159.568 136.633 161.135 135.066 163.068 135.066V143.066C165.553 143.066 167.568 141.051 167.568 138.566H159.568ZM159.568 137.304V138.566H167.568V137.304H159.568ZM164.83 133.304H163.568V141.304H164.83V133.304ZM161.33 136.804C161.33 134.871 162.897 133.304 164.83 133.304V141.304C167.315 141.304 169.33 139.29 169.33 136.804H161.33ZM164.83 140.304C162.897 140.304 161.33 138.737 161.33 136.804H169.33C169.33 134.319 167.315 132.304 164.83 132.304V140.304ZM163.568 140.304H164.83V132.304H163.568V140.304ZM159.568 135.043V136.304H167.568V135.043H159.568Z" fill="#01A3A4" mask="url(#path-25-inside-2)"/>
<mask id="path-27-inside-3" fill="white">
<path fill-rule="evenodd" clip-rule="evenodd" d="M32.3396 237.207C32.3396 236.931 32.1157 236.707 31.8396 236.707C31.5634 236.707 31.3396 236.931 31.3396 237.207V238.468H30.0781C29.802 238.468 29.5781 238.692 29.5781 238.968C29.5781 239.245 29.802 239.468 30.0781 239.468H31.3396V240.73C31.3396 241.006 31.5634 241.23 31.8396 241.23C32.1157 241.23 32.3396 241.006 32.3396 240.73V239.468H33.601C33.8772 239.468 34.101 239.245 34.101 238.968C34.101 238.692 33.8772 238.468 33.601 238.468H32.3396V237.207Z"/>
</mask>
<path fill-rule="evenodd" clip-rule="evenodd" d="M32.3396 237.207C32.3396 236.931 32.1157 236.707 31.8396 236.707C31.5634 236.707 31.3396 236.931 31.3396 237.207V238.468H30.0781C29.802 238.468 29.5781 238.692 29.5781 238.968C29.5781 239.245 29.802 239.468 30.0781 239.468H31.3396V240.73C31.3396 241.006 31.5634 241.23 31.8396 241.23C32.1157 241.23 32.3396 241.006 32.3396 240.73V239.468H33.601C33.8772 239.468 34.101 239.245 34.101 238.968C34.101 238.692 33.8772 238.468 33.601 238.468H32.3396V237.207Z" fill="#01A3A4"/>
<path d="M31.3396 238.468V242.468C33.5487 242.468 35.3396 240.678 35.3396 238.468H31.3396ZM31.3396 239.468H35.3396C35.3396 237.259 33.5487 235.468 31.3396 235.468V239.468ZM32.3396 239.468V235.468C30.1304 235.468 28.3396 237.259 28.3396 239.468H32.3396ZM32.3396 238.468H28.3396C28.3396 240.678 30.1304 242.468 32.3396 242.468V238.468ZM31.8396 240.707C29.9066 240.707 28.3396 239.14 28.3396 237.207H36.3396C36.3396 234.722 34.3249 232.707 31.8396 232.707V240.707ZM35.3396 237.207C35.3396 239.14 33.7726 240.707 31.8396 240.707V232.707C29.3543 232.707 27.3396 234.722 27.3396 237.207H35.3396ZM35.3396 238.468V237.207H27.3396V238.468H35.3396ZM30.0781 242.468H31.3396V234.468H30.0781V242.468ZM33.5781 238.968C33.5781 240.901 32.0111 242.468 30.0781 242.468V234.468C27.5928 234.468 25.5781 236.483 25.5781 238.968H33.5781ZM30.0781 235.468C32.0111 235.468 33.5781 237.035 33.5781 238.968H25.5781C25.5781 241.454 27.5928 243.468 30.0781 243.468V235.468ZM31.3396 235.468H30.0781V243.468H31.3396V235.468ZM35.3396 240.73V239.468H27.3396V240.73H35.3396ZM31.8396 237.23C33.7726 237.23 35.3396 238.797 35.3396 240.73H27.3396C27.3396 243.215 29.3543 245.23 31.8396 245.23V237.23ZM28.3396 240.73C28.3396 238.797 29.9066 237.23 31.8396 237.23V245.23C34.3249 245.23 36.3396 243.215 36.3396 240.73H28.3396ZM28.3396 239.468V240.73H36.3396V239.468H28.3396ZM33.601 235.468H32.3396V243.468H33.601V235.468ZM30.101 238.968C30.101 237.035 31.668 235.468 33.601 235.468V243.468C36.0863 243.468 38.101 241.454 38.101 238.968H30.101ZM33.601 242.468C31.668 242.468 30.101 240.901 30.101 238.968H38.101C38.101 236.483 36.0863 234.468 33.601 234.468V242.468ZM32.3396 242.468H33.601V234.468H32.3396V242.468ZM28.3396 237.207V238.468H36.3396V237.207H28.3396Z" fill="#01A3A4" mask="url(#path-27-inside-3)"/>
<path fill-rule="evenodd" clip-rule="evenodd" d="M56.6043 237.332C56.6043 237.056 56.3804 236.832 56.1043 236.832C55.8281 236.832 55.6043 237.056 55.6043 237.332V244.149H48.7871C48.511 244.149 48.2871 244.373 48.2871 244.649C48.2871 244.925 48.511 245.149 48.7871 245.149H55.6043V251.966C55.6043 252.243 55.8281 252.466 56.1043 252.466C56.3804 252.466 56.6043 252.243 56.6043 251.966V245.149H63.4216C63.6977 245.149 63.9216 244.925 63.9216 244.649C63.9216 244.373 63.6977 244.149 63.4216 244.149H56.6043V237.332Z" fill="#E1EAED"/>
<path d="M55.6043 244.149V246.149C56.7088 246.149 57.6043 245.254 57.6043 244.149H55.6043ZM55.6043 245.149H57.6043C57.6043 244.045 56.7088 243.149 55.6043 243.149V245.149ZM56.6043 245.149V243.149C55.4997 243.149 54.6043 244.045 54.6043 245.149H56.6043ZM56.6043 244.149H54.6043C54.6043 245.254 55.4997 246.149 56.6043 246.149V244.149ZM56.1043 238.832C55.2758 238.832 54.6043 238.16 54.6043 237.332H58.6043C58.6043 235.951 57.485 234.832 56.1043 234.832V238.832ZM57.6043 237.332C57.6043 238.16 56.9327 238.832 56.1043 238.832V234.832C54.7236 234.832 53.6043 235.951 53.6043 237.332H57.6043ZM57.6043 244.149V237.332H53.6043V244.149H57.6043ZM48.7871 246.149H55.6043V242.149H48.7871V246.149ZM50.2871 244.649C50.2871 245.478 49.6155 246.149 48.7871 246.149V242.149C47.4064 242.149 46.2871 243.268 46.2871 244.649H50.2871ZM48.7871 243.149C49.6155 243.149 50.2871 243.821 50.2871 244.649H46.2871C46.2871 246.03 47.4064 247.149 48.7871 247.149V243.149ZM55.6043 243.149H48.7871V247.149H55.6043V243.149ZM57.6043 251.966V245.149H53.6043V251.966H57.6043ZM56.1043 250.466C56.9327 250.466 57.6043 251.138 57.6043 251.966H53.6043C53.6043 253.347 54.7236 254.466 56.1043 254.466V250.466ZM54.6043 251.966C54.6043 251.138 55.2758 250.466 56.1043 250.466V254.466C57.485 254.466 58.6043 253.347 58.6043 251.966H54.6043ZM54.6043 245.149V251.966H58.6043V245.149H54.6043ZM63.4216 243.149H56.6043V247.149H63.4216V243.149ZM61.9216 244.649C61.9216 243.821 62.5931 243.149 63.4216 243.149V247.149C64.8023 247.149 65.9216 246.03 65.9216 244.649H61.9216ZM63.4216 246.149C62.5931 246.149 61.9216 245.478 61.9216 244.649H65.9216C65.9216 243.268 64.8023 242.149 63.4216 242.149V246.149ZM56.6043 246.149H63.4216V242.149H56.6043V246.149ZM54.6043 237.332V244.149H58.6043V237.332H54.6043Z" fill="#E1EAED"/>
<path fill-rule="evenodd" clip-rule="evenodd" d="M265.732 1.5C265.732 1.22386 265.509 1 265.232 1C264.956 1 264.732 1.22386 264.732 1.5V4.73824H261.494C261.218 4.73824 260.994 4.9621 260.994 5.23824C260.994 5.51439 261.218 5.73824 261.494 5.73824H264.732V8.97657C264.732 9.25272 264.956 9.47657 265.232 9.47657C265.509 9.47657 265.732 9.25272 265.732 8.97657V5.73824H268.971C269.247 5.73824 269.471 5.51439 269.471 5.23824C269.471 4.9621 269.247 4.73824 268.971 4.73824H265.732V1.5Z" fill="#E1EAED"/>
<path d="M264.732 4.73824V5.73824C265.285 5.73824 265.732 5.29053 265.732 4.73824H264.732ZM264.732 5.73824H265.732C265.732 5.18596 265.285 4.73824 264.732 4.73824V5.73824ZM265.732 5.73824V4.73824C265.18 4.73824 264.732 5.18596 264.732 5.73824H265.732ZM265.732 4.73824H264.732C264.732 5.29053 265.18 5.73824 265.732 5.73824V4.73824ZM265.232 2C264.956 2 264.732 1.77614 264.732 1.5H266.732C266.732 0.671573 266.061 0 265.232 0V2ZM265.732 1.5C265.732 1.77614 265.509 2 265.232 2V0C264.404 0 263.732 0.671573 263.732 1.5H265.732ZM265.732 4.73824V1.5H263.732V4.73824H265.732ZM261.494 5.73824H264.732V3.73824H261.494V5.73824ZM261.994 5.23824C261.994 5.51439 261.77 5.73824 261.494 5.73824V3.73824C260.666 3.73824 259.994 4.40982 259.994 5.23824H261.994ZM261.494 4.73824C261.77 4.73824 261.994 4.9621 261.994 5.23824H259.994C259.994 6.06667 260.666 6.73824 261.494 6.73824V4.73824ZM264.732 4.73824H261.494V6.73824H264.732V4.73824ZM265.732 8.97657V5.73824H263.732V8.97657H265.732ZM265.232 8.47657C265.509 8.47657 265.732 8.70043 265.732 8.97657H263.732C263.732 9.805 264.404 10.4766 265.232 10.4766V8.47657ZM264.732 8.97657C264.732 8.70043 264.956 8.47657 265.232 8.47657V10.4766C266.061 10.4766 266.732 9.805 266.732 8.97657H264.732ZM264.732 5.73824V8.97657H266.732V5.73824H264.732ZM268.971 4.73824H265.732V6.73824H268.971V4.73824ZM268.471 5.23824C268.471 4.9621 268.695 4.73824 268.971 4.73824V6.73824C269.799 6.73824 270.471 6.06667 270.471 5.23824H268.471ZM268.971 5.73824C268.695 5.73824 268.471 5.51439 268.471 5.23824H270.471C270.471 4.40982 269.799 3.73824 268.971 3.73824V5.73824ZM265.732 5.73824H268.971V3.73824H265.732V5.73824ZM264.732 1.5V4.73824H266.732V1.5H264.732Z" fill="#E1EAED"/>
<path d="M139.943 248.055C141.815 249.927 144.404 251 147.049 251H148.307H153.66H288.951C291.594 251 294.185 249.927 296.057 248.053C297.925 246.181 299 243.591 299 240.943V157.784H137V240.945C137 243.593 138.075 246.181 139.943 248.055ZM266.383 164.53H289.57V185.176H266.383V164.53ZM266.383 190.886H289.57V211.532H266.383V190.886ZM236.391 164.53H259.585V185.176H236.391V164.53ZM236.391 190.886H259.585V211.532H236.391V190.886ZM236.391 217.242H259.585V237.885H236.391V217.242ZM206.404 164.53H229.596V185.176H206.404V164.53ZM206.404 190.886H229.596V211.532H206.404V190.886ZM206.404 217.242H229.596V237.885H206.404V217.242ZM176.417 164.53H199.611V185.176H176.417V164.53ZM176.417 190.886H199.611V211.532H176.417V190.886ZM176.417 217.242H199.611V237.885H176.417V217.242ZM146.43 190.886H169.622V211.532H146.43V190.886ZM146.43 217.242H169.622V237.885H146.43V217.242Z" fill="#01A3A4"/>
<path d="M299 148.198H137V154.151H299V148.198Z" fill="#9FD9D9"/>
<path d="M153.66 119.581H148.307H147.049C144.404 119.581 141.815 120.652 139.943 122.524C138.075 124.396 137 126.986 137 129.632V141.316H299V129.632C299 126.986 297.925 124.398 296.055 122.524C294.187 120.652 291.596 119.581 288.951 119.581H271.907V132.745C271.907 135.2 269.916 137.191 267.462 137.191H258.096C255.64 137.191 253.655 135.198 253.655 132.745V119.581H182.352V132.745C182.352 135.2 180.36 137.191 177.909 137.191H168.538C166.082 137.191 164.097 135.198 164.097 132.745V119.581H153.66Z" fill="#9FD9D9"/>
<path d="M299 141.315H137V148.198H299V141.315Z" fill="#9FD9D9"/>
<path d="M168.537 132.742H177.908V119.581V108H168.537V119.581V132.742Z" fill="#01A3A4"/>
<path d="M258.096 132.742H267.462V119.581V108H258.096V119.581V132.742Z" fill="#01A3A4"/>
<path d="M199.611 164.53H176.418V185.176H199.611V164.53Z" fill="white"/>
<path d="M229.596 164.53H206.404V185.176H229.596V164.53Z" fill="white"/>
<path d="M259.586 164.53H236.393V185.176H259.586V164.53Z" fill="white"/>
<path d="M289.57 164.53H266.383V185.176H289.57V164.53Z" fill="white"/>
<path d="M169.621 190.886H146.43V211.532H169.621V190.886Z" fill="white"/>
<path d="M199.611 190.886H176.418V211.532H199.611V190.886Z" fill="white"/>
<path d="M229.596 190.886H206.404V211.532H229.596V190.886Z" fill="white"/>
<path d="M259.586 190.886H236.393V211.532H259.586V190.886Z" fill="#9FD9D9"/>
<path d="M289.57 190.886H266.383V211.532H289.57V190.886Z" fill="white"/>
<path d="M169.621 217.241H146.43V237.885H169.621V217.241Z" fill="white"/>
<path d="M199.611 217.241H176.418V237.885H199.611V217.241Z" fill="#9FD9D9"/>
<path d="M229.596 217.241H206.404V237.885H229.596V217.241Z" fill="white"/>
<path d="M259.586 217.241H236.393V237.885H259.586V217.241Z" fill="white"/>
</svg>
