<svg width="436" height="296" viewBox="0 0 436 296" fill="none" xmlns="http://www.w3.org/2000/svg">
<path fill-rule="evenodd" clip-rule="evenodd" d="M158.756 256.217L174.918 254.335C177.748 253.983 180.314 256.062 180.619 258.843C180.969 261.678 178.893 264.249 176.117 264.555L168.442 265.432C166.22 265.687 164.589 267.747 164.843 269.972C165.097 272.198 167.152 273.831 169.374 273.576L369.478 250.236C371.7 249.981 373.331 247.921 373.077 245.695C372.823 243.47 370.767 241.837 368.545 242.092L361.222 242.949C358.391 243.301 355.825 241.222 355.52 238.441C355.17 235.606 357.246 233.035 360.022 232.728L392.142 228.997C396.636 228.491 399.848 224.368 399.34 219.916C398.837 215.416 394.721 212.199 390.278 212.709L156.842 239.924C152.398 240.434 149.136 244.553 149.644 249.005C150.197 253.51 154.263 256.722 158.756 256.217ZM158.36 274.909C156.138 275.164 154.078 273.581 153.828 271.306C153.574 269.08 155.156 267.016 157.427 266.765C159.649 266.51 161.709 268.094 161.959 270.369C162.262 272.599 160.631 274.659 158.36 274.909Z" fill="#E1EAED"/>
<path fill-rule="evenodd" clip-rule="evenodd" d="M430.53 116.672L423.213 117.599C421.931 117.771 420.759 116.84 420.608 115.581C420.436 114.298 421.366 113.123 422.623 112.971L426.098 112.539C427.104 112.414 427.833 111.473 427.708 110.465C427.583 109.457 426.644 108.726 425.638 108.852L335.042 120.341C334.036 120.466 333.306 121.407 333.431 122.415C333.556 123.423 334.495 124.153 335.501 124.028L338.817 123.606C340.098 123.434 341.271 124.364 341.422 125.623C341.593 126.907 340.664 128.082 339.407 128.233L324.865 130.07C322.83 130.32 321.393 132.204 321.643 134.219C321.892 136.257 323.772 137.696 325.784 137.445L431.472 124.049C433.483 123.797 434.943 121.915 434.693 119.9C434.422 117.86 432.564 116.423 430.53 116.672ZM430.625 108.198C431.63 108.072 432.571 108.78 432.695 109.81C432.82 110.818 432.113 111.761 431.084 111.885C430.078 112.01 429.137 111.302 429.014 110.272C428.866 109.262 429.596 108.321 430.625 108.198Z" fill="#E1EAED"/>
<path fill-rule="evenodd" clip-rule="evenodd" d="M308.34 239.891C332.861 237.307 350.865 215.15 348.301 190.519C345.73 165.957 323.618 147.929 299.028 150.506C288.648 151.607 279.28 143.971 278.185 133.573C277.09 123.175 284.717 113.789 295.097 112.688L297.329 112.428C308.126 111.3 315.998 101.525 314.876 90.7096C313.754 79.8946 303.997 72.0124 293.2 73.1403L286.307 73.8307C282.13 74.2408 278.303 71.1645 277.895 66.9807C277.487 62.7969 280.559 58.9617 284.736 58.5516L289.821 58.0252C292.748 57.6971 294.872 55.0789 294.538 52.2145C294.212 49.2817 291.599 47.1556 288.739 47.4906L254.745 51.0588C250.213 51.5715 246.072 48.1875 245.63 43.6551C245.119 39.1158 248.499 34.9662 253.024 34.5219L263.193 33.4692C266.121 33.1411 268.244 30.5228 267.911 27.6584C267.584 24.7256 264.971 22.5995 262.112 22.9345L113.187 38.4653C109.427 38.8481 106.6 42.2935 107.049 46.0672C107.43 49.8339 110.868 52.6642 114.636 52.213L125.085 51.1193C131.009 50.4699 136.357 54.8725 137.004 60.8064C137.65 66.7403 133.246 72.1682 127.329 72.7492L86.9943 76.9942C83.2338 77.377 80.4072 80.8225 80.8563 84.5961C81.2371 88.3629 84.6757 91.1931 88.443 90.742L95.0631 90.0242C100.564 89.4705 105.469 93.4835 106.095 98.932C106.646 104.442 102.638 109.357 97.199 109.986L88.0673 111.005C73.9945 112.495 63.6918 125.203 65.1063 139.293C66.5891 153.389 79.2723 163.705 93.3451 162.215L96.273 161.887C109.786 160.479 122.026 170.405 123.427 183.941C124.828 197.477 114.914 209.741 101.401 211.149L95.061 211.826C81.4114 213.22 71.4158 225.614 72.8032 239.287C74.1906 252.96 86.56 262.968 100.21 261.573C170.84 254.218 237.709 247.246 308.34 239.891ZM97.0072 54.1065C93.1785 54.4825 89.8013 51.7274 89.4204 47.9607C89.0464 44.1255 91.7979 40.7416 95.5584 40.3588C99.3871 39.9828 102.764 42.7379 103.145 46.5046C103.526 50.2714 100.768 53.7237 97.0072 54.1065ZM304.651 56.5419C301.723 56.87 299.11 54.7439 298.852 51.818C298.525 48.8852 300.649 46.267 303.57 46.0072C306.497 45.6791 309.111 47.8052 309.369 50.7311C309.695 53.6639 307.572 56.2821 304.651 56.5419Z" fill="#E1EAED"/>
<path d="M16.2688 200.692L73.2525 195.05C77.3521 194.644 80.3019 190.988 79.8896 186.824C79.4773 182.66 75.8678 179.654 71.7683 180.059L14.7846 185.701C10.685 186.107 7.7352 189.763 8.14748 193.927C8.55977 198.092 12.1692 201.098 16.2688 200.692Z" fill="#E1EAED"/>
<path d="M3.89497 208.155L28.9377 205.676C30.7393 205.497 32.0356 203.891 31.8545 202.061C31.6733 200.231 30.087 198.909 28.2854 199.088L3.24269 201.567C1.44106 201.746 0.144706 203.352 0.325893 205.182C0.507081 207.012 2.09334 208.334 3.89497 208.155Z" fill="#E1EAED"/>
<g clip-path="url(#clip0)">
<circle cx="222.517" cy="162.217" r="44.0363" fill="#9FD9D9"/>
<path d="M220.009 192.264C204.379 192.264 191.59 179.475 191.59 163.928C191.59 162.507 190.419 161.336 188.998 161.336C187.577 161.336 186.407 162.507 186.407 163.928C186.407 182.317 201.453 197.446 219.926 197.446C221.347 197.446 222.517 196.276 222.517 194.855C222.517 193.434 221.43 192.264 220.009 192.264Z" fill="#E1EAED"/>
<path d="M311.363 267.024C308.692 267.024 306.288 266.045 304.418 264.088L258.738 217.75C256.334 215.349 255.443 212.058 256.156 208.767L256.334 207.788L250.457 201.918L249.21 202.897C240.127 210.101 229.264 213.925 217.866 213.925C190.351 213.837 167.912 191.423 167.912 163.851C167.912 136.28 190.351 113.777 218.044 113.777C245.648 113.777 268.177 136.191 268.177 163.851C268.177 175.147 264.259 186.176 257.224 194.981L256.245 196.226L261.676 201.652L262.656 201.385C263.546 201.118 264.526 201.029 265.416 201.029C268.088 201.029 270.67 202.096 272.54 203.964L318.398 250.48C320.268 252.348 321.247 254.75 321.247 257.418C321.247 259.997 320.179 262.488 318.309 264.266C316.35 266.045 313.857 267.024 311.363 267.024ZM218.044 121.693C194.804 121.693 175.837 140.638 175.837 163.851C175.837 187.065 194.715 205.921 217.955 205.921C241.196 205.921 260.074 187.065 260.074 163.851C260.163 140.638 241.285 121.693 218.044 121.693Z" fill="#01A3A4"/>
<ellipse cx="227.801" cy="193.923" rx="2.64218" ry="2.64217" fill="#E1EAED"/>
</g>
<path d="M419.998 210.107C419.998 214.664 416.151 218.423 411.324 218.423C406.497 218.423 402.649 214.664 402.649 210.107C402.649 205.549 406.497 201.791 411.324 201.791C416.151 201.791 419.998 205.549 419.998 210.107Z" stroke="#EBF4F4" stroke-width="2"/>
<circle cx="330.345" cy="92.2216" r="4.87469" fill="#F2F2F2" stroke="#01A3A4"/>
<circle cx="42.2619" cy="163.168" r="3.22481" fill="#F2F2F2"/>
<circle cx="297.739" cy="137.011" r="2.14988" fill="#E1EAED"/>
<circle cx="274.48" cy="16.0168" r="1.76145" fill="#01A3A4"/>
<circle cx="278.391" cy="274.458" r="2.14988" fill="#01A3A4"/>
<circle cx="151.619" cy="150.327" r="4.84399" fill="#F2F2F2"/>
<circle cx="54.687" cy="85.1018" r="2.14988" fill="#01A3A4"/>
<circle cx="390.184" cy="195.058" r="1.64988" fill="#F2F2F2" stroke="#E1EAED"/>
<circle cx="74.1525" cy="203.657" r="2.58313" fill="#F2F2F2" stroke="#E1EAED" stroke-width="2"/>
<path fill-rule="evenodd" clip-rule="evenodd" d="M269.808 83.8325C269.808 83.2802 269.36 82.8325 268.808 82.8325C268.256 82.8325 267.808 83.2802 267.808 83.8325V85.9671H265.673C265.121 85.9671 264.673 86.4148 264.673 86.9671C264.673 87.5193 265.121 87.9671 265.673 87.9671H267.808V90.1021C267.808 90.6544 268.256 91.1021 268.808 91.1021C269.36 91.1021 269.808 90.6544 269.808 90.1021V87.9671H271.942C272.495 87.9671 272.942 87.5193 272.942 86.9671C272.942 86.4148 272.495 85.9671 271.942 85.9671H269.808V83.8325Z" fill="white"/>
<path fill-rule="evenodd" clip-rule="evenodd" d="M141.17 117.976C141.17 117.424 140.722 116.976 140.17 116.976C139.617 116.976 139.17 117.424 139.17 117.976V119.383H137.763C137.21 119.383 136.763 119.83 136.763 120.383C136.763 120.935 137.21 121.383 137.763 121.383H139.17V122.789C139.17 123.341 139.617 123.789 140.17 123.789C140.722 123.789 141.17 123.341 141.17 122.789V121.383H142.576C143.128 121.383 143.576 120.935 143.576 120.383C143.576 119.83 143.128 119.383 142.576 119.383H141.17V117.976Z" fill="#F2F2F2"/>
<path fill-rule="evenodd" clip-rule="evenodd" d="M98.0669 189.52C98.0669 188.967 97.6192 188.52 97.0669 188.52C96.5147 188.52 96.0669 188.967 96.0669 189.52V191.654H93.9316C93.3794 191.654 92.9316 192.102 92.9316 192.654C92.9316 193.206 93.3794 193.654 93.9316 193.654H96.0669V195.789C96.0669 196.341 96.5147 196.789 97.0669 196.789C97.6192 196.789 98.0669 196.341 98.0669 195.789V193.654H100.201C100.754 193.654 101.201 193.206 101.201 192.654C101.201 192.102 100.754 191.654 100.201 191.654H98.0669V189.52Z" fill="white"/>
<path fill-rule="evenodd" clip-rule="evenodd" d="M296.834 274.95C296.834 274.398 296.387 273.95 295.834 273.95C295.282 273.95 294.834 274.398 294.834 274.95V279.45H290.333C289.781 279.45 289.333 279.898 289.333 280.45C289.333 281.002 289.781 281.45 290.333 281.45H294.834V285.951C294.834 286.503 295.282 286.951 295.834 286.951C296.387 286.951 296.834 286.503 296.834 285.951V281.45H301.334C301.886 281.45 302.334 281.002 302.334 280.45C302.334 279.898 301.886 279.45 301.334 279.45H296.834V274.95Z" fill="white"/>
<path d="M294.834 279.45V280.45C295.387 280.45 295.834 280.002 295.834 279.45H294.834ZM294.834 281.45H295.834C295.834 280.898 295.387 280.45 294.834 280.45V281.45ZM296.834 281.45V280.45C296.282 280.45 295.834 280.898 295.834 281.45H296.834ZM296.834 279.45H295.834C295.834 280.002 296.282 280.45 296.834 280.45V279.45ZM295.834 274.95H297.834C297.834 273.845 296.939 272.95 295.834 272.95V274.95ZM295.834 274.95V272.95C294.73 272.95 293.834 273.845 293.834 274.95H295.834ZM295.834 279.45V274.95H293.834V279.45H295.834ZM290.333 280.45H294.834V278.45H290.333V280.45ZM290.333 280.45V278.45C289.228 278.45 288.333 279.345 288.333 280.45H290.333ZM290.333 280.45H288.333C288.333 281.554 289.228 282.45 290.333 282.45V280.45ZM294.834 280.45H290.333V282.45H294.834V280.45ZM295.834 285.951V281.45H293.834V285.951H295.834ZM295.834 285.951H293.834C293.834 287.055 294.73 287.951 295.834 287.951V285.951ZM295.834 285.951V287.951C296.939 287.951 297.834 287.055 297.834 285.951H295.834ZM295.834 281.45V285.951H297.834V281.45H295.834ZM301.334 280.45H296.834V282.45H301.334V280.45ZM301.334 280.45V282.45C302.438 282.45 303.334 281.554 303.334 280.45H301.334ZM301.334 280.45H303.334C303.334 279.345 302.438 278.45 301.334 278.45V280.45ZM296.834 280.45H301.334V278.45H296.834V280.45ZM295.834 274.95V279.45H297.834V274.95H295.834Z" fill="white"/>
<path fill-rule="evenodd" clip-rule="evenodd" d="M148.872 34.512C148.872 33.9597 148.425 33.512 147.872 33.512C147.32 33.512 146.872 33.9597 146.872 34.512V39.0119H142.371C141.819 39.0119 141.371 39.4596 141.371 40.0119C141.371 40.5642 141.819 41.0119 142.371 41.0119H146.872V45.5129C146.872 46.0651 147.32 46.5129 147.872 46.5129C148.425 46.5129 148.872 46.0651 148.872 45.5129V41.0119H153.372C153.924 41.0119 154.372 40.5642 154.372 40.0119C154.372 39.4596 153.924 39.0119 153.372 39.0119H148.872V34.512Z" fill="white"/>
<path d="M146.872 39.0119V40.0119C147.425 40.0119 147.872 39.5642 147.872 39.0119H146.872ZM146.872 41.0119H147.872C147.872 40.4596 147.425 40.0119 146.872 40.0119V41.0119ZM148.872 41.0119V40.0119C148.32 40.0119 147.872 40.4596 147.872 41.0119H148.872ZM148.872 39.0119H147.872C147.872 39.5642 148.32 40.0119 148.872 40.0119V39.0119ZM147.872 34.512H149.872C149.872 33.4074 148.977 32.512 147.872 32.512V34.512ZM147.872 34.512V32.512C146.768 32.512 145.872 33.4074 145.872 34.512H147.872ZM147.872 39.0119V34.512H145.872V39.0119H147.872ZM142.371 40.0119H146.872V38.0119H142.371V40.0119ZM142.371 40.0119V38.0119C141.267 38.0119 140.371 38.9073 140.371 40.0119H142.371ZM142.371 40.0119H140.371C140.371 41.1165 141.267 42.0119 142.371 42.0119V40.0119ZM146.872 40.0119H142.371V42.0119H146.872V40.0119ZM147.872 45.5129V41.0119H145.872V45.5129H147.872ZM147.872 45.5129H145.872C145.872 46.6174 146.768 47.5129 147.872 47.5129V45.5129ZM147.872 45.5129V47.5129C148.977 47.5129 149.872 46.6174 149.872 45.5129H147.872ZM147.872 41.0119V45.5129H149.872V41.0119H147.872ZM153.372 40.0119H148.872V42.0119H153.372V40.0119ZM153.372 40.0119V42.0119C154.477 42.0119 155.372 41.1165 155.372 40.0119H153.372ZM153.372 40.0119H155.372C155.372 38.9073 154.477 38.0119 153.372 38.0119V40.0119ZM148.872 40.0119H153.372V38.0119H148.872V40.0119ZM147.872 34.512V39.0119H149.872V34.512H147.872Z" fill="white"/>
<mask id="path-27-inside-1" fill="white">
<path fill-rule="evenodd" clip-rule="evenodd" d="M378.466 179.391C378.466 179.115 378.242 178.891 377.966 178.891C377.689 178.891 377.466 179.115 377.466 179.391V180.653H376.204C375.928 180.653 375.704 180.877 375.704 181.153C375.704 181.429 375.928 181.653 376.204 181.653H377.466V182.914C377.466 183.19 377.689 183.414 377.966 183.414C378.242 183.414 378.466 183.19 378.466 182.914V181.653H379.727C380.003 181.653 380.227 181.429 380.227 181.153C380.227 180.877 380.003 180.653 379.727 180.653H378.466V179.391Z"/>
</mask>
<path fill-rule="evenodd" clip-rule="evenodd" d="M378.466 179.391C378.466 179.115 378.242 178.891 377.966 178.891C377.689 178.891 377.466 179.115 377.466 179.391V180.653H376.204C375.928 180.653 375.704 180.877 375.704 181.153C375.704 181.429 375.928 181.653 376.204 181.653H377.466V182.914C377.466 183.19 377.689 183.414 377.966 183.414C378.242 183.414 378.466 183.19 378.466 182.914V181.653H379.727C380.003 181.653 380.227 181.429 380.227 181.153C380.227 180.877 380.003 180.653 379.727 180.653H378.466V179.391Z" fill="#01A3A4"/>
<path d="M377.466 180.653V184.653C379.675 184.653 381.466 182.862 381.466 180.653H377.466ZM377.466 181.653H381.466C381.466 179.444 379.675 177.653 377.466 177.653V181.653ZM378.466 181.653V177.653C376.256 177.653 374.466 179.444 374.466 181.653H378.466ZM378.466 180.653H374.466C374.466 182.862 376.256 184.653 378.466 184.653V180.653ZM377.966 182.891C376.033 182.891 374.466 181.324 374.466 179.391H382.466C382.466 176.906 380.451 174.891 377.966 174.891V182.891ZM381.466 179.391C381.466 181.324 379.899 182.891 377.966 182.891V174.891C375.48 174.891 373.466 176.906 373.466 179.391H381.466ZM381.466 180.653V179.391H373.466V180.653H381.466ZM376.204 184.653H377.466V176.653H376.204V184.653ZM379.704 181.153C379.704 183.086 378.137 184.653 376.204 184.653V176.653C373.719 176.653 371.704 178.668 371.704 181.153H379.704ZM376.204 177.653C378.137 177.653 379.704 179.22 379.704 181.153H371.704C371.704 183.638 373.719 185.653 376.204 185.653V177.653ZM377.466 177.653H376.204V185.653H377.466V177.653ZM381.466 182.914V181.653H373.466V182.914H381.466ZM377.966 179.414C379.899 179.414 381.466 180.981 381.466 182.914H373.466C373.466 185.4 375.48 187.414 377.966 187.414V179.414ZM374.466 182.914C374.466 180.981 376.033 179.414 377.966 179.414V187.414C380.451 187.414 382.466 185.4 382.466 182.914H374.466ZM374.466 181.653V182.914H382.466V181.653H374.466ZM379.727 177.653H378.466V185.653H379.727V177.653ZM376.227 181.153C376.227 179.22 377.794 177.653 379.727 177.653V185.653C382.212 185.653 384.227 183.638 384.227 181.153H376.227ZM379.727 184.653C377.794 184.653 376.227 183.086 376.227 181.153H384.227C384.227 178.668 382.212 176.653 379.727 176.653V184.653ZM378.466 184.653H379.727V176.653H378.466V184.653ZM374.466 179.391V180.653H382.466V179.391H374.466Z" fill="#01A3A4" mask="url(#path-27-inside-1)"/>
<mask id="path-29-inside-2" fill="white">
<path fill-rule="evenodd" clip-rule="evenodd" d="M163.568 135.355C163.568 135.079 163.344 134.855 163.068 134.855C162.792 134.855 162.568 135.079 162.568 135.355V136.616H161.307C161.03 136.616 160.807 136.84 160.807 137.116C160.807 137.393 161.03 137.616 161.307 137.616H162.568V138.878C162.568 139.154 162.792 139.378 163.068 139.378C163.344 139.378 163.568 139.154 163.568 138.878V137.616H164.83C165.106 137.616 165.33 137.393 165.33 137.116C165.33 136.84 165.106 136.616 164.83 136.616H163.568V135.355Z"/>
</mask>
<path fill-rule="evenodd" clip-rule="evenodd" d="M163.568 135.355C163.568 135.079 163.344 134.855 163.068 134.855C162.792 134.855 162.568 135.079 162.568 135.355V136.616H161.307C161.03 136.616 160.807 136.84 160.807 137.116C160.807 137.393 161.03 137.616 161.307 137.616H162.568V138.878C162.568 139.154 162.792 139.378 163.068 139.378C163.344 139.378 163.568 139.154 163.568 138.878V137.616H164.83C165.106 137.616 165.33 137.393 165.33 137.116C165.33 136.84 165.106 136.616 164.83 136.616H163.568V135.355Z" fill="#01A3A4"/>
<path d="M162.568 136.616V140.616C164.777 140.616 166.568 138.826 166.568 136.616H162.568ZM162.568 137.616H166.568C166.568 135.407 164.777 133.616 162.568 133.616V137.616ZM163.568 137.616V133.616C161.359 133.616 159.568 135.407 159.568 137.616H163.568ZM163.568 136.616H159.568C159.568 138.826 161.359 140.616 163.568 140.616V136.616ZM163.068 138.855C161.135 138.855 159.568 137.288 159.568 135.355H167.568C167.568 132.87 165.553 130.855 163.068 130.855V138.855ZM166.568 135.355C166.568 137.288 165.001 138.855 163.068 138.855V130.855C160.583 130.855 158.568 132.87 158.568 135.355H166.568ZM166.568 136.616V135.355H158.568V136.616H166.568ZM161.307 140.616H162.568V132.616H161.307V140.616ZM164.807 137.116C164.807 139.049 163.24 140.616 161.307 140.616V132.616C158.821 132.616 156.807 134.631 156.807 137.116H164.807ZM161.307 133.616C163.24 133.616 164.807 135.183 164.807 137.116H156.807C156.807 139.602 158.821 141.616 161.307 141.616V133.616ZM162.568 133.616H161.307V141.616H162.568V133.616ZM166.568 138.878V137.616H158.568V138.878H166.568ZM163.068 135.378C165.001 135.378 166.568 136.945 166.568 138.878H158.568C158.568 141.363 160.583 143.378 163.068 143.378V135.378ZM159.568 138.878C159.568 136.945 161.135 135.378 163.068 135.378V143.378C165.553 143.378 167.568 141.363 167.568 138.878H159.568ZM159.568 137.616V138.878H167.568V137.616H159.568ZM164.83 133.616H163.568V141.616H164.83V133.616ZM161.33 137.116C161.33 135.183 162.897 133.616 164.83 133.616V141.616C167.315 141.616 169.33 139.602 169.33 137.116H161.33ZM164.83 140.616C162.897 140.616 161.33 139.049 161.33 137.116H169.33C169.33 134.631 167.315 132.616 164.83 132.616V140.616ZM163.568 140.616H164.83V132.616H163.568V140.616ZM159.568 135.355V136.616H167.568V135.355H159.568Z" fill="#01A3A4" mask="url(#path-29-inside-2)"/>
<mask id="path-31-inside-3" fill="white">
<path fill-rule="evenodd" clip-rule="evenodd" d="M32.3406 237.519C32.3406 237.243 32.1167 237.019 31.8406 237.019C31.5644 237.019 31.3406 237.243 31.3406 237.519V238.78H30.0791C29.803 238.78 29.5791 239.004 29.5791 239.28C29.5791 239.557 29.803 239.78 30.0791 239.78H31.3406V241.042C31.3406 241.318 31.5644 241.542 31.8406 241.542C32.1167 241.542 32.3406 241.318 32.3406 241.042V239.78H33.602C33.8781 239.78 34.102 239.557 34.102 239.28C34.102 239.004 33.8781 238.78 33.602 238.78H32.3406V237.519Z"/>
</mask>
<path fill-rule="evenodd" clip-rule="evenodd" d="M32.3406 237.519C32.3406 237.243 32.1167 237.019 31.8406 237.019C31.5644 237.019 31.3406 237.243 31.3406 237.519V238.78H30.0791C29.803 238.78 29.5791 239.004 29.5791 239.28C29.5791 239.557 29.803 239.78 30.0791 239.78H31.3406V241.042C31.3406 241.318 31.5644 241.542 31.8406 241.542C32.1167 241.542 32.3406 241.318 32.3406 241.042V239.78H33.602C33.8781 239.78 34.102 239.557 34.102 239.28C34.102 239.004 33.8781 238.78 33.602 238.78H32.3406V237.519Z" fill="#01A3A4"/>
<path d="M31.3406 238.78V242.78C33.5497 242.78 35.3406 240.99 35.3406 238.78H31.3406ZM31.3406 239.78H35.3406C35.3406 237.571 33.5497 235.78 31.3406 235.78V239.78ZM32.3406 239.78V235.78C30.1314 235.78 28.3406 237.571 28.3406 239.78H32.3406ZM32.3406 238.78H28.3406C28.3406 240.99 30.1314 242.78 32.3406 242.78V238.78ZM31.8406 241.019C29.9076 241.019 28.3406 239.452 28.3406 237.519H36.3406C36.3406 235.034 34.3258 233.019 31.8406 233.019V241.019ZM35.3406 237.519C35.3406 239.452 33.7735 241.019 31.8406 241.019V233.019C29.3553 233.019 27.3406 235.034 27.3406 237.519H35.3406ZM35.3406 238.78V237.519H27.3406V238.78H35.3406ZM30.0791 242.78H31.3406V234.78H30.0791V242.78ZM33.5791 239.28C33.5791 241.213 32.0121 242.78 30.0791 242.78V234.78C27.5938 234.78 25.5791 236.795 25.5791 239.28H33.5791ZM30.0791 235.78C32.0121 235.78 33.5791 237.347 33.5791 239.28H25.5791C25.5791 241.766 27.5938 243.78 30.0791 243.78V235.78ZM31.3406 235.78H30.0791V243.78H31.3406V235.78ZM35.3406 241.042V239.78H27.3406V241.042H35.3406ZM31.8406 237.542C33.7735 237.542 35.3406 239.109 35.3406 241.042H27.3406C27.3406 243.527 29.3553 245.542 31.8406 245.542V237.542ZM28.3406 241.042C28.3406 239.109 29.9076 237.542 31.8406 237.542V245.542C34.3258 245.542 36.3406 243.527 36.3406 241.042H28.3406ZM28.3406 239.78V241.042H36.3406V239.78H28.3406ZM33.602 235.78H32.3406V243.78H33.602V235.78ZM30.102 239.28C30.102 237.347 31.669 235.78 33.602 235.78V243.78C36.0873 243.78 38.102 241.766 38.102 239.28H30.102ZM33.602 242.78C31.669 242.78 30.102 241.213 30.102 239.28H38.102C38.102 236.795 36.0873 234.78 33.602 234.78V242.78ZM32.3406 242.78H33.602V234.78H32.3406V242.78ZM28.3406 237.519V238.78H36.3406V237.519H28.3406Z" fill="#01A3A4" mask="url(#path-31-inside-3)"/>
<path fill-rule="evenodd" clip-rule="evenodd" d="M56.6043 237.644C56.6043 237.368 56.3804 237.144 56.1043 237.144C55.8281 237.144 55.6043 237.368 55.6043 237.644V244.461H48.7871C48.511 244.461 48.2871 244.685 48.2871 244.961C48.2871 245.237 48.511 245.461 48.7871 245.461H55.6043V252.279C55.6043 252.555 55.8281 252.779 56.1043 252.779C56.3804 252.779 56.6043 252.555 56.6043 252.279V245.461H63.4216C63.6977 245.461 63.9216 245.237 63.9216 244.961C63.9216 244.685 63.6977 244.461 63.4216 244.461H56.6043V237.644Z" fill="#E1EAED"/>
<path d="M55.6043 244.461V246.461C56.7088 246.461 57.6043 245.566 57.6043 244.461H55.6043ZM55.6043 245.461H57.6043C57.6043 244.357 56.7088 243.461 55.6043 243.461V245.461ZM56.6043 245.461V243.461C55.4997 243.461 54.6043 244.357 54.6043 245.461H56.6043ZM56.6043 244.461H54.6043C54.6043 245.566 55.4997 246.461 56.6043 246.461V244.461ZM56.1043 239.144C55.2758 239.144 54.6043 238.472 54.6043 237.644H58.6043C58.6043 236.263 57.485 235.144 56.1043 235.144V239.144ZM57.6043 237.644C57.6043 238.472 56.9327 239.144 56.1043 239.144V235.144C54.7236 235.144 53.6043 236.263 53.6043 237.644H57.6043ZM57.6043 244.461V237.644H53.6043V244.461H57.6043ZM48.7871 246.461H55.6043V242.461H48.7871V246.461ZM50.2871 244.961C50.2871 245.79 49.6155 246.461 48.7871 246.461V242.461C47.4064 242.461 46.2871 243.58 46.2871 244.961H50.2871ZM48.7871 243.461C49.6155 243.461 50.2871 244.133 50.2871 244.961H46.2871C46.2871 246.342 47.4064 247.461 48.7871 247.461V243.461ZM55.6043 243.461H48.7871V247.461H55.6043V243.461ZM57.6043 252.279V245.461H53.6043V252.279H57.6043ZM56.1043 250.779C56.9327 250.779 57.6043 251.45 57.6043 252.279H53.6043C53.6043 253.659 54.7236 254.778 56.1043 254.778V250.779ZM54.6043 252.279C54.6043 251.45 55.2758 250.779 56.1043 250.779V254.778C57.485 254.778 58.6043 253.659 58.6043 252.279H54.6043ZM54.6043 245.461V252.279H58.6043V245.461H54.6043ZM63.4216 243.461H56.6043V247.461H63.4216V243.461ZM61.9216 244.961C61.9216 244.133 62.5931 243.461 63.4216 243.461V247.461C64.8023 247.461 65.9216 246.342 65.9216 244.961H61.9216ZM63.4216 246.461C62.5931 246.461 61.9216 245.79 61.9216 244.961H65.9216C65.9216 243.58 64.8023 242.461 63.4216 242.461V246.461ZM56.6043 246.461H63.4216V242.461H56.6043V246.461ZM54.6043 237.644V244.461H58.6043V237.644H54.6043Z" fill="#E1EAED"/>
<path fill-rule="evenodd" clip-rule="evenodd" d="M265.732 1.81226C265.732 1.53611 265.509 1.31226 265.232 1.31226C264.956 1.31226 264.732 1.53611 264.732 1.81226V5.0505H261.494C261.218 5.0505 260.994 5.27436 260.994 5.5505C260.994 5.82664 261.218 6.0505 261.494 6.0505H264.732V9.28883C264.732 9.56497 264.956 9.78883 265.232 9.78883C265.509 9.78883 265.732 9.56497 265.732 9.28883V6.0505H268.971C269.247 6.0505 269.471 5.82664 269.471 5.5505C269.471 5.27436 269.247 5.0505 268.971 5.0505H265.732V1.81226Z" fill="#E1EAED"/>
<path d="M264.732 5.0505V6.0505C265.285 6.0505 265.732 5.60279 265.732 5.0505H264.732ZM264.732 6.0505H265.732C265.732 5.49822 265.285 5.0505 264.732 5.0505V6.0505ZM265.732 6.0505V5.0505C265.18 5.0505 264.732 5.49822 264.732 6.0505H265.732ZM265.732 5.0505H264.732C264.732 5.60279 265.18 6.0505 265.732 6.0505V5.0505ZM265.232 2.31226C264.956 2.31226 264.732 2.0884 264.732 1.81226H266.732C266.732 0.983829 266.061 0.312256 265.232 0.312256V2.31226ZM265.732 1.81226C265.732 2.0884 265.509 2.31226 265.232 2.31226V0.312256C264.404 0.312256 263.732 0.983829 263.732 1.81226H265.732ZM265.732 5.0505V1.81226H263.732V5.0505H265.732ZM261.494 6.0505H264.732V4.0505H261.494V6.0505ZM261.994 5.5505C261.994 5.82664 261.77 6.0505 261.494 6.0505V4.0505C260.666 4.0505 259.994 4.72207 259.994 5.5505H261.994ZM261.494 5.0505C261.77 5.0505 261.994 5.27436 261.994 5.5505H259.994C259.994 6.37893 260.666 7.0505 261.494 7.0505V5.0505ZM264.732 5.0505H261.494V7.0505H264.732V5.0505ZM265.732 9.28883V6.0505H263.732V9.28883H265.732ZM265.232 8.78883C265.509 8.78883 265.732 9.01269 265.732 9.28883H263.732C263.732 10.1173 264.404 10.7888 265.232 10.7888V8.78883ZM264.732 9.28883C264.732 9.01269 264.956 8.78883 265.232 8.78883V10.7888C266.061 10.7888 266.732 10.1173 266.732 9.28883H264.732ZM264.732 6.0505V9.28883H266.732V6.0505H264.732ZM268.971 5.0505H265.732V7.0505H268.971V5.0505ZM268.471 5.5505C268.471 5.27436 268.695 5.0505 268.971 5.0505V7.0505C269.799 7.0505 270.471 6.37893 270.471 5.5505H268.471ZM268.971 6.0505C268.695 6.0505 268.471 5.82664 268.471 5.5505H270.471C270.471 4.72207 269.799 4.0505 268.971 4.0505V6.0505ZM265.732 6.0505H268.971V4.0505H265.732V6.0505ZM264.732 1.81226V5.0505H266.732V1.81226H264.732Z" fill="#E1EAED"/>
<defs>
<clipPath id="clip0">
<rect width="153.246" height="153.246" fill="white" transform="translate(167.912 113.777)"/>
</clipPath>
</defs>
</svg>
