<svg width="298" height="203" viewBox="0 0 298 203" fill="none" xmlns="http://www.w3.org/2000/svg">
<path fill-rule="evenodd" clip-rule="evenodd" d="M108.346 176.095L119.376 174.811C121.307 174.571 123.059 175.99 123.267 177.888C123.506 179.823 122.089 181.577 120.194 181.786L114.956 182.385C113.44 182.559 112.327 183.964 112.5 185.483C112.673 187.002 114.076 188.117 115.593 187.943L252.157 172.014C253.674 171.84 254.787 170.434 254.613 168.915C254.44 167.396 253.037 166.282 251.521 166.456L246.523 167.041C244.591 167.281 242.84 165.862 242.632 163.964C242.393 162.029 243.809 160.274 245.704 160.065L267.625 157.519C270.692 157.174 272.884 154.36 272.538 151.322C272.194 148.25 269.385 146.055 266.353 146.403L107.039 164.976C104.007 165.324 101.781 168.136 102.127 171.173C102.505 174.248 105.279 176.44 108.346 176.095ZM108.076 188.853C106.559 189.027 105.153 187.946 104.983 186.393C104.81 184.874 105.889 183.466 107.439 183.295C108.956 183.121 110.361 184.201 110.532 185.754C110.739 187.276 109.626 188.682 108.076 188.853Z" fill="#E1EAED"/>
<path fill-rule="evenodd" clip-rule="evenodd" d="M293.824 80.8599L288.831 81.4921C287.956 81.6097 287.156 80.9746 287.053 80.1152C286.936 79.2393 287.57 78.4375 288.428 78.3341L290.8 78.0392C291.486 77.9534 291.984 77.3112 291.899 76.6235C291.813 75.9358 291.172 75.4369 290.486 75.5227L228.657 83.3633C227.97 83.4491 227.472 84.0913 227.557 84.779C227.643 85.4667 228.284 85.9655 228.97 85.8797L231.233 85.5918C232.108 85.4743 232.908 86.1094 233.011 86.9687C233.128 87.8446 232.494 88.6465 231.636 88.7498L221.711 90.0037C220.323 90.174 219.342 91.4596 219.513 92.8351C219.682 94.2258 220.965 95.2082 222.339 95.0366L294.467 85.894C295.84 85.7225 296.837 84.438 296.666 83.0626C296.481 81.6706 295.213 80.6895 293.824 80.8599ZM293.889 75.0761C294.576 74.9903 295.218 75.4737 295.302 76.1768C295.387 76.8645 294.905 77.5079 294.203 77.5925C293.516 77.6783 292.874 77.1948 292.79 76.4917C292.689 75.8028 293.187 75.1606 293.889 75.0761Z" fill="#E1EAED"/>
<path fill-rule="evenodd" clip-rule="evenodd" d="M210.432 164.953C227.167 163.19 239.455 148.069 237.705 131.259C235.95 114.495 220.859 102.192 204.078 103.951C196.993 104.702 190.6 99.4906 189.853 92.3943C189.105 85.298 194.31 78.8922 201.395 78.1411L202.918 77.9639C210.286 77.1941 215.659 70.5224 214.893 63.1415C214.127 55.7606 207.469 50.3812 200.1 51.151L195.396 51.6222C192.545 51.9021 189.933 49.8025 189.655 46.9472C189.376 44.0919 191.473 41.4746 194.324 41.1947L197.794 40.8354C199.792 40.6115 201.241 38.8246 201.013 36.8698C200.79 34.8682 199.007 33.4172 197.056 33.6458L173.855 36.0811C170.763 36.431 167.936 34.1215 167.635 31.0282C167.286 27.9303 169.593 25.0983 172.681 24.7951L179.621 24.0767C181.619 23.8527 183.068 22.0658 182.841 20.111C182.618 18.1095 180.835 16.6585 178.883 16.8871L77.2464 27.4864C74.68 27.7476 72.751 30.099 73.0575 32.6744C73.3174 35.2451 75.6641 37.1767 78.2352 36.8688L85.3662 36.1223C89.4091 35.6791 93.0596 38.6838 93.5006 42.7335C93.9417 46.7832 90.9362 50.4876 86.898 50.8841L59.3707 53.7812C56.8043 54.0425 54.8752 56.3939 55.1817 58.9693C55.4416 61.54 57.7884 63.4715 60.3595 63.1636L64.8775 62.6738C68.6316 62.2959 71.9794 65.0346 72.4066 68.753C72.7825 72.5135 70.0474 75.868 66.3351 76.2972L60.1031 76.9923C50.4988 78.0093 43.4675 86.6825 44.4328 96.2982C45.4448 105.919 54.1007 112.959 63.705 111.942L65.7031 111.718C74.9255 110.757 83.2787 117.531 84.2349 126.769C85.1911 136.007 78.4254 144.377 69.2031 145.338L64.876 145.8C55.5605 146.751 48.7389 155.21 49.6857 164.541C50.6326 173.872 59.0743 180.703 68.3898 179.751C116.593 174.731 162.229 169.973 210.432 164.953ZM66.2042 38.161C63.5912 38.4176 61.2864 36.5374 61.0265 33.9667C60.7713 31.3493 62.6491 29.0399 65.2155 28.7786C67.8285 28.522 70.1333 30.4023 70.3932 32.973C70.6531 35.5437 68.7706 37.8998 66.2042 38.161ZM207.915 39.8231C205.917 40.047 204.133 38.596 203.957 36.5992C203.734 34.5977 205.183 32.8108 207.177 32.6335C209.175 32.4096 210.958 33.8606 211.135 35.8574C211.357 37.8589 209.908 39.6458 207.915 39.8231Z" fill="#E1EAED"/>
<path d="M11.1028 138.201L49.9925 134.351C52.7903 134.074 54.8035 131.578 54.5221 128.737C54.2407 125.895 51.7774 123.843 48.9796 124.12L10.0899 127.97C7.29208 128.247 5.27892 130.742 5.5603 133.584C5.84167 136.426 8.30502 138.478 11.1028 138.201Z" fill="#E1EAED"/>
<path d="M2.65866 143.294L19.7495 141.602C20.9791 141.48 21.8638 140.384 21.7402 139.135C21.6165 137.886 20.5339 136.984 19.3044 137.106L2.2135 138.798C0.983939 138.92 0.0992141 140.016 0.222869 141.265C0.346525 142.514 1.4291 143.416 2.65866 143.294Z" fill="#E1EAED"/>
<path d="M286.319 144.626C286.319 147.549 283.847 149.984 280.717 149.984C277.587 149.984 275.114 147.549 275.114 144.626C275.114 141.702 277.587 139.268 280.717 139.268C283.847 139.268 286.319 141.702 286.319 144.626Z" stroke="#EBF4F4" stroke-width="2"/>
<circle cx="225.451" cy="64.172" r="3.16806" fill="#F2F2F2" stroke="#01A3A4"/>
<circle cx="28.8424" cy="112.59" r="2.20084" fill="#F2F2F2"/>
<circle cx="203.198" cy="94.7407" r="1.46723" fill="#E1EAED"/>
<circle cx="187.324" cy="12.165" r="1.20214" fill="#01A3A4"/>
<circle cx="189.994" cy="188.541" r="1.46723" fill="#01A3A4"/>
<circle cx="103.475" cy="103.829" r="3.30588" fill="#F2F2F2"/>
<circle cx="37.3227" cy="59.3129" r="1.46723" fill="#01A3A4"/>
<circle cx="266.289" cy="134.356" r="0.967225" fill="#F2F2F2" stroke="#E1EAED"/>
<circle cx="50.6065" cy="140.223" r="1.44538" fill="#F2F2F2" stroke="#E1EAED" stroke-width="2"/>
<path fill-rule="evenodd" clip-rule="evenodd" d="M184.453 58.4473C184.453 57.895 184.006 57.4473 183.453 57.4473C182.901 57.4473 182.453 57.895 182.453 58.4473V59.5866H181.313C180.761 59.5866 180.313 60.0343 180.313 60.5866C180.313 61.1389 180.761 61.5866 181.313 61.5866H182.453V62.7261C182.453 63.2784 182.901 63.7261 183.453 63.7261C184.006 63.7261 184.453 63.2784 184.453 62.7261V61.5866H185.592C186.145 61.5866 186.592 61.1389 186.592 60.5866C186.592 60.0343 186.145 59.5866 185.592 59.5866H184.453V58.4473Z" fill="white"/>
<path fill-rule="evenodd" clip-rule="evenodd" d="M96.6621 81.75C96.6621 81.1977 96.2144 80.75 95.6621 80.75C95.1098 80.75 94.6621 81.1977 94.6621 81.75V82.3926H94.0195C93.4672 82.3926 93.0195 82.8403 93.0195 83.3926C93.0195 83.9449 93.4672 84.3926 94.0195 84.3926H94.6621V85.0347C94.6621 85.5869 95.1098 86.0347 95.6621 86.0347C96.2144 86.0347 96.6621 85.5869 96.6621 85.0347V84.3926H97.3042C97.8565 84.3926 98.3042 83.9449 98.3042 83.3926C98.3042 82.8403 97.8565 82.3926 97.3042 82.3926H96.6621V81.75Z" fill="#F2F2F2"/>
<path fill-rule="evenodd" clip-rule="evenodd" d="M67.2453 130.574C67.2453 130.022 66.7975 129.574 66.2453 129.574C65.693 129.574 65.2453 130.022 65.2453 130.574V131.714H64.1055C63.5532 131.714 63.1055 132.161 63.1055 132.714C63.1055 133.266 63.5532 133.714 64.1055 133.714H65.2453V134.853C65.2453 135.405 65.693 135.853 66.2453 135.853C66.7975 135.853 67.2453 135.405 67.2453 134.853V133.714H68.3843C68.9366 133.714 69.3843 133.266 69.3843 132.714C69.3843 132.161 68.9366 131.714 68.3843 131.714H67.2453V130.574Z" fill="white"/>
<path fill-rule="evenodd" clip-rule="evenodd" d="M202.898 188.879C202.898 188.327 202.45 187.879 201.898 187.879C201.346 187.879 200.898 188.327 200.898 188.879V191.633H198.144C197.591 191.633 197.144 192.081 197.144 192.633C197.144 193.185 197.591 193.633 198.144 193.633H200.898V196.387C200.898 196.939 201.346 197.387 201.898 197.387C202.45 197.387 202.898 196.939 202.898 196.387V193.633H205.651C206.204 193.633 206.651 193.185 206.651 192.633C206.651 192.081 206.204 191.633 205.651 191.633H202.898V188.879Z" fill="white"/>
<path d="M200.898 191.633V192.633C201.45 192.633 201.898 192.185 201.898 191.633H200.898ZM200.898 193.633H201.898C201.898 193.081 201.45 192.633 200.898 192.633V193.633ZM202.898 193.633V192.633C202.346 192.633 201.898 193.081 201.898 193.633H202.898ZM202.898 191.633H201.898C201.898 192.185 202.346 192.633 202.898 192.633V191.633ZM201.898 188.879H203.898C203.898 187.774 203.003 186.879 201.898 186.879V188.879ZM201.898 188.879H201.898V186.879C200.794 186.879 199.898 187.774 199.898 188.879H201.898ZM201.898 191.633V188.879H199.898V191.633H201.898ZM198.144 192.633H200.898V190.633H198.144V192.633ZM198.144 192.633V190.633C197.039 190.633 196.144 191.529 196.144 192.633H198.144ZM198.144 192.633H196.144C196.144 193.738 197.039 194.633 198.144 194.633V192.633ZM200.898 192.633H198.144V194.633H200.898V192.633ZM201.898 196.387V193.633H199.898V196.387H201.898ZM201.898 196.387H201.898H199.898C199.898 197.491 200.794 198.387 201.898 198.387V196.387ZM201.898 196.387V198.387C203.003 198.387 203.898 197.491 203.898 196.387H201.898ZM201.898 193.633V196.387H203.898V193.633H201.898ZM205.651 192.633H202.898V194.633H205.651V192.633ZM205.651 192.633V194.633C206.756 194.633 207.651 193.738 207.651 192.633H205.651ZM205.651 192.633H207.651C207.651 191.529 206.756 190.633 205.651 190.633V192.633ZM202.898 192.633H205.651V190.633H202.898V192.633ZM201.898 188.879V191.633H203.898V188.879H201.898Z" fill="white"/>
<path fill-rule="evenodd" clip-rule="evenodd" d="M101.919 24.7871C101.919 24.2348 101.471 23.7871 100.919 23.7871C100.366 23.7871 99.9187 24.2348 99.9187 24.7871V27.5413H97.1641C96.6118 27.5413 96.1641 27.989 96.1641 28.5413C96.1641 29.0936 96.6118 29.5413 97.1641 29.5413H99.9187V32.2949C99.9187 32.8472 100.366 33.2949 100.919 33.2949C101.471 33.2949 101.919 32.8472 101.919 32.2949V29.5413H104.672C105.224 29.5413 105.672 29.0936 105.672 28.5413C105.672 27.989 105.224 27.5413 104.672 27.5413H101.919V24.7871Z" fill="white"/>
<path d="M99.9187 27.5413V28.5413C100.471 28.5413 100.919 28.0936 100.919 27.5413H99.9187ZM99.9187 29.5413H100.919C100.919 28.989 100.471 28.5413 99.9187 28.5413V29.5413ZM101.919 29.5413V28.5413C101.366 28.5413 100.919 28.989 100.919 29.5413H101.919ZM101.919 27.5413H100.919C100.919 28.0936 101.366 28.5413 101.919 28.5413V27.5413ZM100.919 24.7871H102.919C102.919 23.6825 102.023 22.7871 100.919 22.7871V24.7871ZM100.919 24.7871V22.7871C99.8141 22.7871 98.9187 23.6825 98.9187 24.7871H100.919ZM100.919 27.5413V24.7871H98.9187V27.5413H100.919ZM97.1641 28.5413H99.9187V26.5413H97.1641V28.5413ZM97.1641 28.5413V28.5413V26.5413C96.0595 26.5413 95.1641 27.4367 95.1641 28.5413H97.1641ZM97.1641 28.5413H95.1641C95.1641 29.6459 96.0595 30.5413 97.1641 30.5413V28.5413ZM99.9187 28.5413H97.1641V30.5413H99.9187V28.5413ZM100.919 32.2949V29.5413H98.9187V32.2949H100.919ZM100.919 32.2949H98.9187C98.9187 33.3995 99.8141 34.2949 100.919 34.2949V32.2949ZM100.919 32.2949V34.2949C102.023 34.2949 102.919 33.3995 102.919 32.2949H100.919ZM100.919 29.5413V32.2949H102.919V29.5413H100.919ZM104.672 28.5413H101.919V30.5413H104.672V28.5413ZM104.672 28.5413H104.672V30.5413C105.776 30.5413 106.672 29.6459 106.672 28.5413H104.672ZM104.672 28.5413L104.672 28.5413H106.672C106.672 27.4367 105.776 26.5413 104.672 26.5413V28.5413ZM101.919 28.5413H104.672V26.5413H101.919V28.5413ZM100.919 24.7871V27.5413H102.919V24.7871H100.919Z" fill="white"/>
<mask id="path-23-inside-1" fill="white">
<path fill-rule="evenodd" clip-rule="evenodd" d="M258.45 123.662C258.45 123.386 258.226 123.162 257.95 123.162C257.674 123.162 257.45 123.386 257.45 123.662V124.364H256.748C256.472 124.364 256.248 124.588 256.248 124.864C256.248 125.14 256.472 125.364 256.748 125.364H257.45V126.066C257.45 126.343 257.674 126.566 257.95 126.566C258.226 126.566 258.45 126.343 258.45 126.066V125.364H259.152C259.428 125.364 259.652 125.14 259.652 124.864C259.652 124.588 259.428 124.364 259.152 124.364H258.45V123.662Z"/>
</mask>
<path fill-rule="evenodd" clip-rule="evenodd" d="M258.45 123.662C258.45 123.386 258.226 123.162 257.95 123.162C257.674 123.162 257.45 123.386 257.45 123.662V124.364H256.748C256.472 124.364 256.248 124.588 256.248 124.864C256.248 125.14 256.472 125.364 256.748 125.364H257.45V126.066C257.45 126.343 257.674 126.566 257.95 126.566C258.226 126.566 258.45 126.343 258.45 126.066V125.364H259.152C259.428 125.364 259.652 125.14 259.652 124.864C259.652 124.588 259.428 124.364 259.152 124.364H258.45V123.662Z" fill="#01A3A4"/>
<path d="M257.45 124.364V128.364C259.659 128.364 261.45 126.573 261.45 124.364H257.45ZM257.45 125.364H261.45C261.45 123.155 259.659 121.364 257.45 121.364V125.364ZM258.45 125.364V121.364C256.241 121.364 254.45 123.155 254.45 125.364L258.45 125.364ZM258.45 124.364H254.45C254.45 126.573 256.241 128.364 258.45 128.364V124.364ZM257.95 127.162C256.017 127.162 254.45 125.595 254.45 123.662H262.45C262.45 121.177 260.435 119.162 257.95 119.162V127.162ZM261.45 123.662C261.45 125.595 259.883 127.162 257.95 127.162V119.162C255.465 119.162 253.45 121.177 253.45 123.662H261.45ZM261.45 124.364V123.662H253.45V124.364H261.45ZM256.748 128.364H257.45V120.364H256.748V128.364ZM260.248 124.864C260.248 126.797 258.681 128.364 256.748 128.364V120.364C254.263 120.364 252.248 122.379 252.248 124.864H260.248ZM256.748 121.364C258.681 121.364 260.248 122.931 260.248 124.864H252.248C252.248 127.349 254.263 129.364 256.748 129.364V121.364ZM257.45 121.364H256.748V129.364H257.45V121.364ZM261.45 126.066V125.364H253.45V126.066H261.45ZM257.95 122.566C259.883 122.566 261.45 124.133 261.45 126.066H253.45C253.45 128.552 255.465 130.566 257.95 130.566V122.566ZM254.45 126.066C254.45 124.133 256.017 122.566 257.95 122.566V130.566C260.435 130.566 262.45 128.552 262.45 126.066H254.45ZM254.45 125.364V126.066H262.45V125.364H254.45ZM259.152 121.364H258.45V129.364H259.152V121.364ZM255.652 124.864C255.652 122.931 257.219 121.364 259.152 121.364V129.364C261.638 129.364 263.652 127.349 263.652 124.864H255.652ZM259.152 128.364C257.219 128.364 255.652 126.797 255.652 124.864H263.652C263.652 122.379 261.638 120.364 259.152 120.364V128.364ZM258.45 128.364H259.152V120.364H258.45V128.364ZM254.45 123.662V124.364H262.45V123.662H254.45Z" fill="#01A3A4" mask="url(#path-23-inside-1)"/>
<mask id="path-25-inside-2" fill="white">
<path fill-rule="evenodd" clip-rule="evenodd" d="M111.789 93.6094C111.789 93.3332 111.565 93.1094 111.289 93.1094C111.013 93.1094 110.789 93.3332 110.789 93.6094V94.3112H110.087C109.811 94.3112 109.587 94.5351 109.587 94.8112C109.587 95.0874 109.811 95.3112 110.087 95.3112H110.789V96.0136C110.789 96.2898 111.013 96.5136 111.289 96.5136C111.565 96.5136 111.789 96.2898 111.789 96.0136V95.3112H112.491C112.767 95.3112 112.991 95.0874 112.991 94.8112C112.991 94.5351 112.767 94.3112 112.491 94.3112H111.789V93.6094Z"/>
</mask>
<path fill-rule="evenodd" clip-rule="evenodd" d="M111.789 93.6094C111.789 93.3332 111.565 93.1094 111.289 93.1094C111.013 93.1094 110.789 93.3332 110.789 93.6094V94.3112H110.087C109.811 94.3112 109.587 94.5351 109.587 94.8112C109.587 95.0874 109.811 95.3112 110.087 95.3112H110.789V96.0136C110.789 96.2898 111.013 96.5136 111.289 96.5136C111.565 96.5136 111.789 96.2898 111.789 96.0136V95.3112H112.491C112.767 95.3112 112.991 95.0874 112.991 94.8112C112.991 94.5351 112.767 94.3112 112.491 94.3112H111.789V93.6094Z" fill="#01A3A4"/>
<path d="M110.789 94.3112V98.3112C112.998 98.3112 114.789 96.5203 114.789 94.3112H110.789ZM110.789 95.3112H114.789C114.789 93.1021 112.998 91.3112 110.789 91.3112V95.3112ZM111.789 95.3112V91.3112C109.58 91.3112 107.789 93.1021 107.789 95.3112L111.789 95.3112ZM111.789 94.3112H107.789C107.789 96.5203 109.58 98.3112 111.789 98.3112V94.3112ZM111.289 97.1094C109.356 97.1094 107.789 95.5424 107.789 93.6094H115.789C115.789 91.1241 113.774 89.1094 111.289 89.1094V97.1094ZM114.789 93.6094C114.789 95.5424 113.222 97.1094 111.289 97.1094V89.1094C108.803 89.1094 106.789 91.1241 106.789 93.6094H114.789ZM114.789 94.3112V93.6094H106.789V94.3112H114.789ZM110.087 98.3112H110.789V90.3112H110.087V98.3112ZM113.587 94.8112C113.587 96.7442 112.02 98.3112 110.087 98.3112V90.3112C107.602 90.3112 105.587 92.3259 105.587 94.8112H113.587ZM110.087 91.3112C112.02 91.3112 113.587 92.8782 113.587 94.8112H105.587C105.587 97.2965 107.602 99.3112 110.087 99.3112V91.3112ZM110.789 91.3112H110.087V99.3112H110.789V91.3112ZM114.789 96.0136V95.3112H106.789V96.0136H114.789ZM111.289 92.5136C113.222 92.5136 114.789 94.0807 114.789 96.0136H106.789C106.789 98.4989 108.803 100.514 111.289 100.514V92.5136ZM107.789 96.0136C107.789 94.0806 109.356 92.5136 111.289 92.5136V100.514C113.774 100.514 115.789 98.4989 115.789 96.0136H107.789ZM107.789 95.3112V96.0136H115.789V95.3112H107.789ZM112.491 91.3112H111.789V99.3112H112.491V91.3112ZM108.991 94.8112C108.991 92.8782 110.558 91.3112 112.491 91.3112V99.3112C114.976 99.3112 116.991 97.2965 116.991 94.8112H108.991ZM112.491 98.3112C110.558 98.3112 108.991 96.7442 108.991 94.8112H116.991C116.991 92.3259 114.976 90.3112 112.491 90.3112V98.3112ZM111.789 98.3112H112.491V90.3112H111.789V98.3112ZM107.789 93.6094V94.3112H115.789V93.6094H107.789Z" fill="#01A3A4" mask="url(#path-25-inside-2)"/>
<mask id="path-27-inside-3" fill="white">
<path fill-rule="evenodd" clip-rule="evenodd" d="M22.2302 163.334C22.2302 163.058 22.0063 162.834 21.7302 162.834C21.454 162.834 21.2302 163.058 21.2302 163.334V164.036H20.5283C20.2522 164.036 20.0283 164.26 20.0283 164.536C20.0283 164.812 20.2522 165.036 20.5283 165.036H21.2302V165.738C21.2302 166.014 21.454 166.238 21.7302 166.238C22.0063 166.238 22.2302 166.014 22.2302 165.738V165.036H22.9326C23.2087 165.036 23.4326 164.812 23.4326 164.536C23.4326 164.26 23.2087 164.036 22.9326 164.036H22.2302V163.334Z"/>
</mask>
<path fill-rule="evenodd" clip-rule="evenodd" d="M22.2302 163.334C22.2302 163.058 22.0063 162.834 21.7302 162.834C21.454 162.834 21.2302 163.058 21.2302 163.334V164.036H20.5283C20.2522 164.036 20.0283 164.26 20.0283 164.536C20.0283 164.812 20.2522 165.036 20.5283 165.036H21.2302V165.738C21.2302 166.014 21.454 166.238 21.7302 166.238C22.0063 166.238 22.2302 166.014 22.2302 165.738V165.036H22.9326C23.2087 165.036 23.4326 164.812 23.4326 164.536C23.4326 164.26 23.2087 164.036 22.9326 164.036H22.2302V163.334Z" fill="#01A3A4"/>
<path d="M21.2302 164.036V168.036C23.4393 168.036 25.2302 166.245 25.2302 164.036H21.2302ZM21.2302 165.036H25.2302C25.2302 162.827 23.4393 161.036 21.2302 161.036V165.036ZM22.2302 165.036V161.036C20.021 161.036 18.2302 162.827 18.2302 165.036H22.2302ZM22.2302 164.036H18.2302C18.2302 166.245 20.021 168.036 22.2302 168.036V164.036ZM21.7302 166.834C19.7972 166.834 18.2302 165.267 18.2302 163.334H26.2302C26.2302 160.849 24.2154 158.834 21.7302 158.834V166.834ZM25.2302 163.334C25.2302 165.267 23.6631 166.834 21.7302 166.834V158.834C19.2449 158.834 17.2302 160.849 17.2302 163.334H25.2302ZM25.2302 164.036V163.334H17.2302V164.036H25.2302ZM20.5283 168.036H21.2302V160.036H20.5283V168.036ZM24.0283 164.536C24.0283 166.469 22.4613 168.036 20.5283 168.036V160.036C18.043 160.036 16.0283 162.051 16.0283 164.536H24.0283ZM20.5283 161.036C22.4613 161.036 24.0283 162.603 24.0283 164.536H16.0283C16.0283 167.021 18.043 169.036 20.5283 169.036V161.036ZM21.2302 161.036H20.5283V169.036H21.2302V161.036ZM25.2302 165.738V165.036H17.2302V165.738H25.2302ZM21.7302 162.238C23.6631 162.238 25.2302 163.805 25.2302 165.738H17.2302C17.2302 168.224 19.2449 170.238 21.7302 170.238V162.238ZM18.2302 165.738C18.2302 163.805 19.7972 162.238 21.7302 162.238V170.238C24.2154 170.238 26.2302 168.224 26.2302 165.738H18.2302ZM18.2302 165.036V165.738H26.2302V165.036H18.2302ZM22.9326 161.036H22.2302V169.036H22.9326V161.036ZM19.4326 164.536C19.4326 162.603 20.9996 161.036 22.9326 161.036V169.036C25.4179 169.036 27.4326 167.021 27.4326 164.536H19.4326ZM22.9326 168.036C20.9996 168.036 19.4326 166.469 19.4326 164.536H27.4326C27.4326 162.051 25.4179 160.036 22.9326 160.036V168.036ZM22.2302 168.036H22.9326V160.036H22.2302V168.036ZM18.2302 163.334V164.036H26.2302V163.334H18.2302Z" fill="#01A3A4" mask="url(#path-27-inside-3)"/>
<path fill-rule="evenodd" clip-rule="evenodd" d="M38.7898 163.42C38.7898 163.144 38.5659 162.92 38.2898 162.92C38.0136 162.92 37.7898 163.144 37.7898 163.42V167.913H33.2959C33.0198 167.913 32.7959 168.137 32.7959 168.413C32.7959 168.689 33.0198 168.913 33.2959 168.913H37.7898V173.407C37.7898 173.684 38.0136 173.907 38.2898 173.907C38.5659 173.907 38.7898 173.684 38.7898 173.407V168.913H43.2835C43.5596 168.913 43.7835 168.689 43.7835 168.413C43.7835 168.137 43.5596 167.913 43.2835 167.913H38.7898V163.42Z" fill="#E1EAED"/>
<path d="M37.7898 167.913V169.913C38.8943 169.913 39.7898 169.017 39.7898 167.913H37.7898ZM37.7898 168.913H39.7898C39.7898 167.808 38.8943 166.913 37.7898 166.913V168.913ZM38.7898 168.913V166.913C37.6852 166.913 36.7898 167.808 36.7898 168.913H38.7898ZM38.7898 167.913H36.7898C36.7898 169.017 37.6852 169.913 38.7898 169.913V167.913ZM38.2898 164.92C37.4613 164.92 36.7898 164.248 36.7898 163.42H40.7898C40.7898 162.039 39.6705 160.92 38.2898 160.92V164.92ZM39.7898 163.42C39.7898 164.248 39.1182 164.92 38.2898 164.92V160.92C36.909 160.92 35.7898 162.039 35.7898 163.42H39.7898ZM39.7898 167.913V163.42H35.7898V167.913H39.7898ZM33.2959 169.913H37.7898V165.913H33.2959V169.913ZM34.7959 168.413C34.7959 169.241 34.1243 169.913 33.2959 169.913V165.913C31.9152 165.913 30.7959 167.032 30.7959 168.413H34.7959ZM33.2959 166.913C34.1243 166.913 34.7959 167.584 34.7959 168.413H30.7959C30.7959 169.794 31.9152 170.913 33.2959 170.913V166.913ZM37.7898 166.913H33.2959V170.913H37.7898V166.913ZM39.7898 173.407V168.913H35.7898V173.407H39.7898ZM38.2898 171.907C39.1182 171.907 39.7898 172.579 39.7898 173.407H35.7898C35.7898 174.788 36.909 175.907 38.2898 175.907V171.907ZM36.7898 173.407C36.7898 172.579 37.4613 171.907 38.2898 171.907V175.907C39.6705 175.907 40.7898 174.788 40.7898 173.407H36.7898ZM36.7898 168.913V173.407H40.7898V168.913H36.7898ZM43.2835 166.913H38.7898V170.913H43.2835V166.913ZM41.7835 168.413C41.7835 167.584 42.455 166.913 43.2835 166.913V170.913C44.6642 170.913 45.7835 169.794 45.7835 168.413H41.7835ZM43.2835 169.913C42.455 169.913 41.7835 169.241 41.7835 168.413H45.7835C45.7835 167.032 44.6642 165.913 43.2835 165.913V169.913ZM38.7898 169.913H43.2835V165.913H38.7898V169.913ZM36.7898 163.42V167.913H40.7898V163.42H36.7898Z" fill="#E1EAED"/>
<path fill-rule="evenodd" clip-rule="evenodd" d="M181.513 2.4707C181.513 2.19456 181.289 1.9707 181.013 1.9707C180.737 1.9707 180.513 2.19456 180.513 2.4707V4.52138H178.462C178.186 4.52138 177.962 4.74524 177.962 5.02138C177.962 5.29752 178.186 5.52138 178.462 5.52138H180.513V7.57324C180.513 7.84938 180.737 8.07324 181.013 8.07324C181.289 8.07324 181.513 7.84938 181.513 7.57324V5.52138H183.564C183.841 5.52138 184.064 5.29752 184.064 5.02138C184.064 4.74524 183.841 4.52138 183.564 4.52138H181.513V2.4707Z" fill="#E1EAED"/>
<path d="M180.513 4.52138V5.52138C181.065 5.52138 181.513 5.07367 181.513 4.52138H180.513ZM180.513 5.52138H181.513C181.513 4.9691 181.065 4.52138 180.513 4.52138V5.52138ZM181.513 5.52138V4.52138C180.961 4.52138 180.513 4.9691 180.513 5.52138H181.513ZM181.513 4.52138H180.513C180.513 5.07367 180.961 5.52138 181.513 5.52138V4.52138ZM181.013 2.9707C180.737 2.9707 180.513 2.74685 180.513 2.4707H182.513C182.513 1.64228 181.841 0.970703 181.013 0.970703V2.9707ZM181.513 2.4707C181.513 2.74685 181.289 2.9707 181.013 2.9707V0.970703C180.185 0.970703 179.513 1.64228 179.513 2.4707H181.513ZM181.513 4.52138V2.4707H179.513V4.52138H181.513ZM178.462 5.52138H180.513V3.52138H178.462V5.52138ZM178.962 5.02138C178.962 5.29752 178.738 5.52138 178.462 5.52138V3.52138C177.633 3.52138 176.962 4.19296 176.962 5.02138H178.962ZM178.462 4.52138C178.738 4.52138 178.962 4.74524 178.962 5.02138H176.962C176.962 5.84981 177.633 6.52138 178.462 6.52138V4.52138ZM180.513 4.52138H178.462V6.52138H180.513V4.52138ZM181.513 7.57324V5.52138H179.513V7.57324H181.513ZM181.013 7.07324C181.289 7.07324 181.513 7.2971 181.513 7.57324H179.513C179.513 8.40167 180.185 9.07324 181.013 9.07324V7.07324ZM180.513 7.57324C180.513 7.2971 180.737 7.07324 181.013 7.07324V9.07324C181.841 9.07324 182.513 8.40167 182.513 7.57324H180.513ZM180.513 5.52138V7.57324H182.513V5.52138H180.513ZM183.564 4.52138H181.513V6.52138H183.564V4.52138ZM183.064 5.02138C183.064 4.74524 183.288 4.52138 183.564 4.52138V6.52138C184.393 6.52138 185.064 5.84981 185.064 5.02138H183.064ZM183.564 5.52138C183.288 5.52138 183.064 5.29752 183.064 5.02138H185.064C185.064 4.19296 184.393 3.52138 183.564 3.52138V5.52138ZM181.513 5.52138H183.564V3.52138H181.513V5.52138ZM180.513 2.4707V4.52138H182.513V2.4707H180.513Z" fill="#E1EAED"/>
<g clip-path="url(#clip0)">
<path d="M95.5075 170.738C96.7854 172.015 98.5518 172.748 100.357 172.748H101.216H104.869H197.201C199.005 172.748 200.773 172.015 202.051 170.736C203.325 169.459 204.059 167.691 204.059 165.884V109.131H93.499V165.886C93.499 167.693 94.2327 169.459 95.5075 170.738ZM181.799 113.735H197.623V127.825H181.799V113.735ZM181.799 131.722H197.623V145.812H181.799V131.722ZM161.331 113.735H177.159V127.825H161.331V113.735ZM161.331 131.722H177.159V145.812H161.331V131.722ZM161.331 149.709H177.159V163.797H161.331V149.709ZM140.865 113.735H156.693V127.825H140.865V113.735ZM140.865 131.722H156.693V145.812H140.865V131.722ZM140.865 149.709H156.693V163.797H140.865V149.709ZM120.4 113.735H136.229V127.825H120.4V113.735ZM120.4 131.722H136.229V145.812H120.4V131.722ZM120.4 149.709H136.229V163.797H120.4V149.709ZM99.9349 131.722H115.762V145.812H99.9349V131.722ZM99.9349 149.709H115.762V163.797H99.9349V149.709Z" fill="#01A3A4"/>
<path d="M204.059 102.588H93.499V106.65H204.059V102.588Z" fill="#9FD9D9"/>
<path d="M104.869 83.0586H101.216H100.357C98.5518 83.0586 96.7854 83.7898 95.5075 85.0672C94.2327 86.3445 93.499 88.1124 93.499 89.9179V97.892H204.059V89.9179C204.059 88.1124 203.325 86.3461 202.049 85.0672C200.774 83.7898 199.006 83.0586 197.201 83.0586H185.569V92.0423C185.569 93.7184 184.21 95.077 182.535 95.077H176.143C174.467 95.077 173.112 93.7169 173.112 92.0423V83.0586H124.45V92.0423C124.45 93.7184 123.091 95.077 121.418 95.077H115.023C113.346 95.077 111.992 93.7169 111.992 92.0423V83.0586H104.869Z" fill="#9FD9D9"/>
<path d="M204.059 97.8906H93.499V102.588H204.059V97.8906Z" fill="#9FD9D9"/>
<path d="M115.022 92.04H121.418V83.0577V75.1543H115.022V83.0577V92.04Z" fill="#01A3A4"/>
<path d="M176.143 92.04H182.535V83.0577V75.1543H176.143V83.0577V92.04Z" fill="#01A3A4"/>
<path d="M136.229 113.734H120.4V127.825H136.229V113.734Z" fill="white"/>
<path d="M156.693 113.734H140.865V127.825H156.693V113.734Z" fill="white"/>
<path d="M177.16 113.734H161.331V127.825H177.16V113.734Z" fill="white"/>
<path d="M197.623 113.734H181.799V127.825H197.623V113.734Z" fill="white"/>
<path d="M115.762 131.721H99.9346V145.811H115.762V131.721Z" fill="white"/>
<path d="M136.229 131.721H120.4V145.811H136.229V131.721Z" fill="white"/>
<path d="M156.693 131.721H140.865V145.811H156.693V131.721Z" fill="white"/>
<path d="M177.16 131.721H161.331V145.811H177.16V131.721Z" fill="#9FD9D9"/>
<path d="M197.623 131.721H181.799V145.811H197.623V131.721Z" fill="white"/>
<path d="M115.762 149.707H99.9346V163.796H115.762V149.707Z" fill="white"/>
<path d="M136.229 149.707H120.4V163.796H136.229V149.707Z" fill="#9FD9D9"/>
<path d="M156.693 149.707H140.865V163.796H156.693V149.707Z" fill="white"/>
<path d="M177.16 149.707H161.331V163.796H177.16V149.707Z" fill="white"/>
</g>
<defs>
<clipPath id="clip0">
<rect width="110.56" height="97.5932" fill="white" transform="translate(93.499 75.1543)"/>
</clipPath>
</defs>
</svg>
