<svg width="18" height="20" viewBox="0 0 18 20" fill="none" xmlns="http://www.w3.org/2000/svg">
<g clip-path="url(#clip0)">
<path d="M4.16281 12.125H3.30566V13.375H4.10158C4.4077 13.375 4.71383 13.0625 4.71383 12.75C4.71383 12.4375 4.46893 12.125 4.16281 12.125Z" fill="#01A3A4"/>
<path d="M7.40822 12.125H6.6123V14.375H7.40822C8.75516 14.375 8.81639 12.125 7.40822 12.125Z" fill="#01A3A4"/>
<path d="M14.0816 9.375H0.612245C0.244898 9.375 0 9.625 0 10V16.25C0 16.5625 0.244898 16.875 0.612245 16.875H14.0816C14.449 16.875 14.6939 16.5625 14.6939 16.25V10C14.6939 9.625 14.449 9.375 14.0816 9.375ZM4.16327 14H3.30612V14.6875C3.30612 14.9375 3.18367 15.0625 3 15.0625C2.81633 15.0625 2.69388 14.9375 2.69388 14.6875V11.875C2.69388 11.6875 2.81633 11.5 3 11.5H4.10204C4.71429 11.5 5.32653 11.9375 5.32653 12.75C5.32653 13.5625 4.77551 14 4.16327 14ZM7.46939 15H6.30612C6.12245 15 5.93878 14.9375 5.93878 14.6875V11.875C5.93878 11.6875 6.12245 11.5625 6.30612 11.5625H7.40816C9.67347 11.5625 9.61224 15 7.46939 15ZM11.8163 12.1875H10.4082V13H11.6327C11.8163 13 12 13.1875 12 13.375C12 13.5625 11.8163 13.6875 11.6327 13.6875H10.4082V14.75C10.4082 14.9375 10.2857 15.0625 10.102 15.0625C9.85714 15.0625 9.73469 14.9375 9.73469 14.75V11.875C9.73469 11.6875 9.85714 11.5625 10.102 11.5625H11.8163C12.0612 11.5625 12.1837 11.6875 12.1837 11.875C12.1837 12 12.0612 12.1875 11.8163 12.1875Z" fill="#01A3A4"/>
<path d="M16.5309 4.75L12.49 0.625C12.1227 0.25 11.5104 0 11.0206 0H4.28595C3.24514 0 2.44922 0.8125 2.44922 1.875V8.125C2.44922 8.5 2.69412 8.75 3.06146 8.75C3.42881 8.75 3.67371 8.5 3.67371 8.125V1.875C3.67371 1.5 3.91861 1.25 4.28595 1.25H9.79616C10.4696 1.25 11.0206 1.8125 11.0206 2.5V4.875C11.0206 5.625 11.6329 6.25 12.4288 6.25H14.6941C15.3676 6.25 15.9186 6.8125 15.9186 7.5V18.125C15.9186 18.5 15.6737 18.75 15.3064 18.75H4.28595C3.91861 18.75 3.67371 18.5 3.67371 18.125C3.67371 17.75 3.42881 17.5 3.06146 17.5C2.69412 17.5 2.44922 17.75 2.44922 18.125C2.44922 19.1875 3.24514 20 4.28595 20H15.3064C16.3472 20 17.1431 19.1875 17.1431 18.125V6.25C17.1431 5.75 16.8982 5.125 16.5309 4.75Z" fill="#01A3A4"/>
</g>
<defs>
<clipPath id="clip0">
<rect width="17.1429" height="20" fill="white"/>
</clipPath>
</defs>
</svg>
