<svg width="120" height="20" viewBox="0 0 120 20" fill="none" xmlns="http://www.w3.org/2000/svg">
<path d="M1 19.035V14.4287H2.8872C3.14661 14.4287 3.38007 14.4923 3.5876 14.6195C3.79945 14.7467 3.96591 14.92 4.08696 15.1394C4.21234 15.3587 4.27503 15.6044 4.27503 15.8764C4.27503 16.1484 4.21234 16.3962 4.08696 16.62C3.96591 16.8393 3.79945 17.0148 3.5876 17.1464C3.38007 17.278 3.14661 17.3438 2.8872 17.3438H1.83659V19.035H1ZM1.83659 16.5607H2.82883C2.94124 16.5607 3.04068 16.53 3.12715 16.4686C3.21794 16.4072 3.28928 16.326 3.34116 16.2251C3.39737 16.1198 3.42547 16.0058 3.42547 15.883C3.42547 15.7557 3.39737 15.6417 3.34116 15.5408C3.28928 15.4399 3.21794 15.3609 3.12715 15.3039C3.04068 15.2468 2.94124 15.2183 2.82883 15.2183H1.83659V16.5607Z" fill="#01A4A4"/>
<path d="M7.32034 19.1007C6.99176 19.1007 6.68911 19.0415 6.41241 18.923C6.14003 18.8046 5.90008 18.6401 5.69255 18.4295C5.48935 18.2145 5.33154 17.9623 5.21913 17.6727C5.10672 17.3832 5.05051 17.0673 5.05051 16.7251C5.05051 16.383 5.10672 16.0671 5.21913 15.7776C5.33154 15.488 5.48935 15.238 5.69255 15.0274C5.90008 14.8124 6.14003 14.6457 6.41241 14.5273C6.68911 14.4088 6.99176 14.3496 7.32034 14.3496C7.6446 14.3496 7.94508 14.4088 8.22179 14.5273C8.49849 14.6457 8.73844 14.8124 8.94165 15.0274C9.14485 15.2424 9.30266 15.4946 9.41507 15.7841C9.52748 16.0737 9.58368 16.3874 9.58368 16.7251C9.58368 17.0673 9.52748 17.3832 9.41507 17.6727C9.30266 17.9579 9.14485 18.2079 8.94165 18.4229C8.73844 18.6379 8.49849 18.8046 8.22179 18.923C7.94508 19.0415 7.6446 19.1007 7.32034 19.1007ZM7.32034 18.2847C7.52787 18.2847 7.71594 18.2474 7.88455 18.1728C8.05749 18.0939 8.20665 17.9842 8.33203 17.8438C8.45742 17.7034 8.55469 17.5389 8.62387 17.3503C8.69737 17.1573 8.73412 16.9489 8.73412 16.7251C8.73412 16.5014 8.69737 16.2952 8.62387 16.1066C8.55469 15.9136 8.45742 15.7469 8.33203 15.6065C8.20665 15.4661 8.05749 15.3586 7.88455 15.284C7.71594 15.2051 7.52787 15.1656 7.32034 15.1656C7.11281 15.1656 6.92258 15.2051 6.74964 15.284C6.58103 15.3586 6.43187 15.4661 6.30216 15.6065C6.17678 15.7469 6.0795 15.9114 6.01033 16.1C5.94115 16.2886 5.90656 16.497 5.90656 16.7251C5.90656 17.0279 5.96709 17.2976 6.08815 17.5345C6.20921 17.7671 6.37566 17.9513 6.58751 18.0873C6.79936 18.2189 7.04364 18.2847 7.32034 18.2847Z" fill="#01A4A4"/>
<path d="M11.582 19.035L10.1617 14.4287H11.0308L11.8479 17.1596C11.8825 17.2692 11.9127 17.3921 11.9387 17.5281C11.9646 17.6641 11.9884 17.7935 12.01 17.9163C12.0316 18.0391 12.0468 18.1357 12.0554 18.2058H11.8803C11.9365 17.9953 11.9798 17.8264 12.01 17.6992C12.0403 17.5719 12.0662 17.4666 12.0878 17.3833C12.1095 17.2999 12.1332 17.2232 12.1592 17.153L12.9309 15.1591H13.6443L14.3966 17.153C14.4441 17.2714 14.4831 17.3877 14.5133 17.5017C14.5479 17.6114 14.576 17.7189 14.5976 17.8242C14.6236 17.9295 14.6473 18.0391 14.669 18.1532L14.5133 18.1927C14.5306 18.0874 14.5436 18.0019 14.5522 17.9361C14.5609 17.8659 14.5695 17.8066 14.5782 17.7584C14.5868 17.7057 14.5955 17.6553 14.6041 17.607C14.6128 17.5544 14.6257 17.493 14.643 17.4228C14.6603 17.3482 14.6863 17.2539 14.7208 17.1398L15.5185 14.4287H16.394L14.9738 19.035H14.3642L13.2033 16.2317L13.2876 16.2515L12.1851 19.035H11.582Z" fill="#01A4A4"/>
<path d="M17.3154 19.035V14.4287H20.2791V15.2052H18.1455V18.2585H20.3051V19.035H17.3154ZM17.7045 17.0609V16.2975H19.9484V17.0609H17.7045Z" fill="#01A4A4"/>
<path d="M21.5569 19.035V14.4287H23.5349C23.8029 14.4287 24.0494 14.4945 24.2742 14.6261C24.499 14.7533 24.6763 14.9288 24.806 15.1525C24.94 15.3719 25.007 15.6197 25.007 15.8961C25.007 16.1593 24.94 16.4006 24.806 16.62C24.6763 16.8393 24.499 17.0148 24.2742 17.1464C24.0537 17.278 23.8072 17.3438 23.5349 17.3438H22.3805V19.035H21.5569ZM24.1964 19.035L23.042 16.9556L23.9045 16.7911L25.1886 19.0416L24.1964 19.035ZM22.3805 16.5936H23.5413C23.6624 16.5936 23.7705 16.5651 23.8656 16.5081C23.9607 16.4467 24.0342 16.3655 24.0861 16.2646C24.138 16.1593 24.1639 16.0431 24.1639 15.9159C24.1639 15.7711 24.1315 15.6461 24.0666 15.5408C24.0018 15.4355 23.911 15.3521 23.7943 15.2907C23.6775 15.2293 23.5435 15.1986 23.3922 15.1986H22.3805V16.5936Z" fill="#01A4A4"/>
<path d="M26.2797 19.035V14.4287H29.2434V15.2052H27.1098V18.2585H29.2694V19.035H26.2797ZM26.6688 17.0609V16.2975H28.9127V17.0609H26.6688Z" fill="#01A4A4"/>
<path d="M30.5212 19.035V14.4287H32.3435C32.6721 14.4287 32.9683 14.4835 33.232 14.5932C33.5 14.7029 33.7292 14.8608 33.9194 15.067C34.1096 15.2732 34.2566 15.5166 34.3604 15.7974C34.4642 16.0782 34.5161 16.3896 34.5161 16.7318C34.5161 17.074 34.4642 17.3877 34.3604 17.6728C34.2566 17.9536 34.1096 18.1971 33.9194 18.4033C33.7335 18.6051 33.5065 18.7608 33.2385 18.8705C32.9704 18.9801 32.6721 19.035 32.3435 19.035H30.5212ZM31.3578 18.3704L31.2994 18.2453H32.3111C32.5229 18.2453 32.7132 18.2102 32.8818 18.14C33.0504 18.0699 33.1909 17.9711 33.3033 17.8439C33.4201 17.7123 33.5087 17.5522 33.5692 17.3636C33.6341 17.1749 33.6665 16.9643 33.6665 16.7318C33.6665 16.4993 33.6341 16.2909 33.5692 16.1067C33.5087 15.918 33.4201 15.7579 33.3033 15.6263C33.1866 15.4947 33.0439 15.3938 32.8753 15.3236C32.711 15.2534 32.5229 15.2183 32.3111 15.2183H31.2799L31.3578 15.1065V18.3704Z" fill="#01A4A4"/>
<path d="M37.7122 19.035V14.4287H39.6448C39.9431 14.4287 40.1938 14.4725 40.397 14.5603C40.6046 14.648 40.7602 14.7796 40.864 14.9551C40.9677 15.1262 41.0196 15.3346 41.0196 15.5803C41.0196 15.8347 40.9526 16.0497 40.8186 16.2251C40.6889 16.4006 40.503 16.5213 40.2608 16.5871V16.4555C40.4597 16.4993 40.6348 16.5783 40.7861 16.6923C40.9375 16.802 41.0542 16.9402 41.1364 17.1069C41.2185 17.2692 41.2596 17.4557 41.2596 17.6663C41.2596 17.89 41.2228 18.0874 41.1493 18.2585C41.0801 18.4296 40.9764 18.5722 40.838 18.6862C40.704 18.8003 40.5419 18.888 40.3516 18.9494C40.1657 19.0065 39.9539 19.035 39.7161 19.035H37.7122ZM38.5293 18.2651H39.6707C39.9085 18.2651 40.0922 18.2124 40.2219 18.1071C40.356 17.9975 40.423 17.8417 40.423 17.6399C40.423 17.5171 40.3906 17.4118 40.3257 17.3241C40.2608 17.2363 40.1701 17.1705 40.0533 17.1267C39.9366 17.0784 39.7982 17.0543 39.6383 17.0543H38.5293V18.2651ZM38.5293 16.3173H39.5734C39.6945 16.3173 39.8026 16.2931 39.8977 16.2449C39.9928 16.1966 40.0663 16.1308 40.1182 16.0475C40.1701 15.9641 40.196 15.8676 40.196 15.7579C40.196 15.5781 40.1355 15.4399 40.0144 15.3434C39.8977 15.2468 39.7269 15.1986 39.5021 15.1986H38.5293V16.3173Z" fill="#01A4A4"/>
<path d="M43.4259 19.035V16.7384L43.4713 17.0609L41.636 14.4287H42.6217L44.016 16.462L43.7242 16.4423L44.9823 14.4287H45.9292L44.1717 17.1332L44.269 16.6858V19.035H43.4259Z" fill="#01A4A4"/>
<path fill-rule="evenodd" clip-rule="evenodd" d="M91.3179 12.902L92.1655 12.9529C94.1925 13.0801 95.0156 14.0978 95.0156 15.7134C95.0156 17.8887 93.4677 19.3008 91.539 19.3008C90.234 19.3008 89.5301 18.8578 89.057 18.56C88.8175 18.4093 88.6371 18.2958 88.4678 18.2958C88.2045 18.2958 88.1967 18.4402 88.18 18.7479C88.1757 18.8276 88.1708 18.919 88.1607 19.0209H84.463V17.329H84.4138C84.0821 18.1177 83.0134 19.3008 81.4532 19.3008C78.6277 19.3008 76.7973 16.871 76.7973 14.1614C76.7973 11.8843 78.5786 9.02208 81.2935 9.02208C82.9151 9.02208 84.0084 10.2942 84.4138 11.3755H84.463V2.95409H82.6325V2.58517H84.4384C85.1632 2.58517 85.888 2.53429 86.3425 2V18.6266H87.7676L87.7184 15.6244H88.0378C88.2344 16.8074 88.8855 18.9064 91.5144 18.9064C92.8903 18.9064 93.9468 18.0668 93.9468 16.7438C93.9468 15.0275 92.6311 14.8969 91.3739 14.7722C91.2893 14.7638 91.2049 14.7554 91.1213 14.7466C89.4874 14.5812 87.915 14.365 87.915 11.9479C87.915 10.2688 89.0943 8.94575 91.0476 8.94575C91.995 8.94575 92.737 9.3459 93.1807 9.58514C93.3699 9.68715 93.5048 9.75991 93.5782 9.75991C93.7257 9.75991 93.7502 9.60725 93.7502 9.2765V9.08569H94.1065L94.2048 11.8589H93.8854C93.7134 10.5359 92.964 9.32739 90.9862 9.32739C89.7208 9.32739 88.6889 9.97617 88.6889 11.1847C88.6889 12.3932 89.6594 12.813 91.3179 12.902ZM81.4901 18.9191C83.1731 18.8683 84.4998 17.418 84.463 15.6753V12.9656C84.463 11.2737 83.1731 9.37827 81.2935 9.37827C79.3034 9.37827 78.9594 10.9811 78.9594 14.1487C78.9594 17.6089 79.242 18.9191 81.4532 18.9191H81.4901Z" fill="#01A4A4"/>
<path d="M75.6584 9.11251V18.6534H77.5993V19.0223H73.5945V16.936H73.5454C73.3243 17.4576 72.3046 19.2894 70.1302 19.2894C67.6979 19.2894 66.8134 18.0682 66.8134 16.7452V9.99027H64.467V18.6406H66.2851V19.0095H60.4253V18.6406H62.354V9.99027H54.848V18.6406H56.789V19.0095H50.9292V18.6406H52.7473V3.13356L50.9292 3.12084V2.76465H56.789V3.13356H54.848V9.60864H62.3663V3.13356H60.4253V2.76465H66.2851V3.13356H64.467V9.62136H66.8256C67.6119 9.62136 68.3858 9.57047 68.8772 9.11251V17.3176C68.8772 18.2972 69.4546 18.9205 70.3882 18.9205C72.0958 18.9205 73.6068 17.1141 73.6068 15.4222V9.99027H71.6781V9.62136H73.6068C74.393 9.62136 75.167 9.57047 75.6584 9.11251Z" fill="#01A4A4"/>
<path fill-rule="evenodd" clip-rule="evenodd" d="M100.238 9.00903C103.162 9.00903 105.029 11.4897 105.029 14.1484C105.029 16.8071 103.149 19.2877 100.238 19.2877C97.3265 19.2877 95.4469 16.8198 95.4469 14.1484C95.4469 11.4769 97.3142 9.00903 100.238 9.00903ZM102.855 13.2452C102.855 11.2352 102.769 9.37795 100.226 9.37795C97.6827 9.37795 97.609 11.2352 97.609 13.2452V15.0516C97.609 17.0615 97.7073 18.9188 100.238 18.9188C102.769 18.9188 102.867 17.0743 102.867 15.0516L102.855 13.2452Z" fill="#01A4A4"/>
<path d="M104.31 9.88679H106.091V18.639H104.298V19.0079H109.703V18.639H107.983V12.113L108.002 12.0769C108.418 11.2667 109.388 9.37795 111.263 9.37795C111.988 9.37795 112.602 9.79775 112.602 11.0699V18.639H110.821V19.0079H116.288V18.639H114.506V11.6296C114.506 10.2684 113.831 9.02175 111.411 9.02175C109.765 9.02175 108.634 10.2684 108.045 11.3752H107.996V9.00903C107.578 9.51788 107.172 9.51788 106.091 9.51788H104.31V9.88679Z" fill="#01A4A4"/>
</svg>
