<svg width="20" height="20" viewBox="0 0 20 20" fill="none" xmlns="http://www.w3.org/2000/svg">
<path d="M15.1892 17.5487C14.8388 17.5487 14.4865 17.5487 14.1361 17.5487C13.2944 17.5487 12.4546 17.5487 11.6128 17.5487C10.608 17.5487 9.6031 17.5487 8.59638 17.5487C7.73241 17.5487 6.86844 17.5487 6.00448 17.5487C5.60772 17.5487 5.20911 17.5505 4.81235 17.5487C4.7419 17.5487 4.67145 17.5433 4.601 17.536C4.66589 17.5451 4.73263 17.5541 4.79752 17.5614C4.66589 17.5433 4.53796 17.5106 4.41374 17.4616C4.47307 17.4852 4.5324 17.5106 4.59173 17.5342C4.4638 17.4816 4.34515 17.4144 4.23576 17.331C4.28582 17.3691 4.33588 17.4072 4.38593 17.4453C4.28396 17.3672 4.19312 17.2783 4.11339 17.1785C4.15233 17.2275 4.19126 17.2765 4.2302 17.3255C4.14677 17.2185 4.07631 17.1023 4.02255 16.9771C4.04665 17.0352 4.07261 17.0933 4.09671 17.1513C4.04665 17.0297 4.01328 16.9045 3.99474 16.7757C4.00401 16.8392 4.01328 16.9045 4.02069 16.9681C4.0003 16.8066 4.00772 16.6414 4.00772 16.4799C4.00772 16.1896 4.00772 15.8993 4.00772 15.609C4.00772 15.1681 4.00772 14.7271 4.00772 14.2862C4.00772 13.7437 4.00772 13.1993 4.00772 12.6568C4.00772 12.0616 4.00772 11.4664 4.00772 10.8713C4.00772 10.2652 4.00772 9.65919 4.00772 9.05496C4.00772 8.48883 4.00772 7.9227 4.00772 7.35657C4.00772 6.87936 4.00772 6.40214 4.00772 5.92674C4.00772 5.58198 4.00772 5.23541 4.00772 4.89065C4.00772 4.72734 4.00957 4.56404 4.00772 4.40073C4.00772 4.39347 4.00772 4.38621 4.00772 4.37896C3.76113 4.62029 3.5127 4.86343 3.26611 5.10476C3.38662 5.10476 3.50714 5.10476 3.62579 5.10476C3.9521 5.10476 4.28026 5.10476 4.60656 5.10476C5.08675 5.10476 5.56879 5.10476 6.04897 5.10476C6.63855 5.10476 7.22812 5.10476 7.8177 5.10476C8.46289 5.10476 9.10994 5.10476 9.75513 5.10476C10.4077 5.10476 11.0585 5.10476 11.7111 5.10476C12.3192 5.10476 12.9273 5.10476 13.5354 5.10476C14.0471 5.10476 14.5589 5.10476 15.0706 5.10476C15.4395 5.10476 15.8103 5.10476 16.1793 5.10476C16.3554 5.10476 16.5297 5.10658 16.7058 5.10476C16.7132 5.10476 16.7206 5.10476 16.728 5.10476C16.4815 4.86343 16.233 4.62029 15.9864 4.37896C15.9864 4.49146 15.9864 4.60396 15.9864 4.71646C15.9864 5.01948 15.9864 5.32432 15.9864 5.62734C15.9864 6.07734 15.9864 6.52915 15.9864 6.97915C15.9864 7.52895 15.9864 8.07693 15.9864 8.62673C15.9864 9.22371 15.9864 9.82068 15.9864 10.4195C15.9864 11.0237 15.9864 11.6279 15.9864 12.2322C15.9864 12.7929 15.9864 13.3535 15.9864 13.9142C15.9864 14.3824 15.9864 14.8505 15.9864 15.3187C15.9864 15.6507 15.9864 15.9846 15.9864 16.3166C15.9864 16.4636 15.9864 16.6106 15.9864 16.7576C15.9864 16.8283 15.9827 16.8973 15.9735 16.9681C15.9827 16.9045 15.992 16.8392 15.9994 16.7757C15.9809 16.9045 15.9475 17.0297 15.8974 17.1513C15.9215 17.0933 15.9475 17.0352 15.9716 16.9771C15.9178 17.1023 15.8492 17.2185 15.764 17.3255C15.8029 17.2765 15.8418 17.2275 15.8808 17.1785C15.801 17.2783 15.7102 17.3672 15.6082 17.4453C15.6583 17.4072 15.7083 17.3691 15.7584 17.331C15.649 17.4126 15.5304 17.4816 15.4024 17.5342C15.4618 17.5106 15.5211 17.4852 15.5804 17.4616C15.4562 17.5106 15.3283 17.5433 15.1966 17.5614C15.2615 17.5523 15.3283 17.5433 15.3932 17.536C15.3264 17.5451 15.2578 17.5487 15.1892 17.5487C14.9983 17.5505 14.7999 17.6285 14.6645 17.761C14.5366 17.8862 14.4383 18.0931 14.4476 18.2745C14.4662 18.6646 14.7739 19.0039 15.1892 19.0003C15.8085 18.9949 16.4333 18.7463 16.8523 18.2945C17.2435 17.8735 17.4678 17.3364 17.4715 16.7648C17.4733 16.6179 17.4715 16.4691 17.4715 16.3221C17.4715 15.9537 17.4715 15.5854 17.4715 15.2189C17.4715 14.689 17.4715 14.1592 17.4715 13.6293C17.4715 13.0033 17.4715 12.3791 17.4715 11.7531C17.4715 11.0908 17.4715 10.4285 17.4715 9.76806C17.4715 9.12754 17.4715 8.48883 17.4715 7.84831C17.4715 7.29851 17.4715 6.7469 17.4715 6.1971C17.4715 5.79246 17.4715 5.38783 17.4715 4.98319C17.4715 4.79085 17.4733 4.5967 17.4715 4.40436C17.4715 4.39529 17.4715 4.38803 17.4715 4.37896C17.4715 3.98702 17.1322 3.65315 16.7299 3.65315C16.6094 3.65315 16.4889 3.65315 16.3702 3.65315C16.0439 3.65315 15.7158 3.65315 15.3894 3.65315C14.9093 3.65315 14.4272 3.65315 13.947 3.65315C13.3575 3.65315 12.7679 3.65315 12.1783 3.65315C11.5331 3.65315 10.8861 3.65315 10.2409 3.65315C9.58827 3.65315 8.93751 3.65315 8.2849 3.65315C7.67679 3.65315 7.06868 3.65315 6.46056 3.65315C5.94886 3.65315 5.43715 3.65315 4.92545 3.65315C4.5565 3.65315 4.1857 3.65315 3.81675 3.65315C3.64062 3.65315 3.46635 3.65134 3.29022 3.65315C3.2828 3.65315 3.27538 3.65315 3.26797 3.65315C2.8675 3.65315 2.52637 3.98521 2.52637 4.37896C2.52637 4.76363 2.52637 5.1465 2.52637 5.53117C2.52637 6.45657 2.52637 7.38379 2.52637 8.30919C2.52637 9.45234 2.52637 10.5937 2.52637 11.7368C2.52637 12.7747 2.52637 13.8126 2.52637 14.8487C2.52637 15.4439 2.52637 16.0372 2.52637 16.6324C2.52637 17.0624 2.60238 17.4779 2.81745 17.859C3.21791 18.5721 4.01142 18.9985 4.8346 19.0003C5.40007 19.0003 5.96554 19.0003 6.53102 19.0003C7.62117 19.0003 8.71318 19.0003 9.80333 19.0003C10.9194 19.0003 12.0337 19.0003 13.1498 19.0003C13.7987 19.0003 14.4476 19.0003 15.0947 19.0003C15.1262 19.0003 15.1577 19.0003 15.1892 19.0003C15.5767 19.0003 15.9494 18.6664 15.9308 18.2745C15.9123 17.8826 15.6045 17.5487 15.1892 17.5487Z" fill="#01A3A4"/>
<path d="M15.1892 17.5487C14.8388 17.5487 14.4865 17.5487 14.1361 17.5487C13.2944 17.5487 12.4546 17.5487 11.6128 17.5487C10.608 17.5487 9.6031 17.5487 8.59638 17.5487C7.73241 17.5487 6.86844 17.5487 6.00448 17.5487C5.60772 17.5487 5.20911 17.5505 4.81235 17.5487C4.7419 17.5487 4.67145 17.5433 4.601 17.536C4.66589 17.5451 4.73263 17.5541 4.79752 17.5614C4.66589 17.5433 4.53796 17.5106 4.41374 17.4616C4.47307 17.4852 4.5324 17.5106 4.59173 17.5342C4.4638 17.4816 4.34515 17.4144 4.23576 17.331C4.28582 17.3691 4.33588 17.4072 4.38593 17.4453C4.28396 17.3672 4.19312 17.2783 4.11339 17.1785C4.15233 17.2275 4.19126 17.2765 4.2302 17.3255C4.14677 17.2185 4.07631 17.1023 4.02255 16.9771C4.04665 17.0352 4.07261 17.0933 4.09671 17.1513C4.04665 17.0297 4.01328 16.9045 3.99474 16.7757C4.00401 16.8392 4.01328 16.9045 4.02069 16.9681C4.0003 16.8066 4.00772 16.6414 4.00772 16.4799C4.00772 16.1896 4.00772 15.8993 4.00772 15.609C4.00772 15.1681 4.00772 14.7271 4.00772 14.2862C4.00772 13.7437 4.00772 13.1993 4.00772 12.6568C4.00772 12.0616 4.00772 11.4664 4.00772 10.8713C4.00772 10.2652 4.00772 9.65919 4.00772 9.05496C4.00772 8.48883 4.00772 7.9227 4.00772 7.35657C4.00772 6.87936 4.00772 6.40214 4.00772 5.92674C4.00772 5.58198 4.00772 5.23541 4.00772 4.89065C4.00772 4.72734 4.00957 4.56404 4.00772 4.40073C4.00772 4.39347 4.00772 4.38621 4.00772 4.37896C3.76113 4.62029 3.5127 4.86343 3.26611 5.10476C3.38663 5.10476 3.50714 5.10476 3.62579 5.10476C3.9521 5.10476 4.28026 5.10476 4.60656 5.10476C5.08675 5.10476 5.56879 5.10476 6.04898 5.10476C6.63855 5.10476 7.22812 5.10476 7.81769 5.10476C8.46289 5.10476 9.10994 5.10476 9.75513 5.10476C10.4077 5.10476 11.0585 5.10476 11.7111 5.10476C12.3192 5.10476 12.9273 5.10476 13.5354 5.10476C14.0471 5.10476 14.5589 5.10476 15.0706 5.10476C15.4395 5.10476 15.8103 5.10476 16.1793 5.10476C16.3554 5.10476 16.5297 5.10658 16.7058 5.10476C16.7132 5.10476 16.7206 5.10476 16.728 5.10476C16.4815 4.86343 16.233 4.62029 15.9864 4.37896C15.9864 4.49146 15.9864 4.60396 15.9864 4.71646C15.9864 5.01948 15.9864 5.32432 15.9864 5.62734C15.9864 6.07734 15.9864 6.52915 15.9864 6.97915C15.9864 7.52895 15.9864 8.07693 15.9864 8.62673C15.9864 9.22371 15.9864 9.82068 15.9864 10.4195C15.9864 11.0237 15.9864 11.6279 15.9864 12.2322C15.9864 12.7929 15.9864 13.3535 15.9864 13.9142C15.9864 14.3824 15.9864 14.8505 15.9864 15.3187C15.9864 15.6507 15.9864 15.9846 15.9864 16.3166C15.9864 16.4636 15.9864 16.6106 15.9864 16.7576C15.9864 16.8283 15.9827 16.8973 15.9735 16.9681C15.9827 16.9045 15.992 16.8392 15.9994 16.7757C15.9809 16.9045 15.9475 17.0297 15.8974 17.1513C15.9215 17.0933 15.9475 17.0352 15.9716 16.9771C15.9178 17.1023 15.8492 17.2185 15.764 17.3255C15.8029 17.2765 15.8418 17.2275 15.8808 17.1785C15.801 17.2783 15.7102 17.3672 15.6082 17.4453C15.6583 17.4072 15.7083 17.3691 15.7584 17.331C15.649 17.4126 15.5304 17.4816 15.4024 17.5342C15.4618 17.5106 15.5211 17.4852 15.5804 17.4616C15.4562 17.5106 15.3283 17.5433 15.1966 17.5614C15.2615 17.5523 15.3283 17.5433 15.3932 17.536C15.3264 17.5451 15.2578 17.5487 15.1892 17.5487ZM15.1892 17.5487C14.9983 17.5505 14.7999 17.6285 14.6645 17.761C14.5366 17.8862 14.4383 18.0931 14.4476 18.2745C14.4662 18.6646 14.7739 19.0039 15.1892 19.0003C15.8085 18.9949 16.4333 18.7463 16.8523 18.2945C17.2435 17.8735 17.4678 17.3364 17.4715 16.7648C17.4733 16.6179 17.4715 16.4691 17.4715 16.3221C17.4715 15.9537 17.4715 15.5854 17.4715 15.2189C17.4715 14.689 17.4715 14.1592 17.4715 13.6293C17.4715 13.0033 17.4715 12.3791 17.4715 11.7531C17.4715 11.0908 17.4715 10.4285 17.4715 9.76806C17.4715 9.12754 17.4715 8.48883 17.4715 7.84831C17.4715 7.29851 17.4715 6.7469 17.4715 6.1971C17.4715 5.79246 17.4715 5.38783 17.4715 4.98319C17.4715 4.79085 17.4733 4.5967 17.4715 4.40436C17.4715 4.39529 17.4715 4.38803 17.4715 4.37896C17.4715 3.98702 17.1322 3.65315 16.7299 3.65315C16.6094 3.65315 16.4889 3.65315 16.3702 3.65315C16.0439 3.65315 15.7158 3.65315 15.3894 3.65315C14.9093 3.65315 14.4272 3.65315 13.947 3.65315C13.3575 3.65315 12.7679 3.65315 12.1783 3.65315C11.5331 3.65315 10.8861 3.65315 10.2409 3.65315C9.58827 3.65315 8.93751 3.65315 8.2849 3.65315C7.67679 3.65315 7.06868 3.65315 6.46056 3.65315C5.94886 3.65315 5.43715 3.65315 4.92545 3.65315C4.5565 3.65315 4.1857 3.65315 3.81675 3.65315C3.64062 3.65315 3.46635 3.65134 3.29022 3.65315C3.2828 3.65315 3.27538 3.65315 3.26797 3.65315C2.8675 3.65315 2.52637 3.98521 2.52637 4.37896C2.52637 4.76363 2.52637 5.1465 2.52637 5.53117C2.52637 6.45657 2.52637 7.38379 2.52637 8.30919C2.52637 9.45234 2.52637 10.5937 2.52637 11.7368C2.52637 12.7747 2.52637 13.8126 2.52637 14.8487C2.52637 15.4439 2.52637 16.0372 2.52637 16.6324C2.52637 17.0624 2.60238 17.4779 2.81745 17.859C3.21791 18.5721 4.01142 18.9985 4.8346 19.0003C5.40007 19.0003 5.96554 19.0003 6.53102 19.0003C7.62117 19.0003 8.71318 19.0003 9.80333 19.0003C10.9194 19.0003 12.0337 19.0003 13.1498 19.0003C13.7987 19.0003 14.4476 19.0003 15.0947 19.0003C15.1262 19.0003 15.1577 19.0003 15.1892 19.0003C15.5767 19.0003 15.9494 18.6664 15.9308 18.2745C15.9123 17.8826 15.6045 17.5487 15.1892 17.5487Z" stroke="#01A3A4" stroke-width="0.4"/>
<path d="M12.1655 1.00003C11.8373 1.00003 11.5073 1.00003 11.1792 1.00003C10.5321 1.00003 9.88321 1.00003 9.23616 1.00003C8.78935 1.00003 8.34253 1.00003 7.89572 1.00003C7.51935 1.00003 7.13187 1.08168 6.81854 1.29217C6.28273 1.64781 5.95457 2.21212 5.95087 2.85083C5.94716 3.34438 5.95087 3.83793 5.95087 4.33148C5.95087 4.34781 5.95087 4.36414 5.95087 4.38047C5.95087 4.7724 6.29015 5.10627 6.69247 5.10627C6.91124 5.10627 7.13001 5.10627 7.34879 5.10627C7.87532 5.10627 8.40001 5.10627 8.92654 5.10627C9.56617 5.10627 10.2058 5.10627 10.8454 5.10627C11.3961 5.10627 11.9449 5.10627 12.4955 5.10627C12.7625 5.10627 13.0313 5.1099 13.2983 5.10627C13.302 5.10627 13.3057 5.10627 13.3094 5.10627C13.7099 5.10627 14.051 4.77422 14.051 4.38047C14.051 4.02482 14.051 3.66736 14.051 3.31172C14.051 3.1593 14.051 3.0087 14.051 2.85628C14.0492 2.3972 13.8804 1.99075 13.5875 1.63692C13.2445 1.22684 12.6957 1.00547 12.1655 1.00003C11.778 0.9964 11.4053 1.33753 11.4239 1.72583C11.4424 2.12321 11.7502 2.44801 12.1655 2.45164C12.2174 2.45164 12.2675 2.45527 12.3175 2.46071C12.2526 2.45164 12.1859 2.44257 12.121 2.43531C12.2193 2.44983 12.3138 2.47341 12.4065 2.51152C12.3472 2.48793 12.2879 2.46253 12.2285 2.43894C12.3175 2.47704 12.4009 2.52422 12.4788 2.58047C12.4288 2.54237 12.3787 2.50426 12.3286 2.46616C12.4121 2.52966 12.4844 2.60043 12.5493 2.68208C12.5103 2.63309 12.4714 2.5841 12.4325 2.53511C12.4899 2.61132 12.5381 2.69297 12.5771 2.78007C12.553 2.722 12.527 2.66394 12.5029 2.60587C12.54 2.6966 12.566 2.78914 12.5808 2.88531C12.5715 2.8218 12.5622 2.75648 12.5548 2.69297C12.5789 2.89257 12.5641 3.10124 12.5641 3.30083C12.5641 3.58934 12.5641 3.87966 12.5641 4.16817C12.5641 4.23894 12.5641 4.30789 12.5641 4.37865C12.8107 4.13732 13.0591 3.89418 13.3057 3.65285C13.0869 3.65285 12.8682 3.65285 12.6494 3.65285C12.1228 3.65285 11.5982 3.65285 11.0716 3.65285C10.432 3.65285 9.79236 3.65285 9.15273 3.65285C8.60209 3.65285 8.05331 3.65285 7.50267 3.65285C7.23569 3.65285 6.96686 3.6474 6.69988 3.65285C6.69618 3.65285 6.69247 3.65285 6.68876 3.65285C6.93534 3.89418 7.18378 4.13732 7.43036 4.37865C7.43036 3.91232 7.43036 3.44781 7.43036 2.98148C7.43036 2.88531 7.42851 2.78914 7.43963 2.69297C7.43036 2.75648 7.42109 2.8218 7.41368 2.88531C7.42851 2.78914 7.45261 2.6966 7.49154 2.60587C7.46744 2.66394 7.44149 2.722 7.41738 2.78007C7.45632 2.69297 7.50452 2.61132 7.562 2.53511C7.52306 2.5841 7.48413 2.63309 7.44519 2.68208C7.51008 2.60043 7.58239 2.52966 7.66582 2.46616C7.61576 2.50426 7.5657 2.54237 7.51565 2.58047C7.59351 2.52422 7.67694 2.47704 7.76594 2.43894C7.70661 2.46253 7.64728 2.48793 7.58795 2.51152C7.68065 2.47523 7.77521 2.44983 7.87347 2.43531C7.80858 2.44438 7.74183 2.45345 7.67694 2.46071C7.85122 2.43894 8.03291 2.45164 8.20904 2.45164C8.55018 2.45164 8.89132 2.45164 9.23245 2.45164C10.0241 2.45164 10.8158 2.45164 11.6093 2.45164C11.7928 2.45164 11.9782 2.45164 12.1618 2.45164C12.5493 2.45164 12.9219 2.11777 12.9034 1.72583C12.8886 1.33208 12.5808 1.00003 12.1655 1.00003Z" fill="#01A3A4"/>
<path d="M12.1655 1.00003C11.8373 1.00003 11.5073 1.00003 11.1792 1.00003C10.5321 1.00003 9.88321 1.00003 9.23616 1.00003C8.78935 1.00003 8.34253 1.00003 7.89572 1.00003C7.51935 1.00003 7.13187 1.08168 6.81854 1.29217C6.28273 1.64781 5.95457 2.21212 5.95087 2.85083C5.94716 3.34438 5.95087 3.83793 5.95087 4.33148C5.95087 4.34781 5.95087 4.36414 5.95087 4.38047C5.95087 4.7724 6.29015 5.10627 6.69247 5.10627C6.91124 5.10627 7.13001 5.10627 7.34879 5.10627C7.87532 5.10627 8.40001 5.10627 8.92654 5.10627C9.56617 5.10627 10.2058 5.10627 10.8454 5.10627C11.3961 5.10627 11.9449 5.10627 12.4955 5.10627C12.7625 5.10627 13.0313 5.1099 13.2983 5.10627C13.302 5.10627 13.3057 5.10627 13.3094 5.10627C13.7099 5.10627 14.051 4.77422 14.051 4.38047C14.051 4.02482 14.051 3.66736 14.051 3.31172C14.051 3.1593 14.051 3.0087 14.051 2.85628C14.0492 2.3972 13.8804 1.99075 13.5875 1.63692C13.2445 1.22684 12.6957 1.00547 12.1655 1.00003ZM12.1655 1.00003C11.778 0.9964 11.4053 1.33753 11.4239 1.72583C11.4424 2.12321 11.7502 2.44801 12.1655 2.45164C12.2174 2.45164 12.2675 2.45527 12.3175 2.46071C12.2526 2.45164 12.1859 2.44257 12.121 2.43531C12.2193 2.44983 12.3138 2.47341 12.4065 2.51152C12.3472 2.48793 12.2879 2.46253 12.2285 2.43894C12.3175 2.47704 12.4009 2.52422 12.4788 2.58047C12.4288 2.54237 12.3787 2.50426 12.3286 2.46616C12.4121 2.52966 12.4844 2.60043 12.5493 2.68208C12.5103 2.63309 12.4714 2.5841 12.4325 2.53511C12.4899 2.61132 12.5381 2.69297 12.5771 2.78007C12.553 2.722 12.527 2.66394 12.5029 2.60587C12.54 2.6966 12.566 2.78914 12.5808 2.88531C12.5715 2.8218 12.5622 2.75648 12.5548 2.69297C12.5789 2.89257 12.5641 3.10124 12.5641 3.30083C12.5641 3.58934 12.5641 3.87966 12.5641 4.16817C12.5641 4.23894 12.5641 4.30789 12.5641 4.37865C12.8107 4.13732 13.0591 3.89418 13.3057 3.65285C13.0869 3.65285 12.8682 3.65285 12.6494 3.65285C12.1228 3.65285 11.5982 3.65285 11.0716 3.65285C10.432 3.65285 9.79236 3.65285 9.15273 3.65285C8.60209 3.65285 8.05331 3.65285 7.50267 3.65285C7.23569 3.65285 6.96686 3.6474 6.69988 3.65285C6.69618 3.65285 6.69247 3.65285 6.68876 3.65285C6.93534 3.89418 7.18378 4.13732 7.43036 4.37865C7.43036 3.91232 7.43036 3.44781 7.43036 2.98148C7.43036 2.88531 7.42851 2.78914 7.43963 2.69297C7.43036 2.75648 7.42109 2.8218 7.41368 2.88531C7.42851 2.78914 7.45261 2.6966 7.49154 2.60587C7.46744 2.66394 7.44149 2.722 7.41738 2.78007C7.45632 2.69297 7.50452 2.61132 7.562 2.53511C7.52306 2.5841 7.48413 2.63309 7.44519 2.68208C7.51008 2.60043 7.58239 2.52966 7.66582 2.46616C7.61576 2.50426 7.5657 2.54237 7.51565 2.58047C7.59351 2.52422 7.67694 2.47704 7.76594 2.43894C7.70661 2.46253 7.64728 2.48793 7.58795 2.51152C7.68065 2.47523 7.77521 2.44983 7.87347 2.43531C7.80858 2.44438 7.74183 2.45345 7.67694 2.46071C7.85122 2.43894 8.03291 2.45164 8.20904 2.45164C8.55018 2.45164 8.89132 2.45164 9.23245 2.45164C10.0241 2.45164 10.8158 2.45164 11.6093 2.45164C11.7928 2.45164 11.9782 2.45164 12.1618 2.45164C12.5493 2.45164 12.9219 2.11777 12.9034 1.72583C12.8886 1.33208 12.5808 1.00003 12.1655 1.00003Z" stroke="#01A3A4" stroke-width="0.4"/>
<path d="M18.2577 3.65315C18.1113 3.65315 17.9629 3.65315 17.8165 3.65315C17.416 3.65315 17.0156 3.65315 16.6151 3.65315C16.0237 3.65315 15.4304 3.65315 14.839 3.65315C14.1159 3.65315 13.3928 3.65315 12.6716 3.65315C11.88 3.65315 11.0883 3.65315 10.2966 3.65315C9.49756 3.65315 8.69849 3.65315 7.89941 3.65315C7.1541 3.65315 6.40879 3.65315 5.66348 3.65315C5.03312 3.65315 4.40276 3.65315 3.77425 3.65315C3.32002 3.65315 2.86579 3.65315 2.41156 3.65315C2.19835 3.65315 1.98514 3.65134 1.77008 3.65315C1.76081 3.65315 1.75154 3.65315 1.74227 3.65315C1.35478 3.65315 0.982124 3.98702 1.00066 4.37896C1.0192 4.77271 1.32697 5.10476 1.74227 5.10476C1.88873 5.10476 2.03705 5.10476 2.18352 5.10476C2.58398 5.10476 2.98445 5.10476 3.38491 5.10476C3.97634 5.10476 4.56962 5.10476 5.16105 5.10476C5.88411 5.10476 6.60717 5.10476 7.32838 5.10476C8.12004 5.10476 8.9117 5.10476 9.70336 5.10476C10.5024 5.10476 11.3015 5.10476 12.1006 5.10476C12.8459 5.10476 13.5912 5.10476 14.3365 5.10476C14.9669 5.10476 15.5972 5.10476 16.2257 5.10476C16.68 5.10476 17.1342 5.10476 17.5884 5.10476C17.8017 5.10476 18.0149 5.10658 18.2299 5.10476C18.2392 5.10476 18.2485 5.10476 18.2577 5.10476C18.6452 5.10476 19.0179 4.77089 18.9993 4.37896C18.9808 3.98521 18.673 3.65315 18.2577 3.65315Z" fill="#01A3A4" stroke="#01A3A4" stroke-width="0.4"/>
<path d="M8.37435 15.0077C8.37435 14.7628 8.37435 14.5178 8.37435 14.2747C8.37435 13.6868 8.37435 13.1007 8.37435 12.5128C8.37435 11.8051 8.37435 11.0993 8.37435 10.3916C8.37435 9.77829 8.37435 9.16317 8.37435 8.54987C8.37435 8.25229 8.37991 7.95471 8.37435 7.65713C8.37435 7.6535 8.37435 7.64805 8.37435 7.64442C8.37435 7.26519 8.03321 6.90047 7.63275 6.91862C7.23043 6.93676 6.89114 7.23797 6.89114 7.64442C6.89114 7.88938 6.89114 8.13434 6.89114 8.37749C6.89114 8.96539 6.89114 9.55148 6.89114 10.1394C6.89114 10.847 6.89114 11.5529 6.89114 12.2605C6.89114 12.8739 6.89114 13.489 6.89114 14.1023C6.89114 14.3999 6.88558 14.6974 6.89114 14.995C6.89114 14.9986 6.89114 15.0041 6.89114 15.0077C6.89114 15.387 7.23228 15.7517 7.63275 15.7335C8.03321 15.7172 8.37435 15.416 8.37435 15.0077Z" fill="#01A3A4" stroke="#01A3A4" stroke-width="0.4"/>
<path d="M13.1058 15.0077C13.1058 14.7628 13.1058 14.5178 13.1058 14.2747C13.1058 13.6868 13.1058 13.1007 13.1058 12.5128C13.1058 11.8051 13.1058 11.0993 13.1058 10.3916C13.1058 9.77829 13.1058 9.16317 13.1058 8.54987C13.1058 8.25229 13.1114 7.95471 13.1058 7.65713C13.1058 7.6535 13.1058 7.64805 13.1058 7.64442C13.1058 7.26519 12.7647 6.90047 12.3642 6.91862C11.9619 6.93676 11.6226 7.23797 11.6226 7.64442C11.6226 7.88938 11.6226 8.13434 11.6226 8.37749C11.6226 8.96539 11.6226 9.55148 11.6226 10.1394C11.6226 10.847 11.6226 11.5529 11.6226 12.2605C11.6226 12.8739 11.6226 13.489 11.6226 14.1023C11.6226 14.3999 11.617 14.6974 11.6226 14.995C11.6226 14.9986 11.6226 15.0041 11.6226 15.0077C11.6226 15.387 11.9637 15.7517 12.3642 15.7335C12.7665 15.7172 13.1058 15.416 13.1058 15.0077Z" fill="#01A3A4" stroke="#01A3A4" stroke-width="0.4"/>
</svg>
