<svg width="14" height="20" viewBox="0 0 14 20" fill="none" xmlns="http://www.w3.org/2000/svg">
<path d="M9.91667 1.25H8.64792C8.41094 0.523438 7.76198 0 7 0C6.23802 0 5.58906 0.523438 5.34844 1.25H4.08333C3.7625 1.25 3.5 1.53125 3.5 1.875V4.375C3.5 4.71875 3.7625 5 4.08333 5H9.91667C10.2375 5 10.5 4.71875 10.5 4.375V1.875C10.5 1.53125 10.2375 1.25 9.91667 1.25Z" fill="#21111A"/>
<path d="M12.8333 2.5H11.6667V4.375C11.6667 5.41016 10.8828 6.25 9.91667 6.25H4.08333C3.11719 6.25 2.33333 5.41016 2.33333 4.375V2.5H1.16667C0.525 2.5 0 3.0625 0 3.75V18.75C0 19.4531 0.510417 20 1.16667 20H12.8333C13.4896 20 14 19.4531 14 18.75V3.75C14 3.04688 13.4896 2.5 12.8333 2.5ZM6.82865 13.5664L4.49531 16.0664C4.38229 16.1875 4.23281 16.25 4.08333 16.25C3.93385 16.25 3.78437 16.1875 3.67135 16.0664L2.50469 14.8164C2.27865 14.5742 2.27865 14.1758 2.50469 13.9336C2.73073 13.6914 3.1026 13.6914 3.32865 13.9336L4.08333 14.7422L6.00469 12.6836C6.23073 12.4414 6.6026 12.4414 6.82865 12.6836C7.05469 12.9258 7.05833 13.3242 6.82865 13.5664ZM6.82865 8.56641L4.49531 11.0664C4.38229 11.1875 4.23281 11.25 4.08333 11.25C3.93385 11.25 3.78437 11.1875 3.67135 11.0664L2.50469 9.81641C2.27865 9.57422 2.27865 9.17578 2.50469 8.93359C2.73073 8.69141 3.1026 8.69141 3.32865 8.93359L4.08333 9.74219L6.00469 7.68359C6.23073 7.44141 6.6026 7.44141 6.82865 7.68359C7.05469 7.92578 7.05833 8.32422 6.82865 8.56641ZM11.0833 15H8.75C8.42917 15 8.16667 14.7188 8.16667 14.375C8.16667 14.0312 8.42917 13.75 8.75 13.75H11.0833C11.4042 13.75 11.6667 14.0312 11.6667 14.375C11.6667 14.7188 11.4042 15 11.0833 15ZM11.0833 10H8.75C8.42917 10 8.16667 9.71875 8.16667 9.375C8.16667 9.03125 8.42917 8.75 8.75 8.75H11.0833C11.4042 8.75 11.6667 9.03125 11.6667 9.375C11.6667 9.71875 11.4042 10 11.0833 10Z" fill="#21111A"/>
</svg>
