<svg width="36" height="36" viewBox="0 0 36 36" fill="none" xmlns="http://www.w3.org/2000/svg">
<circle cx="18" cy="18" r="17.5" fill="white" stroke="#E5E5E5"/>
<path d="M5.54603 22.8005C5.48358 22.6905 5.36908 22.6276 5.24937 22.6329C5.0568 22.6329 4.92148 22.7586 4.92148 23.0362C4.92148 23.2824 5.03078 23.4395 5.24937 23.4395C5.36387 23.4395 5.5148 23.3714 5.53042 23.2091H5.24937V22.9629H5.79585V23.6753H5.55124V23.56C5.45755 23.6595 5.32223 23.7172 5.18171 23.7119C4.79657 23.7119 4.604 23.4343 4.604 23.0467C4.604 22.6591 4.81219 22.371 5.22335 22.371C5.46276 22.3605 5.68655 22.4862 5.80626 22.6905L5.54603 22.8005Z" fill="#01A3A4"/>
<path d="M5.97803 22.7219H6.25387V22.8214C6.32673 22.7586 6.42042 22.7272 6.5141 22.7219V22.9681L6.48287 22.9734C6.31632 22.9943 6.25387 23.0205 6.25387 23.1253V23.6753H5.97803V22.7219Z" fill="#01A3A4"/>
<path d="M6.84713 23.2562C6.84713 23.4395 6.96684 23.4971 7.05531 23.4971C7.15941 23.4971 7.20625 23.4447 7.28431 23.3295L7.4925 23.4395C7.39882 23.6176 7.24268 23.7014 7.0345 23.7014C6.74304 23.7014 6.57129 23.4971 6.57129 23.23C6.57129 22.8947 6.74824 22.7009 7.0345 22.7009C7.378 22.7009 7.4977 22.9681 7.4977 23.2614H6.84713V23.2562ZM7.21666 23.0833C7.22186 22.9838 7.14379 22.9 7.0449 22.9C7.0397 22.9 7.0345 22.9 7.02929 22.9C6.9304 22.9 6.84713 22.9838 6.84193 23.0833H7.21666Z" fill="#01A3A4"/>
<path d="M8.45511 23.4762C8.44991 23.5443 8.46032 23.6124 8.48114 23.6752H8.22611C8.2157 23.6438 8.2105 23.6124 8.2105 23.5757H8.20529C8.15845 23.649 8.01793 23.7014 7.91904 23.7014C7.73688 23.7014 7.60156 23.6019 7.60156 23.4185C7.60156 23.1881 7.78372 23.1095 8.08559 23.0676L8.18447 23.0519V22.9733C8.18447 22.9 8.12722 22.8738 8.05436 22.8738C7.96588 22.8738 7.92425 22.9052 7.90863 22.9995H7.6432C7.65361 22.7271 7.90343 22.7009 8.03354 22.7009C8.29377 22.7009 8.45511 22.7638 8.45511 22.9785V23.4762ZM8.18968 23.2143L8.00231 23.2666C7.93466 23.2876 7.867 23.3138 7.867 23.3924C7.867 23.4709 7.92945 23.4971 7.99711 23.4971C8.10641 23.4971 8.18968 23.4238 8.18968 23.2771V23.2143Z" fill="#01A3A4"/>
<path d="M9.14753 22.9158H8.98098V23.382C8.98098 23.4553 9.01742 23.4763 9.06946 23.4763C9.09548 23.4763 9.12671 23.4763 9.15274 23.471V23.691C9.1163 23.6963 9.03303 23.7015 8.97578 23.7015C8.74157 23.7015 8.70514 23.5549 8.70514 23.4134V22.9106H8.56982V22.743H8.69994V22.4653H8.97578V22.743H9.14233L9.14753 22.9158Z" fill="#01A3A4"/>
<path d="M9.71468 22.7218H9.9697V22.8109H9.97491C10.0374 22.7375 10.131 22.6956 10.2247 22.7009C10.4485 22.7009 10.6307 22.8633 10.6307 23.1723C10.6307 23.5285 10.4797 23.7066 10.2247 23.7066C10.1415 23.7066 10.0582 23.6804 9.99052 23.6228H9.98531V23.9999H9.70947V22.7218H9.71468ZM10.1779 23.4971C10.3184 23.4971 10.3705 23.3609 10.3705 23.1671C10.3705 23.0361 10.3184 22.8999 10.1831 22.8999C10.0478 22.8999 9.98531 23.0361 9.98531 23.1985C9.98531 23.3609 10.0374 23.4971 10.1779 23.4971Z" fill="#01A3A4"/>
<path d="M10.9897 23.2562C10.9897 23.4395 11.1094 23.4971 11.1979 23.4971C11.302 23.4971 11.3488 23.4447 11.4269 23.3295L11.6351 23.4395C11.5362 23.6176 11.3853 23.7014 11.1771 23.7014C10.8856 23.7014 10.7139 23.4971 10.7139 23.23C10.7139 22.8947 10.8908 22.7009 11.1771 22.7009C11.5206 22.7009 11.6403 22.9681 11.6403 23.2614H10.9897V23.2562ZM11.3644 23.0833C11.3644 22.9838 11.2864 22.9 11.1875 22.9C11.1823 22.9 11.1771 22.9 11.1771 22.9C11.0782 22.9 10.9949 22.9838 10.9897 23.0833H11.3644Z" fill="#01A3A4"/>
<path d="M12.7387 23.1987C12.7387 23.5182 12.5305 23.7015 12.2338 23.7015C11.9372 23.7015 11.729 23.5234 11.729 23.1987C11.729 22.8739 11.9372 22.6958 12.2338 22.6958C12.5305 22.6958 12.7387 22.8791 12.7387 23.1987ZM12.0101 23.1987C12.0101 23.361 12.0777 23.4868 12.2338 23.4868C12.39 23.4868 12.4576 23.361 12.4576 23.1882C12.4576 23.0363 12.39 22.9106 12.2338 22.9106C12.0777 22.9106 12.0101 23.0363 12.0101 23.1987Z" fill="#01A3A4"/>
<path d="M12.874 22.7218H13.129V22.8109H13.1343C13.1967 22.7375 13.2904 22.6956 13.3893 22.7009C13.6131 22.7009 13.7952 22.8633 13.7952 23.1723C13.7952 23.5285 13.6443 23.7066 13.3893 23.7066C13.306 23.7066 13.2227 23.6804 13.1551 23.6228H13.1499V23.9999H12.874V22.7218ZM13.3372 23.4971C13.4778 23.4971 13.5298 23.3609 13.5298 23.1671C13.5298 23.0361 13.4778 22.8999 13.3424 22.8999C13.2071 22.8999 13.1447 23.0361 13.1447 23.1985C13.1447 23.3609 13.1967 23.4971 13.3372 23.4971Z" fill="#01A3A4"/>
<path d="M14.2168 22.4023H13.9409V23.6752H14.2168V22.4023Z" fill="#01A3A4"/>
<path d="M14.6435 23.2562C14.6435 23.4395 14.7632 23.4971 14.8517 23.4971C14.9558 23.4971 15.0026 23.4447 15.0807 23.3295L15.2889 23.4395C15.19 23.6176 15.0391 23.7014 14.8309 23.7014C14.5394 23.7014 14.3677 23.4971 14.3677 23.23C14.3677 22.8947 14.5446 22.7009 14.8309 22.7009C15.1744 22.7009 15.2941 22.9681 15.2941 23.2614H14.6435V23.2562ZM15.0182 23.0833C15.0182 22.9838 14.9402 22.9 14.8413 22.9C14.8361 22.9 14.8309 22.9 14.8309 22.9C14.732 22.9 14.6487 22.9838 14.6435 23.0833H15.0182Z" fill="#01A3A4"/>
<path d="M15.7208 23.3767H15.4346V23.6753H15.7208V23.3767Z" fill="#01A3A4"/>
<path d="M17.256 22.8006C17.1935 22.6906 17.079 22.6277 16.9593 22.633C16.7668 22.633 16.6314 22.7587 16.6314 23.0363C16.6314 23.2825 16.7407 23.4397 16.9593 23.4397C17.0738 23.4397 17.2248 23.3716 17.2404 23.2092H16.9593V22.963H17.5058V23.6754H17.2612V23.5601C17.1675 23.6597 17.0322 23.7173 16.8917 23.712C16.5065 23.712 16.314 23.4344 16.314 23.0416C16.314 22.6487 16.5221 22.3658 16.9333 22.3658C17.1727 22.3554 17.3965 22.4811 17.5162 22.6854L17.256 22.8006Z" fill="#01A3A4"/>
<path d="M17.688 22.7219H17.9638V22.8214C18.0367 22.7586 18.1304 22.7272 18.2241 22.7219V22.9681L18.1928 22.9734C18.0263 22.9943 17.9638 23.0205 17.9638 23.1253V23.6753H17.688V22.7219Z" fill="#01A3A4"/>
<path d="M18.5571 23.2562C18.5571 23.4395 18.6768 23.4971 18.7653 23.4971C18.8694 23.4971 18.9162 23.4447 18.9943 23.3295L19.2025 23.4395C19.1036 23.6176 18.9526 23.7014 18.7445 23.7014C18.453 23.7014 18.2812 23.4971 18.2812 23.23C18.2812 22.8947 18.4582 22.7009 18.7445 22.7009C19.088 22.7009 19.2077 22.9681 19.2077 23.2614H18.5571V23.2562ZM18.9318 23.0833C18.9318 22.9838 18.8538 22.9 18.7549 22.9C18.7497 22.9 18.7445 22.9 18.7445 22.9C18.6456 22.9 18.5623 22.9838 18.5571 23.0833H18.9318Z" fill="#01A3A4"/>
<path d="M20.1656 23.4762C20.1604 23.5443 20.1708 23.6124 20.1916 23.6752H19.9366C19.9262 23.6438 19.9209 23.6124 19.9209 23.5757H19.9157C19.8689 23.649 19.7336 23.7014 19.6295 23.7014C19.4473 23.7014 19.312 23.6019 19.312 23.4185C19.312 23.1881 19.4942 23.1095 19.796 23.0676L19.9001 23.0519V22.9733C19.9001 22.9 19.8429 22.8738 19.77 22.8738C19.6815 22.8738 19.6399 22.9052 19.6243 22.9995H19.3589C19.3693 22.7271 19.6191 22.7009 19.7492 22.7009C20.0094 22.7009 20.1708 22.7638 20.1708 22.9785L20.1656 23.4762ZM19.9001 23.2143L19.7128 23.2666C19.6451 23.2876 19.5774 23.3138 19.5774 23.3924C19.5774 23.4709 19.6399 23.4971 19.7076 23.4971C19.8169 23.4971 19.9001 23.4238 19.9001 23.2771V23.2143Z" fill="#01A3A4"/>
<path d="M20.8575 22.9158H20.6909V23.382C20.6909 23.4553 20.7274 23.4763 20.7794 23.4763C20.8054 23.4763 20.8367 23.4763 20.8627 23.471V23.691C20.8263 23.6963 20.743 23.7015 20.6857 23.7015C20.4515 23.7015 20.4151 23.5549 20.4151 23.4134V22.9106H20.2798V22.743H20.4151V22.4653H20.6909V22.743H20.8575V22.9158Z" fill="#01A3A4"/>
<path d="M21.4248 22.7218H21.6798V22.8109H21.685C21.7475 22.7375 21.8412 22.6956 21.9401 22.7009C22.1639 22.7009 22.346 22.8633 22.346 23.1723C22.346 23.5285 22.1951 23.7066 21.9401 23.7066C21.8568 23.7066 21.7735 23.6804 21.7059 23.6228H21.7006V23.9999H21.4248V22.7218ZM21.888 23.4971C22.0285 23.4971 22.0806 23.3609 22.0806 23.1671C22.0806 23.0361 22.0285 22.8999 21.8932 22.8999C21.7579 22.8999 21.6954 23.0361 21.6954 23.1985C21.6954 23.3609 21.7475 23.4971 21.888 23.4971Z" fill="#01A3A4"/>
<path d="M22.7002 23.2562C22.7002 23.4395 22.8199 23.4971 22.9083 23.4971C23.0124 23.4971 23.0593 23.4447 23.1373 23.3295L23.3455 23.4395C23.2466 23.6176 23.0957 23.7014 22.8875 23.7014C22.5961 23.7014 22.4243 23.4971 22.4243 23.23C22.4243 22.8947 22.6013 22.7009 22.8875 22.7009C23.231 22.7009 23.3507 22.9681 23.3507 23.2614H22.7002V23.2562ZM23.0749 23.0833C23.0749 22.9838 22.9968 22.9 22.8979 22.9C22.8927 22.9 22.8875 22.9 22.8875 22.9C22.7886 22.9 22.7054 22.9838 22.7002 23.0833H23.0749Z" fill="#01A3A4"/>
<path d="M23.5122 22.7219H23.788V22.8214C23.8609 22.7586 23.9546 22.7272 24.0483 22.7219V22.9681L24.017 22.9734C23.8505 22.9943 23.788 23.0205 23.788 23.1253V23.6753H23.5122V22.7219Z" fill="#01A3A4"/>
<path d="M24.2043 22.9158H24.0586V22.7429H24.2043V22.6486C24.2043 22.5439 24.2356 22.3867 24.475 22.3867C24.5374 22.3867 24.5947 22.392 24.6571 22.4077V22.612H24.5791C24.5322 22.612 24.4802 22.6277 24.4802 22.6801V22.7429H24.6519V22.9158H24.4802V23.6753H24.2043V22.9158Z" fill="#01A3A4"/>
<path d="M25.703 23.1987C25.703 23.5182 25.4949 23.7015 25.1982 23.7015C24.9015 23.7015 24.6934 23.5234 24.6934 23.1987C24.6934 22.8739 24.9015 22.6958 25.1982 22.6958C25.4949 22.6958 25.703 22.8791 25.703 23.1987ZM24.9744 23.1987C24.9744 23.361 25.0421 23.4868 25.1982 23.4868C25.3543 23.4868 25.422 23.361 25.422 23.1882C25.422 23.0363 25.3543 22.9106 25.1982 22.9106C25.0421 22.9106 24.9744 23.0363 24.9744 23.1987Z" fill="#01A3A4"/>
<path d="M25.8486 22.7219H26.1245V22.8214C26.1973 22.7586 26.291 22.7272 26.3847 22.7219V22.9681L26.3535 22.9734C26.1869 22.9943 26.1245 23.0205 26.1245 23.1253V23.6753H25.8486V22.7219Z" fill="#01A3A4"/>
<path d="M26.5044 22.7219H26.7802V22.8058C26.8531 22.7324 26.952 22.6905 27.0561 22.6958C27.155 22.6905 27.2486 22.7429 27.3059 22.8215C27.384 22.7377 27.4933 22.6905 27.6078 22.6958C27.7014 22.6958 27.8992 22.7272 27.8992 22.9472V23.6753H27.6234V23.12C27.6234 22.9838 27.5869 22.9262 27.4829 22.9262C27.3892 22.9262 27.3423 22.9943 27.3423 23.0938V23.6805H27.0665V23.0834C27.0665 22.9891 27.0405 22.9262 26.9312 22.9262C26.8219 22.9262 26.7854 22.9996 26.7854 23.0834V23.6753H26.5096V22.7219H26.5044Z" fill="#01A3A4"/>
<path d="M28.9198 23.4762C28.9146 23.5443 28.925 23.6124 28.9458 23.6752H28.6856C28.6752 23.6438 28.67 23.6124 28.67 23.5757H28.6648C28.6179 23.649 28.4826 23.7014 28.3785 23.7014C28.1964 23.7014 28.061 23.6019 28.061 23.4185C28.061 23.1881 28.2432 23.1095 28.5451 23.0676L28.6492 23.0519V22.9733C28.6492 22.9 28.5919 22.8738 28.519 22.8738C28.4306 22.8738 28.3889 22.9052 28.3733 22.9995H28.1079C28.1183 22.7271 28.3681 22.7009 28.4982 22.7009C28.7584 22.7009 28.9198 22.7638 28.9198 22.9785V23.4762ZM28.6492 23.2143L28.4618 23.2666C28.3941 23.2876 28.3265 23.3138 28.3265 23.3924C28.3265 23.4709 28.3889 23.4971 28.4566 23.4971C28.5659 23.4971 28.6439 23.4238 28.6439 23.2771L28.6492 23.2143Z" fill="#01A3A4"/>
<path d="M29.1382 22.7219H29.414V22.8058C29.4869 22.7324 29.5858 22.6905 29.6899 22.6958C29.9137 22.6958 29.9761 22.8267 29.9761 22.9681V23.67H29.7003V23.0729C29.7003 22.9786 29.6743 22.9158 29.565 22.9158C29.4557 22.9158 29.4192 22.9891 29.4192 23.0729V23.67H29.1434L29.1382 22.7219Z" fill="#01A3A4"/>
<path d="M30.8034 23.0414C30.7722 22.968 30.7045 22.9157 30.6264 22.9104C30.4703 22.9104 30.413 23.0361 30.413 23.1985C30.413 23.3609 30.4807 23.4866 30.6264 23.4866C30.7149 23.4919 30.7982 23.4342 30.8242 23.3452L31.022 23.4447C30.9387 23.6019 30.7774 23.6961 30.6004 23.6961C30.3194 23.6961 30.1216 23.5181 30.1216 23.1933C30.1216 22.8685 30.3298 22.6904 30.59 22.6904C30.7722 22.6904 30.9231 22.7585 31.0168 22.9209L30.8034 23.0414Z" fill="#01A3A4"/>
<path d="M31.3554 23.2562C31.3554 23.4395 31.4751 23.4971 31.5636 23.4971C31.6677 23.4971 31.7145 23.4447 31.7926 23.3295L32.0008 23.4395C31.9071 23.6176 31.751 23.7014 31.5428 23.7014C31.2513 23.7014 31.0796 23.4971 31.0796 23.23C31.0796 22.8947 31.2565 22.7009 31.5428 22.7009C31.8863 22.7009 32.006 22.9681 32.006 23.2614H31.3554V23.2562ZM31.7302 23.0833C31.7302 22.9838 31.6521 22.9 31.5532 22.9C31.548 22.9 31.5428 22.9 31.5428 22.9C31.4439 22.9 31.3606 22.9838 31.3554 23.0833H31.7302Z" fill="#01A3A4"/>
<path d="M32.4327 23.3767H32.1465V23.6753H32.4327V23.3767Z" fill="#01A3A4"/>
<path d="M15.0129 19.8514V15.928C14.8047 16.1166 14.4769 16.1375 14.1438 16.1375H13.3266V16.2894H14.1438V18.5261C14.1438 19.2228 13.5036 19.9666 12.7802 19.9666C12.3846 19.9666 12.14 19.7099 12.14 19.3066V15.928C11.9318 16.1166 11.6039 16.1375 11.2708 16.1375H10.2716V13.4661H11.0418V13.3142H8.55926V13.4661H9.38159V16.1323H6.19639V13.4661H7.01871V13.3142H4.53613V13.4609L5.30641 13.4661V19.8514H4.53613V20.0033H7.01871V19.8514H6.19639V16.2894H9.37638V19.8514H8.55926V20.0033H11.0418V19.8514H10.2716V16.2894H11.2656V19.0709C11.2656 19.6156 11.6404 20.1185 12.6709 20.1185C13.5921 20.1185 14.0241 19.3642 14.1177 19.1494H14.1386V20.0085H15.8352V19.8566H15.0129V19.8514Z" fill="#01A3A4"/>
<path d="M18.7447 18.631C18.7603 19.3486 18.1982 19.9457 17.4852 19.9667C17.48 19.9667 17.4748 19.9667 17.4696 19.9667C16.5328 19.9667 16.4131 19.4271 16.4131 18.0024C16.4131 16.6981 16.5588 16.0381 17.4019 16.0381C18.1982 16.0381 18.7447 16.8186 18.7447 17.5152V18.631ZM22.008 17.51L21.6489 17.489C20.9463 17.4524 20.5351 17.2795 20.5351 16.7819C20.5351 16.2843 20.9723 16.0171 21.5083 16.0171C22.3463 16.0171 22.6638 16.5148 22.7366 17.0595H22.8719L22.8303 15.9176H22.6794V15.9962C22.6794 16.1324 22.669 16.1952 22.6065 16.1952C22.5024 16.1952 22.1069 15.86 21.5344 15.86C20.7068 15.86 20.2072 16.4048 20.2072 17.0962C20.2072 18.0914 20.8734 18.1805 21.5656 18.2486C22.1277 18.3062 22.7626 18.3167 22.7626 19.071C22.7626 19.6157 22.3151 19.9614 21.7321 19.9614C20.6184 19.9614 20.3425 19.0971 20.2592 18.61H20.1239L20.1447 19.8462H19.541V13C19.3484 13.22 19.0414 13.241 18.7343 13.241H17.9692V13.3929H18.7447V16.8605H18.7239C18.5522 16.4152 18.0889 15.8914 17.4019 15.8914C16.2517 15.8914 15.4971 17.07 15.4971 18.0076C15.4971 19.1233 16.2726 20.1238 17.4696 20.1238C18.1306 20.1238 18.5834 19.6367 18.7239 19.3119H18.7447V20.0086H20.3113C20.3321 19.8043 20.3009 19.71 20.4414 19.71C20.6548 19.71 20.9098 20.1238 21.7426 20.1238C22.5597 20.1238 23.2154 19.5424 23.2154 18.6467C23.2154 17.9814 22.8667 17.5624 22.008 17.51Z" fill="#01A3A4"/>
<path d="M26.5358 17.6305C26.5358 16.8029 26.4994 16.0381 25.422 16.0381C24.3447 16.0381 24.3135 16.8029 24.3135 17.6305V18.3743C24.3135 19.2019 24.3551 19.9667 25.4272 19.9667C26.4994 19.9667 26.541 19.2072 26.541 18.3743L26.5358 17.6305ZM25.4272 15.8862C26.6659 15.8862 27.457 16.9077 27.457 18.0024C27.457 19.0972 26.6607 20.1186 25.4272 20.1186C24.1938 20.1186 23.3975 19.1024 23.3975 18.0024C23.3975 16.9024 24.1886 15.8862 25.4272 15.8862Z" fill="#01A3A4"/>
<path d="M27.9049 16.2477H27.1502V16.0958H27.9049C28.3629 16.0958 28.5346 16.0958 28.7116 15.8862V16.8605H28.7324C28.9822 16.4048 29.4611 15.8915 30.1585 15.8915C31.1838 15.8915 31.47 16.4048 31.47 16.9653V19.8515H32.2247V20.0034H29.9086V19.8515H30.6633V16.7348C30.6633 16.211 30.4031 16.0381 30.096 16.0381C29.2893 16.0381 28.8781 16.8396 28.7064 17.1643V19.8515H29.435V20.0034H27.145V19.8515H27.9049V16.2477Z" fill="#01A3A4"/>
</svg>
