<svg width="20" height="20" viewBox="0 0 20 20" fill="none" xmlns="http://www.w3.org/2000/svg">
<path d="M9.99222 0C4.48249 0 0 4.48249 0 10.0078C0 15.5331 4.48249 20.0156 10.0078 20C15.5331 20 20.0156 15.5175 20 9.99222C20 4.48249 15.5175 0 9.99222 0ZM15.2529 7.96887L9.66537 13.5409C9.2607 13.9611 8.59144 13.9611 8.17121 13.5564C8.17121 13.5564 8.17121 13.5564 8.15564 13.5409L4.73152 10.1167C4.31128 9.6965 4.31128 9.02724 4.73152 8.607C5.15175 8.18677 5.82101 8.18677 6.24124 8.607L8.90272 11.2685L13.7276 6.44358C14.1479 6.02335 14.8171 6.02335 15.2374 6.44358C15.6576 6.86381 15.6576 7.54864 15.2529 7.96887Z" fill="#35B36A"/>
</svg>
