<svg width="40" height="40" viewBox="0 0 40 40" fill="none" xmlns="http://www.w3.org/2000/svg">
<path d="M20 0C8.95312 0 0 8.95312 0 20C0 31.0469 8.95312 40 20 40C31.0469 40 40 31.0469 40 20C40 8.95312 31.0469 0 20 0ZM29.1328 15.5938C29.1406 15.7891 29.1484 15.9922 29.1484 16.1875C29.1484 22.25 24.5312 29.25 16.0859 29.25C13.4922 29.25 11.0781 28.4922 9.04688 27.1875C9.40625 27.2266 9.77344 27.25 10.1406 27.25C12.2891 27.25 14.2734 26.5156 15.8438 25.2812C13.8359 25.2422 12.1406 23.9141 11.5547 22.0938C11.8359 22.1484 12.125 22.1797 12.4141 22.1797C12.8359 22.1797 13.2422 22.125 13.625 22.0156C11.5234 21.5937 9.94531 19.7422 9.94531 17.5156C9.94531 17.4922 9.94531 17.4766 9.94531 17.4531C10.5625 17.7969 11.2734 18.0078 12.0234 18.0234C10.7891 17.2031 9.98438 15.7969 9.98438 14.2031C9.98438 13.3594 10.2109 12.5703 10.6094 11.8984C12.875 14.6797 16.2578 16.5 20.0703 16.6953C19.9922 16.3594 19.9531 16.0078 19.9531 15.6484C19.9531 13.1172 22.0078 11.0547 24.5469 11.0547C25.8672 11.0547 27.0625 11.6094 27.8984 12.5078C28.9453 12.3047 29.9297 11.9219 30.8125 11.3906C30.4688 12.4609 29.7422 13.3594 28.7969 13.9297C29.7266 13.8203 30.6094 13.5703 31.4297 13.2031C30.8047 14.1406 30.0312 14.9453 29.1328 15.5938Z" fill="#C2C4C6"/>
</svg>
