<svg width="16" height="16" viewBox="0 0 16 16" fill="none" xmlns="http://www.w3.org/2000/svg">
<path d="M8.00797 0.00159931C8.2783 0.00159931 8.53173 0.102972 8.70069 0.305718L13.7017 5.30677C14.0903 5.69537 14.0903 6.3205 13.7017 6.7091C13.3131 7.09769 12.688 7.09769 12.2994 6.7091L9.0048 3.39759V11.0005C9.0048 11.5412 8.56552 11.9974 8.00797 11.9974H7.99108C7.45042 11.9974 6.99424 11.5581 6.99424 11.0005L6.99424 3.39759L3.69963 6.6922C3.31103 7.0808 2.6859 7.0808 2.29731 6.6922C1.90871 6.30361 1.90871 5.67847 2.29731 5.28988L7.29836 0.288821C7.48421 0.102971 7.73764 -0.015296 8.00797 0.00159931Z" fill="#01A3A4"/>
<path d="M1.99366 14.0064H13.9894V11.9958C13.9894 11.4551 14.4287 10.999 14.9863 10.999H15.0032C15.5607 10.999 16 11.4382 16 11.9958V15.0032C16 15.5607 15.5438 16 15.0032 16H0.996831C0.439281 16 0 15.5438 0 15.0032V11.9958C0 11.4551 0.439281 10.999 0.996831 10.999H1.01373C1.55438 10.999 2.01056 11.4382 2.01056 11.9958V14.0064H1.99366Z" fill="#01A3A4"/>
</svg>
