<svg width="24" height="24" viewBox="0 0 24 24" fill="none" xmlns="http://www.w3.org/2000/svg">
<path d="M10.363 14.0959C7.63738 14.4323 5.94079 15.6232 4.99201 17.1763C3.84039 19.0616 5.79111 21 8.00025 21H10.5002M16.2502 17.25V15.75M16.5609 18L17.5002 18.9393M16.0002 7C16.0002 9.20914 14.2094 11 12.0002 11C9.79111 11 8.00025 9.20914 8.00025 7C8.00025 4.79086 9.79111 3 12.0002 3C14.2094 3 16.0002 4.79086 16.0002 7ZM21.0002 17.5C21.0002 19.9853 18.9855 22 16.5002 22C14.015 22 12.0002 19.9853 12.0002 17.5C12.0002 15.0147 14.015 13 16.5002 13C18.9855 13 21.0002 15.0147 21.0002 17.5Z" stroke="#423642" stroke-width="1.5" stroke-linecap="round"/>
</svg>
