<svg width="23" height="20" viewBox="0 0 23 20" fill="none" xmlns="http://www.w3.org/2000/svg">
<path d="M22.7983 17.8621L12.75 0.722749C12.1946 -0.222524 10.806 -0.222524 10.2505 0.722749L0.20224 17.8621C-0.353193 18.8073 0.328475 20.0014 1.43934 20.0014H21.5359C22.6721 20.0014 23.3537 18.7825 22.7983 17.8621ZM11.1847 5.94663C11.7906 5.79738 12.3965 6.09588 12.6742 6.64315C12.7752 6.84215 12.8005 7.06603 12.7752 7.26504C12.7247 7.88693 12.6995 8.50882 12.6742 9.15559C12.6238 10.1257 12.548 11.1208 12.4975 12.0909C12.4723 12.3894 12.4723 12.6879 12.447 13.0113C12.4218 13.5337 12.0178 13.9317 11.4876 13.9317C10.9827 13.9317 10.5535 13.5337 10.5283 13.0362C10.4525 11.5188 10.3515 10.0014 10.2758 8.48394C10.2505 8.08593 10.2253 7.66305 10.2 7.26504C10.2 6.66802 10.604 6.09588 11.1847 5.94663ZM11.5129 17.3645C10.806 17.3645 10.2505 16.7924 10.2505 16.0959C10.2505 15.3994 10.8312 14.8272 11.5381 14.8272C12.2451 14.8272 12.8005 15.3994 12.8005 16.1208C12.7752 16.7675 12.1946 17.3645 11.5129 17.3645Z" fill="#FF8F00"/>
</svg>
