<svg width="20" height="20" viewBox="0 0 20 20" fill="none" xmlns="http://www.w3.org/2000/svg">
<path d="M10 0C4.47761 0 0 4.47761 0 10C0 15.5224 4.47761 20 10 20C15.5224 20 20 15.5224 20 10C20 4.47761 15.5224 0 10 0ZM9.67662 4.32836C10.2736 4.1791 10.8706 4.47761 11.1443 5.02488C11.2438 5.22388 11.2687 5.44776 11.2438 5.64677C11.194 6.26866 11.1692 6.89055 11.1443 7.53731C11.0945 8.50746 11.0199 9.50249 10.9701 10.4726C10.9453 10.7711 10.9453 11.0697 10.9204 11.393C10.8955 11.9154 10.4975 12.3134 9.97512 12.3134C9.47761 12.3134 9.05473 11.9154 9.02985 11.4179C8.95522 9.9005 8.85572 8.38308 8.78109 6.86567C8.75622 6.46766 8.73134 6.04478 8.70647 5.64677C8.70647 5.04975 9.10448 4.47761 9.67662 4.32836ZM10 15.7214C9.30348 15.7214 8.75622 15.1493 8.75622 14.4527C8.75622 13.7562 9.32836 13.1841 10.0249 13.1841C10.7214 13.1841 11.2687 13.7562 11.2687 14.4776C11.2438 15.1493 10.6716 15.7214 10 15.7214Z" fill="#D21C23"/>
</svg>
