<svg width="48" height="30" viewBox="0 0 48 30" fill="none" xmlns="http://www.w3.org/2000/svg">
<g clip-path="url(#clip0)">
<path d="M1.73735 27.9354C1.62989 27.7444 1.43287 27.6352 1.2269 27.6443C0.895559 27.6443 0.662723 27.8626 0.662723 28.3447C0.662723 28.7722 0.850783 29.0451 1.2269 29.0451C1.42392 29.0451 1.68362 28.9269 1.71048 28.6449H1.2269V28.2174H2.1672V29.4545H1.7463V29.2543C1.58511 29.4272 1.35228 29.5272 1.11048 29.5181C0.447798 29.5181 0.116455 29.036 0.116455 28.3629C0.116455 27.6898 0.474664 27.1895 1.18213 27.1895C1.59407 27.1713 1.97914 27.3896 2.18511 27.7444L1.73735 27.9354Z" fill="white"/>
<path d="M2.48071 27.7988H2.95534V27.9717C3.08071 27.8625 3.24191 27.8079 3.4031 27.7988V28.2263L3.34937 28.2354C3.0628 28.2718 2.95534 28.3173 2.95534 28.4992V29.4543H2.48071V27.7988Z" fill="white"/>
<path d="M3.97609 28.7264C3.97609 29.0448 4.18206 29.1448 4.3343 29.1448C4.5134 29.1448 4.594 29.0538 4.72833 28.8537L5.08654 29.0448C4.92534 29.354 4.65669 29.4996 4.29848 29.4996C3.79699 29.4996 3.50146 29.1448 3.50146 28.6809C3.50146 28.0988 3.80594 27.7622 4.29848 27.7622C4.88952 27.7622 5.09549 28.2261 5.09549 28.7355H3.97609V28.7264ZM4.61191 28.4262C4.62087 28.2534 4.48654 28.1079 4.31639 28.1079C4.30743 28.1079 4.29848 28.1079 4.28952 28.1079C4.11938 28.1079 3.97609 28.2534 3.96714 28.4262H4.61191Z" fill="white"/>
<path d="M6.74332 29.1084C6.73436 29.2267 6.75227 29.3449 6.78809 29.4541H6.34929C6.33138 29.3995 6.32242 29.3449 6.32242 29.2812H6.31346C6.23287 29.4086 5.99108 29.4996 5.82093 29.4996C5.50749 29.4996 5.27466 29.3267 5.27466 29.0084C5.27466 28.6081 5.58809 28.4717 6.10749 28.3989L6.27764 28.3716V28.2352C6.27764 28.1079 6.17914 28.0624 6.05376 28.0624C5.90152 28.0624 5.82988 28.117 5.80302 28.2807H5.3463C5.36421 27.8077 5.79406 27.7622 6.01794 27.7622C6.4657 27.7622 6.74332 27.8714 6.74332 28.2443V29.1084ZM6.2866 28.6536L5.96421 28.7446C5.84779 28.781 5.73137 28.8264 5.73137 28.9629C5.73137 29.0993 5.83884 29.1448 5.95526 29.1448C6.14332 29.1448 6.2866 29.0175 6.2866 28.7628V28.6536Z" fill="white"/>
<path d="M7.93421 28.1353H7.64765V28.9448C7.64765 29.0722 7.71033 29.1086 7.79989 29.1086C7.84466 29.1086 7.89839 29.1086 7.94317 29.0995V29.4815C7.88048 29.4906 7.7372 29.4997 7.63869 29.4997C7.23571 29.4997 7.17302 29.245 7.17302 28.9994V28.1262H6.94019V27.8351H7.16407V27.353H7.63869V27.8351H7.92526L7.93421 28.1353Z" fill="white"/>
<path d="M8.91057 27.7989H9.34937V27.9535H9.35833C9.46579 27.8262 9.62698 27.7534 9.78818 27.7625C10.1733 27.7625 10.4867 28.0445 10.4867 28.5811C10.4867 29.1997 10.227 29.5089 9.78818 29.5089C9.6449 29.5089 9.50161 29.4634 9.38519 29.3634H9.37624V30.0183H8.90161V27.7989H8.91057ZM9.70758 29.1451C9.94937 29.1451 10.0389 28.9086 10.0389 28.572C10.0389 28.3446 9.94937 28.1081 9.71654 28.1081C9.4837 28.1081 9.37624 28.3446 9.37624 28.6266C9.37624 28.9086 9.46579 29.1451 9.70758 29.1451Z" fill="white"/>
<path d="M11.1045 28.7264C11.1045 29.0448 11.3105 29.1448 11.4627 29.1448C11.6418 29.1448 11.7224 29.0538 11.8567 28.8537L12.215 29.0448C12.0448 29.354 11.7851 29.4996 11.4269 29.4996C10.9254 29.4996 10.6299 29.1448 10.6299 28.6809C10.6299 28.0988 10.9344 27.7622 11.4269 27.7622C12.0179 27.7622 12.2239 28.2261 12.2239 28.7355H11.1045V28.7264ZM11.7493 28.4262C11.7493 28.2534 11.615 28.1079 11.4448 28.1079C11.4359 28.1079 11.4269 28.1079 11.4269 28.1079C11.2567 28.1079 11.1135 28.2534 11.1045 28.4262H11.7493Z" fill="white"/>
<path d="M14.1135 28.6266C14.1135 29.1815 13.7553 29.4999 13.2449 29.4999C12.7344 29.4999 12.3762 29.1906 12.3762 28.6266C12.3762 28.0627 12.7344 27.7534 13.2449 27.7534C13.7553 27.7534 14.1135 28.0718 14.1135 28.6266ZM12.8598 28.6266C12.8598 28.9086 12.9762 29.1269 13.2449 29.1269C13.5135 29.1269 13.63 28.9086 13.63 28.6084C13.63 28.3447 13.5135 28.1264 13.2449 28.1264C12.9762 28.1264 12.8598 28.3447 12.8598 28.6266Z" fill="white"/>
<path d="M14.3462 27.7989H14.785V27.9535H14.794C14.9014 27.8262 15.0626 27.7534 15.2328 27.7625C15.6178 27.7625 15.9313 28.0445 15.9313 28.5811C15.9313 29.1997 15.6716 29.5089 15.2328 29.5089C15.0895 29.5089 14.9462 29.4634 14.8298 29.3634H14.8208V30.0183H14.3462V27.7989ZM15.1432 29.1451C15.385 29.1451 15.4745 28.9086 15.4745 28.572C15.4745 28.3446 15.385 28.1081 15.1522 28.1081C14.9193 28.1081 14.8119 28.3446 14.8119 28.6266C14.8119 28.9086 14.9014 29.1451 15.1432 29.1451Z" fill="white"/>
<path d="M16.6568 27.2441H16.1821V29.4545H16.6568V27.2441Z" fill="white"/>
<path d="M17.3911 28.7264C17.3911 29.0448 17.5971 29.1448 17.7493 29.1448C17.9284 29.1448 18.009 29.0538 18.1434 28.8537L18.5016 29.0448C18.3314 29.354 18.0717 29.4996 17.7135 29.4996C17.212 29.4996 16.9165 29.1448 16.9165 28.6809C16.9165 28.0988 17.221 27.7622 17.7135 27.7622C18.3046 27.7622 18.5105 28.2261 18.5105 28.7355H17.3911V28.7264ZM18.0359 28.4262C18.0359 28.2534 17.9016 28.1079 17.7314 28.1079C17.7225 28.1079 17.7135 28.1079 17.7135 28.1079C17.5434 28.1079 17.4001 28.2534 17.3911 28.4262H18.0359Z" fill="white"/>
<path d="M19.2447 28.936H18.7522V29.4545H19.2447V28.936Z" fill="white"/>
<path d="M21.8865 27.9352C21.7791 27.7442 21.582 27.6351 21.3761 27.6442C21.0447 27.6442 20.8119 27.8625 20.8119 28.3445C20.8119 28.7721 21 29.0449 21.3761 29.0449C21.5731 29.0449 21.8328 28.9267 21.8597 28.6447H21.3761V28.2172H22.3164V29.4543H21.8955V29.2542C21.7343 29.427 21.5014 29.527 21.2597 29.5179C20.597 29.5179 20.2656 29.0358 20.2656 28.3536C20.2656 27.6714 20.6238 27.1803 21.3313 27.1803C21.7432 27.1621 22.1283 27.3804 22.3343 27.7351L21.8865 27.9352Z" fill="white"/>
<path d="M22.6299 27.7988H23.1045V27.9717C23.2299 27.8625 23.3911 27.8079 23.5523 27.7988V28.2263L23.4985 28.2354C23.212 28.2718 23.1045 28.3173 23.1045 28.4992V29.4543H22.6299V27.7988Z" fill="white"/>
<path d="M24.1253 28.7264C24.1253 29.0448 24.3312 29.1448 24.4835 29.1448C24.6626 29.1448 24.7432 29.0538 24.8775 28.8537L25.2357 29.0448C25.0656 29.354 24.8059 29.4996 24.4476 29.4996C23.9462 29.4996 23.6506 29.1448 23.6506 28.6809C23.6506 28.0988 23.9551 27.7622 24.4476 27.7622C25.0387 27.7622 25.2447 28.2261 25.2447 28.7355H24.1253V28.7264ZM24.77 28.4262C24.77 28.2534 24.6357 28.1079 24.4656 28.1079C24.4566 28.1079 24.4476 28.1079 24.4476 28.1079C24.2775 28.1079 24.1342 28.2534 24.1253 28.4262H24.77Z" fill="white"/>
<path d="M26.8925 29.1084C26.8835 29.2267 26.9014 29.3449 26.9373 29.4541H26.4985C26.4805 29.3995 26.4716 29.3449 26.4716 29.2812H26.4626C26.382 29.4086 26.1492 29.4996 25.9701 29.4996C25.6567 29.4996 25.4238 29.3267 25.4238 29.0084C25.4238 28.6081 25.7373 28.4717 26.2567 28.3989L26.4358 28.3716V28.2352C26.4358 28.1079 26.3373 28.0624 26.2119 28.0624C26.0597 28.0624 25.988 28.117 25.9611 28.2807H25.5044C25.5223 27.8077 25.9522 27.7622 26.1761 27.7622C26.6238 27.7622 26.9014 27.8714 26.9014 28.2443L26.8925 29.1084ZM26.4358 28.6536L26.1134 28.7446C25.997 28.781 25.8805 28.8264 25.8805 28.9629C25.8805 29.0993 25.988 29.1448 26.1044 29.1448C26.2925 29.1448 26.4358 29.0175 26.4358 28.7628V28.6536Z" fill="white"/>
<path d="M28.0836 28.1353H27.7971V28.9448C27.7971 29.0722 27.8598 29.1086 27.9493 29.1086C27.9941 29.1086 28.0478 29.1086 28.0926 29.0995V29.4815C28.0299 29.4906 27.8866 29.4997 27.7881 29.4997C27.3851 29.4997 27.3224 29.245 27.3224 28.9994V28.1262H27.0896V27.8351H27.3224V27.353H27.7971V27.8351H28.0836V28.1353Z" fill="white"/>
<path d="M29.0596 27.7989H29.4984V27.9535H29.5073C29.6148 27.8262 29.776 27.7534 29.9461 27.7625C30.3312 27.7625 30.6446 28.0445 30.6446 28.5811C30.6446 29.1997 30.3849 29.5089 29.9461 29.5089C29.8029 29.5089 29.6596 29.4634 29.5432 29.3634H29.5342V30.0183H29.0596V27.7989ZM29.8566 29.1451C30.0984 29.1451 30.1879 28.9086 30.1879 28.572C30.1879 28.3446 30.0984 28.1081 29.8655 28.1081C29.6327 28.1081 29.5252 28.3446 29.5252 28.6266C29.5252 28.9086 29.6148 29.1451 29.8566 29.1451Z" fill="white"/>
<path d="M31.2537 28.7264C31.2537 29.0448 31.4597 29.1448 31.6119 29.1448C31.791 29.1448 31.8716 29.0538 32.0059 28.8537L32.3641 29.0448C32.194 29.354 31.9343 29.4996 31.5761 29.4996C31.0746 29.4996 30.7791 29.1448 30.7791 28.6809C30.7791 28.0988 31.0835 27.7622 31.5761 27.7622C32.1671 27.7622 32.3731 28.2261 32.3731 28.7355H31.2537V28.7264ZM31.8985 28.4262C31.8985 28.2534 31.7641 28.1079 31.594 28.1079C31.585 28.1079 31.5761 28.1079 31.5761 28.1079C31.4059 28.1079 31.2626 28.2534 31.2537 28.4262H31.8985Z" fill="white"/>
<path d="M32.6506 27.7988H33.1253V27.9717C33.2506 27.8625 33.4118 27.8079 33.573 27.7988V28.2263L33.5193 28.2354C33.2327 28.2718 33.1253 28.3173 33.1253 28.4992V29.4543H32.6506V27.7988Z" fill="white"/>
<path d="M33.8418 28.1355H33.5911V27.8353H33.8418V27.6716C33.8418 27.4897 33.8955 27.2168 34.3075 27.2168C34.4149 27.2168 34.5135 27.2259 34.6209 27.2532V27.6079H34.4866C34.406 27.6079 34.3164 27.6352 34.3164 27.7262V27.8353H34.612V28.1355H34.3164V29.4544H33.8418V28.1355Z" fill="white"/>
<path d="M36.4209 28.6266C36.4209 29.1815 36.0627 29.4999 35.5522 29.4999C35.0418 29.4999 34.6836 29.1906 34.6836 28.6266C34.6836 28.0627 35.0418 27.7534 35.5522 27.7534C36.0627 27.7534 36.4209 28.0718 36.4209 28.6266ZM35.1672 28.6266C35.1672 28.9086 35.2836 29.1269 35.5522 29.1269C35.8209 29.1269 35.9373 28.9086 35.9373 28.6084C35.9373 28.3447 35.8209 28.1264 35.5522 28.1264C35.2836 28.1264 35.1672 28.3447 35.1672 28.6266Z" fill="white"/>
<path d="M36.6716 27.7988H37.1463V27.9717C37.2716 27.8625 37.4328 27.8079 37.594 27.7988V28.2263L37.5403 28.2354C37.2537 28.2718 37.1463 28.3173 37.1463 28.4992V29.4543H36.6716V27.7988Z" fill="white"/>
<path d="M37.8 27.7987H38.2747V27.9442C38.4 27.8169 38.5702 27.7441 38.7493 27.7532C38.9195 27.7441 39.0806 27.8351 39.1792 27.9715C39.3135 27.826 39.5015 27.7441 39.6986 27.7532C39.8597 27.7532 40.2 27.8078 40.2 28.1898V29.4542H39.7254V28.49C39.7254 28.2535 39.6627 28.1534 39.4836 28.1534C39.3224 28.1534 39.2418 28.2717 39.2418 28.4445V29.4633H38.7672V28.4263C38.7672 28.2626 38.7224 28.1534 38.5344 28.1534C38.3463 28.1534 38.2836 28.2808 38.2836 28.4263V29.4542H37.809V27.7987H37.8Z" fill="white"/>
<path d="M41.9551 29.1084C41.9462 29.2267 41.9641 29.3449 41.9999 29.4541H41.5522C41.5343 29.3995 41.5253 29.3449 41.5253 29.2812H41.5163C41.4357 29.4086 41.2029 29.4996 41.0238 29.4996C40.7104 29.4996 40.4775 29.3267 40.4775 29.0084C40.4775 28.6081 40.791 28.4717 41.3104 28.3989L41.4895 28.3716V28.2352C41.4895 28.1079 41.391 28.0624 41.2656 28.0624C41.1134 28.0624 41.0417 28.117 41.0149 28.2807H40.5581C40.576 27.8077 41.0059 27.7622 41.2298 27.7622C41.6775 27.7622 41.9551 27.8714 41.9551 28.2443V29.1084ZM41.4895 28.6536L41.1671 28.7446C41.0507 28.781 40.9343 28.8264 40.9343 28.9629C40.9343 29.0993 41.0417 29.1448 41.1581 29.1448C41.3462 29.1448 41.4805 29.0175 41.4805 28.7628L41.4895 28.6536Z" fill="white"/>
<path d="M42.3313 27.7987H42.8059V27.9442C42.9313 27.8169 43.1014 27.7441 43.2806 27.7532C43.6656 27.7532 43.7731 27.9806 43.7731 28.2262V29.4451H43.2985V28.4081C43.2985 28.2444 43.2537 28.1352 43.0656 28.1352C42.8776 28.1352 42.8149 28.2626 42.8149 28.4081V29.4451H42.3403L42.3313 27.7987Z" fill="white"/>
<path d="M45.1971 28.3536C45.1433 28.2262 45.0269 28.1353 44.8926 28.1262C44.6239 28.1262 44.5254 28.3445 44.5254 28.6265C44.5254 28.9084 44.6418 29.1267 44.8926 29.1267C45.0448 29.1358 45.1881 29.0358 45.2329 28.8812L45.5732 29.054C45.4299 29.3269 45.1523 29.4906 44.8478 29.4906C44.3642 29.4906 44.0239 29.1813 44.0239 28.6174C44.0239 28.0534 44.3821 27.7441 44.8299 27.7441C45.1433 27.7441 45.403 27.8624 45.5642 28.1444L45.1971 28.3536Z" fill="white"/>
<path d="M46.1463 28.7264C46.1463 29.0448 46.3522 29.1448 46.5045 29.1448C46.6836 29.1448 46.7642 29.0538 46.8985 28.8537L47.2567 29.0448C47.0955 29.354 46.8268 29.4996 46.4686 29.4996C45.9672 29.4996 45.6716 29.1448 45.6716 28.6809C45.6716 28.0988 45.9761 27.7622 46.4686 27.7622C47.0597 27.7622 47.2656 28.2261 47.2656 28.7355H46.1463V28.7264ZM46.791 28.4262C46.791 28.2534 46.6567 28.1079 46.4865 28.1079C46.4776 28.1079 46.4686 28.1079 46.4686 28.1079C46.2985 28.1079 46.1552 28.2534 46.1463 28.4262H46.791Z" fill="white"/>
<path d="M47.9999 28.936H47.5073V29.4545H47.9999V28.936Z" fill="white"/>
<path d="M18.0269 22.8143V16.0013C17.6686 16.3288 17.1045 16.3652 16.5313 16.3652H15.1254V16.629H16.5313V20.513C16.5313 21.7227 15.4298 23.0144 14.1851 23.0144C13.5045 23.0144 13.0836 22.5687 13.0836 21.8683V16.0013C12.7254 16.3288 12.1612 16.3652 11.5881 16.3652H9.86865V11.7262H11.194V11.4624H6.92238V11.7262H8.33731V16.3561H2.85671V11.7262H4.27164V11.4624H0V11.7171L1.32537 11.7262V22.8143H0V23.0781H4.27164V22.8143H2.85671V16.629H8.32835V22.8143H6.92238V23.0781H11.194V22.8143H9.86865V16.629H11.5791V21.459C11.5791 22.405 12.2239 23.2782 13.997 23.2782C15.5821 23.2782 16.3254 21.9683 16.4866 21.5954H16.5224V23.0872H19.4418V22.8234H18.0269V22.8143Z" fill="white"/>
<path d="M24.4477 20.6948C24.4745 21.9409 23.5074 22.9779 22.2805 23.0143C22.2716 23.0143 22.2626 23.0143 22.2536 23.0143C20.6417 23.0143 20.4357 22.0774 20.4357 19.6032C20.4357 17.3383 20.6865 16.1922 22.1372 16.1922C23.5074 16.1922 24.4477 17.5475 24.4477 18.7573V20.6948ZM30.0626 18.7482L29.4447 18.7118C28.2357 18.6481 27.5283 18.348 27.5283 17.4839C27.5283 16.6197 28.2805 16.1558 29.2029 16.1558C30.6447 16.1558 31.191 17.02 31.3163 17.9659H31.5492L31.4775 15.983H31.2178V16.1194C31.2178 16.3559 31.1999 16.4651 31.0924 16.4651C30.9133 16.4651 30.2327 15.8829 29.2477 15.8829C27.8238 15.8829 26.9641 16.8289 26.9641 18.0296C26.9641 19.7579 28.1104 19.9125 29.3014 20.0307C30.2686 20.1308 31.3611 20.149 31.3611 21.4588C31.3611 22.4048 30.591 23.0052 29.588 23.0052C27.6716 23.0052 27.1969 21.5043 27.0536 20.6584H26.8208L26.8566 22.805H25.8178V10.9165C25.4865 11.2985 24.9581 11.3349 24.4298 11.3349H23.1133V11.5987H24.4477V17.6203H24.4119C24.1163 16.8471 23.3193 15.9375 22.1372 15.9375C20.1581 15.9375 18.8596 17.9841 18.8596 19.6123C18.8596 21.5498 20.1939 23.2871 22.2536 23.2871C23.391 23.2871 24.1701 22.4412 24.4119 21.8772H24.4477V23.087H27.1432C27.179 22.7323 27.1253 22.5685 27.3671 22.5685C27.7342 22.5685 28.173 23.2871 29.6059 23.2871C31.0118 23.2871 32.1402 22.2775 32.1402 20.722C32.1402 19.5668 31.5402 18.8392 30.0626 18.7482Z" fill="white"/>
<path d="M37.8536 18.9575C37.8536 17.5203 37.7909 16.1923 35.9372 16.1923C34.0835 16.1923 34.0297 17.5203 34.0297 18.9575V20.2491C34.0297 21.6863 34.1014 23.0143 35.9461 23.0143C37.7909 23.0143 37.8626 21.6954 37.8626 20.2491L37.8536 18.9575ZM35.9461 15.9285C38.0775 15.9285 39.4387 17.7022 39.4387 19.6033C39.4387 21.5043 38.0685 23.2781 35.9461 23.2781C33.8238 23.2781 32.4536 21.5134 32.4536 19.6033C32.4536 17.6931 33.8148 15.9285 35.9461 15.9285Z" fill="white"/>
<path d="M40.2088 16.5561H38.9103V16.2923H40.2088C40.9969 16.2923 41.2924 16.2923 41.5969 15.9285V17.6203H41.6327C42.0626 16.829 42.8864 15.9376 44.0864 15.9376C45.8506 15.9376 46.3432 16.829 46.3432 17.8023V22.8142H47.6417V23.078H43.6566V22.8142H44.9551V17.402C44.9551 16.4924 44.5073 16.1923 43.979 16.1923C42.5909 16.1923 41.8835 17.5839 41.5879 18.1479V22.8142H42.8417V23.078H38.9014V22.8142H40.2088V16.5561Z" fill="white"/>
</g>
<path d="M0.273047 5H0.648031V4.12625H1.15772C1.73415 4.12625 2.01933 3.77796 2.01933 3.31925C2.01933 2.86174 1.73658 2.51467 1.15893 2.51467H0.273047V5ZM0.648031 3.8083V2.83626H1.11888C1.49023 2.83626 1.64192 3.03771 1.64192 3.31925C1.64192 3.60079 1.49023 3.8083 1.12374 3.8083H0.648031ZM3.19161 5.03762C3.71707 5.03762 4.06051 4.65293 4.06051 4.0765C4.06051 3.49642 3.71707 3.11173 3.19161 3.11173C2.66615 3.11173 2.32272 3.49642 2.32272 4.0765C2.32272 4.65293 2.66615 5.03762 3.19161 5.03762ZM3.19282 4.73302C2.84939 4.73302 2.68921 4.43328 2.68921 4.07528C2.68921 3.7185 2.84939 3.41512 3.19282 3.41512C3.53383 3.41512 3.69402 3.7185 3.69402 4.07528C3.69402 4.43328 3.53383 4.73302 3.19282 4.73302ZM4.8129 5H5.18182L5.56044 3.65418H5.58835L5.96698 5H6.33711L6.88441 3.136H6.50943L6.14658 4.49881H6.12838L5.76432 3.136H5.38933L5.02284 4.50488H5.00464L4.63937 3.136H4.26438L4.8129 5ZM7.97539 5.03762C8.38192 5.03762 8.66953 4.83739 8.75205 4.534L8.40862 4.47211C8.34309 4.64807 8.18533 4.73788 7.97903 4.73788C7.66836 4.73788 7.45963 4.53643 7.44992 4.17722H8.77511V4.04858C8.77511 3.37507 8.37222 3.11173 7.9499 3.11173C7.43051 3.11173 7.08829 3.50735 7.08829 4.08014C7.08829 4.659 7.42565 5.03762 7.97539 5.03762ZM7.45114 3.90539C7.4657 3.64083 7.65744 3.41148 7.95233 3.41148C8.23387 3.41148 8.41833 3.6202 8.41954 3.90539H7.45114ZM9.1777 5H9.54055V3.8617C9.54055 3.61778 9.72865 3.44181 9.98592 3.44181C10.0612 3.44181 10.1461 3.45516 10.1752 3.46366V3.11659C10.1388 3.11173 10.0672 3.10809 10.0211 3.10809C9.80268 3.10809 9.61579 3.23187 9.54783 3.43211H9.52842V3.136H9.1777V5ZM11.2259 5.03762C11.6324 5.03762 11.92 4.83739 12.0025 4.534L11.6591 4.47211C11.5936 4.64807 11.4358 4.73788 11.2295 4.73788C10.9188 4.73788 10.7101 4.53643 10.7004 4.17722H12.0256V4.04858C12.0256 3.37507 11.6227 3.11173 11.2004 3.11173C10.681 3.11173 10.3388 3.50735 10.3388 4.08014C10.3388 4.659 10.6761 5.03762 11.2259 5.03762ZM10.7016 3.90539C10.7162 3.64083 10.9079 3.41148 11.2028 3.41148C11.4843 3.41148 11.6688 3.6202 11.67 3.90539H10.7016ZM13.126 5.03641C13.4657 5.03641 13.5992 4.82889 13.6648 4.70996H13.6951V5H14.0495V2.51467H13.6866V3.43817H13.6648C13.5992 3.32289 13.4755 3.11173 13.1284 3.11173C12.6782 3.11173 12.3469 3.4673 12.3469 4.07164C12.3469 4.67477 12.6733 5.03641 13.126 5.03641ZM13.206 4.72695C12.882 4.72695 12.7134 4.44177 12.7134 4.068C12.7134 3.69787 12.8784 3.41997 13.206 3.41997C13.5228 3.41997 13.6927 3.67845 13.6927 4.068C13.6927 4.45997 13.5191 4.72695 13.206 4.72695ZM15.5009 5H15.8552V4.70996H15.8855C15.9511 4.82889 16.0846 5.03641 16.4244 5.03641C16.8758 5.03641 17.2035 4.67477 17.2035 4.07164C17.2035 3.4673 16.8709 3.11173 16.4207 3.11173C16.0749 3.11173 15.9499 3.32289 15.8855 3.43817H15.8637V2.51467H15.5009V5ZM15.8564 4.068C15.8564 3.67845 16.0263 3.41997 16.3431 3.41997C16.6719 3.41997 16.837 3.69787 16.837 4.068C16.837 4.44177 16.6671 4.72695 16.3431 4.72695C16.0312 4.72695 15.8564 4.45997 15.8564 4.068ZM17.7735 5.699C18.0733 5.699 18.2626 5.54245 18.3706 5.24878L19.1412 3.13964L18.7492 3.136L18.2771 4.58254H18.2577L17.7856 3.136H17.3973L18.0793 5.02427L18.0344 5.14805C17.9422 5.39561 17.8123 5.41624 17.6133 5.36164L17.526 5.65895C17.5696 5.67837 17.6643 5.699 17.7735 5.699Z" fill="white"/>
<defs>
<clipPath id="clip0">
<rect width="48" height="19.0835" fill="white" transform="translate(0 10.9165)"/>
</clipPath>
</defs>
</svg>
