<svg width="21" height="24" viewBox="0 0 21 24" fill="none" xmlns="http://www.w3.org/2000/svg">
<path fill-rule="evenodd" clip-rule="evenodd" d="M0.630762 8.15892C1.13471 6.66596 1.9275 5.28698 2.96388 4.10071L6.36147 7.07452C5.71525 7.8142 5.22092 8.67404 4.90669 9.60495C4.59246 10.5359 4.4645 11.5196 4.5301 12.5C4.5957 13.4804 4.85359 14.4383 5.28903 15.3189C5.72447 16.1996 6.32895 16.9858 7.06794 17.6326C7.80694 18.2794 8.66598 18.7742 9.59601 19.0887C10.5261 19.4032 11.5089 19.5313 12.4884 19.4657C13.4679 19.4 14.4248 19.1419 15.3047 18.706C15.5072 18.6057 15.7048 18.4964 15.8968 18.3785C16.9601 17.7258 18.3777 17.592 19.3165 18.4137C20.2541 19.2344 20.36 20.6802 19.3793 21.4488C18.7363 21.9526 18.042 22.3906 17.3067 22.7549C15.8956 23.4539 14.3609 23.8679 12.79 23.9732C11.2191 24.0785 9.64289 23.8731 8.15133 23.3686C6.65977 22.8642 5.28207 22.0707 4.0969 21.0333C2.91173 19.996 1.9423 18.7351 1.24395 17.3228C0.545596 15.9104 0.13201 14.3742 0.0267994 12.8019C-0.0784109 11.2296 0.126816 9.65187 0.630762 8.15892ZM11.249 0.000499234L11.249 4.42561C9.72572 4.56583 8.29731 5.15941 7.12119 6.14098L3.99564 3.0125C6.0161 1.20805 8.5483 0.156608 11.249 0.000499234ZM15.3502 5.19751C14.6285 4.83304 13.7286 4.52488 12.6498 4.42659L12.6498 -1.1997e-05C15.5849 0.167547 18.322 1.39188 20.4195 3.49158C20.5565 3.62867 20.625 3.80838 20.625 3.98813C20.625 4.16785 20.5565 4.3476 20.4195 4.48473L19.6915 5.21335C19.59 5.00223 19.4528 4.80742 19.2824 4.63687C18.5806 3.93448 17.5057 3.81642 16.6684 4.34971C16.361 4.54554 15.898 4.84196 15.3502 5.19751ZM10.4048 10.4074C9.54668 11.2663 9.54668 12.6639 10.4048 13.5228C11.2629 14.3817 12.6592 14.3817 13.5173 13.5228C14.6014 12.4377 18.0032 7.10501 18.3875 6.50049C18.5638 6.22328 18.524 5.86073 18.2919 5.62834C18.0597 5.396 17.6975 5.35618 17.4205 5.53262C16.8166 5.91733 11.4888 9.32227 10.4048 10.4074Z" fill="white"/>
</svg>
