<svg width="168" height="28" viewBox="0 0 168 28" fill="none" xmlns="http://www.w3.org/2000/svg">
<path d="M2.29602 21.7226C1.05896 21.7226 0.44043 21.0841 0.44043 19.8071V2.02932C0.44043 0.772307 1.05896 0.143799 2.29602 0.143799C3.55304 0.143799 4.18155 0.772307 4.18155 2.02932V8.97284C4.68036 8.17473 5.34878 7.57615 6.18679 7.1771C7.0248 6.7581 7.95259 6.54859 8.97018 6.54859C12.422 6.54859 14.1479 8.55383 14.1479 12.5643V19.8071C14.1479 21.0841 13.5294 21.7226 12.2923 21.7226C11.0353 21.7226 10.4068 21.0841 10.4068 19.8071V12.7439C10.4068 11.6066 10.1873 10.7786 9.74833 10.2598C9.32933 9.74101 8.67089 9.48163 7.77302 9.48163C6.67563 9.48163 5.79771 9.8308 5.13927 10.5291C4.50079 11.2075 4.18155 12.1154 4.18155 13.2527V19.8071C4.18155 21.0841 3.55304 21.7226 2.29602 21.7226Z" fill="#1F2C41"/>
<path d="M24.562 21.7824C22.9059 21.7824 21.4793 21.4732 20.2822 20.8546C19.085 20.2361 18.1572 19.3582 17.4988 18.2209C16.8603 17.0836 16.541 15.7368 16.541 14.1805C16.541 12.6641 16.8503 11.3372 17.4688 10.1999C18.1073 9.06262 18.9753 8.17473 20.0726 7.53625C21.19 6.87781 22.457 6.54859 23.8736 6.54859C25.9487 6.54859 27.5848 7.20703 28.782 8.5239C29.9991 9.84078 30.6076 11.6365 30.6076 13.9111C30.6076 14.6494 30.1288 15.0185 29.171 15.0185H20.1325C20.4118 17.6323 21.9083 18.9392 24.6218 18.9392C25.1406 18.9392 25.7192 18.8793 26.3577 18.7596C27.0162 18.6199 27.6347 18.3905 28.2133 18.0712C28.7321 17.7719 29.171 17.6822 29.5302 17.8019C29.8893 17.9016 30.1387 18.1111 30.2784 18.4304C30.438 18.7496 30.458 19.1088 30.3383 19.5078C30.2385 19.8869 29.9592 20.2161 29.5003 20.4955C28.8019 20.9344 27.9938 21.2637 27.076 21.4831C26.1782 21.6827 25.3401 21.7824 24.562 21.7824ZM24.0233 9.09255C22.9259 9.09255 22.038 9.43175 21.3596 10.1101C20.6812 10.7885 20.2722 11.7063 20.1325 12.8636H27.495C27.4152 11.6465 27.076 10.7187 26.4774 10.0802C25.8988 9.42177 25.0808 9.09255 24.0233 9.09255Z" fill="#1F2C41"/>
<path d="M37.9699 21.7824C34.6378 21.7824 32.9718 19.9169 32.9718 16.1857V2.02932C32.9718 0.772307 33.5903 0.143799 34.8274 0.143799C36.0844 0.143799 36.7129 0.772307 36.7129 2.02932V16.0061C36.7129 17.8019 37.4611 18.6997 38.9576 18.6997C39.1172 18.6997 39.2668 18.6997 39.4065 18.6997C39.5462 18.6798 39.6858 18.6598 39.8255 18.6399C40.1049 18.6 40.2944 18.6798 40.3942 18.8793C40.4939 19.0589 40.5438 19.438 40.5438 20.0166C40.5438 20.5154 40.444 20.9045 40.2445 21.1838C40.045 21.4632 39.7158 21.6328 39.2569 21.6926C38.8379 21.7525 38.4089 21.7824 37.9699 21.7824Z" fill="#1F2C41"/>
<path d="M46.9287 21.7824C43.5966 21.7824 41.9306 19.9169 41.9306 16.1857V2.02932C41.9306 0.772307 42.5491 0.143799 43.7862 0.143799C45.0432 0.143799 45.6717 0.772307 45.6717 2.02932V16.0061C45.6717 17.8019 46.4199 18.6997 47.9164 18.6997C48.076 18.6997 48.2256 18.6997 48.3653 18.6997C48.505 18.6798 48.6447 18.6598 48.7843 18.6399C49.0637 18.6 49.2532 18.6798 49.353 18.8793C49.4527 19.0589 49.5026 19.438 49.5026 20.0166C49.5026 20.5154 49.4029 20.9045 49.2033 21.1838C49.0038 21.4632 48.6746 21.6328 48.2157 21.6926C47.7967 21.7525 47.3677 21.7824 46.9287 21.7824Z" fill="#1F2C41"/>
<path d="M57.4174 21.7824C55.901 21.7824 54.5841 21.4732 53.4668 20.8546C52.3494 20.2361 51.4815 19.3582 50.863 18.2209C50.2444 17.0636 49.9352 15.7069 49.9352 14.1505C49.9352 12.5942 50.2444 11.2474 50.863 10.1101C51.4815 8.97284 52.3494 8.09492 53.4668 7.47639C54.5841 6.85786 55.901 6.54859 57.4174 6.54859C58.9338 6.54859 60.2507 6.85786 61.368 7.47639C62.4854 8.09492 63.3533 8.97284 63.9719 10.1101C64.5904 11.2474 64.8997 12.5942 64.8997 14.1505C64.8997 15.7069 64.5904 17.0636 63.9719 18.2209C63.3533 19.3582 62.4854 20.2361 61.368 20.8546C60.2507 21.4732 58.9338 21.7824 57.4174 21.7824ZM57.4174 18.9392C58.5348 18.9392 59.4326 18.5401 60.111 17.742C60.7894 16.924 61.1286 15.7268 61.1286 14.1505C61.1286 12.5543 60.7894 11.3672 60.111 10.589C59.4326 9.7909 58.5348 9.39184 57.4174 9.39184C56.3001 9.39184 55.4022 9.7909 54.7238 10.589C54.0454 11.3672 53.7062 12.5543 53.7062 14.1505C53.7062 15.7268 54.0454 16.924 54.7238 17.742C55.4022 18.5401 56.3001 18.9392 57.4174 18.9392Z" fill="#1F2C41"/>
<path d="M68.8255 21.6627C68.207 21.6627 67.8977 21.3534 67.8977 20.7349V7.71582C67.8977 7.07734 68.207 6.7581 68.8255 6.7581C69.4041 6.7581 69.6934 7.07734 69.6934 7.71582V9.51156C70.5913 7.63601 72.1177 6.69824 74.2726 6.69824C76.5871 6.69824 78.0536 7.70585 78.6721 9.72106C79.0911 8.78329 79.7296 8.04504 80.5876 7.50632C81.4455 6.9676 82.4432 6.69824 83.5805 6.69824C86.7928 6.69824 88.399 8.57378 88.399 12.3249V20.7349C88.399 21.3534 88.0898 21.6627 87.4712 21.6627C86.8726 21.6627 86.5734 21.3534 86.5734 20.7349V12.4745C86.5734 11.0379 86.314 9.98044 85.7952 9.30206C85.2964 8.62367 84.4484 8.28447 83.2513 8.28447C81.9743 8.28447 80.9567 8.73341 80.1985 9.63127C79.4403 10.5092 79.0612 11.7063 79.0612 13.2227V20.7349C79.0612 21.3534 78.7619 21.6627 78.1633 21.6627C77.5448 21.6627 77.2355 21.3534 77.2355 20.7349V12.4745C77.2355 11.0379 76.9762 9.98044 76.4574 9.30206C75.9586 8.62367 75.1205 8.28447 73.9433 8.28447C72.6464 8.28447 71.6189 8.73341 70.8607 9.63127C70.1025 10.5092 69.7234 11.7063 69.7234 13.2227V20.7349C69.7234 21.3534 69.4241 21.6627 68.8255 21.6627Z" fill="#1F2C41"/>
<path d="M98.3558 21.7226C96.999 21.7226 95.8218 21.4233 94.8242 20.8247C93.8265 20.2062 93.0484 19.3382 92.4897 18.2209C91.951 17.0836 91.6816 15.7468 91.6816 14.2104C91.6816 12.694 91.951 11.3771 92.4897 10.2598C93.0484 9.12248 93.8265 8.24457 94.8242 7.62603C95.8218 7.0075 96.999 6.69824 98.3558 6.69824C99.7325 6.69824 100.92 7.0075 101.917 7.62603C102.915 8.24457 103.683 9.12248 104.222 10.2598C104.781 11.3771 105.06 12.694 105.06 14.2104C105.06 15.7468 104.781 17.0836 104.222 18.2209C103.683 19.3382 102.915 20.2062 101.917 20.8247C100.92 21.4233 99.7325 21.7226 98.3558 21.7226ZM98.3558 20.1962C99.8323 20.1962 101.009 19.6774 101.887 18.6399C102.765 17.5824 103.204 16.1059 103.204 14.2104C103.204 12.3149 102.765 10.8484 101.887 9.81085C101.009 8.77331 99.8323 8.25454 98.3558 8.25454C96.8793 8.25454 95.7021 8.77331 94.8242 9.81085C93.9662 10.8484 93.5372 12.3149 93.5372 14.2104C93.5372 16.1059 93.9662 17.5824 94.8242 18.6399C95.7021 19.6774 96.8793 20.1962 98.3558 20.1962Z" fill="#1F2C41"/>
<path d="M109.276 21.6627C108.658 21.6627 108.348 21.3534 108.348 20.7349V7.71582C108.348 7.07734 108.658 6.7581 109.276 6.7581C109.855 6.7581 110.144 7.07734 110.144 7.71582V9.57142C110.623 8.61369 111.311 7.8954 112.209 7.41653C113.107 6.93767 114.105 6.69824 115.202 6.69824C118.654 6.69824 120.38 8.57378 120.38 12.3249V20.7349C120.38 21.3534 120.08 21.6627 119.482 21.6627C118.863 21.6627 118.554 21.3534 118.554 20.7349V12.4745C118.554 11.0379 118.265 9.98044 117.686 9.30206C117.108 8.62367 116.19 8.28447 114.933 8.28447C113.496 8.28447 112.339 8.73341 111.461 9.63127C110.603 10.5092 110.174 11.6964 110.174 13.1928V20.7349C110.174 21.3534 109.875 21.6627 109.276 21.6627Z" fill="#1F2C41"/>
<path d="M130.034 21.7226C128.717 21.7226 127.58 21.4233 126.622 20.8247C125.664 20.2062 124.916 19.3382 124.377 18.2209C123.859 17.0836 123.599 15.7468 123.599 14.2104C123.599 11.9159 124.178 10.0902 125.335 8.73341C126.492 7.37663 128.059 6.69824 130.034 6.69824C131.191 6.69824 132.209 6.9676 133.087 7.50632C133.985 8.02509 134.653 8.74338 135.092 9.6612V1.13146C135.092 0.512924 135.391 0.203658 135.99 0.203658C136.608 0.203658 136.918 0.512924 136.918 1.13146V20.7349C136.918 21.3534 136.618 21.6627 136.02 21.6627C135.401 21.6627 135.092 21.3534 135.092 20.7349V18.7596C134.653 19.6774 133.985 20.4057 133.087 20.9444C132.209 21.4632 131.191 21.7226 130.034 21.7226ZM130.273 20.1962C131.75 20.1962 132.927 19.6774 133.805 18.6399C134.683 17.5824 135.122 16.1059 135.122 14.2104C135.122 12.3149 134.683 10.8484 133.805 9.81085C132.927 8.77331 131.75 8.25454 130.273 8.25454C128.797 8.25454 127.62 8.77331 126.742 9.81085C125.884 10.8484 125.455 12.3149 125.455 14.2104C125.455 16.1059 125.884 17.5824 126.742 18.6399C127.62 19.6774 128.797 20.1962 130.273 20.1962Z" fill="#1F2C41"/>
<path d="M145.603 21.7226C144.625 21.7226 143.747 21.533 142.969 21.1539C142.211 20.7748 141.602 20.2561 141.143 19.5976C140.704 18.9392 140.485 18.2009 140.485 17.3829C140.485 16.3054 140.754 15.4674 141.293 14.8688C141.832 14.2503 142.74 13.8113 144.017 13.552C145.294 13.2926 147.049 13.1629 149.284 13.1629H150.212V12.0854C150.212 10.7486 149.943 9.78092 149.404 9.18234C148.865 8.56381 148.007 8.25454 146.83 8.25454C146.072 8.25454 145.333 8.35431 144.615 8.55383C143.897 8.75336 143.149 9.0726 142.37 9.51156C142.011 9.71109 141.722 9.72106 141.503 9.54149C141.303 9.34196 141.203 9.09255 141.203 8.79326C141.223 8.47402 141.393 8.23459 141.712 8.07497C142.53 7.61606 143.378 7.27686 144.256 7.05739C145.134 6.81795 145.982 6.69824 146.8 6.69824C148.556 6.69824 149.853 7.14717 150.691 8.04504C151.549 8.94291 151.978 10.3196 151.978 12.1752V20.7349C151.978 21.3534 151.698 21.6627 151.14 21.6627C150.541 21.6627 150.242 21.3534 150.242 20.7349V18.8793C149.843 19.7772 149.234 20.4755 148.416 20.9743C147.618 21.4732 146.68 21.7226 145.603 21.7226ZM145.842 20.2561C146.7 20.2561 147.448 20.0565 148.087 19.6575C148.745 19.2385 149.264 18.6698 149.643 17.9515C150.022 17.2332 150.212 16.4152 150.212 15.4973V14.5097H149.314C147.518 14.5097 146.112 14.5895 145.094 14.7491C144.096 14.9087 143.398 15.1881 142.999 15.5871C142.6 15.9862 142.4 16.5349 142.4 17.2332C142.4 18.1311 142.71 18.8594 143.328 19.418C143.947 19.9767 144.785 20.2561 145.842 20.2561Z" fill="#1F2C41"/>
<path d="M159.058 27.0499C158.679 27.0499 158.43 26.9102 158.31 26.6309C158.21 26.3715 158.23 26.0623 158.37 25.7031L160.255 21.4233L154.569 8.13483C154.409 7.77568 154.399 7.45644 154.539 7.1771C154.679 6.89776 154.958 6.7581 155.377 6.7581C155.796 6.7581 156.105 7.0075 156.305 7.50632L161.243 19.4779L166.211 7.50632C166.331 7.22698 166.461 7.03743 166.6 6.93767C166.74 6.81795 166.939 6.7581 167.199 6.7581C167.578 6.7581 167.817 6.89776 167.917 7.1771C168.037 7.45644 168.027 7.7657 167.887 8.1049L160.076 26.3316C159.836 26.8105 159.497 27.0499 159.058 27.0499Z" fill="#1F2C41"/>
</svg>
