<svg width="60" height="37" viewBox="0 0 60 37" fill="none" xmlns="http://www.w3.org/2000/svg">
<mask id="mask0_17400_63681" style="mask-type:luminance" maskUnits="userSpaceOnUse" x="0" y="13" width="59" height="24">
<path d="M58.6356 13.416H0V36.8703H58.6356V13.416Z" fill="white"/>
</mask>
<g mask="url(#mask0_17400_63681)">
<path d="M2.1222 34.3323C1.99092 34.0975 1.75026 33.9634 1.49865 33.9746C1.09388 33.9746 0.809459 34.2429 0.809459 34.8354C0.809459 35.3608 1.03919 35.6962 1.49865 35.6962C1.73932 35.6962 2.05656 35.5508 2.08938 35.2042H1.49865V34.6788H2.64729V36.1992H2.13314V35.9533C1.93623 36.1657 1.6518 36.2887 1.35644 36.2775C0.546912 36.2775 0.142151 35.685 0.142151 34.8577C0.142151 34.0304 0.57973 33.4156 1.44395 33.4156C1.94717 33.3932 2.41757 33.6615 2.66917 34.0975L2.1222 34.3323Z" fill="#1F1D1A"/>
<path d="M3.03033 34.1648H3.61013V34.3772C3.76328 34.243 3.96019 34.176 4.1571 34.1648V34.6903L4.09146 34.7014C3.7414 34.7461 3.61013 34.8021 3.61013 35.0256V36.1995H3.03033V34.1648Z" fill="#1F1D1A"/>
<path d="M4.85732 35.3051C4.85732 35.6964 5.10893 35.8193 5.2949 35.8193C5.51369 35.8193 5.61215 35.7075 5.77624 35.4616L6.21385 35.6964C6.01691 36.0765 5.68873 36.2554 5.25114 36.2554C4.63853 36.2554 4.27753 35.8193 4.27753 35.2492C4.27753 34.5337 4.64947 34.1201 5.25114 34.1201C5.97315 34.1201 6.22476 34.6902 6.22476 35.3163H4.85732V35.3051ZM5.63403 34.9362C5.64497 34.7238 5.48087 34.5449 5.27302 34.5449C5.26208 34.5449 5.25114 34.5449 5.2402 34.5449C5.03235 34.5449 4.85732 34.7238 4.84638 34.9362H5.63403Z" fill="#1F1D1A"/>
<path d="M8.23718 35.7746C8.22621 35.92 8.2481 36.0653 8.29188 36.1995H7.75581C7.73392 36.1324 7.72301 36.0653 7.72301 35.9871H7.71209C7.61361 36.1436 7.31823 36.2554 7.11041 36.2554C6.72752 36.2554 6.44305 36.0429 6.44305 35.6517C6.44305 35.1598 6.82594 34.9921 7.46043 34.9027L7.66831 34.8691V34.7014C7.66831 34.5449 7.548 34.489 7.39482 34.489C7.20883 34.489 7.12133 34.5561 7.08852 34.7573H6.53062C6.55245 34.176 7.07754 34.1201 7.35103 34.1201C7.89802 34.1201 8.23718 34.2542 8.23718 34.7126V35.7746ZM7.67922 35.2157L7.28542 35.3275C7.14322 35.3722 7.00101 35.4281 7.00101 35.5958C7.00101 35.7635 7.13224 35.8193 7.27451 35.8193C7.50421 35.8193 7.67922 35.6628 7.67922 35.3498V35.2157Z" fill="#1F1D1A"/>
<path d="M9.69225 34.5781H9.34216V35.5731C9.34216 35.7296 9.41875 35.7743 9.52815 35.7743C9.58285 35.7743 9.64846 35.7743 9.70316 35.7631V36.2327C9.62657 36.2438 9.45156 36.255 9.33119 36.255C8.83896 36.255 8.76237 35.942 8.76237 35.6402V34.5669H8.47791V34.2092H8.7514V33.6167H9.33119V34.2092H9.68127L9.69225 34.5781Z" fill="#1F1D1A"/>
<path d="M10.8845 34.1646H11.4205V34.3546H11.4314C11.5627 34.1981 11.7596 34.1087 11.9565 34.1198C12.427 34.1198 12.8098 34.4664 12.8098 35.126C12.8098 35.8862 12.4926 36.2663 11.9565 36.2663C11.7815 36.2663 11.6065 36.2104 11.4643 36.0874H11.4533V36.8924H10.8735V34.1646H10.8845ZM11.8581 35.8191C12.1535 35.8191 12.2629 35.5285 12.2629 35.1148C12.2629 34.8353 12.1535 34.5447 11.869 34.5447C11.5846 34.5447 11.4533 34.8353 11.4533 35.1819C11.4533 35.5285 11.5627 35.8191 11.8581 35.8191Z" fill="#1F1D1A"/>
<path d="M13.5647 35.3051C13.5647 35.6964 13.8164 35.8193 14.0023 35.8193C14.2211 35.8193 14.3196 35.7075 14.4837 35.4616L14.9213 35.6964C14.7134 36.0765 14.3962 36.2554 13.9586 36.2554C13.346 36.2554 12.9849 35.8193 12.9849 35.2492C12.9849 34.5337 13.3569 34.1201 13.9586 34.1201C14.6806 34.1201 14.9322 34.6902 14.9322 35.3163H13.5647V35.3051ZM14.3524 34.9362C14.3524 34.7238 14.1883 34.5449 13.9805 34.5449C13.9695 34.5449 13.9586 34.5449 13.9586 34.5449C13.7507 34.5449 13.5757 34.7238 13.5647 34.9362H14.3524Z" fill="#1F1D1A"/>
<path d="M17.2408 35.1826C17.2408 35.8645 16.8033 36.2558 16.1798 36.2558C15.5562 36.2558 15.1186 35.8757 15.1186 35.1826C15.1186 34.4895 15.5562 34.1094 16.1798 34.1094C16.8033 34.1094 17.2408 34.5006 17.2408 35.1826ZM15.7093 35.1826C15.7093 35.5291 15.8516 35.7974 16.1798 35.7974C16.5079 35.7974 16.6501 35.5291 16.6501 35.1602C16.6501 34.8361 16.5079 34.5677 16.1798 34.5677C15.8516 34.5677 15.7093 34.8361 15.7093 35.1826Z" fill="#1F1D1A"/>
<path d="M17.525 34.1646H18.061V34.3546H18.0719C18.2032 34.1981 18.4001 34.1087 18.608 34.1198C19.0784 34.1198 19.4613 34.4664 19.4613 35.126C19.4613 35.8862 19.144 36.2663 18.608 36.2663C18.4329 36.2663 18.2579 36.2104 18.1157 36.0874H18.1048V36.8924H17.525V34.1646ZM18.4986 35.8191C18.794 35.8191 18.9033 35.5285 18.9033 35.1148C18.9033 34.8353 18.794 34.5447 18.5095 34.5447C18.2251 34.5447 18.0938 34.8353 18.0938 35.1819C18.0938 35.5285 18.2032 35.8191 18.4986 35.8191Z" fill="#1F1D1A"/>
<path d="M20.3475 33.4832H19.7677V36.1997H20.3475V33.4832Z" fill="#1F1D1A"/>
<path d="M21.2442 35.3051C21.2442 35.6964 21.4958 35.8193 21.6817 35.8193C21.9005 35.8193 21.999 35.7075 22.1631 35.4616L22.6006 35.6964C22.3928 36.0765 22.0755 36.2554 21.638 36.2554C21.0254 36.2554 20.6644 35.8193 20.6644 35.2492C20.6644 34.5337 21.0363 34.1201 21.638 34.1201C22.36 34.1201 22.6116 34.6902 22.6116 35.3163H21.2442V35.3051ZM22.0318 34.9362C22.0318 34.7238 21.8677 34.5449 21.6599 34.5449C21.6489 34.5449 21.638 34.5449 21.638 34.5449C21.4301 34.5449 21.2551 34.7238 21.2442 34.9362H22.0318Z" fill="#1F1D1A"/>
<path d="M23.5092 35.5632H22.9076V36.2005H23.5092V35.5632Z" fill="#1F1D1A"/>
<path d="M26.7359 34.3327C26.6046 34.0979 26.3639 33.9638 26.1123 33.975C25.7076 33.975 25.4232 34.2433 25.4232 34.8358C25.4232 35.3612 25.6529 35.6966 26.1123 35.6966C26.353 35.6966 26.6702 35.5513 26.703 35.2047H26.1123V34.6793H27.2609V36.1997H26.7468V35.9537C26.5499 36.1661 26.2655 36.2891 25.9701 36.2779C25.1606 36.2779 24.7558 35.6854 24.7558 34.847C24.7558 34.0085 25.1934 33.4049 26.0576 33.4049C26.5608 33.3825 27.0312 33.6508 27.2828 34.0868L26.7359 34.3327Z" fill="#1F1D1A"/>
<path d="M27.644 34.1648H28.2238V34.3772C28.377 34.243 28.5739 34.176 28.7708 34.1648V34.6903L28.7051 34.7014C28.3551 34.7461 28.2238 34.8021 28.2238 35.0256V36.1995H27.644V34.1648Z" fill="#1F1D1A"/>
<path d="M29.471 35.3051C29.471 35.6964 29.7226 35.8193 29.9086 35.8193C30.1274 35.8193 30.2258 35.7075 30.3899 35.4616L30.8275 35.6964C30.6197 36.0765 30.3024 36.2554 29.8648 36.2554C29.2522 36.2554 28.8912 35.8193 28.8912 35.2492C28.8912 34.5337 29.2631 34.1201 29.8648 34.1201C30.5868 34.1201 30.8384 34.6902 30.8384 35.3163H29.471V35.3051ZM30.2586 34.9362C30.2586 34.7238 30.0946 34.5449 29.8867 34.5449C29.8758 34.5449 29.8648 34.5449 29.8648 34.5449C29.657 34.5449 29.4819 34.7238 29.471 34.9362H30.2586Z" fill="#1F1D1A"/>
<path d="M32.8514 35.7746C32.8405 35.92 32.8624 36.0653 32.9061 36.1995H32.3701C32.3482 36.1324 32.3373 36.0653 32.3373 35.9871H32.3263C32.2279 36.1436 31.9435 36.2554 31.7247 36.2554C31.3418 36.2554 31.0574 36.0429 31.0574 35.6517C31.0574 35.1598 31.4403 34.9921 32.0747 34.9027L32.2935 34.8691V34.7014C32.2935 34.5449 32.1732 34.489 32.0201 34.489C31.8341 34.489 31.7466 34.5561 31.7138 34.7573H31.1558C31.1777 34.176 31.7028 34.1201 31.9763 34.1201C32.5233 34.1201 32.8624 34.2542 32.8624 34.7126L32.8514 35.7746ZM32.2935 35.2157L31.8997 35.3275C31.7575 35.3722 31.6153 35.4281 31.6153 35.5958C31.6153 35.7635 31.7466 35.8193 31.8888 35.8193C32.1185 35.8193 32.2935 35.6628 32.2935 35.3498V35.2157Z" fill="#1F1D1A"/>
<path d="M34.3065 34.5781H33.9564V35.5731C33.9564 35.7296 34.033 35.7743 34.1424 35.7743C34.1971 35.7743 34.2627 35.7743 34.3174 35.7631V36.2327C34.2409 36.2438 34.0658 36.255 33.9455 36.255C33.4532 36.255 33.3766 35.942 33.3766 35.6402V34.5669H33.0922V34.2092H33.3766V33.6167H33.9564V34.2092H34.3065V34.5781Z" fill="#1F1D1A"/>
<path d="M35.4987 34.1646H36.0347V34.3546H36.0456C36.1769 34.1981 36.3738 34.1087 36.5817 34.1198C37.0521 34.1198 37.435 34.4664 37.435 35.126C37.435 35.8862 37.1177 36.2663 36.5817 36.2663C36.4066 36.2663 36.2316 36.2104 36.0894 36.0874H36.0784V36.8924H35.4987V34.1646ZM36.4723 35.8191C36.7676 35.8191 36.877 35.5285 36.877 35.1148C36.877 34.8353 36.7676 34.5447 36.4832 34.5447C36.1988 34.5447 36.0675 34.8353 36.0675 35.1819C36.0675 35.5285 36.1769 35.8191 36.4723 35.8191Z" fill="#1F1D1A"/>
<path d="M38.179 35.3051C38.179 35.6964 38.4306 35.8193 38.6166 35.8193C38.8354 35.8193 38.9338 35.7075 39.0979 35.4616L39.5355 35.6964C39.3277 36.0765 39.0104 36.2554 38.5728 36.2554C37.9602 36.2554 37.5992 35.8193 37.5992 35.2492C37.5992 34.5337 37.9712 34.1201 38.5728 34.1201C39.2948 34.1201 39.5465 34.6902 39.5465 35.3163H38.179V35.3051ZM38.9667 34.9362C38.9667 34.7238 38.8026 34.5449 38.5947 34.5449C38.5838 34.5449 38.5728 34.5449 38.5728 34.5449C38.365 34.5449 38.1899 34.7238 38.179 34.9362H38.9667Z" fill="#1F1D1A"/>
<path d="M39.8852 34.1648H40.465V34.3772C40.6182 34.243 40.8151 34.176 41.012 34.1648V34.6903L40.9463 34.7014C40.5963 34.7461 40.465 34.8021 40.465 35.0256V36.1995H39.8852V34.1648Z" fill="#1F1D1A"/>
<path d="M41.3405 34.5786H41.0342V34.2096H41.3405V34.0084C41.3405 33.7848 41.4062 33.4495 41.9094 33.4495C42.0407 33.4495 42.161 33.4606 42.2923 33.4942V33.9302H42.1282C42.0297 33.9302 41.9203 33.9637 41.9203 34.0755V34.2096H42.2813V34.5786H41.9203V36.1996H41.3405V34.5786Z" fill="#1F1D1A"/>
<path d="M44.491 35.1826C44.491 35.8645 44.0534 36.2558 43.4299 36.2558C42.8063 36.2558 42.3688 35.8757 42.3688 35.1826C42.3688 34.4895 42.8063 34.1094 43.4299 34.1094C44.0534 34.1094 44.491 34.5006 44.491 35.1826ZM42.9595 35.1826C42.9595 35.5291 43.1017 35.7974 43.4299 35.7974C43.7581 35.7974 43.9003 35.5291 43.9003 35.1602C43.9003 34.8361 43.7581 34.5677 43.4299 34.5677C43.1017 34.5677 42.9595 34.8361 42.9595 35.1826Z" fill="#1F1D1A"/>
<path d="M44.7974 34.1648H45.3772V34.3772C45.5304 34.243 45.7273 34.176 45.9242 34.1648V34.6903L45.8586 34.7014C45.5085 34.7461 45.3772 34.8021 45.3772 35.0256V36.1995H44.7974V34.1648Z" fill="#1F1D1A"/>
<path d="M46.1754 34.165H46.7551V34.3439C46.9083 34.1874 47.1161 34.0979 47.3349 34.1091C47.5428 34.0979 47.7397 34.2097 47.86 34.3774C48.0241 34.1985 48.2538 34.0979 48.4945 34.1091C48.6914 34.1091 49.1071 34.1761 49.1071 34.6457V36.1996H48.5273V35.0146C48.5273 34.7239 48.4508 34.601 48.232 34.601C48.0351 34.601 47.9366 34.7463 47.9366 34.9587V36.2108H47.3568V34.9364C47.3568 34.7351 47.3021 34.601 47.0724 34.601C46.8427 34.601 46.7661 34.7575 46.7661 34.9364V36.1996H46.1863V34.165H46.1754Z" fill="#1F1D1A"/>
<path d="M51.2515 35.7746C51.2406 35.92 51.2625 36.0653 51.3062 36.1995H50.7593C50.7374 36.1324 50.7264 36.0653 50.7264 35.9871H50.7155C50.617 36.1436 50.3326 36.2554 50.1138 36.2554C49.7309 36.2554 49.4465 36.0429 49.4465 35.6517C49.4465 35.1598 49.8294 34.9921 50.4639 34.9027L50.6827 34.8691V34.7014C50.6827 34.5449 50.5623 34.489 50.4092 34.489C50.2232 34.489 50.1357 34.5561 50.1029 34.7573H49.545C49.5668 34.176 50.0919 34.1201 50.3654 34.1201C50.9124 34.1201 51.2515 34.2542 51.2515 34.7126V35.7746ZM50.6827 35.2157L50.2889 35.3275C50.1466 35.3722 50.0044 35.4281 50.0044 35.5958C50.0044 35.7635 50.1357 35.8193 50.2779 35.8193C50.5076 35.8193 50.6717 35.6628 50.6717 35.3498L50.6827 35.2157Z" fill="#1F1D1A"/>
<path d="M51.7109 34.165H52.2907V34.3439C52.4438 34.1874 52.6517 34.0979 52.8705 34.1091C53.3409 34.1091 53.4721 34.3886 53.4721 34.6904V36.1884H52.8923V34.914C52.8923 34.7128 52.8376 34.5786 52.6079 34.5786C52.3782 34.5786 52.3016 34.7351 52.3016 34.914V36.1884H51.7218L51.7109 34.165Z" fill="#1F1D1A"/>
<path d="M55.2113 34.8476C55.1457 34.6911 55.0035 34.5794 54.8394 34.5682C54.5112 34.5682 54.3909 34.8365 54.3909 35.183C54.3909 35.5296 54.5331 35.7979 54.8394 35.7979C55.0253 35.8091 55.2004 35.6861 55.2551 35.4961L55.6708 35.7085C55.4957 36.0438 55.1566 36.2451 54.7847 36.2451C54.194 36.2451 53.7783 35.865 53.7783 35.1719C53.7783 34.4787 54.2158 34.0986 54.7628 34.0986C55.1457 34.0986 55.4629 34.244 55.6598 34.5905L55.2113 34.8476Z" fill="#1F1D1A"/>
<path d="M56.3713 35.3051C56.3713 35.6964 56.6229 35.8193 56.8088 35.8193C57.0276 35.8193 57.1261 35.7075 57.2902 35.4616L57.7278 35.6964C57.5309 36.0765 57.2027 36.2554 56.7651 36.2554C56.1525 36.2554 55.7915 35.8193 55.7915 35.2492C55.7915 34.5337 56.1634 34.1201 56.7651 34.1201C57.4871 34.1201 57.7387 34.6902 57.7387 35.3163H56.3713V35.3051ZM57.1589 34.9362C57.1589 34.7238 56.9948 34.5449 56.787 34.5449C56.776 34.5449 56.7651 34.5449 56.7651 34.5449C56.5572 34.5449 56.3822 34.7238 56.3713 34.9362H57.1589Z" fill="#1F1D1A"/>
<path d="M58.6358 35.5632H58.0341V36.2005H58.6358V35.5632Z" fill="#1F1D1A"/>
<path d="M22.0212 28.0387V19.6654C21.5836 20.0678 20.8944 20.1125 20.1943 20.1125H18.4768V20.4367H20.1943V25.2103C20.1943 26.6972 18.8487 28.2847 17.3281 28.2847C16.4968 28.2847 15.9826 27.7368 15.9826 26.876V19.6654C15.545 20.0678 14.8558 20.1125 14.1557 20.1125H12.0553V14.4111H13.6743V14.0869H8.45623V14.4111H10.1847V20.1014H3.4897V14.4111H5.21813V14.0869H0V14.3999L1.61905 14.4111V28.0387H0V28.3629H5.21813V28.0387H3.4897V20.4367H10.1737V28.0387H8.45623V28.3629H13.6743V28.0387H12.0553V20.4367H14.1447V26.373C14.1447 27.5356 14.9324 28.6089 17.0984 28.6089C19.0347 28.6089 19.9427 26.9991 20.1396 26.5407H20.1834V28.3741H23.7496V28.0499H22.0212V28.0387Z" fill="#1F1D1A"/>
<path d="M29.8646 25.4338C29.8974 26.9654 28.7159 28.2398 27.2172 28.2845C27.2063 28.2845 27.1953 28.2845 27.1844 28.2845C25.2153 28.2845 24.9637 27.133 24.9637 24.0922C24.9637 21.3086 25.27 19.9 27.0422 19.9C28.7159 19.9 29.8646 21.5658 29.8646 23.0526V25.4338ZM36.7236 23.0414L35.9688 22.9967C34.4919 22.9184 33.6277 22.5495 33.6277 21.4875C33.6277 20.4254 34.5466 19.8553 35.6734 19.8553C37.4347 19.8553 38.102 20.9173 38.2551 22.08H38.5395L38.452 19.6429H38.1348V19.8106C38.1348 20.1012 38.1129 20.2354 37.9816 20.2354C37.7628 20.2354 36.9315 19.5199 35.7281 19.5199C33.9887 19.5199 32.9385 20.6826 32.9385 22.1583C32.9385 24.2823 34.3388 24.4724 35.7938 24.6177C36.9752 24.7407 38.3098 24.7631 38.3098 26.3729C38.3098 27.5355 37.369 28.2734 36.1438 28.2734C33.8027 28.2734 33.2229 26.4287 33.0479 25.3891H32.7635L32.8073 28.0274H31.5383V13.416C31.1336 13.8855 30.4881 13.9303 29.8427 13.9303H28.2345V14.2544H29.8646V21.6552H29.8208C29.4598 20.7049 28.4861 19.587 27.0422 19.587C24.6245 19.587 23.0383 22.1023 23.0383 24.1035C23.0383 26.4847 24.6683 28.6199 27.1844 28.6199C28.5737 28.6199 29.5254 27.5802 29.8208 26.8871H29.8646V28.3739H33.1573C33.2011 27.938 33.1354 27.7367 33.4308 27.7367C33.8793 27.7367 34.4154 28.6199 36.1657 28.6199C37.8832 28.6199 39.2616 27.379 39.2616 25.4673C39.2616 24.0475 38.5286 23.1532 36.7236 23.0414Z" fill="#1F1D1A"/>
<path d="M46.2414 23.2982C46.2414 21.5319 46.1648 19.8997 43.9004 19.8997C41.6359 19.8997 41.5703 21.5319 41.5703 23.2982V24.8857C41.5703 26.652 41.6578 28.2842 43.9113 28.2842C46.1648 28.2842 46.2524 26.6632 46.2524 24.8857L46.2414 23.2982ZM43.9113 19.5754C46.5149 19.5754 48.1777 21.7554 48.1777 24.0919C48.1777 26.4284 46.504 28.6084 43.9113 28.6084C41.3187 28.6084 39.645 26.4396 39.645 24.0919C39.645 21.7443 41.3077 19.5754 43.9113 19.5754Z" fill="#1F1D1A"/>
<path d="M49.1184 20.3468H47.5322V20.0226H49.1184C50.0811 20.0226 50.4421 20.0226 50.8141 19.5754V21.6548H50.8578C51.3829 20.6822 52.3893 19.5867 53.8552 19.5867C56.0103 19.5867 56.612 20.6822 56.612 21.8784V28.0382H58.1982V28.3624H53.3301V28.0382H54.9164V21.3865C54.9164 20.2686 54.3694 19.8997 53.7239 19.8997C52.0283 19.8997 51.1641 21.6101 50.8031 22.3032V28.0382H52.3346V28.3624H47.5212V28.0382H49.1184V20.3468Z" fill="#1F1D1A"/>
</g>
<path d="M0.516174 6.78329H1.22502V5.13162H2.18849C3.27813 5.13162 3.81722 4.47325 3.81722 3.60612C3.81722 2.74129 3.28272 2.08521 2.19079 2.08521H0.516174V6.78329ZM1.22502 4.5306V2.69312H2.11508C2.81704 2.69312 3.10379 3.07391 3.10379 3.60612C3.10379 4.13832 2.81704 4.5306 2.12426 4.5306H1.22502ZM6.03321 6.85439C7.02651 6.85439 7.67568 6.12721 7.67568 5.03756C7.67568 3.94104 7.02651 3.21385 6.03321 3.21385C5.03991 3.21385 4.39071 3.94104 4.39071 5.03756C4.39071 6.12721 5.03991 6.85439 6.03321 6.85439ZM6.0355 6.27861C5.3863 6.27861 5.08349 5.71199 5.08349 5.03527C5.08349 4.36084 5.3863 3.78734 6.0355 3.78734C6.68013 3.78734 6.98291 4.36084 6.98291 5.03527C6.98291 5.71199 6.68013 6.27861 6.0355 6.27861ZM9.09796 6.78329H9.79535L10.5111 4.23926H10.5638L11.2795 6.78329H11.9792L13.0138 3.25973H12.3049L11.6191 5.83587H11.5847L10.8965 3.25973H10.1876L9.49484 5.84734H9.46043L8.76995 3.25973H8.06109L9.09796 6.78329ZM15.0761 6.85439C15.8446 6.85439 16.3883 6.47588 16.5443 5.9024L15.895 5.7854C15.7712 6.11803 15.4729 6.28779 15.083 6.28779C14.4957 6.28779 14.1012 5.90698 14.0828 5.22797H16.5878V4.9848C16.5878 3.71164 15.8262 3.21385 15.0279 3.21385C14.0461 3.21385 13.3992 3.96168 13.3992 5.04445C13.3992 6.13868 14.0369 6.85439 15.0761 6.85439ZM14.0851 4.71411C14.1126 4.21402 14.475 3.78046 15.0325 3.78046C15.5647 3.78046 15.9134 4.17503 15.9157 4.71411H14.0851ZM17.3488 6.78329H18.0348V4.63153C18.0348 4.17044 18.3903 3.83781 18.8766 3.83781C19.0189 3.83781 19.1795 3.86304 19.2345 3.8791V3.22302C19.1657 3.21385 19.0304 3.20696 18.9432 3.20696C18.5302 3.20696 18.177 3.44095 18.0485 3.81946H18.0118V3.25973H17.3488V6.78329ZM21.2205 6.85439C21.989 6.85439 22.5327 6.47588 22.6887 5.9024L22.0395 5.7854C21.9156 6.11803 21.6174 6.28779 21.2274 6.28779C20.6402 6.28779 20.2456 5.90698 20.2272 5.22797H22.7323V4.9848C22.7323 3.71164 21.9707 3.21385 21.1724 3.21385C20.1906 3.21385 19.5436 3.96168 19.5436 5.04445C19.5436 6.13868 20.1814 6.85439 21.2205 6.85439ZM20.2295 4.71411C20.257 4.21402 20.6195 3.78046 21.1769 3.78046C21.7092 3.78046 22.0578 4.17503 22.0601 4.71411H20.2295ZM24.8124 6.85211C25.4547 6.85211 25.707 6.45984 25.8308 6.23501H25.8882V6.78329H26.5581V2.08521H25.8722V3.83093H25.8308C25.707 3.613 25.473 3.21385 24.8169 3.21385C23.9659 3.21385 23.3396 3.88598 23.3396 5.02839C23.3396 6.16847 23.9567 6.85211 24.8124 6.85211ZM24.9637 6.26714C24.3513 6.26714 24.0324 5.72805 24.0324 5.02151C24.0324 4.32184 24.3444 3.79652 24.9637 3.79652C25.5625 3.79652 25.8836 4.28514 25.8836 5.02151C25.8836 5.76246 25.5556 6.26714 24.9637 6.26714ZM29.3017 6.78329H29.9715V6.23501H30.0289C30.1527 6.45984 30.4051 6.85211 31.0474 6.85211C31.9007 6.85211 32.5201 6.16847 32.5201 5.02839C32.5201 3.88598 31.8916 3.21385 31.0405 3.21385C30.3867 3.21385 30.1504 3.613 30.0289 3.83093H29.9875V2.08521H29.3017V6.78329ZM29.9738 5.02151C29.9738 4.28514 30.295 3.79652 30.8937 3.79652C31.5153 3.79652 31.8274 4.32184 31.8274 5.02151C31.8274 5.72805 31.5062 6.26714 30.8937 6.26714C30.3041 6.26714 29.9738 5.76246 29.9738 5.02151ZM33.5977 8.10462C34.1643 8.10462 34.5222 7.80868 34.7264 7.25356L36.183 3.26661L35.4421 3.25973L34.5497 5.99416H34.513L33.6206 3.25973H32.8866L34.1758 6.82917L34.0909 7.06313C33.9166 7.53112 33.6711 7.57015 33.2949 7.46692L33.1298 8.02889C33.2123 8.06565 33.3912 8.10462 33.5977 8.10462Z" fill="#1F1D1A"/>
</svg>
