<svg width="185" height="31" viewBox="0 0 185 31" fill="none" xmlns="http://www.w3.org/2000/svg">
<path d="M42.012 24.658V6.43066H45.9284V13.0939C45.976 13.0397 46.0253 12.9862 46.0762 12.9334C46.5524 12.4408 47.119 12.0467 47.7758 11.7511C48.4327 11.4555 49.1223 11.3077 49.8449 11.3077C50.8301 11.3077 51.6594 11.513 52.3327 11.9235C53.0059 12.3176 53.5068 12.917 53.8352 13.7216C54.18 14.5098 54.3524 15.4869 54.3524 16.6528V24.658H50.3868V16.9483C50.3868 16.4229 50.3129 15.9877 50.1651 15.6429C50.0173 15.298 49.7956 15.0435 49.5 14.8793C49.2044 14.7151 48.835 14.6412 48.3916 14.6576C48.0468 14.6576 47.7266 14.7151 47.431 14.83C47.1354 14.9286 46.8727 15.0846 46.6428 15.298C46.4293 15.4951 46.2651 15.725 46.1501 15.9877C46.0352 16.2505 45.9777 16.546 45.9777 16.8745V24.658H42.012Z" fill="#211B21"/>
<path fill-rule="evenodd" clip-rule="evenodd" d="M62.6716 24.9043C61.2265 24.9043 59.9621 24.617 58.8783 24.0422C57.8109 23.4675 56.9817 22.6793 56.3905 21.6776C55.8158 20.6595 55.5284 19.5018 55.5284 18.2046C55.5284 17.1865 55.6926 16.2587 56.021 15.4212C56.3495 14.5673 56.8093 13.8366 57.4004 13.229C58.008 12.6214 58.7141 12.1534 59.5187 11.825C60.3398 11.4801 61.2347 11.3077 62.2036 11.3077C63.1231 11.3077 63.9606 11.4719 64.716 11.8003C65.4714 12.1288 66.1282 12.5886 66.6865 13.1797C67.2448 13.7709 67.6718 14.4688 67.9674 15.2734C68.2629 16.078 68.4025 16.9566 68.3861 17.909L68.3615 18.9928H59.3867C59.4595 19.2632 59.561 19.5177 59.6911 19.7563C60.0031 20.2982 60.4465 20.717 61.0212 21.0126C61.6124 21.3081 62.3103 21.4559 63.1149 21.4559C63.6568 21.4559 64.1495 21.3738 64.5928 21.2096C65.0362 21.0454 65.5124 20.7662 66.0215 20.3721L67.8688 22.9831C67.3598 23.41 66.8179 23.7713 66.2431 24.0669C65.6684 24.346 65.0773 24.5513 64.4697 24.6827C63.8785 24.8305 63.2791 24.9043 62.6716 24.9043ZM59.5926 16.1109C59.4988 16.3052 59.4241 16.5187 59.3686 16.7513H64.716V16.702C64.6831 16.2915 64.5518 15.9385 64.3219 15.6429C64.1084 15.3309 63.821 15.0846 63.4598 14.9039C63.1149 14.7233 62.7208 14.633 62.2775 14.633C61.6206 14.633 61.0623 14.7643 60.6025 15.0271C60.1591 15.2734 59.8225 15.6347 59.5926 16.1109Z" fill="#211B21"/>
<path d="M69.6648 6.43066V24.658H73.6305V6.43066H69.6648Z" fill="#211B21"/>
<path d="M75.9141 24.658V6.43066H79.8798V24.658H75.9141Z" fill="#211B21"/>
<path fill-rule="evenodd" clip-rule="evenodd" d="M84.4353 24.0422C85.5027 24.617 86.7096 24.9043 88.0561 24.9043C89.4191 24.9043 90.626 24.617 91.677 24.0422C92.7444 23.4511 93.5818 22.6465 94.1894 21.6283C94.797 20.5938 95.1008 19.4279 95.1008 18.1307C95.1008 16.8006 94.797 15.6265 94.1894 14.6083C93.5818 13.5738 92.7444 12.7692 91.677 12.1945C90.626 11.6033 89.4191 11.3077 88.0561 11.3077C86.7096 11.3077 85.5027 11.6033 84.4353 12.1945C83.3679 12.7692 82.5305 13.5738 81.9229 14.6083C81.3153 15.6265 81.0115 16.8006 81.0115 18.1307C81.0115 19.4279 81.3153 20.5938 81.9229 21.6283C82.5305 22.6465 83.3679 23.4511 84.4353 24.0422ZM89.6079 21.0618C89.1646 21.3574 88.6473 21.5052 88.0561 21.5052C87.4814 21.5052 86.9641 21.3574 86.5044 21.0618C86.0446 20.7662 85.6833 20.3639 85.4206 19.8549C85.1578 19.3458 85.0265 18.7711 85.0265 18.1307C85.0265 17.4574 85.1578 16.8662 85.4206 16.3572C85.6833 15.8481 86.0446 15.4458 86.5044 15.1502C86.9641 14.8547 87.4814 14.7069 88.0561 14.7069C88.6473 14.7069 89.1646 14.8547 89.6079 15.1502C90.0677 15.4294 90.429 15.8317 90.6917 16.3572C90.9545 16.8662 91.0776 17.4574 91.0612 18.1307C91.0776 18.7711 90.9545 19.3458 90.6917 19.8549C90.429 20.3639 90.0677 20.7662 89.6079 21.0618Z" fill="#211B21"/>
<path d="M96.3976 24.658V11.7265H98.5652V13.8849C98.6415 13.7619 98.7236 13.6418 98.8115 13.5246C99.1235 13.114 99.4847 12.761 99.8953 12.4654C100.322 12.1698 100.774 11.9399 101.25 11.7757C101.743 11.6115 102.243 11.5294 102.753 11.5294C103.475 11.5294 104.115 11.6526 104.674 11.8989C105.249 12.1288 105.717 12.49 106.078 12.9827C106.344 13.3455 106.556 13.7795 106.716 14.2848C106.893 13.9134 107.131 13.5697 107.433 13.2536C107.761 12.9088 108.13 12.605 108.541 12.3422C108.951 12.0795 109.387 11.8825 109.846 11.7511C110.323 11.6033 110.782 11.5294 111.226 11.5294C112.195 11.5294 112.991 11.7182 113.615 12.0959C114.255 12.4736 114.74 13.0648 115.068 13.8694C115.397 14.6576 115.561 15.6429 115.561 16.8252V24.658H113.393V16.9483C113.393 15.766 113.155 14.9039 112.679 14.362C112.219 13.8037 111.513 13.5246 110.561 13.5246C110.052 13.5246 109.584 13.6067 109.157 13.7709C108.73 13.9351 108.36 14.165 108.048 14.4606C107.736 14.7561 107.49 15.0928 107.309 15.4705C107.129 15.8481 107.038 16.2505 107.038 16.6774V24.658H104.871V16.9237C104.871 15.7907 104.633 14.945 104.157 14.3867C103.68 13.8119 102.991 13.5246 102.087 13.5246C101.578 13.5246 101.11 13.6149 100.683 13.7955C100.257 13.9597 99.8871 14.1814 99.5751 14.4606C99.2631 14.7397 99.0168 15.0681 98.8361 15.4458C98.6555 15.8071 98.5652 16.1848 98.5652 16.5789V24.658H96.3976Z" fill="#211B21"/>
<path fill-rule="evenodd" clip-rule="evenodd" d="M120.12 24.0422C121.122 24.617 122.255 24.9043 123.52 24.9043C124.784 24.9043 125.909 24.617 126.894 24.0422C127.896 23.4511 128.676 22.6547 129.234 21.653C129.809 20.6349 130.096 19.4772 130.096 18.1799C130.096 16.8827 129.809 15.7332 129.234 14.7315C128.676 13.7298 127.896 12.9416 126.894 12.3669C125.909 11.7757 124.784 11.4801 123.52 11.4801C122.255 11.4801 121.122 11.7757 120.12 12.3669C119.135 12.9416 118.355 13.7298 117.78 14.7315C117.206 15.7332 116.918 16.8827 116.918 18.1799C116.918 19.4772 117.206 20.6349 117.78 21.653C118.355 22.6547 119.135 23.4511 120.12 24.0422ZM125.786 22.318C125.129 22.7286 124.374 22.9338 123.52 22.9338C122.666 22.9338 121.902 22.7286 121.229 22.318C120.556 21.9075 120.03 21.341 119.652 20.6185C119.275 19.8959 119.094 19.0831 119.111 18.1799C119.094 17.2768 119.275 16.4721 119.652 15.766C120.03 15.0435 120.556 14.477 121.229 14.0665C121.902 13.6559 122.666 13.4507 123.52 13.4507C124.374 13.4507 125.129 13.6559 125.786 14.0665C126.459 14.477 126.984 15.0353 127.362 15.7414C127.74 16.4475 127.92 17.2603 127.904 18.1799C127.92 19.0831 127.74 19.8959 127.362 20.6185C126.984 21.341 126.459 21.9075 125.786 22.318Z" fill="#211B21"/>
<path d="M131.605 24.658V11.7265H133.772V13.8321C133.927 13.5874 134.116 13.3535 134.339 13.1305C134.815 12.6378 135.381 12.2437 136.038 11.9481C136.712 11.6361 137.401 11.4801 138.107 11.4801C139.093 11.4801 139.914 11.669 140.57 12.0467C141.244 12.4243 141.745 13.0073 142.073 13.7955C142.401 14.5673 142.566 15.5443 142.566 16.7267V24.658H140.423V16.8745C140.423 16.0698 140.308 15.413 140.078 14.9039C139.864 14.3785 139.536 14.0008 139.093 13.7709C138.649 13.541 138.099 13.4342 137.442 13.4507C136.9 13.4507 136.408 13.541 135.964 13.7216C135.521 13.8858 135.135 14.1157 134.807 14.4113C134.478 14.7069 134.224 15.0435 134.043 15.4212C133.862 15.7825 133.772 16.1601 133.772 16.5542V24.658H131.605Z" fill="#211B21"/>
<path fill-rule="evenodd" clip-rule="evenodd" d="M147.023 24.0422C147.959 24.617 149.026 24.9043 150.225 24.9043C150.833 24.9043 151.416 24.8058 151.974 24.6088C152.549 24.3953 153.058 24.1161 153.501 23.7713C153.961 23.4265 154.33 23.0488 154.61 22.6382C154.618 22.6255 154.626 22.6128 154.634 22.6V24.658H156.777V6.43066H154.634V13.6521C154.372 13.2936 154.035 12.9638 153.624 12.6625C153.148 12.3012 152.606 12.0138 151.999 11.8003C151.407 11.5869 150.792 11.4801 150.151 11.4801C148.985 11.4801 147.943 11.7757 147.023 12.3669C146.103 12.9416 145.373 13.738 144.831 14.7561C144.289 15.7578 144.018 16.9073 144.018 18.2046C144.018 19.5018 144.289 20.6513 144.831 21.653C145.373 22.6547 146.103 23.4511 147.023 24.0422ZM152.664 22.4166C152.04 22.8271 151.317 23.0323 150.496 23.0323C149.642 23.0323 148.895 22.8271 148.255 22.4166C147.614 21.9896 147.113 21.4149 146.752 20.6923C146.391 19.9534 146.21 19.1241 146.21 18.2046C146.21 17.2686 146.391 16.4393 146.752 15.7168C147.113 14.9778 147.614 14.4031 148.255 13.9926C148.895 13.5656 149.634 13.3521 150.471 13.3521C151.309 13.3521 152.04 13.5656 152.664 13.9926C153.304 14.4031 153.805 14.9778 154.166 15.7168C154.527 16.4393 154.708 17.2686 154.708 18.2046C154.708 19.1406 154.527 19.9698 154.166 20.6923C153.805 21.4149 153.304 21.9896 152.664 22.4166Z" fill="#211B21"/>
<path fill-rule="evenodd" clip-rule="evenodd" d="M166.997 24.658V22.9212C166.835 23.0985 166.663 23.2669 166.48 23.4265C165.955 23.8862 165.38 24.2475 164.756 24.5102C164.132 24.773 163.475 24.9043 162.785 24.9043C161.948 24.9043 161.201 24.7401 160.544 24.4117C159.887 24.0833 159.362 23.6317 158.968 23.057C158.59 22.4658 158.401 21.7761 158.401 20.9879C158.401 20.3311 158.524 19.7481 158.771 19.2391C159.017 18.73 159.37 18.3113 159.83 17.9829C160.306 17.638 160.897 17.3835 161.603 17.2193C162.326 17.0387 163.155 16.9483 164.091 16.9483H166.997V16.1109C166.997 15.3227 166.71 14.6905 166.135 14.2142C165.577 13.7216 164.855 13.4753 163.968 13.4753C163.196 13.4753 162.498 13.6313 161.874 13.9433C161.25 14.2553 160.692 14.7315 160.199 15.3719L158.795 13.9679C159.534 13.1305 160.347 12.5065 161.234 12.0959C162.12 11.6854 163.081 11.4801 164.116 11.4801C165.101 11.4801 165.955 11.6443 166.677 11.9728C167.4 12.3012 167.958 12.7856 168.352 13.426C168.746 14.05 168.943 14.8054 168.943 15.6921V24.658H166.997ZM166.997 18.6972V20.9037C166.778 21.2301 166.515 21.5291 166.209 21.8008C165.766 22.1785 165.257 22.4822 164.682 22.7121C164.124 22.942 163.524 23.057 162.884 23.057C162.408 23.057 161.989 22.9749 161.628 22.8107C161.267 22.63 160.979 22.3837 160.766 22.0717C160.552 21.7433 160.445 21.3738 160.445 20.9633C160.445 20.5856 160.511 20.2654 160.643 20.0027C160.79 19.7235 161.012 19.4854 161.308 19.2883C161.603 19.0749 161.956 18.9271 162.367 18.845C162.777 18.7465 163.253 18.6972 163.795 18.6972H166.997Z" fill="#211B21"/>
<path d="M175.062 25.1246L172.846 30.3233H175.186L177.354 24.7319L182.674 11.7265H180.161L176.541 21.4559L176.196 22.3919C176.192 22.4056 176.187 22.4192 176.183 22.4328C176.179 22.424 176.176 22.4152 176.172 22.4064L176.167 22.3929C176.16 22.3762 176.153 22.3594 176.147 22.3427C176.048 22.0471 175.958 21.809 175.876 21.6283L171.614 11.7265H169.102L175.062 25.1246Z" fill="#211B21"/>
<path d="M16.4208 25.9111C19.9139 25.9095 23.3857 26.4571 26.7102 27.5343C27.3327 27.7285 28.0013 27.7129 28.6141 27.49C29.227 27.2671 29.7505 26.849 30.105 26.2994C32.042 23.3482 32.9938 19.8541 32.8224 16.3231C32.4264 7.71612 25.4157 0.754227 16.9028 0.507254C7.61707 0.23284 9.91302e-06 7.77923 9.91302e-06 17.1093C-0.00353961 20.367 0.94621 23.5538 2.73112 26.2734C3.08503 26.827 3.60929 27.2493 4.22409 27.4759C4.83888 27.7025 5.51052 27.7211 6.1368 27.5288C9.45989 26.4542 12.9298 25.9084 16.4208 25.9111Z" fill="#FFBF40"/>
</svg>
