<svg width="72" height="72" viewBox="0 0 72 72" fill="#1F2C41" xmlns="http://www.w3.org/2000/svg">
<path d="M68.48 14.84L57.16 3.52C54.9117 1.26892 51.8615 0.00280083 48.68 0H23.32C20.1385 0.00280083 17.0883 1.26892 14.84 3.52L3.52 14.84C1.26892 17.0883 0.00280083 20.1385 0 23.32V60C0 63.1826 1.26428 66.2348 3.51472 68.4853C5.76516 70.7357 8.8174 72 12 72H60C63.1826 72 66.2348 70.7357 68.4853 68.4853C70.7357 66.2348 72 63.1826 72 60V23.32C71.9972 20.1385 70.7311 17.0883 68.48 14.84ZM20.48 9.16C21.2465 8.42906 22.2609 8.01473 23.32 8H48.68C49.7391 8.01473 50.7535 8.42906 51.52 9.16L58.36 16H13.64L20.48 9.16ZM60 64H12C10.9391 64 9.92172 63.5786 9.17157 62.8284C8.42143 62.0783 8 61.0609 8 60V24H64V60C64 61.0609 63.5786 62.0783 62.8284 62.8284C62.0783 63.5786 61.0609 64 60 64Z" fill="#1F2C41"/>
</svg>
