<svg width="32" height="20" viewBox="0 0 32 20" fill="none" xmlns="http://www.w3.org/2000/svg">
<path d="M28 0C26.9391 0 25.9217 0.421428 25.1716 1.17157C24.4214 1.92172 24 2.93913 24 4C24 6.12173 23.1571 8.15656 21.6569 9.65685C20.1566 11.1571 18.1217 12 16 12C13.8783 12 11.8434 11.1571 10.3431 9.65685C8.84286 8.15656 8 6.12173 8 4C8 2.93913 7.57857 1.92172 6.82843 1.17157C6.07828 0.421428 5.06087 0 4 0C2.93913 0 1.92172 0.421428 1.17157 1.17157C0.421428 1.92172 0 2.93913 0 4C0 8.24346 1.68571 12.3131 4.68629 15.3137C7.68687 18.3143 11.7565 20 16 20C20.2435 20 24.3131 18.3143 27.3137 15.3137C30.3143 12.3131 32 8.24346 32 4C32 2.93913 31.5786 1.92172 30.8284 1.17157C30.0783 0.421428 29.0609 0 28 0Z" fill="#1F2C41"/>
</svg>
