<svg width="184" height="27" viewBox="0 0 184 27" fill="none" xmlns="http://www.w3.org/2000/svg">
<path d="M39.1875 23.172L40.6067 26.0103C41.6901 26.0103 42.6057 25.8348 43.3535 25.4839C44.1012 25.1329 44.6658 24.5912 45.0473 23.8587C45.4441 23.1415 45.6425 22.2335 45.6425 21.1348V9.04888H41.9572V20.265C41.9572 21.3637 41.7512 22.119 41.3392 22.5311C40.9424 22.9583 40.2252 23.172 39.1875 23.172Z" fill="#211B21"/>
<path d="M42.2319 6.16475C42.6134 6.48521 43.1551 6.64543 43.857 6.64543C44.5285 6.64543 45.0626 6.46995 45.4593 6.11897C45.8561 5.76799 46.0545 5.31019 46.0545 4.74557C46.0545 4.13517 45.8561 3.66974 45.4593 3.34928C45.0778 3.01356 44.5437 2.8457 43.857 2.8457C43.1704 2.8457 42.6363 3.02119 42.2548 3.37217C41.8733 3.72315 41.6825 4.18095 41.6825 4.74557C41.6825 5.35597 41.8656 5.82903 42.2319 6.16475Z" fill="#211B21"/>
<path fill-rule="evenodd" clip-rule="evenodd" d="M50.1377 20.6312C51.1296 21.1653 52.2512 21.4323 53.5025 21.4323C54.7691 21.4323 55.8907 21.1653 56.8673 20.6312C57.8592 20.0818 58.6375 19.3341 59.2021 18.388C59.7667 17.4266 60.049 16.3431 60.049 15.1376C60.049 13.9016 59.7667 12.8105 59.2021 11.8643C58.6375 10.903 57.8592 10.1552 56.8673 9.62113C55.8907 9.07177 54.7691 8.79709 53.5025 8.79709C52.2512 8.79709 51.1296 9.07177 50.1377 9.62113C49.1458 10.1552 48.3675 10.903 47.8029 11.8643C47.2383 12.8105 46.956 13.9016 46.956 15.1376C46.956 16.3431 47.2383 17.4266 47.8029 18.388C48.3675 19.3341 49.1458 20.0818 50.1377 20.6312ZM54.9445 17.8615C54.5325 18.1362 54.0518 18.2735 53.5025 18.2735C52.9684 18.2735 52.4877 18.1362 52.0604 17.8615C51.6331 17.5868 51.2974 17.213 51.0533 16.7399C50.8091 16.2668 50.687 15.7327 50.687 15.1376C50.687 14.5119 50.8091 13.9626 51.0533 13.4895C51.2974 13.0165 51.6331 12.6426 52.0604 12.3679C52.4877 12.0932 52.9684 11.9559 53.5025 11.9559C54.0518 11.9559 54.5325 12.0932 54.9445 12.3679C55.3718 12.6273 55.7075 13.0012 55.9517 13.4895C56.1959 13.9626 56.3103 14.5119 56.2951 15.1376C56.3103 15.7327 56.1959 16.2668 55.9517 16.7399C55.7075 17.213 55.3718 17.5868 54.9445 17.8615Z" fill="#211B21"/>
<path fill-rule="evenodd" clip-rule="evenodd" d="M68.6018 21.4323C68.0524 21.4323 67.526 21.356 67.0224 21.2034C66.5341 21.0508 66.0839 20.8525 65.6719 20.6083C65.347 20.4037 65.0647 20.1754 64.8252 19.9234L64.7334 21.1577H61.2999V4.26488H65.0081V10.2902C65.2203 10.0624 65.4644 9.85468 65.7406 9.66691C66.1373 9.39223 66.5722 9.17859 67.0453 9.02599C67.5183 8.87339 68.0067 8.79709 68.5102 8.79709C69.5632 8.79709 70.494 9.07177 71.3028 9.62113C72.1269 10.1705 72.7754 10.9259 73.2485 11.8872C73.7215 12.8334 73.958 13.9168 73.958 15.1376C73.958 16.3584 73.7215 17.4419 73.2485 18.388C72.7907 19.3341 72.1574 20.0818 71.3486 20.6312C70.5398 21.1653 69.6242 21.4323 68.6018 21.4323ZM67.6404 18.3422C68.1898 18.3422 68.6628 18.2125 69.0596 17.9531C69.4716 17.6784 69.7921 17.3045 70.021 16.8315C70.2499 16.3431 70.3643 15.7785 70.3643 15.1376C70.3643 14.4814 70.2499 13.9168 70.021 13.4438C69.8073 12.9554 69.4945 12.5816 69.0825 12.3221C68.6705 12.0475 68.1898 11.9101 67.6404 11.9101C67.0911 11.9101 66.6104 12.0475 66.1984 12.3221C65.7863 12.5816 65.4659 12.9554 65.237 13.4438C65.0081 13.9168 64.8936 14.4814 64.8936 15.1376C64.8936 15.7785 65.0081 16.3431 65.237 16.8315C65.4659 17.3045 65.7863 17.6784 66.1984 17.9531C66.6104 18.2125 67.0911 18.3422 67.6404 18.3422Z" fill="#211B21"/>
<path fill-rule="evenodd" clip-rule="evenodd" d="M82.638 19.5894V21.2034H84.4463V12.8715C84.4463 12.0475 84.2632 11.3455 83.8969 10.7656C83.5307 10.1705 83.0119 9.72032 82.3404 9.41512C81.669 9.10992 80.8755 8.95732 79.9599 8.95732C78.9985 8.95732 78.1058 9.14807 77.2817 9.52957C76.4577 9.91107 75.7023 10.4909 75.0156 11.2692L76.3204 12.5739C76.7782 11.9788 77.297 11.5363 77.8769 11.2463C78.4568 10.9564 79.1053 10.8114 79.8225 10.8114C80.6466 10.8114 81.318 11.0403 81.8368 11.4981C82.3709 11.9406 82.638 12.5282 82.638 13.2606V14.0389H79.937C79.0672 14.0389 78.2965 14.1228 77.6251 14.2907C76.9689 14.4433 76.4196 14.6798 75.977 15.0003C75.5497 15.3055 75.2216 15.6946 74.9927 16.1677C74.7639 16.6407 74.6494 17.1824 74.6494 17.7928C74.6494 18.5253 74.8249 19.1662 75.1759 19.7156C75.5421 20.2497 76.0304 20.6693 76.6408 20.9745C77.2512 21.2797 77.9456 21.4323 78.7238 21.4323C79.3647 21.4323 79.9751 21.3103 80.555 21.0661C81.1349 20.8219 81.669 20.4862 82.1573 20.0589C82.3267 19.9107 82.4869 19.7542 82.638 19.5894ZM82.638 17.7146V15.6641H79.6623C79.1587 15.6641 78.7162 15.7099 78.3347 15.8014C77.9532 15.8777 77.6251 16.0151 77.3504 16.2134C77.0757 16.3966 76.8697 16.6178 76.7324 16.8772C76.6103 17.1214 76.5493 17.419 76.5493 17.77C76.5493 18.1515 76.6485 18.4948 76.8468 18.8C77.0452 19.0899 77.3123 19.3188 77.648 19.4867C77.9837 19.6393 78.3728 19.7156 78.8154 19.7156C79.4105 19.7156 79.9675 19.6088 80.4863 19.3951C81.0204 19.1815 81.4935 18.8992 81.9055 18.5482C82.1896 18.2957 82.4337 18.0178 82.638 17.7146Z" fill="#211B21"/>
<path d="M91.5 21.4323C90.3707 21.4323 89.3636 21.1577 88.4785 20.6083C87.5934 20.0589 86.8915 19.3188 86.3726 18.388C85.869 17.4419 85.6173 16.3737 85.6173 15.1834C85.6173 14.0084 85.869 12.9554 86.3726 12.0246C86.8915 11.0785 87.5934 10.3307 88.4785 9.78136C89.3636 9.232 90.3707 8.95732 91.5 8.95732C92.5529 8.95732 93.5067 9.17096 94.3612 9.59824C95.2158 10.0103 95.8796 10.5749 96.3526 11.2921L95.231 12.6655C94.9716 12.3145 94.6435 11.9941 94.2468 11.7041C93.8653 11.4142 93.4533 11.1929 93.0107 11.0403C92.5682 10.8724 92.1256 10.7885 91.6831 10.7885C90.8896 10.7885 90.18 10.9793 89.5543 11.3608C88.9287 11.7423 88.4327 12.2687 88.0665 12.9402C87.7155 13.5964 87.5324 14.3441 87.5171 15.1834C87.5324 16.0227 87.7231 16.7781 88.0894 17.4495C88.4709 18.1209 88.9745 18.655 89.6001 19.0518C90.2258 19.4333 90.9277 19.624 91.706 19.624C92.1485 19.624 92.5758 19.5554 92.9878 19.418C93.3998 19.2654 93.7966 19.0518 94.1781 18.7771C94.5596 18.5024 94.9106 18.1667 95.231 17.77L96.3526 19.1434C95.8491 19.8148 95.1547 20.3641 94.2697 20.7914C93.3998 21.2187 92.4766 21.4323 91.5 21.4323Z" fill="#211B21"/>
<path d="M99.539 20.6083C100.424 21.1577 101.431 21.4323 102.56 21.4323C103.537 21.4323 104.46 21.2187 105.33 20.7914C106.215 20.3641 106.91 19.8148 107.413 19.1434L106.292 17.77C105.971 18.1667 105.62 18.5024 105.239 18.7771C104.857 19.0518 104.46 19.2654 104.048 19.418C103.636 19.5554 103.209 19.624 102.766 19.624C101.988 19.624 101.286 19.4333 100.661 19.0518C100.035 18.655 99.5314 18.1209 99.1499 17.4495C98.7836 16.7781 98.5929 16.0227 98.5776 15.1834C98.5929 14.3441 98.776 13.5964 99.127 12.9402C99.4932 12.2687 99.9892 11.7423 100.615 11.3608C101.24 10.9793 101.95 10.7885 102.744 10.7885C103.186 10.7885 103.629 10.8724 104.071 11.0403C104.514 11.1929 104.926 11.4142 105.307 11.7041C105.704 11.9941 106.032 12.3145 106.292 12.6655L107.413 11.2921C106.94 10.5749 106.276 10.0103 105.422 9.59824C104.567 9.17096 103.613 8.95732 102.56 8.95732C101.431 8.95732 100.424 9.232 99.539 9.78136C98.6539 10.3307 97.952 11.0785 97.4331 12.0246C96.9295 12.9554 96.6778 14.0084 96.6778 15.1834C96.6778 16.3737 96.9295 17.4419 97.4331 18.388C97.952 19.3188 98.6539 20.0589 99.539 20.6083Z" fill="#211B21"/>
<path fill-rule="evenodd" clip-rule="evenodd" d="M113.987 21.4323C112.766 21.4323 111.683 21.1729 110.737 20.6541C109.806 20.12 109.074 19.3951 108.539 18.4795C108.005 17.5487 107.738 16.4881 107.738 15.2978C107.738 14.3517 107.883 13.4972 108.173 12.7342C108.478 11.9559 108.898 11.2845 109.432 10.7198C109.966 10.1552 110.599 9.72032 111.332 9.41512C112.08 9.10992 112.896 8.95732 113.781 8.95732C114.544 8.95732 115.261 9.10229 115.933 9.39223C116.604 9.66691 117.184 10.0637 117.672 10.5825C118.161 11.0861 118.535 11.6889 118.794 12.3908C119.054 13.0928 119.176 13.8634 119.16 14.7027L119.137 15.6412H109.748C109.802 16.3434 109.98 16.9691 110.279 17.5182C110.645 18.1743 111.164 18.6855 111.836 19.0518C112.507 19.418 113.285 19.6011 114.17 19.6011C114.811 19.6011 115.399 19.4943 115.933 19.2807C116.482 19.067 117.047 18.7008 117.627 18.182L118.634 19.6011C118.268 19.9674 117.825 20.2878 117.306 20.5625C116.803 20.8372 116.261 21.0508 115.681 21.2034C115.116 21.356 114.552 21.4323 113.987 21.4323ZM110.187 12.8257C110.019 13.1804 109.896 13.5772 109.821 14.016H117.123V13.8558C117.093 13.2606 116.917 12.7342 116.597 12.2764C116.291 11.8186 115.887 11.46 115.383 11.2005C114.895 10.9259 114.361 10.7885 113.781 10.7885C112.911 10.7885 112.171 10.964 111.561 11.315C110.966 11.666 110.508 12.1695 110.187 12.8257Z" fill="#211B21"/>
<path d="M122.688 4.26488H120.697V21.2034H122.688V4.26488Z" fill="#211B21"/>
<path fill-rule="evenodd" clip-rule="evenodd" d="M130.252 21.4323C129.031 21.4323 127.947 21.1729 127.001 20.6541C126.07 20.12 125.338 19.3951 124.804 18.4795C124.27 17.5487 124.003 16.4881 124.003 15.2978C124.003 14.3517 124.148 13.4972 124.438 12.7342C124.743 11.9559 125.162 11.2845 125.696 10.7198C126.231 10.1552 126.864 9.72032 127.596 9.41512C128.344 9.10992 129.16 8.95732 130.046 8.95732C130.809 8.95732 131.526 9.10229 132.197 9.39223C132.869 9.66691 133.449 10.0637 133.937 10.5825C134.425 11.0861 134.799 11.6889 135.058 12.3908C135.318 13.0928 135.44 13.8634 135.425 14.7027L135.402 15.6412H126.012C126.067 16.3434 126.244 16.9691 126.543 17.5182C126.91 18.1743 127.428 18.6855 128.1 19.0518C128.771 19.418 129.55 19.6011 130.435 19.6011C131.076 19.6011 131.663 19.4943 132.197 19.2807C132.747 19.067 133.311 18.7008 133.891 18.182L134.898 19.6011C134.532 19.9674 134.089 20.2878 133.571 20.5625C133.067 20.8372 132.525 21.0508 131.945 21.2034C131.381 21.356 130.816 21.4323 130.252 21.4323ZM126.452 12.8257C126.283 13.1804 126.161 13.5772 126.085 14.016H133.388V13.8558C133.357 13.2606 133.182 12.7342 132.861 12.2764C132.556 11.8186 132.151 11.46 131.648 11.2005C131.16 10.9259 130.625 10.7885 130.046 10.7885C129.176 10.7885 128.436 10.964 127.825 11.315C127.23 11.666 126.772 12.1695 126.452 12.8257Z" fill="#211B21"/>
<path d="M136.801 9.18622V21.2034H138.838V14.3593C138.838 13.9168 138.914 13.5048 139.067 13.1233C139.235 12.7265 139.464 12.3756 139.754 12.0704C140.044 11.7652 140.379 11.5286 140.761 11.3608C141.158 11.1776 141.585 11.0861 142.043 11.0861C142.241 11.0861 142.447 11.1166 142.661 11.1776C142.89 11.2234 143.103 11.2845 143.302 11.3608L143.828 9.18622C143.691 9.12518 143.5 9.07177 143.256 9.02599C143.027 8.98021 142.783 8.95732 142.523 8.95732C141.913 8.95732 141.341 9.10229 140.807 9.39223C140.273 9.66691 139.815 10.0408 139.433 10.5138C139.188 10.8181 138.987 11.1412 138.83 11.4833L138.815 9.18622H136.801Z" fill="#211B21"/>
<path fill-rule="evenodd" clip-rule="evenodd" d="M151.366 21.2034V19.5894C151.215 19.7542 151.055 19.9107 150.885 20.0589C150.397 20.4862 149.863 20.8219 149.283 21.0661C148.703 21.3103 148.093 21.4323 147.452 21.4323C146.674 21.4323 145.979 21.2797 145.369 20.9745C144.758 20.6693 144.27 20.2497 143.904 19.7156C143.553 19.1662 143.377 18.5253 143.377 17.7928C143.377 17.1824 143.492 16.6407 143.721 16.1677C143.95 15.6946 144.278 15.3055 144.705 15.0003C145.148 14.6798 145.697 14.4433 146.353 14.2907C147.024 14.1228 147.795 14.0389 148.665 14.0389H151.366V13.2606C151.366 12.5282 151.099 11.9406 150.565 11.4981C150.046 11.0403 149.375 10.8114 148.55 10.8114C147.833 10.8114 147.185 10.9564 146.605 11.2463C146.025 11.5363 145.506 11.9788 145.048 12.5739L143.744 11.2692C144.43 10.4909 145.186 9.91107 146.01 9.52957C146.834 9.14807 147.726 8.95732 148.688 8.95732C149.603 8.95732 150.397 9.10992 151.068 9.41512C151.74 9.72032 152.259 10.1705 152.625 10.7656C152.991 11.3455 153.174 12.0475 153.174 12.8715V21.2034H151.366ZM151.366 15.6641V17.7146C151.162 18.0178 150.918 18.2957 150.633 18.5482C150.221 18.8992 149.748 19.1815 149.214 19.3951C148.695 19.6088 148.138 19.7156 147.543 19.7156C147.101 19.7156 146.712 19.6393 146.376 19.4867C146.04 19.3188 145.773 19.0899 145.575 18.8C145.376 18.4948 145.277 18.1515 145.277 17.77C145.277 17.419 145.338 17.1214 145.46 16.8772C145.598 16.6178 145.804 16.3966 146.078 16.2134C146.353 16.0151 146.681 15.8777 147.063 15.8014C147.444 15.7099 147.887 15.6641 148.39 15.6641H151.366Z" fill="#211B21"/>
<path d="M156.68 11.1319H154.025V9.18622H156.68V6.11897H158.671V9.18622H161.601V11.1319H158.671V21.2034H156.68V11.1319Z" fill="#211B21"/>
<path fill-rule="evenodd" clip-rule="evenodd" d="M167.852 21.4323C166.677 21.4323 165.624 21.1653 164.693 20.6312C163.778 20.0818 163.053 19.3417 162.519 18.4109C161.984 17.4648 161.717 16.3889 161.717 15.1834C161.717 13.9779 161.984 12.9097 162.519 11.9788C163.053 11.0479 163.778 10.3155 164.693 9.78136C165.624 9.232 166.677 8.95732 167.852 8.95732C169.027 8.95732 170.072 9.232 170.988 9.78136C171.919 10.3155 172.644 11.0479 173.162 11.9788C173.696 12.9097 173.964 13.9779 173.964 15.1834C173.964 16.3889 173.696 17.4648 173.162 18.4109C172.644 19.3417 171.919 20.0818 170.988 20.6312C170.072 21.1653 169.027 21.4323 167.852 21.4323ZM167.852 19.6011C168.645 19.6011 169.347 19.4104 169.958 19.0289C170.583 18.6474 171.072 18.1209 171.423 17.4495C171.774 16.7781 171.942 16.0227 171.926 15.1834C171.942 14.3288 171.774 13.5735 171.423 12.9173C171.072 12.2611 170.583 11.7423 169.958 11.3608C169.347 10.9793 168.645 10.7885 167.852 10.7885C167.058 10.7885 166.349 10.9793 165.723 11.3608C165.097 11.7423 164.609 12.2687 164.258 12.9402C163.907 13.5964 163.739 14.3441 163.755 15.1834C163.739 16.0227 163.907 16.7781 164.258 17.4495C164.609 18.1209 165.097 18.6474 165.723 19.0289C166.349 19.4104 167.058 19.6011 167.852 19.6011Z" fill="#211B21"/>
<path d="M175.365 9.18622V21.2034H177.402V14.3593C177.402 13.9168 177.479 13.5048 177.631 13.1233C177.799 12.7265 178.028 12.3756 178.318 12.0704C178.608 11.7652 178.944 11.5286 179.325 11.3608C179.722 11.1776 180.149 11.0861 180.607 11.0861C180.805 11.0861 181.011 11.1166 181.225 11.1776C181.454 11.2234 181.668 11.2845 181.866 11.3608L182.392 9.18622C182.255 9.12518 182.064 9.07177 181.82 9.02599C181.591 8.98021 181.347 8.95732 181.088 8.95732C180.477 8.95732 179.905 9.10229 179.371 9.39223C178.837 9.66691 178.379 10.0408 177.998 10.5138C177.752 10.8181 177.551 11.1412 177.394 11.4833L177.379 9.18622H175.365Z" fill="#211B21"/>
<path d="M33.9734 5.14636C35.0854 3.12123 33.4759 0.641223 31.2736 0.987143L2.26681 5.54676C-0.832291 6.03432 -0.721901 10.7628 2.4031 11.091L15.316 12.4461C19.9252 12.9309 22.8566 17.8569 21.2499 22.4192C20.6475 24.1271 22.937 25.2547 23.8038 23.6763L33.9734 5.14636Z" fill="#01A4A4"/>
</svg>
