<svg width="90" height="102" viewBox="0 0 90 102" fill="none" xmlns="http://www.w3.org/2000/svg">
<mask id="mask0" mask-type="alpha" maskUnits="userSpaceOnUse" x="0" y="0" width="90" height="102">
<path d="M82.7206 101.912H7.27941C3.2591 101.912 0 98.6527 0 94.6324V7.27941C0 3.25911 3.2591 0 7.27941 0H56.25L90 33.75V94.6324C90 98.6527 86.7409 101.912 82.7206 101.912Z" fill="url(#paint0_linear)"/>
</mask>
<g mask="url(#mask0)">
<path d="M82.7206 101.912H7.27941C3.2591 101.912 0 98.6527 0 94.6324V7.27941C0 3.25911 3.2591 0 7.27941 0H56.25L90 33.75V94.6324C90 98.6527 86.7409 101.912 82.7206 101.912Z" fill="url(#paint1_linear)"/>
<g opacity="0.27" filter="url(#filter0_f)">
<rect x="15.8823" y="49.3008" width="58.8971" height="27.7941" fill="#0072A2" style="mix-blend-mode:darken"/>
</g>
<path d="M17.3728 71.9785C17.0417 71.9785 16.7628 71.8652 16.5363 71.6387C16.3097 71.4122 16.1965 71.1333 16.1965 70.8022V54.9354C16.1965 54.6043 16.3097 54.3255 16.5363 54.099C16.7628 53.855 17.0417 53.733 17.3728 53.733H22.6268C24.6135 53.733 26.2951 54.1774 27.6718 55.0661C29.0659 55.9374 30.1115 57.0702 30.8086 58.4643C31.5056 59.8584 31.8542 61.3222 31.8542 62.8558C31.8542 64.3893 31.5056 65.8531 30.8086 67.2472C30.1115 68.6413 29.0659 69.7828 27.6718 70.6715C26.2951 71.5429 24.6135 71.9785 22.6268 71.9785H17.3728ZM22.3393 69.7566C23.7683 69.7566 25.023 69.4691 26.1034 68.894C27.1839 68.3015 28.0203 67.4912 28.6128 66.463C29.2053 65.4174 29.5016 64.215 29.5016 62.8558C29.5016 61.4965 29.2053 60.3028 28.6128 59.2746C28.0203 58.229 27.1839 57.4187 26.1034 56.8436C25.023 56.2511 23.7683 55.9549 22.3393 55.9549H18.5752V69.7566H22.3393ZM45.7337 72.2399C43.904 72.2399 42.3007 71.8391 40.924 71.0375C39.5473 70.2359 38.4843 69.1293 37.735 67.7177C36.9856 66.3062 36.5935 64.6855 36.5587 62.8558C36.5935 61.026 36.9856 59.4053 37.735 57.9938C38.4843 56.5822 39.5473 55.4756 40.924 54.674C42.3007 53.8724 43.904 53.4716 45.7337 53.4716C47.5635 53.4716 49.158 53.8724 50.5173 54.674C51.894 55.4756 52.957 56.5909 53.7063 58.0199C54.4731 59.4315 54.8739 61.0434 54.9088 62.8558C54.8739 64.6681 54.4731 66.2888 53.7063 67.7177C52.957 69.1293 51.894 70.2359 50.5173 71.0375C49.158 71.8391 47.5635 72.2399 45.7337 72.2399ZM45.7337 70.018C47.1279 70.018 48.339 69.7044 49.3672 69.077C50.3953 68.4497 51.1795 67.5958 51.7197 66.5153C52.2599 65.4349 52.5301 64.215 52.5301 62.8558C52.5301 61.4965 52.2599 60.2766 51.7197 59.1962C51.1795 58.1158 50.3953 57.2619 49.3672 56.6345C48.339 56.0072 47.1279 55.6935 45.7337 55.6935C44.3222 55.6935 43.1023 56.0072 42.0742 56.6345C41.0634 57.2619 40.288 58.1158 39.7477 59.1962C39.2075 60.2766 38.9374 61.4965 38.9374 62.8558C38.9374 64.215 39.2075 65.4349 39.7477 66.5153C40.288 67.5958 41.0634 68.4497 42.0742 69.077C43.1023 69.7044 44.3222 70.018 45.7337 70.018ZM68.7504 72.2399C67.0077 72.2399 65.4393 71.8652 64.0452 71.1159C62.6685 70.3491 61.5794 69.26 60.7778 67.8484C59.9936 66.4195 59.6015 64.7552 59.6015 62.8558C59.6015 60.9563 59.9936 59.3008 60.7778 57.8892C61.5794 56.4602 62.6685 55.3711 64.0452 54.6217C65.4393 53.855 67.0077 53.4716 68.7504 53.4716C69.9354 53.4716 70.9897 53.611 71.9133 53.8898C72.8543 54.1687 73.7866 54.5695 74.7102 55.0923C75.0936 55.3014 75.2853 55.6325 75.2853 56.0856C75.2853 56.347 75.1894 56.5822 74.9978 56.7913C74.8061 56.983 74.5534 57.0789 74.2397 57.0789C74.0654 57.0789 73.9086 57.044 73.7692 56.9743C73.0024 56.5735 72.2531 56.2686 71.5212 56.0594C70.7893 55.8503 69.9441 55.7458 68.9856 55.7458C67.4869 55.7458 66.2061 56.0594 65.1431 56.6868C64.0975 57.2967 63.3046 58.1419 62.7644 59.2223C62.2416 60.2854 61.9802 61.4965 61.9802 62.8558C61.9802 64.215 62.2416 65.4349 62.7644 66.5153C63.3046 67.5783 64.0975 68.4235 65.1431 69.0509C66.2061 69.6608 67.4869 69.9658 68.9856 69.9658C69.9441 69.9658 70.7893 69.8612 71.5212 69.6521C72.2531 69.443 73.0024 69.138 73.7692 68.7372C73.9086 68.6675 74.0654 68.6326 74.2397 68.6326C74.5534 68.6326 74.8061 68.7285 74.9978 68.9202C75.1894 69.1119 75.2853 69.3471 75.2853 69.6259C75.2853 70.079 75.0936 70.4101 74.7102 70.6193C73.7866 71.142 72.8543 71.5429 71.9133 71.8217C70.9897 72.1005 69.9354 72.2399 68.7504 72.2399Z" fill="white"/>
<path d="M16.5363 71.6387L17.0042 71.1708L16.5363 71.6387ZM16.5363 54.099L17.0042 54.5669L17.0129 54.5582L17.0212 54.5493L16.5363 54.099ZM27.6718 55.0661L27.3128 55.6222L27.3211 55.6273L27.6718 55.0661ZM30.8086 58.4643L30.2167 58.7602L30.8086 58.4643ZM30.8086 67.2472L30.2167 66.9513L30.8086 67.2472ZM27.6718 70.6715L28.0257 71.2307L28.0275 71.2295L27.6718 70.6715ZM26.1034 68.894L26.4144 69.4782L26.4216 69.4743L26.1034 68.894ZM28.6128 66.463L29.1862 66.7935L29.1886 66.7893L28.6128 66.463ZM28.6128 59.2746L28.0371 59.6009L28.0395 59.605L28.6128 59.2746ZM26.1034 56.8436L25.7852 57.4239L25.7925 57.4278L26.1034 56.8436ZM18.5752 55.9549V55.2931H17.9134V55.9549H18.5752ZM18.5752 69.7566H17.9134V70.4184H18.5752V69.7566ZM17.3728 71.3168C17.2106 71.3168 17.1021 71.2686 17.0042 71.1708L16.0684 72.1066C16.4236 72.4619 16.8727 72.6403 17.3728 72.6403V71.3168ZM17.0042 71.1708C16.9064 71.0729 16.8582 70.9644 16.8582 70.8022H15.5347C15.5347 71.3023 15.7131 71.7514 16.0684 72.1066L17.0042 71.1708ZM16.8582 70.8022V54.9354H15.5347V70.8022H16.8582ZM16.8582 54.9354C16.8582 54.7733 16.9064 54.6648 17.0042 54.5669L16.0684 53.631C15.7131 53.9862 15.5347 54.4354 15.5347 54.9354H16.8582ZM17.0212 54.5493C17.1233 54.4393 17.2268 54.3948 17.3728 54.3948V53.0712C16.8565 53.0712 16.4023 53.2707 16.0514 53.6487L17.0212 54.5493ZM17.3728 54.3948H22.6268V53.0712H17.3728V54.3948ZM22.6268 54.3948C24.5134 54.3948 26.064 54.8158 27.3129 55.6221L28.0307 54.5101C26.5263 53.5389 24.7135 53.0712 22.6268 53.0712V54.3948ZM27.3211 55.6273C28.6178 56.4378 29.5771 57.4811 30.2167 58.7602L31.4005 58.1683C30.6459 56.6592 29.514 55.4371 28.0225 54.5049L27.3211 55.6273ZM30.2167 58.7602C30.8686 60.064 31.1924 61.4267 31.1924 62.8558H32.5159C32.5159 61.2178 32.1427 59.6528 31.4005 58.1683L30.2167 58.7602ZM31.1924 62.8558C31.1924 64.2848 30.8686 65.6475 30.2167 66.9513L31.4005 67.5432C32.1427 66.0587 32.5159 64.4938 32.5159 62.8558H31.1924ZM30.2167 66.9513C29.5765 68.2317 28.6156 69.2851 27.3161 70.1135L28.0275 71.2295C29.5163 70.2805 30.6466 69.051 31.4005 67.5432L30.2167 66.9513ZM27.3179 70.1124C26.0682 70.9033 24.5158 71.3168 22.6268 71.3168V72.6403C24.7112 72.6403 26.522 72.1824 28.0257 71.2307L27.3179 70.1124ZM22.6268 71.3168H17.3728V72.6403H22.6268V71.3168ZM22.3393 70.4184C23.8585 70.4184 25.2233 70.1121 26.4144 69.4782L25.7925 68.3099C24.8227 68.8261 23.6781 69.0949 22.3393 69.0949V70.4184ZM26.4216 69.4743C27.6041 68.8258 28.5308 67.9309 29.1862 66.7935L28.0395 66.1326C27.5099 67.0515 26.7636 67.7773 25.7852 68.3138L26.4216 69.4743ZM29.1886 66.7893C29.8445 65.6317 30.1634 64.3141 30.1634 62.8558H28.8398C28.8398 64.1159 28.5661 65.2032 28.0371 66.1368L29.1886 66.7893ZM30.1634 62.8558C30.1634 61.3976 29.8446 60.0867 29.1862 58.9442L28.0395 59.605C28.5661 60.5188 28.8398 61.5954 28.8398 62.8558H30.1634ZM29.1886 58.9484C28.5329 57.7913 27.6036 56.8924 26.4144 56.2595L25.7925 57.4278C26.7641 57.945 27.5078 58.6668 28.0371 59.6009L29.1886 58.9484ZM26.4216 56.2634C25.2291 55.6094 23.8616 55.2931 22.3393 55.2931V56.6166C23.6749 56.6166 24.8169 56.8928 25.7852 57.4239L26.4216 56.2634ZM22.3393 55.2931H18.5752V56.6166H22.3393V55.2931ZM17.9134 55.9549V69.7566H19.237V55.9549H17.9134ZM18.5752 70.4184H22.3393V69.0949H18.5752V70.4184ZM40.924 71.0375L41.257 70.4656L40.924 71.0375ZM37.735 67.7177L37.1505 68.028L37.735 67.7177ZM36.5587 62.8558L35.8971 62.8432L35.8968 62.8558L35.8971 62.8684L36.5587 62.8558ZM37.735 57.9938L38.3195 58.3041L37.735 57.9938ZM40.924 54.674L40.591 54.1021L40.924 54.674ZM50.5173 54.674L50.1811 55.2441L50.1843 55.2459L50.5173 54.674ZM53.7063 58.0199L53.1202 58.3273L53.1248 58.3358L53.7063 58.0199ZM54.9088 62.8558L55.5704 62.8685L55.5707 62.8558L55.5704 62.843L54.9088 62.8558ZM53.7063 67.7177L53.1232 67.4048L53.1218 67.4074L53.7063 67.7177ZM50.5173 71.0375L50.1843 70.4656L50.1811 70.4675L50.5173 71.0375ZM49.3672 69.077L49.0225 68.5121H49.0225L49.3672 69.077ZM51.7197 66.5153L52.3116 66.8113L51.7197 66.5153ZM51.7197 59.1962L52.3116 58.9002V58.9002L51.7197 59.1962ZM49.3672 56.6345L49.0225 57.1994H49.0225L49.3672 56.6345ZM42.0742 56.6345L41.7295 56.0696L41.7252 56.0722L42.0742 56.6345ZM39.7477 59.1962L39.1558 58.9002L39.7477 59.1962ZM39.7477 66.5153L39.1558 66.8113L39.7477 66.5153ZM42.0742 69.077L41.7252 69.6393L41.7295 69.6419L42.0742 69.077ZM45.7337 71.5781C44.0033 71.5781 42.5184 71.2001 41.257 70.4656L40.591 71.6094C42.0831 72.4781 43.8046 72.9017 45.7337 72.9017V71.5781ZM41.257 70.4656C39.9873 69.7263 39.0112 68.7104 38.3195 67.4074L37.1505 68.028C37.9574 69.5481 39.1074 70.7455 40.591 71.6094L41.257 70.4656ZM38.3195 67.4074C37.6255 66.1002 37.2535 64.5842 37.2203 62.8432L35.8971 62.8684C35.9336 64.7869 36.3458 66.5122 37.1505 68.028L38.3195 67.4074ZM37.2203 62.8684C37.2535 61.1273 37.6255 59.6113 38.3195 58.3041L37.1505 57.6835C36.3458 59.1993 35.9336 60.9246 35.8971 62.8432L37.2203 62.8684ZM38.3195 58.3041C39.0112 57.0011 39.9873 55.9853 41.257 55.2459L40.591 54.1021C39.1074 54.966 37.9574 56.1634 37.1505 57.6835L38.3195 58.3041ZM41.257 55.2459C42.5184 54.5114 44.0033 54.1334 45.7337 54.1334V52.8098C43.8046 52.8098 42.0831 53.2334 40.591 54.1021L41.257 55.2459ZM45.7337 54.1334C47.4644 54.1334 48.939 54.5115 50.1811 55.244L50.8535 54.104C49.3771 53.2333 47.6626 52.8098 45.7337 52.8098V54.1334ZM50.1843 55.2459C51.452 55.9841 52.428 57.007 53.1203 58.3272L54.2924 57.7126C53.4861 56.1749 52.336 54.9672 50.8503 54.1021L50.1843 55.2459ZM53.1248 58.3358C53.8348 59.6428 54.2141 61.1484 54.2471 62.8685L55.5704 62.843C55.5338 60.9384 55.1114 59.2201 54.2879 57.704L53.1248 58.3358ZM54.2471 62.843C54.2141 64.563 53.8348 66.0787 53.1232 67.4048L54.2895 68.0306C55.1114 66.4988 55.5338 64.7732 55.5704 62.8685L54.2471 62.843ZM53.1218 67.4074C52.4301 68.7104 51.4541 69.7263 50.1843 70.4656L50.8503 71.6094C52.3339 70.7455 53.4839 69.5481 54.2909 68.028L53.1218 67.4074ZM50.1811 70.4675C48.939 71.2 47.4644 71.5781 45.7337 71.5781V72.9017C47.6626 72.9017 49.3771 72.4782 50.8535 71.6075L50.1811 70.4675ZM45.7337 70.6798C47.23 70.6798 48.5644 70.342 49.7118 69.6419L49.0225 68.5121C48.1136 69.0667 47.0257 69.3563 45.7337 69.3563V70.6798ZM49.7118 69.6419C50.8463 68.9497 51.716 68.0024 52.3116 66.8113L51.1278 66.2194C50.643 67.1891 49.9443 67.9496 49.0225 68.5121L49.7118 69.6419ZM52.3116 66.8113C52.9033 65.628 53.1918 64.3048 53.1918 62.8558H51.8683C51.8683 64.1253 51.6166 65.2418 51.1278 66.2194L52.3116 66.8113ZM53.1918 62.8558C53.1918 61.4067 52.9033 60.0835 52.3116 58.9002L51.1278 59.4921C51.6166 60.4698 51.8683 61.5862 51.8683 62.8558H53.1918ZM52.3116 58.9002C51.716 57.7091 50.8463 56.7618 49.7118 56.0696L49.0225 57.1994C49.9443 57.7619 50.643 58.5224 51.1278 59.4921L52.3116 58.9002ZM49.7118 56.0696C48.5644 55.3695 47.23 55.0317 45.7337 55.0317V56.3552C47.0257 56.3552 48.1136 56.6448 49.0225 57.1994L49.7118 56.0696ZM45.7337 55.0317C44.2218 55.0317 42.8782 55.3687 41.7295 56.0696L42.4189 57.1994C43.3265 56.6456 44.4226 56.3552 45.7337 56.3552V55.0317ZM41.7252 56.0722C40.6087 56.7652 39.7499 57.7121 39.1558 58.9002L40.3396 59.4921C40.826 58.5195 41.5182 57.7585 42.4232 57.1968L41.7252 56.0722ZM39.1558 58.9002C38.5642 60.0835 38.2756 61.4067 38.2756 62.8558H39.5992C39.5992 61.5862 39.8508 60.4698 40.3396 59.4921L39.1558 58.9002ZM38.2756 62.8558C38.2756 64.3048 38.5642 65.628 39.1558 66.8113L40.3396 66.2194C39.8508 65.2418 39.5992 64.1253 39.5992 62.8558H38.2756ZM39.1558 66.8113C39.7499 67.9995 40.6087 68.9463 41.7252 69.6393L42.4232 68.5147C41.5182 67.953 40.826 67.1921 40.3396 66.2194L39.1558 66.8113ZM41.7295 69.6419C42.8782 70.3428 44.2218 70.6798 45.7337 70.6798V69.3563C44.4226 69.3563 43.3265 69.0659 42.4189 68.5121L41.7295 69.6419ZM64.0452 71.1159L63.7232 71.6941L63.7319 71.6988L64.0452 71.1159ZM60.7778 67.8484L60.1975 68.1668L60.2023 68.1752L60.7778 67.8484ZM60.7778 57.8892L60.2006 57.5654L60.1993 57.5678L60.7778 57.8892ZM64.0452 54.6217L64.3616 55.203L64.3641 55.2016L64.0452 54.6217ZM71.9133 53.8898L71.722 54.5234L71.7253 54.5243L71.9133 53.8898ZM74.7102 55.0923L74.3842 55.6682L74.3933 55.6732L74.7102 55.0923ZM74.9978 56.7913L75.4657 57.2593L75.4759 57.2491L75.4856 57.2385L74.9978 56.7913ZM73.7692 56.9743L73.4626 57.5609L73.4732 57.5662L73.7692 56.9743ZM71.5212 56.0594L71.703 55.4231L71.5212 56.0594ZM65.1431 56.6868L65.4765 57.2584L65.4794 57.2567L65.1431 56.6868ZM62.7644 59.2223L62.1725 58.9264L62.1705 58.9303L62.7644 59.2223ZM62.7644 66.5153L62.1686 66.8036L62.1744 66.8151L62.7644 66.5153ZM65.1431 69.0509L64.8025 69.6184L64.8137 69.6249L65.1431 69.0509ZM71.5212 69.6521L71.703 70.2884L71.5212 69.6521ZM73.7692 68.7372L73.4732 68.1452L73.4626 68.1507L73.7692 68.7372ZM74.9978 68.9202L75.4657 68.4522V68.4522L74.9978 68.9202ZM74.7102 70.6193L74.3933 70.0382L74.3842 70.0433L74.7102 70.6193ZM71.9133 71.8217L71.7253 71.1872L71.722 71.1882L71.9133 71.8217ZM68.7504 71.5781C67.1058 71.5781 65.6469 71.2255 64.3585 70.533L63.7319 71.6988C65.2318 72.505 66.9096 72.9017 68.7504 72.9017V71.5781ZM64.3672 70.5378C63.0997 69.8318 62.0968 68.8311 61.3532 67.5216L60.2023 68.1752C61.0619 69.6889 62.2373 70.8665 63.7232 71.694L64.3672 70.5378ZM61.3579 67.5301C60.6355 66.2137 60.2632 64.6624 60.2632 62.8558H58.9397C58.9397 64.848 59.3516 66.6252 60.1976 68.1668L61.3579 67.5301ZM60.2632 62.8558C60.2632 61.0488 60.6356 59.5078 61.3562 58.2106L60.1993 57.5678C59.3515 59.0937 58.9397 60.8637 58.9397 62.8558H60.2632ZM61.3549 58.213C62.0985 56.8875 63.0994 55.89 64.3616 55.203L63.7288 54.0405C62.2376 54.8522 61.0603 56.033 60.2006 57.5654L61.3549 58.213ZM64.3641 55.2016C65.6514 54.4936 67.1083 54.1334 68.7504 54.1334V52.8098C66.9071 52.8098 65.2272 53.2164 63.7263 54.0419L64.3641 55.2016ZM68.7504 54.1334C69.8848 54.1334 70.8727 54.267 71.722 54.5234L72.1045 53.2563C71.1066 52.9551 69.986 52.8098 68.7504 52.8098V54.1334ZM71.7253 54.5243C72.6145 54.7878 73.5007 55.1681 74.3842 55.6682L75.0362 54.5164C74.0725 53.9709 73.0941 53.5495 72.1013 53.2553L71.7253 54.5243ZM74.3933 55.6732C74.4939 55.7281 74.542 55.7827 74.5688 55.829C74.5964 55.8766 74.6235 55.9539 74.6235 56.0856H75.9471C75.9471 55.7642 75.8783 55.4493 75.7142 55.1659C75.5494 54.8811 75.3099 54.6656 75.0271 54.5113L74.3933 55.6732ZM74.6235 56.0856C74.6235 56.1667 74.6001 56.2458 74.5099 56.3442L75.4856 57.2385C75.7788 56.9187 75.9471 56.5273 75.9471 56.0856H74.6235ZM74.5298 56.3234C74.4818 56.3714 74.4077 56.4171 74.2397 56.4171V57.7406C74.699 57.7406 75.1303 57.5947 75.4657 57.2593L74.5298 56.3234ZM74.2397 56.4171C74.1559 56.4171 74.1023 56.401 74.0651 56.3824L73.4732 57.5662C73.7149 57.6871 73.975 57.7406 74.2397 57.7406V56.4171ZM74.0758 56.3879C73.2745 55.969 72.4834 55.6461 71.703 55.4231L71.3394 56.6957C72.0227 56.891 72.7304 57.178 73.4626 57.5608L74.0758 56.3879ZM71.703 55.4231C70.899 55.1934 69.9904 55.084 68.9856 55.084V56.4075C69.8977 56.4075 70.6796 56.5072 71.3394 56.6957L71.703 55.4231ZM68.9856 55.084C67.394 55.084 65.9914 55.4177 64.8067 56.1169L65.4794 57.2567C66.4208 56.7012 67.5799 56.4075 68.9856 56.4075V55.084ZM64.8096 56.1152C63.6532 56.7898 62.7703 57.7306 62.1725 58.9264L63.3563 59.5183C63.8388 58.5532 64.5418 57.8037 65.4765 57.2584L64.8096 56.1152ZM62.1705 58.9303C61.5969 60.0967 61.3184 61.4102 61.3184 62.8558H62.6419C62.6419 61.5828 62.8863 60.474 63.3582 59.5144L62.1705 58.9303ZM61.3184 62.8558C61.3184 64.3016 61.597 65.622 62.1687 66.8036L63.3601 66.2271C62.8862 65.2477 62.6419 64.1285 62.6419 62.8558H61.3184ZM62.1744 66.8151C62.7723 67.9916 63.6529 68.9285 64.8026 69.6183L65.4836 68.4834C64.5421 67.9185 63.8369 67.165 63.3543 66.2155L62.1744 66.8151ZM64.8137 69.6249C65.9971 70.3038 67.397 70.6275 68.9856 70.6275V69.304C67.5769 69.304 66.4151 69.0178 65.4724 68.4769L64.8137 69.6249ZM68.9856 70.6275C69.9904 70.6275 70.899 70.5181 71.703 70.2884L71.3394 69.0158C70.6796 69.2043 69.8977 69.304 68.9856 69.304V70.6275ZM71.703 70.2884C72.4834 70.0654 73.2745 69.7425 74.0758 69.3237L73.4626 68.1507C72.7304 68.5335 72.0227 68.8205 71.3394 69.0158L71.703 70.2884ZM74.0651 69.3291C74.1023 69.3105 74.1559 69.2944 74.2397 69.2944V67.9709C73.975 67.9709 73.7149 68.0245 73.4732 68.1453L74.0651 69.3291ZM74.2397 69.2944C74.4077 69.2944 74.4818 69.3401 74.5298 69.3881L75.4657 68.4522C75.1303 68.1168 74.699 67.9709 74.2397 67.9709V69.2944ZM74.5298 69.3881C74.5935 69.4518 74.6235 69.517 74.6235 69.6259H75.9471C75.9471 69.1772 75.7854 68.7719 75.4657 68.4522L74.5298 69.3881ZM74.6235 69.6259C74.6235 69.7576 74.5964 69.8349 74.5688 69.8825C74.542 69.9289 74.4939 69.9834 74.3933 70.0383L75.0271 71.2002C75.3099 71.0459 75.5494 70.8304 75.7142 70.5457C75.8783 70.2622 75.9471 69.9473 75.9471 69.6259H74.6235ZM74.3842 70.0433C73.5007 70.5434 72.6145 70.9237 71.7253 71.1872L72.1013 72.4562C73.0941 72.162 74.0725 71.7407 75.0362 71.1952L74.3842 70.0433ZM71.722 71.1882C70.8727 71.4446 69.8848 71.5781 68.7504 71.5781V72.9017C69.986 72.9017 71.1066 72.7565 72.1045 72.4552L71.722 71.1882Z" fill="white"/>
<mask id="mask1" mask-type="alpha" maskUnits="userSpaceOnUse" x="0" y="0" width="90" height="102">
<path d="M82.7206 101.912H7.27941C3.25911 101.912 0 98.6527 0 94.6324V7.27941C0 3.25911 3.2591 0 7.27941 0H56.25L90 33.75V94.6324C90 98.6527 86.7409 101.912 82.7206 101.912Z" fill="url(#paint2_linear)"/>
</mask>
<g mask="url(#mask1)">
<ellipse opacity="0.05" cx="-4.79803" cy="-4.13511" rx="73.9522" ry="70.9743" fill="url(#paint3_linear)"/>
<ellipse opacity="0.07" cx="-4.79789" cy="-4.13695" rx="46.489" ry="44.5037" fill="url(#paint4_linear)"/>
</g>
<g filter="url(#filter1_d)">
<path d="M90.0002 33.75H63.5297C59.5093 33.75 56.2502 30.4909 56.2502 26.4706V0L90.0002 33.75Z" fill="url(#paint5_linear)"/>
</g>
<g opacity="0.11">
<line x1="24.1545" y1="43.3448" x2="65.8457" y2="43.3448" stroke="white" stroke-width="3.97059"/>
<line x1="24.1543" y1="53.2725" x2="65.8455" y2="53.2725" stroke="white" stroke-width="3.97059"/>
<path d="M24.1543 63.1973H65.8455" stroke="white" stroke-width="3.97059"/>
<line x1="24.1543" y1="73.1241" x2="65.8455" y2="73.1241" stroke="white" stroke-width="3.97059"/>
<line x1="24.1543" y1="83.0499" x2="65.8455" y2="83.0499" stroke="white" stroke-width="3.97059"/>
</g>
</g>
<defs>
<filter id="filter0_f" x="2.97791" y="36.3964" width="84.7059" height="53.6029" filterUnits="userSpaceOnUse" color-interpolation-filters="sRGB">
<feFlood flood-opacity="0" result="BackgroundImageFix"/>
<feBlend mode="normal" in="SourceGraphic" in2="BackgroundImageFix" result="shape"/>
<feGaussianBlur stdDeviation="6.45221" result="effect1_foregroundBlur"/>
</filter>
<filter id="filter1_d" x="48.6399" y="-7.94118" width="50.2941" height="50.2941" filterUnits="userSpaceOnUse" color-interpolation-filters="sRGB">
<feFlood flood-opacity="0" result="BackgroundImageFix"/>
<feColorMatrix in="SourceAlpha" type="matrix" values="0 0 0 0 0 0 0 0 0 0 0 0 0 0 0 0 0 0 127 0" result="hardAlpha"/>
<feOffset dx="0.661765" dy="0.330882"/>
<feGaussianBlur stdDeviation="4.13603"/>
<feColorMatrix type="matrix" values="0 0 0 0 0 0 0 0 0 0 0 0 0 0 0 0 0 0 0.33 0"/>
<feBlend mode="normal" in2="BackgroundImageFix" result="effect1_dropShadow"/>
<feBlend mode="normal" in="SourceGraphic" in2="effect1_dropShadow" result="shape"/>
</filter>
<linearGradient id="paint0_linear" x1="45" y1="0" x2="45" y2="101.912" gradientUnits="userSpaceOnUse">
<stop stop-color="#FF7979"/>
<stop offset="1" stop-color="#E85555"/>
</linearGradient>
<linearGradient id="paint1_linear" x1="45" y1="0" x2="45" y2="101.912" gradientUnits="userSpaceOnUse">
<stop stop-color="#6ABDF8"/>
<stop offset="1" stop-color="#008BD6"/>
</linearGradient>
<linearGradient id="paint2_linear" x1="45" y1="0" x2="45" y2="101.912" gradientUnits="userSpaceOnUse">
<stop stop-color="#6ABDF8"/>
<stop offset="1" stop-color="#008BD6"/>
</linearGradient>
<linearGradient id="paint3_linear" x1="0.571431" y1="-1.69613" x2="22.9984" y2="57.8252" gradientUnits="userSpaceOnUse">
<stop stop-color="white" stop-opacity="0"/>
<stop offset="1" stop-color="white"/>
</linearGradient>
<linearGradient id="paint4_linear" x1="-1.42246" y1="-2.60762" x2="12.6133" y2="34.7381" gradientUnits="userSpaceOnUse">
<stop stop-color="white" stop-opacity="0"/>
<stop offset="1" stop-color="white"/>
</linearGradient>
<linearGradient id="paint5_linear" x1="73.1252" y1="0" x2="73.1252" y2="33.75" gradientUnits="userSpaceOnUse">
<stop stop-color="#009FE3"/>
<stop offset="1" stop-color="#0087C1"/>
</linearGradient>
</defs>
</svg>
