<svg width="94" height="105" viewBox="0 0 94 105" fill="none" xmlns="http://www.w3.org/2000/svg">
<g filter="url(#filter0_d)">
<mask id="mask0" mask-type="alpha" maskUnits="userSpaceOnUse" x="2" y="0" width="90" height="102">
<path d="M84.7206 101.955H9.27941C5.2591 101.955 2 98.6956 2 94.6753V7.32238C2 3.30208 5.2591 0.0429688 9.27941 0.0429688H58.25L92 33.793V94.6753C92 98.6956 88.7409 101.955 84.7206 101.955Z" fill="url(#paint0_linear)"/>
</mask>
<g mask="url(#mask0)">
<path d="M84.7206 101.957H9.27941C5.2591 101.957 2 98.6976 2 94.6773V7.32434C2 3.30403 5.2591 0.0449219 9.27941 0.0449219H58.25L92 33.7949V94.6773C92 98.6976 88.7409 101.957 84.7206 101.957Z" fill="url(#paint1_linear)"/>
<g opacity="0.11">
<path fill-rule="evenodd" clip-rule="evenodd" d="M32.9853 36.4043V51.5807L13.0662 51.5807L13.0662 55.3748L32.9853 55.3748V66.7572L13.0662 66.7572L13.0662 70.5513H32.9853V85.4117H36.7794V70.5513L52.9044 70.5513V85.4117H56.6985V70.5513H76.3015V66.7572L56.6985 66.7572V55.3748L76.3015 55.3748V51.5807L56.6985 51.5807V36.4043L52.9044 36.4043V51.5807L36.7794 51.5807V36.4043L32.9853 36.4043ZM52.9044 66.7572V55.3748L36.7794 55.3748V66.7572L52.9044 66.7572Z" fill="white"/>
<mask id="path-4-inside-1" fill="white">
<rect x="13.0662" y="36.4043" width="63.5515" height="49.3235" rx="2.52941"/>
</mask>
<rect x="13.0662" y="36.4043" width="63.5515" height="49.3235" rx="2.52941" stroke="white" stroke-width="7.58824" mask="url(#path-4-inside-1)"/>
</g>
<g opacity="0.82" filter="url(#filter1_f)">
<rect x="17.8823" y="49.3457" width="58.8971" height="27.7941" fill="#0F7D56" fill-opacity="0.27" style="mix-blend-mode:darken"/>
</g>
<path d="M23.0085 71.1483C22.7254 71.1483 22.4756 71.0484 22.2591 70.8486C22.0593 70.6321 21.9594 70.3823 21.9594 70.0993C21.9594 69.8328 22.0343 69.5997 22.1842 69.3999L27.9541 62.3061L22.2341 55.2624C22.0843 55.0625 22.0093 54.8294 22.0093 54.563C22.0093 54.2466 22.1092 53.9885 22.3091 53.7887C22.5255 53.5722 22.792 53.4639 23.1084 53.4639C23.2915 53.4639 23.4664 53.5056 23.6329 53.5888C23.7994 53.6721 23.9326 53.7803 24.0326 53.9135L29.3029 60.6076L34.5732 53.8636C34.7564 53.5972 35.0312 53.4639 35.3975 53.4639C35.6972 53.4639 35.9554 53.5722 36.1718 53.7887C36.3883 53.9885 36.4965 54.2383 36.4965 54.538C36.4965 54.7711 36.4299 54.9793 36.2967 55.1624L30.5268 62.2812L36.2967 69.3749C36.4466 69.5414 36.5215 69.7579 36.5215 70.0243C36.5215 70.3407 36.4133 70.6071 36.1968 70.8236C35.997 71.0401 35.7306 71.1483 35.3975 71.1483C35.0312 71.1483 34.7314 70.9901 34.4983 70.6737L29.153 63.9547L23.8827 70.6987C23.6329 70.9985 23.3415 71.1483 23.0085 71.1483ZM43.3629 71.0234C42.93 71.0234 42.5553 70.8736 42.2389 70.5738C41.9392 70.2574 41.7893 69.8828 41.7893 69.4498V54.6129C41.7893 54.2965 41.8976 54.0301 42.114 53.8136C42.3305 53.5805 42.5969 53.4639 42.9133 53.4639C43.2297 53.4639 43.4962 53.5805 43.7126 53.8136C43.9458 54.0301 44.0623 54.2965 44.0623 54.6129V68.7504H52.2301C52.5465 68.7504 52.8129 68.867 53.0294 69.1001C53.2625 69.3166 53.3791 69.583 53.3791 69.8994C53.3791 70.2158 53.2625 70.4822 53.0294 70.6987C52.8129 70.9152 52.5465 71.0234 52.2301 71.0234H43.3629ZM63.4245 71.2732C61.3097 71.2732 59.3281 70.8736 57.4798 70.0743C57.2799 69.991 57.1134 69.8578 56.9802 69.6746C56.847 69.4748 56.7804 69.2667 56.7804 69.0502C56.7804 68.7671 56.872 68.5256 57.0551 68.3258C57.255 68.1093 57.5047 68.0011 57.8045 68.0011C57.971 68.0011 58.1292 68.0344 58.2791 68.101C59.811 68.7837 61.4513 69.1251 63.1997 69.1251C66.1138 69.1251 67.5709 68.1676 67.5709 66.2527C67.5709 65.7531 67.3794 65.3368 66.9964 65.0038C66.63 64.6707 66.1721 64.4126 65.6226 64.2294C65.0731 64.0296 64.2904 63.7965 63.2747 63.5301C61.9258 63.1804 60.8351 62.8473 60.0025 62.5309C59.1699 62.1979 58.4539 61.7067 57.8544 61.0572C57.255 60.4078 56.9552 59.5419 56.9552 58.4595C56.9552 57.5104 57.205 56.6528 57.7046 55.8868C58.2041 55.1042 58.9368 54.488 59.9026 54.0384C60.8851 53.5722 62.0591 53.3391 63.4245 53.3391C65.2562 53.3391 66.9131 53.6138 68.3951 54.1633C68.8614 54.3298 69.0945 54.6629 69.0945 55.1624C69.0945 55.4289 69.0029 55.6703 68.8198 55.8868C68.6366 56.1033 68.3951 56.2115 68.0954 56.2115C67.9955 56.2115 67.8623 56.1782 67.6957 56.1116C66.3969 55.662 65.0564 55.4372 63.6743 55.4372C62.3588 55.4372 61.2847 55.687 60.4521 56.1865C59.6362 56.6861 59.2282 57.3855 59.2282 58.2847C59.2282 58.8842 59.4197 59.3754 59.8027 59.7584C60.2024 60.1247 60.6936 60.4161 61.2764 60.6326C61.8759 60.8324 62.6835 61.0489 63.6993 61.282C65.0148 61.5984 66.0722 61.9148 66.8715 62.2312C67.6874 62.5476 68.3785 63.0388 68.9446 63.7049C69.5275 64.371 69.8189 65.2702 69.8189 66.4025C69.8189 67.335 69.5524 68.176 69.0196 68.9253C68.4867 69.658 67.7374 70.2325 66.7716 70.6488C65.8057 71.0651 64.6901 71.2732 63.4245 71.2732Z" fill="white"/>
<path d="M22.2591 70.8486L21.7945 71.2775L21.8116 71.2961L21.8302 71.3132L22.2591 70.8486ZM22.1842 69.3999L21.6936 69.0009L21.6858 69.0105L21.6783 69.0205L22.1842 69.3999ZM27.9541 62.3061L28.4447 62.7052L28.7689 62.3065L28.445 61.9075L27.9541 62.3061ZM22.2341 55.2624L21.7283 55.6418L21.7356 55.6515L21.7433 55.661L22.2341 55.2624ZM22.3091 53.7887L21.8619 53.3415L21.8619 53.3415L22.3091 53.7887ZM23.6329 53.5888L23.9157 53.0232H23.9157L23.6329 53.5888ZM24.0326 53.9135L23.5267 54.293L23.5311 54.2989L23.5357 54.3047L24.0326 53.9135ZM29.3029 60.6076L28.8061 60.9988L29.3047 61.6322L29.8012 60.997L29.3029 60.6076ZM34.5732 53.8636L35.0715 54.253L35.0834 54.2378L35.0943 54.2218L34.5732 53.8636ZM36.1718 53.7887L35.7247 54.2358L35.7336 54.2447L35.7429 54.2533L36.1718 53.7887ZM36.2967 55.1624L36.788 55.5606L36.7984 55.5478L36.8081 55.5344L36.2967 55.1624ZM30.5268 62.2812L30.0356 61.883L29.7123 62.2819L30.0362 62.6802L30.5268 62.2812ZM36.2967 69.3749L35.8062 69.7739L35.8161 69.7862L35.8267 69.7979L36.2967 69.3749ZM36.1968 70.8236L35.7497 70.3765L35.7407 70.3854L35.7322 70.3947L36.1968 70.8236ZM34.4983 70.6737L35.0074 70.2986L35.0004 70.2892L34.9932 70.2801L34.4983 70.6737ZM29.153 63.9547L29.6479 63.561L29.1486 62.9334L28.6548 63.5653L29.153 63.9547ZM23.8827 70.6987L24.3685 71.1035L24.3748 71.0959L24.3809 71.0881L23.8827 70.6987ZM23.0085 70.516C22.8913 70.516 22.7929 70.4808 22.688 70.3839L21.8302 71.3132C22.1583 71.6161 22.5594 71.7807 23.0085 71.7807V70.516ZM22.7238 70.4197C22.6269 70.3148 22.5917 70.2164 22.5917 70.0993H21.327C21.327 70.5483 21.4916 70.9495 21.7945 71.2775L22.7238 70.4197ZM22.5917 70.0993C22.5917 69.9599 22.6279 69.8621 22.6901 69.7793L21.6783 69.0205C21.4407 69.3373 21.327 69.7057 21.327 70.0993H22.5917ZM22.6747 69.7989L28.4447 62.7052L27.4635 61.9071L21.6936 69.0009L22.6747 69.7989ZM28.445 61.9075L22.725 54.8637L21.7433 55.661L27.4632 62.7048L28.445 61.9075ZM22.74 54.8829C22.6779 54.8001 22.6417 54.7023 22.6417 54.563H21.377C21.377 54.9565 21.4907 55.325 21.7283 55.6418L22.74 54.8829ZM22.6417 54.563C22.6417 54.3924 22.6896 54.3024 22.7562 54.2358L21.8619 53.3415C21.5289 53.6746 21.377 54.1008 21.377 54.563H22.6417ZM22.7562 54.2358C22.8497 54.1423 22.9534 54.0963 23.1084 54.0963V52.8316C22.6305 52.8316 22.2014 53.0021 21.8619 53.3415L22.7562 54.2358ZM23.1084 54.0963C23.1917 54.0963 23.2699 54.1143 23.3501 54.1544L23.9157 53.0232C23.6629 52.8968 23.3914 52.8316 23.1084 52.8316V54.0963ZM23.3501 54.1544C23.4393 54.199 23.4923 54.2471 23.5267 54.293L24.5384 53.5341C24.373 53.3135 24.1595 53.1452 23.9157 53.0232L23.3501 54.1544ZM23.5357 54.3047L28.8061 60.9988L29.7997 60.2165L24.5294 53.5224L23.5357 54.3047ZM29.8012 60.997L35.0715 54.253L34.075 53.4742L28.8046 60.2183L29.8012 60.997ZM35.0943 54.2218C35.1424 54.1519 35.2072 54.0963 35.3975 54.0963V52.8316C34.8552 52.8316 34.3704 53.0424 34.0522 53.5053L35.0943 54.2218ZM35.3975 54.0963C35.5256 54.0963 35.624 54.1351 35.7247 54.2358L36.619 53.3415C36.2867 53.0093 35.8689 52.8316 35.3975 52.8316V54.0963ZM35.7429 54.2533C35.8272 54.3311 35.8642 54.4113 35.8642 54.538H37.1289C37.1289 54.0653 36.9494 53.6459 36.6007 53.324L35.7429 54.2533ZM35.8642 54.538C35.8642 54.6417 35.8375 54.7188 35.7853 54.7905L36.8081 55.5344C37.0224 55.2398 37.1289 54.9006 37.1289 54.538H35.8642ZM35.8055 54.7643L30.0356 61.883L31.0181 62.6793L36.788 55.5606L35.8055 54.7643ZM30.0362 62.6802L35.8062 69.7739L36.7873 68.9759L31.0174 61.8821L30.0362 62.6802ZM35.8267 69.7979C35.8529 69.827 35.8892 69.8829 35.8892 70.0243H37.1539C37.1539 69.6329 37.0403 69.2558 36.7667 68.9519L35.8267 69.7979ZM35.8892 70.0243C35.8892 70.1793 35.8432 70.2829 35.7497 70.3765L36.6439 71.2708C36.9834 70.9313 37.1539 70.5021 37.1539 70.0243H35.8892ZM35.7322 70.3947C35.6683 70.4639 35.5795 70.516 35.3975 70.516V71.7807C35.8816 71.7807 36.3257 71.6163 36.6615 71.2525L35.7322 70.3947ZM35.3975 70.516C35.2486 70.516 35.1314 70.467 35.0074 70.2986L33.9892 71.0489C34.3314 71.5133 34.8138 71.7807 35.3975 71.7807V70.516ZM34.9932 70.2801L29.6479 63.561L28.6582 64.3484L34.0034 71.0674L34.9932 70.2801ZM28.6548 63.5653L23.3844 70.3093L24.3809 71.0881L29.6513 64.3441L28.6548 63.5653ZM23.3969 70.2939C23.2444 70.477 23.1208 70.516 23.0085 70.516V71.7807C23.5622 71.7807 24.0215 71.52 24.3685 71.1035L23.3969 70.2939ZM42.2389 70.5738L41.7799 71.0087L41.7916 71.0211L41.804 71.0329L42.2389 70.5738ZM42.114 53.8136L42.5612 54.2608L42.5695 54.2525L42.5774 54.2439L42.114 53.8136ZM43.7126 53.8136L43.2492 54.2439L43.2652 54.2611L43.2823 54.277L43.7126 53.8136ZM44.0623 68.7504H43.43V69.3828H44.0623V68.7504ZM53.0294 69.1001L52.566 69.5304L52.582 69.5476L52.5991 69.5635L53.0294 69.1001ZM53.0294 70.6987L52.5991 70.2353L52.5905 70.2433L52.5823 70.2516L53.0294 70.6987ZM43.3629 70.3911C43.093 70.3911 42.8736 70.3041 42.6738 70.1148L41.804 71.0329C42.237 71.4431 42.767 71.6558 43.3629 71.6558V70.3911ZM42.698 70.1389C42.5087 69.9391 42.4217 69.7198 42.4217 69.4498H41.157C41.157 70.0458 41.3697 70.5758 41.7799 71.0087L42.698 70.1389ZM42.4217 69.4498V54.6129H41.157V69.4498H42.4217ZM42.4217 54.6129C42.4217 54.458 42.4677 54.3543 42.5612 54.2608L41.6669 53.3665C41.3275 53.7059 41.157 54.1351 41.157 54.6129H42.4217ZM42.5774 54.2439C42.675 54.1388 42.7739 54.0963 42.9133 54.0963V52.8316C42.42 52.8316 41.986 53.0222 41.6507 53.3834L42.5774 54.2439ZM42.9133 54.0963C43.0528 54.0963 43.1517 54.1388 43.2492 54.2439L44.176 53.3834C43.8406 53.0222 43.4067 52.8316 42.9133 52.8316V54.0963ZM43.2823 54.277C43.3874 54.3746 43.43 54.4735 43.43 54.6129H44.6947C44.6947 54.1196 44.5041 53.6856 44.1429 53.3503L43.2823 54.277ZM43.43 54.6129V68.7504H44.6947V54.6129H43.43ZM44.0623 69.3828H52.2301V68.1181H44.0623V69.3828ZM52.2301 69.3828C52.3696 69.3828 52.4684 69.4253 52.566 69.5304L53.4928 68.6699C53.1574 68.3087 52.7234 68.1181 52.2301 68.1181V69.3828ZM52.5991 69.5635C52.7042 69.6611 52.7467 69.76 52.7467 69.8994H54.0114C54.0114 69.4061 53.8209 68.9721 53.4597 68.6368L52.5991 69.5635ZM52.7467 69.8994C52.7467 70.0389 52.7042 70.1378 52.5991 70.2353L53.4597 71.1621C53.8209 70.8267 54.0114 70.3928 54.0114 69.8994H52.7467ZM52.5823 70.2516C52.4887 70.3451 52.3851 70.3911 52.2301 70.3911V71.6558C52.7079 71.6558 53.1371 71.4853 53.4765 71.1459L52.5823 70.2516ZM52.2301 70.3911H43.3629V71.6558H52.2301V70.3911ZM57.4798 70.0743L57.7308 69.4938L57.723 69.4906L57.4798 70.0743ZM56.9802 69.6746L56.4541 70.0254L56.4612 70.0361L56.4688 70.0466L56.9802 69.6746ZM57.0551 68.3258L56.5905 67.8969L56.589 67.8985L57.0551 68.3258ZM58.2791 68.101L58.5365 67.5234L58.5359 67.5232L58.2791 68.101ZM66.9964 65.0038L66.5709 65.4718L66.5814 65.4809L66.9964 65.0038ZM65.6226 64.2294L65.4065 64.8237L65.4145 64.8266L65.4226 64.8293L65.6226 64.2294ZM63.2747 63.5301L63.4351 62.9184L63.4333 62.9179L63.2747 63.5301ZM60.0025 62.5309L59.7677 63.1182L59.7779 63.1221L60.0025 62.5309ZM57.8544 61.0572L57.3898 61.4862L57.8544 61.0572ZM57.7046 55.8868L58.2343 56.2323L58.2376 56.227L57.7046 55.8868ZM59.9026 54.0384L60.1695 54.6117L60.1737 54.6097L59.9026 54.0384ZM68.3951 54.1633L68.1753 54.7563L68.1824 54.7588L68.3951 54.1633ZM68.8198 55.8868L69.3025 56.2953L69.3025 56.2953L68.8198 55.8868ZM67.6957 56.1116L67.9306 55.5245L67.9167 55.5189L67.9026 55.514L67.6957 56.1116ZM60.4521 56.1865L60.1268 55.6443L60.122 55.6472L60.4521 56.1865ZM59.8027 59.7584L59.3556 60.2055L59.3653 60.2152L59.3754 60.2245L59.8027 59.7584ZM61.2764 60.6326L61.0562 61.2254L61.0663 61.2291L61.0765 61.2325L61.2764 60.6326ZM63.6993 61.282L63.8472 60.6672L63.8407 60.6657L63.6993 61.282ZM66.8715 62.2312L66.6387 62.8192L66.6429 62.8208L66.8715 62.2312ZM68.9446 63.7049L68.4628 64.1145L68.4688 64.1213L68.9446 63.7049ZM69.0196 68.9253L69.531 69.2972L69.5349 69.2918L69.0196 68.9253ZM66.7716 70.6488L67.0219 71.2295L66.7716 70.6488ZM63.4245 70.6409C61.3916 70.6409 59.4959 70.2572 57.7308 69.4939L57.2288 70.6547C59.1603 71.49 61.2278 71.9056 63.4245 71.9056V70.6409ZM57.723 69.4906C57.6354 69.4541 57.5599 69.3965 57.4916 69.3027L56.4688 70.0466C56.667 70.3191 56.9245 70.528 57.2366 70.658L57.723 69.4906ZM57.5064 69.3239C57.4345 69.2161 57.4127 69.1283 57.4127 69.0502H56.148C56.148 69.405 56.2595 69.7335 56.4541 70.0254L57.5064 69.3239ZM57.4127 69.0502C57.4127 68.9176 57.4501 68.8308 57.5213 68.7531L56.589 67.8985C56.2938 68.2205 56.148 68.6166 56.148 69.0502H57.4127ZM57.5198 68.7547C57.5976 68.6705 57.6777 68.6335 57.8045 68.6335V67.3688C57.3318 67.3688 56.9124 67.5482 56.5905 67.8969L57.5198 68.7547ZM57.8045 68.6335C57.8839 68.6335 57.9545 68.6488 58.0222 68.6789L58.5359 67.5232C58.3039 67.4201 58.0581 67.3688 57.8045 67.3688V68.6335ZM58.0217 68.6786C59.6381 69.399 61.3664 69.7575 63.1997 69.7575V68.4928C61.5361 68.4928 59.984 68.1685 58.5365 67.5234L58.0217 68.6786ZM63.1997 69.7575C64.7059 69.7575 65.9455 69.5137 66.8253 68.9355C67.7516 68.3268 68.2032 67.3983 68.2032 66.2527H66.9385C66.9385 67.022 66.6616 67.5297 66.1308 67.8785C65.5536 68.2578 64.6076 68.4928 63.1997 68.4928V69.7575ZM68.2032 66.2527C68.2032 65.5667 67.9299 64.9775 67.4113 64.5266L66.5814 65.4809C66.8288 65.6961 66.9385 65.9395 66.9385 66.2527H68.2032ZM67.4217 64.5359C66.9801 64.1344 66.4415 63.8359 65.8225 63.6295L65.4226 64.8293C65.9027 64.9894 66.2799 65.207 66.571 65.4717L67.4217 64.5359ZM65.8387 63.6352C65.2619 63.4254 64.4574 63.1865 63.4351 62.9184L63.1142 64.1417C64.1234 64.4064 64.8842 64.6338 65.4065 64.8237L65.8387 63.6352ZM63.4333 62.9179C62.0959 62.5712 61.0297 62.2448 60.2272 61.9398L59.7779 63.1221C60.6406 63.4499 61.7557 63.7895 63.116 64.1422L63.4333 62.9179ZM60.2374 61.9438C59.4909 61.6452 58.8537 61.2075 58.3191 60.6283L57.3898 61.4862C58.0541 62.2058 58.849 62.7506 59.7677 63.1181L60.2374 61.9438ZM58.3191 60.6283C57.8505 60.1206 57.5876 59.4205 57.5876 58.4595H56.3229C56.3229 59.6634 56.6595 60.695 57.3898 61.4862L58.3191 60.6283ZM57.5876 58.4595C57.5876 57.6281 57.8043 56.8914 58.2342 56.2322L57.1749 55.5414C56.6057 56.4141 56.3229 57.3926 56.3229 58.4595H57.5876ZM58.2376 56.227C58.6633 55.5601 59.2963 55.0182 60.1695 54.6117L59.6358 53.4652C58.5773 53.9579 57.745 54.6482 57.1715 55.5466L58.2376 56.227ZM60.1737 54.6097C61.0527 54.1926 62.1295 53.9714 63.4245 53.9714V52.7067C61.9886 52.7067 60.7175 52.9518 59.6315 53.4672L60.1737 54.6097ZM63.4245 53.9714C65.1929 53.9714 66.7738 54.2366 68.1753 54.7562L68.615 53.5704C67.0524 52.991 65.3195 52.7067 63.4245 52.7067V53.9714ZM68.1824 54.7588C68.3195 54.8078 68.3753 54.8631 68.4016 54.9006C68.4282 54.9386 68.4622 55.0123 68.4622 55.1624H69.7269C69.7269 54.813 69.6442 54.4704 69.4377 54.1754C69.2309 53.8799 68.937 53.6854 68.6078 53.5678L68.1824 54.7588ZM68.4622 55.1624C68.4622 55.2692 68.4303 55.3681 68.337 55.4783L69.3025 56.2953C69.5755 55.9726 69.7269 55.5885 69.7269 55.1624H68.4622ZM68.337 55.4783C68.2816 55.5438 68.2212 55.5792 68.0954 55.5792V56.8439C68.569 56.8439 68.9916 56.6627 69.3025 56.2953L68.337 55.4783ZM68.0954 55.5792C68.1123 55.5792 68.1076 55.5815 68.0739 55.5731C68.0419 55.5651 67.9949 55.5502 67.9306 55.5245L67.4609 56.6987C67.6523 56.7753 67.8747 56.8439 68.0954 56.8439V55.5792ZM67.9026 55.514C66.5368 55.0413 65.1264 54.8048 63.6743 54.8048V56.0696C64.9864 56.0696 66.257 56.2827 67.4889 56.7092L67.9026 55.514ZM63.6743 54.8048C62.2834 54.8048 61.0866 55.0684 60.1268 55.6443L60.7775 56.7288C61.4829 56.3055 62.4342 56.0696 63.6743 56.0696V54.8048ZM60.122 55.6472C59.1328 56.2528 58.5959 57.1489 58.5959 58.2847H59.8606C59.8606 57.6221 60.1396 57.1194 60.7823 56.7258L60.122 55.6472ZM58.5959 58.2847C58.5959 59.0322 58.8408 59.6907 59.3556 60.2055L60.2499 59.3112C59.9987 59.06 59.8606 58.7361 59.8606 58.2847H58.5959ZM59.3754 60.2245C59.8435 60.6536 60.408 60.9846 61.0562 61.2254L61.4966 60.0398C60.9792 59.8477 60.5613 59.5959 60.23 59.2922L59.3754 60.2245ZM61.0765 61.2325C61.7034 61.4415 62.5332 61.6632 63.5578 61.8984L63.8407 60.6657C62.8338 60.4346 62.0483 60.2234 61.4764 60.0327L61.0765 61.2325ZM63.5514 61.8969C64.8524 62.2098 65.8781 62.5181 66.6387 62.8192L67.1042 61.6432C66.2663 61.3116 65.1772 60.9871 63.8471 60.6672L63.5514 61.8969ZM66.6429 62.8208C67.3609 63.0992 67.9649 63.5286 68.4628 64.1144L69.4265 63.2954C68.7921 62.5491 68.014 61.996 67.1001 61.6416L66.6429 62.8208ZM68.4688 64.1213C68.9251 64.6428 69.1865 65.3794 69.1865 66.4025H70.4512C70.4512 65.161 70.1298 64.0991 69.4205 63.2885L68.4688 64.1213ZM69.1865 66.4025C69.1865 67.2057 68.9598 67.9181 68.5042 68.5588L69.5349 69.2918C70.145 68.4338 70.4512 67.4644 70.4512 66.4025H69.1865ZM68.5082 68.5534C68.0521 69.1804 67.3999 69.6894 66.5213 70.0681L67.0219 71.2295C68.0749 70.7756 68.9213 70.1355 69.531 69.2972L68.5082 68.5534ZM66.5213 70.0681C65.6489 70.4441 64.6211 70.6409 63.4245 70.6409V71.9056C64.759 71.9056 65.9626 71.686 67.0219 71.2295L66.5213 70.0681Z" fill="white"/>
<mask id="mask1" mask-type="alpha" maskUnits="userSpaceOnUse" x="2" y="0" width="90" height="102">
<path d="M84.7206 101.957H9.27941C5.25911 101.957 2 98.6976 2 94.6773V7.32434C2 3.30403 5.2591 0.0449219 9.27941 0.0449219H58.25L92 33.7949V94.6773C92 98.6976 88.7409 101.957 84.7206 101.957Z" fill="url(#paint2_linear)"/>
</mask>
<g mask="url(#mask1)">
<ellipse opacity="0.05" cx="-2.7978" cy="-4.09214" rx="73.9522" ry="70.9743" fill="url(#paint3_linear)"/>
<ellipse opacity="0.07" cx="-2.79778" cy="-4.09203" rx="46.489" ry="44.5037" fill="url(#paint4_linear)"/>
</g>
<g filter="url(#filter2_d)">
<path d="M92 33.7949H65.2059C61.3643 33.7949 58.25 30.6807 58.25 26.839V0.0449219L92 33.7949Z" fill="url(#paint5_linear)"/>
</g>
</g>
</g>
<defs>
<filter id="filter0_d" x="0.735294" y="0" width="92.5294" height="104.484" filterUnits="userSpaceOnUse" color-interpolation-filters="sRGB">
<feFlood flood-opacity="0" result="BackgroundImageFix"/>
<feColorMatrix in="SourceAlpha" type="matrix" values="0 0 0 0 0 0 0 0 0 0 0 0 0 0 0 0 0 0 127 0" result="hardAlpha"/>
<feOffset dy="1.26471"/>
<feGaussianBlur stdDeviation="0.632353"/>
<feComposite in2="hardAlpha" operator="out"/>
<feColorMatrix type="matrix" values="0 0 0 0 0 0 0 0 0 0 0 0 0 0 0 0 0 0 0.25 0"/>
<feBlend mode="normal" in2="BackgroundImageFix" result="effect1_dropShadow"/>
<feBlend mode="normal" in="SourceGraphic" in2="effect1_dropShadow" result="shape"/>
</filter>
<filter id="filter1_f" x="5.55144" y="37.0148" width="83.5588" height="52.4559" filterUnits="userSpaceOnUse" color-interpolation-filters="sRGB">
<feFlood flood-opacity="0" result="BackgroundImageFix"/>
<feBlend mode="normal" in="SourceGraphic" in2="BackgroundImageFix" result="shape"/>
<feGaussianBlur stdDeviation="6.16544" result="effect1_foregroundBlur"/>
</filter>
<filter id="filter2_d" x="50.9779" y="-7.54331" width="49.5588" height="49.5588" filterUnits="userSpaceOnUse" color-interpolation-filters="sRGB">
<feFlood flood-opacity="0" result="BackgroundImageFix"/>
<feColorMatrix in="SourceAlpha" type="matrix" values="0 0 0 0 0 0 0 0 0 0 0 0 0 0 0 0 0 0 127 0" result="hardAlpha"/>
<feOffset dx="0.632353" dy="0.316176"/>
<feGaussianBlur stdDeviation="3.95221"/>
<feColorMatrix type="matrix" values="0 0 0 0 0 0 0 0 0 0 0 0 0 0 0 0 0 0 0.33 0"/>
<feBlend mode="normal" in2="BackgroundImageFix" result="effect1_dropShadow"/>
<feBlend mode="normal" in="SourceGraphic" in2="effect1_dropShadow" result="shape"/>
</filter>
<linearGradient id="paint0_linear" x1="47" y1="0.0429687" x2="47" y2="101.955" gradientUnits="userSpaceOnUse">
<stop stop-color="#FF7979"/>
<stop offset="1" stop-color="#E85555"/>
</linearGradient>
<linearGradient id="paint1_linear" x1="47" y1="0.0449219" x2="47" y2="101.957" gradientUnits="userSpaceOnUse">
<stop offset="0.000265127" stop-color="#83CC70"/>
<stop offset="1" stop-color="#61A850"/>
</linearGradient>
<linearGradient id="paint2_linear" x1="47" y1="0.0449219" x2="47" y2="101.957" gradientUnits="userSpaceOnUse">
<stop offset="0.000265127" stop-color="#83CC70"/>
<stop offset="1" stop-color="#61A850"/>
</linearGradient>
<linearGradient id="paint3_linear" x1="2.57167" y1="-1.65316" x2="24.9986" y2="57.8682" gradientUnits="userSpaceOnUse">
<stop stop-color="white" stop-opacity="0"/>
<stop offset="1" stop-color="white"/>
</linearGradient>
<linearGradient id="paint4_linear" x1="0.57766" y1="-2.56269" x2="14.6134" y2="34.7831" gradientUnits="userSpaceOnUse">
<stop stop-color="white" stop-opacity="0"/>
<stop offset="1" stop-color="white"/>
</linearGradient>
<linearGradient id="paint5_linear" x1="75.125" y1="0.0449219" x2="75.125" y2="33.7949" gradientUnits="userSpaceOnUse">
<stop stop-color="#3FAF43"/>
<stop offset="1" stop-color="#0E8312"/>
</linearGradient>
</defs>
</svg>
