<svg width="90" height="102" viewBox="0 0 90 102" fill="none" xmlns="http://www.w3.org/2000/svg">
<mask id="mask0" mask-type="alpha" maskUnits="userSpaceOnUse" x="0" y="0" width="90" height="102">
<path d="M82.7206 101.912H7.27941C3.2591 101.912 0 98.6527 0 94.6324V7.27941C0 3.25911 3.2591 0 7.27941 0H56.25L90 33.75V94.6324C90 98.6527 86.7409 101.912 82.7206 101.912Z" fill="url(#paint0_linear)"/>
</mask>
<g mask="url(#mask0)">
<path d="M82.7206 101.912H7.27941C3.2591 101.912 0 98.6527 0 94.6324V7.27941C0 3.25911 3.2591 0 7.27941 0H56.25L90 33.75V94.6324C90 98.6527 86.7409 101.912 82.7206 101.912Z" fill="url(#paint1_linear)"/>
<g opacity="0.2" filter="url(#filter0_f)">
<rect x="15.8821" y="49.3027" width="58.8971" height="27.7941" fill="#780AAF" style="mix-blend-mode:darken"/>
</g>
<path d="M26.4867 72.2401C25.2483 72.2401 24.0536 71.9785 22.9025 71.4553C21.7513 70.932 20.8095 70.1384 20.0769 69.0745C19.3444 67.9931 18.9781 66.6763 18.9781 65.124V54.7899C18.9781 54.4585 19.0915 54.1794 19.3182 53.9527C19.545 53.7085 19.824 53.5864 20.1554 53.5864C20.4868 53.5864 20.7659 53.7085 20.9926 53.9527C21.2368 54.1794 21.3589 54.4585 21.3589 54.7899V65.2025C21.3589 66.249 21.5943 67.1385 22.0653 67.871C22.5536 68.6036 23.1902 69.153 23.9751 69.5193C24.76 69.8855 25.5972 70.0687 26.4867 70.0687C27.3762 70.0687 28.2134 69.8855 28.9983 69.5193C29.7831 69.153 30.411 68.6036 30.882 67.871C31.3703 67.1385 31.6145 66.249 31.6145 65.2025V54.7899C31.6145 54.4585 31.7279 54.1794 31.9546 53.9527C32.1814 53.7085 32.4604 53.5864 32.7918 53.5864C33.1232 53.5864 33.4023 53.7085 33.629 53.9527C33.8732 54.1794 33.9953 54.4585 33.9953 54.7899V65.124C33.9953 66.6763 33.629 67.9931 32.8965 69.0745C32.1639 70.1384 31.2221 70.932 30.0709 71.4553C28.9198 71.9785 27.725 72.2401 26.4867 72.2401ZM41.9437 72.1093C41.6123 72.1093 41.3333 71.996 41.1065 71.7692C40.8798 71.5425 40.7664 71.2634 40.7664 70.932V54.9207C40.7664 54.5893 40.8798 54.3102 41.1065 54.0835C41.3333 53.8393 41.6123 53.7172 41.9437 53.7172H48.0396C50.4116 53.7172 52.1906 54.2056 53.3767 55.1823C54.5627 56.159 55.1557 57.441 55.1557 59.0282C55.1557 60.0747 54.8592 61.0339 54.2662 61.906C53.6906 62.7607 52.8447 63.3798 51.7284 63.7635C52.9842 64.0949 53.8389 64.8798 54.2924 66.1182C54.7633 67.3391 54.9987 68.5425 54.9987 69.7286V70.932C54.9987 71.2634 54.8854 71.5425 54.6586 71.7692C54.4319 71.996 54.1528 72.1093 53.8214 72.1093C53.4552 72.1093 53.1587 72.0047 52.9319 71.7954C52.7226 71.5686 52.618 71.2809 52.618 70.932V70.1472C52.618 69.2751 52.5395 68.4728 52.3825 67.7402C52.2255 66.9902 51.8505 66.3275 51.2575 65.7519C50.6645 65.1589 49.7663 64.8624 48.5628 64.8624H43.1472V70.932C43.1472 71.2634 43.0251 71.5425 42.7809 71.7692C42.5542 71.996 42.2751 72.1093 41.9437 72.1093ZM47.8826 62.6124C49.3826 62.6124 50.5686 62.3159 51.4407 61.7229C52.3302 61.1299 52.7749 60.2927 52.7749 59.2113C52.7749 58.1648 52.3912 57.3625 51.6238 56.8044C50.8738 56.2462 49.5831 55.9672 47.7518 55.9672H43.1472V62.6124H47.8826ZM62.8714 71.9785C62.4179 71.9785 62.0254 71.8215 61.694 71.5076C61.3801 71.1762 61.2231 70.7838 61.2231 70.3303V54.7899C61.2231 54.4585 61.3365 54.1794 61.5632 53.9527C61.79 53.7085 62.069 53.5864 62.4004 53.5864C62.7318 53.5864 63.0109 53.7085 63.2376 53.9527C63.4818 54.1794 63.6039 54.4585 63.6039 54.7899V69.5977H72.159C72.4904 69.5977 72.7694 69.7198 72.9962 69.964C73.2404 70.1908 73.3625 70.4698 73.3625 70.8012C73.3625 71.1326 73.2404 71.4117 72.9962 71.6384C72.7694 71.8651 72.4904 71.9785 72.159 71.9785H62.8714Z" fill="white"/>
<path d="M22.9025 71.4553L22.6284 72.0582L22.9025 71.4553ZM20.0769 69.0745L19.5285 69.446L19.5314 69.4501L20.0769 69.0745ZM19.3182 53.9527L19.7866 54.421L19.7952 54.4123L19.8036 54.4034L19.3182 53.9527ZM20.9926 53.9527L20.5072 54.4034L20.5239 54.4213L20.5419 54.438L20.9926 53.9527ZM22.0653 67.871L21.508 68.2292L21.5142 68.2384L22.0653 67.871ZM23.9751 69.5193L24.2552 68.9191L23.9751 69.5193ZM28.9983 69.5193L29.2784 70.1195L28.9983 69.5193ZM30.882 67.871L30.3308 67.5036L30.3248 67.5129L30.882 67.871ZM31.9546 53.9527L32.423 54.421L32.4316 54.4123L32.44 54.4034L31.9546 53.9527ZM33.629 53.9527L33.1437 54.4034L33.1603 54.4213L33.1783 54.438L33.629 53.9527ZM32.8965 69.0745L33.442 69.4501L33.4448 69.446L32.8965 69.0745ZM30.0709 71.4553L30.345 72.0582L30.0709 71.4553ZM26.4867 71.5778C25.3449 71.5778 24.2435 71.3373 23.1765 70.8523L22.6284 72.0582C23.8637 72.6198 25.1518 72.9025 26.4867 72.9025V71.5778ZM23.1765 70.8523C22.1373 70.3799 21.2884 69.666 20.6225 68.6989L19.5314 69.4501C20.3306 70.6108 21.3653 71.4841 22.6284 72.0582L23.1765 70.8523ZM20.6253 68.703C19.9801 67.7506 19.6404 66.5693 19.6404 65.124H18.3158C18.3158 66.7833 18.7086 68.2356 19.5286 69.446L20.6253 68.703ZM19.6404 65.124V54.7899H18.3158V65.124H19.6404ZM19.6404 54.7899C19.6404 54.6276 19.6886 54.519 19.7866 54.421L18.8499 53.4843C18.4943 53.8398 18.3158 54.2894 18.3158 54.7899H19.6404ZM19.8036 54.4034C19.9058 54.2933 20.0093 54.2487 20.1554 54.2487V52.9241C19.6387 52.9241 19.1841 53.1237 18.8329 53.502L19.8036 54.4034ZM20.1554 54.2487C20.3015 54.2487 20.405 54.2933 20.5072 54.4034L21.478 53.502C21.1267 53.1237 20.6721 52.9241 20.1554 52.9241V54.2487ZM20.5419 54.438C20.652 54.5402 20.6965 54.6438 20.6965 54.7899H22.0212C22.0212 54.2731 21.8216 53.8186 21.4433 53.4673L20.5419 54.438ZM20.6965 54.7899V65.2025H22.0212V54.7899H20.6965ZM20.6965 65.2025C20.6965 66.3501 20.9557 67.3699 21.5081 68.2292L22.6224 67.5129C22.2329 66.907 22.0212 66.1478 22.0212 65.2025H20.6965ZM21.5142 68.2384C22.0687 69.0702 22.7983 69.701 23.695 70.1195L24.2552 68.9191C23.5822 68.605 23.0386 68.137 22.6164 67.5036L21.5142 68.2384ZM23.695 70.1195C24.57 70.5278 25.5031 70.731 26.4867 70.731V69.4063C25.6913 69.4063 24.95 69.2433 24.2552 68.9191L23.695 70.1195ZM26.4867 70.731C27.4703 70.731 28.4034 70.5278 29.2784 70.1195L28.7182 68.9191C28.0234 69.2433 27.2821 69.4063 26.4867 69.4063V70.731ZM29.2784 70.1195C30.1772 69.7 30.9009 69.0664 31.4391 68.2292L30.3248 67.5129C29.9212 68.1408 29.389 68.606 28.7182 68.9191L29.2784 70.1195ZM31.4331 68.2384C32.0067 67.3779 32.2769 66.3546 32.2769 65.2025H30.9522C30.9522 66.1433 30.7339 66.899 30.3309 67.5036L31.4331 68.2384ZM32.2769 65.2025V54.7899H30.9522V65.2025H32.2769ZM32.2769 54.7899C32.2769 54.6276 32.325 54.519 32.423 54.421L31.4863 53.4843C31.1308 53.8398 30.9522 54.2894 30.9522 54.7899H32.2769ZM32.44 54.4034C32.5422 54.2933 32.6458 54.2487 32.7918 54.2487V52.9241C32.2751 52.9241 31.8205 53.1237 31.4693 53.502L32.44 54.4034ZM32.7918 54.2487C32.9379 54.2487 33.0414 54.2933 33.1437 54.4034L34.1144 53.502C33.7631 53.1237 33.3085 52.9241 32.7918 52.9241V54.2487ZM33.1783 54.438C33.2884 54.5402 33.3329 54.6438 33.3329 54.7899H34.6576C34.6576 54.2731 34.458 53.8186 34.0797 53.4673L33.1783 54.438ZM33.3329 54.7899V65.124H34.6576V54.7899H33.3329ZM33.3329 65.124C33.3329 66.5693 32.9933 67.7506 32.3481 68.703L33.4448 69.446C34.2647 68.2356 34.6576 66.7833 34.6576 65.124H33.3329ZM32.3509 68.6989C31.685 69.666 30.8361 70.3799 29.7969 70.8523L30.345 72.0582C31.6081 71.4841 32.6428 70.6108 33.442 69.4501L32.3509 68.6989ZM29.7969 70.8523C28.7299 71.3373 27.6285 71.5778 26.4867 71.5778V72.9025C27.8216 72.9025 29.1097 72.6198 30.345 72.0582L29.7969 70.8523ZM41.1065 71.7692L41.5749 71.3009L41.1065 71.7692ZM41.1065 54.0835L41.5749 54.5518L41.5835 54.5431L41.5919 54.5342L41.1065 54.0835ZM53.3767 55.1823L53.7977 54.671V54.671L53.3767 55.1823ZM54.2662 61.906L53.7185 61.5336L53.7168 61.536L54.2662 61.906ZM51.7284 63.7635L51.5131 63.1372L49.4485 63.8469L51.5594 64.404L51.7284 63.7635ZM54.2924 66.1182L53.6703 66.3459L53.6744 66.3565L54.2924 66.1182ZM54.6586 71.7692L55.127 72.2376L54.6586 71.7692ZM52.9319 71.7954L52.4452 72.2446L52.4632 72.2641L52.4827 72.2821L52.9319 71.7954ZM52.3825 67.7402L51.7342 67.8759L51.7349 67.879L52.3825 67.7402ZM51.2575 65.7519L50.7891 66.2203L50.7962 66.2272L51.2575 65.7519ZM43.1472 64.8624V64.2H42.4849V64.8624H43.1472ZM42.7809 71.7692L42.3302 71.2839L42.3213 71.2922L42.3126 71.3009L42.7809 71.7692ZM51.4407 61.7229L51.0732 61.1718L51.0682 61.1752L51.4407 61.7229ZM51.6238 56.8044L51.2283 57.3357L51.2342 57.34L51.6238 56.8044ZM43.1472 55.9672V55.3048H42.4849V55.9672H43.1472ZM43.1472 62.6124H42.4849V63.2747H43.1472V62.6124ZM41.9437 71.447C41.7814 71.447 41.6728 71.3988 41.5749 71.3009L40.6382 72.2376C40.9937 72.5931 41.4432 72.7717 41.9437 72.7717V71.447ZM41.5749 71.3009C41.4769 71.2029 41.4288 71.0943 41.4288 70.932H40.1041C40.1041 71.4325 40.2827 71.882 40.6382 72.2376L41.5749 71.3009ZM41.4288 70.932V54.9207H40.1041V70.932H41.4288ZM41.4288 54.9207C41.4288 54.7584 41.4769 54.6498 41.5749 54.5518L40.6382 53.6151C40.2827 53.9707 40.1041 54.4202 40.1041 54.9207H41.4288ZM41.5919 54.5342C41.6941 54.4241 41.7977 54.3795 41.9437 54.3795V53.0549C41.427 53.0549 40.9725 53.2545 40.6212 53.6328L41.5919 54.5342ZM41.9437 54.3795H48.0396V53.0549H41.9437V54.3795ZM48.0396 54.3795C50.3374 54.3795 51.9377 54.8552 52.9556 55.6936L53.7977 54.671C52.4436 53.5559 50.4858 53.0549 48.0396 53.0549V54.3795ZM52.9556 55.6936C53.9831 56.5398 54.4934 57.6313 54.4934 59.0282H55.8181C55.8181 57.2506 55.1423 55.7783 53.7977 54.671L52.9556 55.6936ZM54.4934 59.0282C54.4934 59.9407 54.2374 60.7704 53.7185 61.5336L54.8139 62.2785C55.481 61.2974 55.8181 60.2086 55.8181 59.0282H54.4934ZM53.7168 61.536C53.2332 62.2542 52.5138 62.7932 51.5131 63.1372L51.9438 64.3899C53.1756 63.9665 54.1481 63.2671 54.8156 62.276L53.7168 61.536ZM51.5594 64.404C52.6021 64.6791 53.29 65.3071 53.6704 66.3459L54.9143 65.8904C54.3877 64.4525 53.3664 63.5108 51.8974 63.1231L51.5594 64.404ZM53.6744 66.3565C54.119 67.5092 54.3364 68.632 54.3364 69.7286H55.6611C55.6611 68.453 55.4075 67.1689 54.9103 65.8798L53.6744 66.3565ZM54.3364 69.7286V70.932H55.6611V69.7286H54.3364ZM54.3364 70.932C54.3364 71.0943 54.2882 71.2029 54.1903 71.3009L55.127 72.2376C55.4825 71.882 55.6611 71.4325 55.6611 70.932H54.3364ZM54.1903 71.3009C54.0923 71.3988 53.9837 71.447 53.8214 71.447V72.7717C54.3219 72.7717 54.7714 72.5931 55.127 72.2376L54.1903 71.3009ZM53.8214 71.447C53.5886 71.447 53.4633 71.3845 53.3812 71.3087L52.4827 72.2821C52.854 72.6249 53.3217 72.7717 53.8214 72.7717V71.447ZM53.4186 71.3461C53.3372 71.2579 53.2803 71.1377 53.2803 70.932H51.9556C51.9556 71.424 52.1081 71.8794 52.4452 72.2446L53.4186 71.3461ZM53.2803 70.932V70.1472H51.9556V70.932H53.2803ZM53.2803 70.1472C53.2803 69.2358 53.1983 68.3863 53.0301 67.6014L51.7349 67.879C51.8806 68.5592 51.9556 69.3143 51.9556 70.1472H53.2803ZM53.0308 67.6045C52.8446 66.715 52.3988 65.9366 51.7188 65.2766L50.7962 66.2272C51.3022 66.7183 51.6064 67.2655 51.7342 67.8759L53.0308 67.6045ZM51.7259 65.2835C50.9632 64.5209 49.8651 64.2 48.5628 64.2V65.5247C49.6674 65.5247 50.3658 65.7969 50.7892 66.2202L51.7259 65.2835ZM48.5628 64.2H43.1472V65.5247H48.5628V64.2ZM42.4849 64.8624V70.932H43.8095V64.8624H42.4849ZM42.4849 70.932C42.4849 71.0781 42.4403 71.1817 42.3302 71.2839L43.2316 72.2546C43.6099 71.9033 43.8095 71.4487 43.8095 70.932H42.4849ZM42.3126 71.3009C42.2146 71.3988 42.106 71.447 41.9437 71.447V72.7717C42.4442 72.7717 42.8937 72.5931 43.2493 72.2376L42.3126 71.3009ZM47.8826 63.2747C49.4616 63.2747 50.7938 62.9637 51.8131 62.2706L51.0682 61.1752C50.3434 61.6681 49.3035 61.9501 47.8826 61.9501V63.2747ZM51.8081 62.274C52.8844 61.5564 53.4373 60.511 53.4373 59.2113H52.1126C52.1126 60.0743 51.776 60.7033 51.0733 61.1718L51.8081 62.274ZM53.4373 59.2113C53.4373 57.9782 52.9716 56.9656 52.0134 56.2687L51.2342 57.34C51.8108 57.7594 52.1126 58.3514 52.1126 59.2113H53.4373ZM52.0192 56.273C51.0882 55.5801 49.6102 55.3048 47.7518 55.3048V56.6295C49.556 56.6295 50.6595 56.9123 51.2284 57.3357L52.0192 56.273ZM47.7518 55.3048H43.1472V56.6295H47.7518V55.3048ZM42.4849 55.9672V62.6124H43.8095V55.9672H42.4849ZM43.1472 63.2747H47.8826V61.9501H43.1472V63.2747ZM61.694 71.5076L61.2132 71.9631L61.2255 71.9761L61.2385 71.9884L61.694 71.5076ZM61.5632 53.9527L62.0316 54.421L62.0402 54.4123L62.0486 54.4034L61.5632 53.9527ZM63.2376 53.9527L62.7523 54.4034L62.769 54.4213L62.7869 54.438L63.2376 53.9527ZM63.6039 69.5977H62.9416V70.2601H63.6039V69.5977ZM72.9962 69.964L72.5108 70.4147L72.5275 70.4327L72.5455 70.4494L72.9962 69.964ZM72.9962 71.6384L72.5455 71.153L72.5365 71.1614L72.5278 71.1701L72.9962 71.6384ZM62.8714 71.3162C62.5886 71.3162 62.3588 71.225 62.1496 71.0268L61.2385 71.9884C61.692 72.4181 62.2472 72.6409 62.8714 72.6409V71.3162ZM62.1749 71.0521C61.9766 70.8428 61.8855 70.613 61.8855 70.3303H60.5608C60.5608 70.9545 60.7836 71.5096 61.2132 71.9631L62.1749 71.0521ZM61.8855 70.3303V54.7899H60.5608V70.3303H61.8855ZM61.8855 54.7899C61.8855 54.6276 61.9336 54.519 62.0316 54.421L61.0949 53.4843C60.7394 53.8398 60.5608 54.2894 60.5608 54.7899H61.8855ZM62.0486 54.4034C62.1508 54.2933 62.2544 54.2487 62.4004 54.2487V52.9241C61.8837 52.9241 61.4292 53.1237 61.0779 53.502L62.0486 54.4034ZM62.4004 54.2487C62.5465 54.2487 62.6501 54.2933 62.7523 54.4034L63.723 53.502C63.3717 53.1237 62.9172 52.9241 62.4004 52.9241V54.2487ZM62.7869 54.438C62.897 54.5402 62.9416 54.6438 62.9416 54.7899H64.2662C64.2662 54.2731 64.0666 53.8186 63.6883 53.4673L62.7869 54.438ZM62.9416 54.7899V69.5977H64.2662V54.7899H62.9416ZM63.6039 70.2601H72.159V68.9354H63.6039V70.2601ZM72.159 70.2601C72.305 70.2601 72.4086 70.3046 72.5108 70.4147L73.4815 69.5133C73.1303 69.135 72.6757 68.9354 72.159 68.9354V70.2601ZM72.5455 70.4494C72.6556 70.5516 72.7001 70.6552 72.7001 70.8012H74.0248C74.0248 70.2845 73.8252 69.8299 73.4469 69.4787L72.5455 70.4494ZM72.7001 70.8012C72.7001 70.9473 72.6556 71.0508 72.5455 71.153L73.4469 72.1238C73.8252 71.7725 74.0248 71.3179 74.0248 70.8012H72.7001ZM72.5278 71.1701C72.4299 71.268 72.3213 71.3162 72.159 71.3162V72.6409C72.6595 72.6409 73.109 72.4623 73.4645 72.1067L72.5278 71.1701ZM72.159 71.3162H62.8714V72.6409H72.159V71.3162Z" fill="white"/>
<ellipse opacity="0.05" cx="-4.79779" cy="-4.13511" rx="73.9522" ry="70.9743" fill="url(#paint2_linear)"/>
<ellipse opacity="0.05" cx="-4.79765" cy="-4.13499" rx="46.489" ry="44.5037" fill="url(#paint3_linear)"/>
<g filter="url(#filter1_d)">
<path d="M90 33.75H63.5357C59.5119 33.75 56.25 30.4881 56.25 26.4643V0L90 33.75Z" fill="url(#paint4_linear)"/>
</g>
</g>
<defs>
<filter id="filter0_f" x="2.9665" y="36.3871" width="84.7282" height="53.6253" filterUnits="userSpaceOnUse" color-interpolation-filters="sRGB">
<feFlood flood-opacity="0" result="BackgroundImageFix"/>
<feBlend mode="normal" in="SourceGraphic" in2="BackgroundImageFix" result="shape"/>
<feGaussianBlur stdDeviation="6.45779" result="effect1_foregroundBlur"/>
</filter>
<filter id="filter1_d" x="48.6331" y="-7.94805" width="50.3084" height="50.3084" filterUnits="userSpaceOnUse" color-interpolation-filters="sRGB">
<feFlood flood-opacity="0" result="BackgroundImageFix"/>
<feColorMatrix in="SourceAlpha" type="matrix" values="0 0 0 0 0 0 0 0 0 0 0 0 0 0 0 0 0 0 127 0" result="hardAlpha"/>
<feOffset dx="0.662338" dy="0.331169"/>
<feGaussianBlur stdDeviation="4.13961"/>
<feColorMatrix type="matrix" values="0 0 0 0 0 0 0 0 0 0 0 0 0 0 0 0 0 0 0.33 0"/>
<feBlend mode="normal" in2="BackgroundImageFix" result="effect1_dropShadow"/>
<feBlend mode="normal" in="SourceGraphic" in2="effect1_dropShadow" result="shape"/>
</filter>
<linearGradient id="paint0_linear" x1="45" y1="0" x2="45" y2="101.912" gradientUnits="userSpaceOnUse">
<stop stop-color="#FF7979"/>
<stop offset="1" stop-color="#E85555"/>
</linearGradient>
<linearGradient id="paint1_linear" x1="45" y1="0" x2="45" y2="101.912" gradientUnits="userSpaceOnUse">
<stop stop-color="#CB74F4"/>
<stop offset="0.942892" stop-color="#A849F3"/>
</linearGradient>
<linearGradient id="paint2_linear" x1="0.571675" y1="-1.69613" x2="22.9986" y2="57.8252" gradientUnits="userSpaceOnUse">
<stop stop-color="white" stop-opacity="0"/>
<stop offset="1" stop-color="white"/>
</linearGradient>
<linearGradient id="paint3_linear" x1="-1.42221" y1="-2.60566" x2="12.6135" y2="34.7401" gradientUnits="userSpaceOnUse">
<stop stop-color="white" stop-opacity="0"/>
<stop offset="1" stop-color="white"/>
</linearGradient>
<linearGradient id="paint4_linear" x1="73.125" y1="0" x2="73.125" y2="33.75" gradientUnits="userSpaceOnUse">
<stop stop-color="#B051E0"/>
<stop offset="1" stop-color="#952BCB"/>
</linearGradient>
</defs>
</svg>
