<svg width="225" height="115" viewBox="0 0 225 115" fill="none" xmlns="http://www.w3.org/2000/svg">
<path d="M84.4926 48.535C81.7286 48.535 80.3466 47.1084 80.3466 44.2553V4.53414C80.3466 1.72557 81.7286 0.321289 84.4926 0.321289C87.3011 0.321289 88.7054 1.72557 88.7054 4.53414V20.0481C89.8199 18.2649 91.3134 16.9275 93.1858 16.0359C95.0581 15.0997 97.1311 14.6316 99.4047 14.6316C107.117 14.6316 110.973 19.1119 110.973 28.0726V44.2553C110.973 47.1084 109.591 48.535 106.827 48.535C104.019 48.535 102.615 47.1084 102.615 44.2553V28.4738C102.615 25.9327 102.124 24.0826 101.143 22.9235C100.207 21.7645 98.736 21.1849 96.7299 21.1849C94.278 21.1849 92.3164 21.9651 90.8453 23.5254C89.4187 25.0411 88.7054 27.0695 88.7054 29.6106V44.2553C88.7054 47.1084 87.3011 48.535 84.4926 48.535Z" fill="#1F2C41"/>
<path d="M134.242 48.6687C130.542 48.6687 127.354 47.9777 124.679 46.5957C122.004 45.2137 119.931 43.2522 118.46 40.7111C117.034 38.17 116.32 35.1609 116.32 31.6836C116.32 28.2955 117.011 25.3309 118.393 22.7898C119.82 20.2487 121.759 18.2649 124.211 16.8383C126.708 15.3672 129.538 14.6316 132.704 14.6316C137.34 14.6316 140.996 16.1028 143.67 19.0451C146.39 21.9874 147.75 25.9996 147.75 31.0818C147.75 32.7312 146.68 33.556 144.54 33.556H124.345C124.969 39.396 128.312 42.316 134.375 42.316C135.535 42.316 136.827 42.1823 138.254 41.9148C139.725 41.6027 141.107 41.0901 142.4 40.3768C143.559 39.7081 144.54 39.5075 145.342 39.7749C146.145 39.9978 146.702 40.4659 147.014 41.1792C147.371 41.8925 147.415 42.695 147.148 43.5866C146.925 44.4336 146.301 45.1692 145.275 45.7933C143.715 46.7741 141.91 47.5096 139.859 48C137.853 48.4458 135.98 48.6687 134.242 48.6687ZM133.038 20.3156C130.586 20.3156 128.602 21.0735 127.087 22.5892C125.571 24.1049 124.657 26.1556 124.345 28.7413H140.795C140.617 26.0219 139.859 23.9489 138.521 22.5223C137.229 21.0512 135.401 20.3156 133.038 20.3156Z" fill="#1F2C41"/>
<path d="M164.199 48.6687C156.754 48.6687 153.032 44.5005 153.032 36.1639V4.53414C153.032 1.72557 154.414 0.321289 157.178 0.321289C159.986 0.321289 161.391 1.72557 161.391 4.53414V35.7627C161.391 39.7749 163.062 41.7811 166.406 41.7811C166.763 41.7811 167.097 41.7811 167.409 41.7811C167.721 41.7365 168.033 41.6919 168.345 41.6473C168.969 41.5582 169.393 41.7365 169.616 42.1823C169.839 42.5835 169.95 43.4305 169.95 44.7234C169.95 45.8379 169.727 46.7072 169.281 47.3313C168.836 47.9554 168.1 48.3344 167.075 48.4681C166.138 48.6019 165.18 48.6687 164.199 48.6687Z" fill="#1F2C41"/>
<path d="M184.216 48.6687C176.771 48.6687 173.049 44.5005 173.049 36.1639V4.53414C173.049 1.72557 174.431 0.321289 177.195 0.321289C180.003 0.321289 181.407 1.72557 181.407 4.53414V35.7627C181.407 39.7749 183.079 41.7811 186.423 41.7811C186.779 41.7811 187.114 41.7811 187.426 41.7811C187.738 41.7365 188.05 41.6919 188.362 41.6473C188.986 41.5582 189.41 41.7365 189.632 42.1823C189.855 42.5835 189.967 43.4305 189.967 44.7234C189.967 45.8379 189.744 46.7072 189.298 47.3313C188.852 47.9554 188.117 48.3344 187.091 48.4681C186.155 48.6019 185.197 48.6687 184.216 48.6687Z" fill="#1F2C41"/>
<path d="M207.651 48.6687C204.263 48.6687 201.321 47.9777 198.824 46.5957C196.328 45.2137 194.388 43.2522 193.006 40.7111C191.624 38.1255 190.933 35.094 190.933 31.6167C190.933 28.1395 191.624 25.1303 193.006 22.5892C194.388 20.0481 196.328 18.0866 198.824 16.7046C201.321 15.3226 204.263 14.6316 207.651 14.6316C211.039 14.6316 213.981 15.3226 216.478 16.7046C218.974 18.0866 220.914 20.0481 222.296 22.5892C223.678 25.1303 224.369 28.1395 224.369 31.6167C224.369 35.094 223.678 38.1255 222.296 40.7111C220.914 43.2522 218.974 45.2137 216.478 46.5957C213.981 47.9777 211.039 48.6687 207.651 48.6687ZM207.651 42.316C210.147 42.316 212.154 41.4244 213.669 39.6412C215.185 37.8134 215.943 35.1386 215.943 31.6167C215.943 28.0503 215.185 25.3978 213.669 23.6591C212.154 21.8759 210.147 20.9843 207.651 20.9843C205.154 20.9843 203.148 21.8759 201.633 23.6591C200.117 25.3978 199.359 28.0503 199.359 31.6167C199.359 35.1386 200.117 37.8134 201.633 39.6412C203.148 41.4244 205.154 42.316 207.651 42.316Z" fill="#1F2C41"/>
<path d="M2.55639 102.401C1.17439 102.401 0.483398 101.71 0.483398 100.328V71.2396C0.483398 69.813 1.17439 69.0997 2.55639 69.0997C3.84922 69.0997 4.49563 69.813 4.49563 71.2396V75.2518C6.50175 71.0612 9.91215 68.966 14.7268 68.966C19.8982 68.966 23.1748 71.2173 24.5568 75.7199C25.493 73.6246 26.9196 71.9751 28.8365 70.7715C30.7535 69.5678 32.9825 68.966 35.5236 68.966C42.701 68.966 46.2898 73.1565 46.2898 81.5376V100.328C46.2898 101.71 45.5988 102.401 44.2168 102.401C42.8794 102.401 42.2106 101.71 42.2106 100.328V81.872C42.2106 78.6622 41.6311 76.2994 40.472 74.7837C39.3575 73.268 37.4628 72.5101 34.788 72.5101C31.9349 72.5101 29.6613 73.5132 27.9672 75.5193C26.2732 77.4808 25.4261 80.1556 25.4261 83.5437V100.328C25.4261 101.71 24.7574 102.401 23.42 102.401C22.038 102.401 21.347 101.71 21.347 100.328V81.872C21.347 78.6622 20.7675 76.2994 19.6084 74.7837C18.4939 73.268 16.6215 72.5101 13.9913 72.5101C11.0935 72.5101 8.79764 73.5132 7.10359 75.5193C5.40953 77.4808 4.5625 80.1556 4.5625 83.5437V100.328C4.5625 101.71 3.8938 102.401 2.55639 102.401Z" fill="#1F2C41"/>
<path d="M68.5362 102.535C65.5048 102.535 62.8745 101.866 60.6455 100.529C58.4165 99.1469 56.6779 97.2076 55.4296 94.7111C54.2259 92.17 53.6241 89.1832 53.6241 85.7505C53.6241 82.3624 54.2259 79.4201 55.4296 76.9236C56.6779 74.3825 58.4165 72.4209 60.6455 71.0389C62.8745 69.657 65.5048 68.966 68.5362 68.966C71.6123 68.966 74.2648 69.657 76.4938 71.0389C78.7229 72.4209 80.4392 74.3825 81.6429 76.9236C82.8911 79.4201 83.5153 82.3624 83.5153 85.7505C83.5153 89.1832 82.8911 92.17 81.6429 94.7111C80.4392 97.2076 78.7229 99.1469 76.4938 100.529C74.2648 101.866 71.6123 102.535 68.5362 102.535ZM68.5362 99.1246C71.8352 99.1246 74.4654 97.9655 76.427 95.6473C78.3885 93.2846 79.3693 89.9856 79.3693 85.7505C79.3693 81.5153 78.3885 78.2387 76.427 75.9205C74.4654 73.6023 71.8352 72.4432 68.5362 72.4432C65.2373 72.4432 62.607 73.6023 60.6455 75.9205C58.7286 78.2387 57.7701 81.5153 57.7701 85.7505C57.7701 89.9856 58.7286 93.2846 60.6455 95.6473C62.607 97.9655 65.2373 99.1246 68.5362 99.1246Z" fill="#1F2C41"/>
<path d="M92.9356 102.401C91.5536 102.401 90.8627 101.71 90.8627 100.328V71.2396C90.8627 69.813 91.5536 69.0997 92.9356 69.0997C94.2285 69.0997 94.8749 69.813 94.8749 71.2396V75.3855C95.9448 73.2457 97.4828 71.6408 99.489 70.5708C101.495 69.5009 103.724 68.966 106.176 68.966C113.888 68.966 117.745 73.1565 117.745 81.5376V100.328C117.745 101.71 117.076 102.401 115.739 102.401C114.357 102.401 113.666 101.71 113.666 100.328V81.872C113.666 78.6622 113.019 76.2994 111.726 74.7837C110.433 73.268 108.383 72.5101 105.574 72.5101C102.364 72.5101 99.7787 73.5132 97.8172 75.5193C95.9002 77.4808 94.9418 80.1333 94.9418 83.4769V100.328C94.9418 101.71 94.2731 102.401 92.9356 102.401Z" fill="#1F2C41"/>
<path d="M139.315 102.535C136.373 102.535 133.832 101.866 131.692 100.529C129.552 99.1469 127.88 97.2076 126.677 94.7111C125.517 92.17 124.938 89.1832 124.938 85.7505C124.938 80.6237 126.231 76.5446 128.816 73.5132C131.402 70.4817 134.902 68.966 139.315 68.966C141.901 68.966 144.174 69.5678 146.136 70.7715C148.142 71.9305 149.635 73.5354 150.616 75.5861V56.528C150.616 55.146 151.285 54.455 152.622 54.455C154.004 54.455 154.695 55.146 154.695 56.528V100.328C154.695 101.71 154.027 102.401 152.689 102.401C151.307 102.401 150.616 101.71 150.616 100.328V95.9148C149.635 97.9655 148.142 99.5927 146.136 100.796C144.174 101.955 141.901 102.535 139.315 102.535ZM139.85 99.1246C143.149 99.1246 145.779 97.9655 147.741 95.6473C149.702 93.2846 150.683 89.9856 150.683 85.7505C150.683 81.5153 149.702 78.2387 147.741 75.9205C145.779 73.6023 143.149 72.4432 139.85 72.4432C136.551 72.4432 133.921 73.6023 131.959 75.9205C130.042 78.2387 129.084 81.5153 129.084 85.7505C129.084 89.9856 130.042 93.2846 131.959 95.6473C133.921 97.9655 136.551 99.1246 139.85 99.1246Z" fill="#1F2C41"/>
<path d="M174.101 102.535C171.916 102.535 169.955 102.111 168.216 101.264C166.522 100.417 165.163 99.2583 164.137 97.7872C163.156 96.316 162.666 94.6665 162.666 92.8388C162.666 90.4314 163.268 88.559 164.472 87.2216C165.675 85.8396 167.704 84.8589 170.557 84.2793C173.41 83.6998 177.333 83.41 182.326 83.41H184.399V81.0027C184.399 78.0158 183.797 75.8536 182.593 74.5162C181.39 73.1342 179.473 72.4432 176.843 72.4432C175.149 72.4432 173.499 72.6661 171.894 73.1119C170.289 73.5577 168.617 74.271 166.879 75.2518C166.076 75.6976 165.43 75.7199 164.94 75.3187C164.494 74.8729 164.271 74.3156 164.271 73.6469C164.315 72.9336 164.694 72.3986 165.408 72.042C167.235 71.0166 169.13 70.2588 171.092 69.7684C173.053 69.2334 174.948 68.966 176.776 68.966C180.699 68.966 183.596 69.969 185.469 71.9751C187.386 73.9812 188.344 77.0573 188.344 81.2033V100.328C188.344 101.71 187.72 102.401 186.472 102.401C185.135 102.401 184.466 101.71 184.466 100.328V96.1823C183.574 98.1884 182.214 99.7487 180.387 100.863C178.603 101.978 176.508 102.535 174.101 102.535ZM174.636 99.2583C176.553 99.2583 178.225 98.8125 179.651 97.9209C181.122 96.9847 182.281 95.7142 183.128 94.1093C183.975 92.5044 184.399 90.6766 184.399 88.6259V86.4192H182.393C178.381 86.4192 175.238 86.5975 172.964 86.9541C170.735 87.3108 169.175 87.9349 168.283 88.8265C167.392 89.7181 166.946 90.9441 166.946 92.5044C166.946 94.5105 167.637 96.1377 169.019 97.386C170.401 98.6342 172.273 99.2583 174.636 99.2583Z" fill="#1F2C41"/>
<path d="M204.164 114.438C203.317 114.438 202.76 114.126 202.493 113.502C202.27 112.922 202.314 112.231 202.626 111.429L206.839 101.866L194.134 72.1757C193.777 71.3733 193.755 70.66 194.067 70.0359C194.379 69.4118 195.003 69.0997 195.939 69.0997C196.876 69.0997 197.567 69.657 198.012 70.7715L209.046 97.5197L220.146 70.7715C220.414 70.1473 220.704 69.7238 221.016 69.5009C221.328 69.2334 221.774 69.0997 222.353 69.0997C223.2 69.0997 223.735 69.4118 223.958 70.0359C224.226 70.66 224.203 71.351 223.891 72.1089L206.438 112.833C205.903 113.903 205.145 114.438 204.164 114.438Z" fill="#1F2C41"/>
<path d="M50.4963 48.6325C52.8981 49.478 55.6645 48.8755 56.9897 46.7013C59.8264 42.0471 61.4606 36.5796 61.4606 30.7303C61.4606 13.7584 47.7022 0 30.7303 0C13.7584 0 0 13.7584 0 30.7303C0 36.5796 1.63425 42.0473 4.47107 46.7015C5.79628 48.8757 8.56268 49.4781 10.9644 48.6326C17.1489 46.4554 23.8014 45.2711 30.7305 45.2711C37.6595 45.2711 44.3119 46.4554 50.4963 48.6325Z" fill="#FFBA49"/>
</svg>
